<svg xmlns="http://www.w3.org/2000/svg" viewBox="0 0 116 116"><defs><style>.cls-1{fill:#b2dfd1;stroke:#454545;stroke-miterlimit:10;stroke-width:0.5px;}.cls-2{fill:#454545;}</style></defs><title>Asset 1</title><g id="Layer_2" data-name="Layer 2"><g id="Layer_1-2" data-name="Layer 1"><circle class="cls-1" cx="58" cy="58" r="57.75"/><path class="cls-2" d="M109.06,55.32c-.09-5.61-.45-10-.84-10s-.65,4.28-.64,9.77l-.24,0c-1.64-.86-12-1.62-15.66-2-1.77-3.13-6-3.85-6-3.85s-.32-3-3.17-2.68c-1,.11-10,.75-12.81,1s-10.63,6.31-10.63,6.31l1.27-1.89a35.56,35.56,0,0,0-5,2.67s-17.73.55-25.19-.71c-2.67-.45-10.17-9.15-11.72-10.66s-2.07-1.61-3.51-1.59l-8.24.08c1.81,4.19,5.52,12.8,6.65,15.4l3,0-3.47,1c-.4.29-.75.71-.35,1.14,4.24,4.56,48.35,7.17,60.72,8.12l.41,4.27A3.32,3.32,0,0,0,71,75a3.37,3.37,0,0,0,6.73-.07,3.33,3.33,0,0,0-2.41-3.14l0-4.14.45,0a137.76,137.76,0,0,0,20.9-1l.42,1.88a2,2,0,0,0-1.38,1.88,2,2,0,1,0,4,0,2,2,0,0,0-1.57-1.88l-.56-2a29.88,29.88,0,0,0,5.89-1.19,17.07,17.07,0,0,0,3.69-6.21h.16l.24,0c.08,5.89.45,10.58.85,10.58s.68-4.83.64-10.83a9.46,9.46,0,0,0,3.35-1.79A9.51,9.51,0,0,0,109.06,55.32Zm-37.89.21a.91.91,0,0,1-1,1c-.49,0-6.95,0-8-.11s-.21-1.91.12-2.52a2,2,0,0,1,1.8-1.17c1.41-.23,5-.25,6-.37s1.11.25,1.15,1C71.24,53.72,71.16,54.75,71.16,55.53Zm4.57,19.41a1.33,1.33,0,1,1-1.34-1.32A1.33,1.33,0,0,1,75.74,74.95Zm-1.8-18.33a1,1,0,0,1-1-1.14l0-2.34c0-.73.47-1,1.17-1l8.14-.45.52,4.9S75.2,56.66,73.94,56.61ZM91,54.3c-1.82,2.27-5.14,2.2-6.12,2.2l-.76-5.44A1.51,1.51,0,0,0,85.31,50h0l.18,0s4,.72,5.68,3.62A.7.7,0,0,1,91,54.3Zm6.75,15.29a.79.79,0,1,1-.78.79A.79.79,0,0,1,97.77,69.58Z"/></g></g></svg>