<?xml version="1.0" standalone="no"?>
<!DOCTYPE svg PUBLIC "-//W3C//DTD SVG 20010904//EN"
 "http://www.w3.org/TR/2001/REC-SVG-20010904/DTD/svg10.dtd">
<svg version="1.0" xmlns="http://www.w3.org/2000/svg"
 width="700.000000pt" height="700.000000pt" viewBox="0 0 700.000000 700.000000"
 preserveAspectRatio="xMidYMid meet">
<metadata>
Created by potrace 1.11, written by Peter Selinger 2001-2013
</metadata>
<g transform="translate(0.000000,700.000000) scale(0.100000,-0.100000)"
fill="#000000" stroke="none">
<path d="M3298 6995 c-2 -1 -41 -5 -88 -9 -198 -13 -423 -53 -636 -111 -99
-27 -325 -104 -391 -132 -21 -9 -40 -17 -43 -18 -16 -5 -72 -30 -167 -76 -396
-192 -755 -460 -1058 -792 -91 -100 -98 -107 -179 -212 -331 -424 -577 -966
-672 -1480 -9 -49 -17 -97 -19 -105 -2 -9 -6 -43 -10 -75 -4 -33 -9 -69 -11
-80 -18 -98 -25 -569 -10 -715 8 -81 24 -207 32 -255 3 -16 7 -39 8 -50 2 -11
6 -33 10 -50 3 -16 8 -39 10 -51 27 -143 119 -450 167 -559 4 -11 17 -43 28
-71 11 -28 45 -105 77 -169 50 -104 74 -149 144 -270 42 -73 139 -218 204
-305 383 -512 901 -913 1493 -1154 110 -45 335 -120 428 -142 85 -20 154 -37
170 -40 101 -20 186 -35 238 -40 34 -3 65 -8 68 -9 15 -10 227 -20 409 -20
188 0 341 8 430 21 144 21 295 48 345 61 33 8 67 16 75 18 100 20 358 107 513
172 117 49 344 162 388 194 15 10 30 19 34 19 13 0 268 174 363 248 164 127
390 342 497 472 21 25 41 47 44 50 4 3 45 55 91 115 332 437 547 915 654 1456
14 70 28 155 32 190 3 35 8 67 10 70 9 17 19 214 18 399 0 188 -6 331 -19 420
-3 19 -7 56 -10 81 -3 25 -7 54 -9 65 -2 10 -11 60 -21 109 -94 506 -315 1007
-629 1425 -513 685 -1256 1160 -2084 1335 -97 20 -242 43 -392 60 -54 7 -526
16 -532 10z"/>
</g>
</svg>
