<svg xmlns="http://www.w3.org/2000/svg" viewBox="0 0 104.41 103.69"><defs><style>.cls-1{fill:none;stroke:#0a58a5;stroke-miterlimit:10;stroke-width:4px;}</style></defs><title>Asset 14</title><g id="Layer_2" data-name="Layer 2"><g id="Layer_1-2" data-name="Layer 1"><path class="cls-1" d="M102.41,87.52a1.53,1.53,0,0,0-.45-1.14L64.39,48l1.7-1.52a42.09,42.09,0,0,0,5.26-6.08L64.85,33.8a64,64,0,0,0-6.59,5c-.22.21-.74.71-1.51,1.47L19.76,2.5a1.67,1.67,0,0,0-2.32-.05L13.6,6l-3,2.79a1.58,1.58,0,0,0-.05,2.26L31.44,32.39a2.09,2.09,0,0,1,0,3.13c-.34.33-1.73,1.63-1.73,1.63L44.6,52.37c-8.62,8.62-19,19-24,24L6,69.37l-.21.21L18.39,82.41c-.19.17-.37.33-.56.52-3.35,3.13-5.82,5.91-5.51,6.23s3.27-2,6.62-5.08c.2-.17.38-.38.56-.54L32,96.33l.2-.21L25.73,81.61C31,77,42.17,67.39,51.44,59.34L66.92,75.13l1.74-1.62a2.22,2.22,0,0,1,3.21.12L92.75,94.94a1.67,1.67,0,0,0,2.32.05l3-2.79,3.84-3.58a1.56,1.56,0,0,0,.51-1.12Zm-7.7,10.86a1.53,1.53,0,0,0-.45-1.14L71.47,74a1.67,1.67,0,0,0-2.32-.05l-1.87,1.74a1.56,1.56,0,0,0-.05,2.26L90,101.18a1.66,1.66,0,0,0,2.32.05l1.87-1.73a1.56,1.56,0,0,0,.51-1.12ZM84.22,42.85c.18-.17-1.77-2.44-4.34-5.07a47.47,47.47,0,0,0-4.55-4.23h0l-1-1.07h0c.52-.48.68-1.13.38-1.45s-1-.19-1.5.31h0l-1-1.08a51.57,51.57,0,0,0-4-4.5c-2.58-2.63-4.82-4.63-5-4.46s1.76,2.45,4.34,5.09a51.74,51.74,0,0,0,4.42,4.13l1,1.07-.5.46s-.05.08-.09.08l-2.46-2.5a1.67,1.67,0,0,0-2.32-.05l-1.94,1.83a1.58,1.58,0,0,0-.05,2.26l6,6.09a1.67,1.67,0,0,0,2.32.05l2-1.82a1.59,1.59,0,0,0,.05-2.28L73.4,33.26s.08,0,.11-.08l.5-.46,1,1.07h0a48.07,48.07,0,0,0,4.13,4.63C81.76,41,84,43,84.19,42.86Zm-52.07,55a1.56,1.56,0,0,0-.46-1.15l-10.78-11a1.67,1.67,0,0,0-2.32-.05s.16,4,.78,4.62l9.2,9.38a1.66,1.66,0,0,0,2.31.05l.76-.72A1.55,1.55,0,0,0,32.15,97.83ZM31.54,33.9a1.53,1.53,0,0,0-.45-1.14L8.3,9.5A1.67,1.67,0,0,0,6,9.45L4.11,11.19a1.57,1.57,0,0,0-.05,2.26L26.84,36.71a1.67,1.67,0,0,0,2.32.05L31,35a1.57,1.57,0,0,0,.51-1.13ZM16.84,82.2a1.55,1.55,0,0,0-.45-1.14L5.59,70A1.66,1.66,0,0,0,3.28,70l-.77.71A1.57,1.57,0,0,0,2.46,73l9.19,9.38c.63.64,4.68,1,4.68,1a1.58,1.58,0,0,0,.51-1.12Z"/></g></g></svg>