<svg xmlns="http://www.w3.org/2000/svg" viewBox="0 0 60 60"><defs><style>.cls-1{fill:#0957a5;}</style></defs><title>Asset 4</title><g id="Layer_2" data-name="Layer 2"><g id="Layer_1-2" data-name="Layer 1"><path class="cls-1" d="M33.59,29.28c-.11-.64-.54-1.75-1.22-2l3.51-4.72a1.1,1.1,0,1,1,1.81,1.25ZM28.95,10.66l.08,16a4,4,0,0,1,2.22,0l-.08-16a1.1,1.1,0,0,0-1.06-1.1C29.33,9.58,28.9,10,28.95,10.66ZM60,30A30,30,0,1,1,30,0,30,30,0,0,1,60,30Zm-3.9,0A26.1,26.1,0,1,0,30,56.1,26.12,26.12,0,0,0,56.1,30ZM32.6,30A2.6,2.6,0,1,1,30,27.4,2.65,2.65,0,0,1,32.6,30Zm-1.3,0A1.3,1.3,0,1,0,30,31.3,1.32,1.32,0,0,0,31.3,30Zm0-24.5H28.7v6.1h2.6Zm-2.6,49h2.6V48.4H28.7ZM5.5,31.3h6.1V28.7H5.5Zm43-2.6v2.6h6.1V28.7Z"/></g></g></svg>