<svg xmlns="http://www.w3.org/2000/svg" viewBox="0 0 139.39 93.46"><defs><style>.cls-1,.cls-2{fill:none;stroke:#0a58a5;stroke-miterlimit:10;}.cls-1{stroke-width:2px;}.cls-2{stroke-width:3px;}</style></defs><title>Asset 6</title><g id="Layer_2" data-name="Layer 2"><g id="Layer_1-2" data-name="Layer 1"><path class="cls-1" d="M33.81,56.51l2.77-4.23,2.93-1.63a.52.52,0,0,0-.33-1H1.57c-.49,0-.81.81-.33,1l2.93,1.63,2.77,4.23a2,2,0,0,0,1.63.81H32.18A1.43,1.43,0,0,0,33.81,56.51Z"/><path class="cls-1" d="M14.76,45.44l.49.49a.91.91,0,0,0,1,.16c.33-.16.49-.49.33-.65h0a2,2,0,0,1-.33-.49,7.94,7.94,0,0,1-.49-1.14,2.26,2.26,0,0,1,0-1.47,15.85,15.85,0,0,1,.81-1.79,20.77,20.77,0,0,0,1.14-2,2.42,2.42,0,0,0,0-2.12,2.57,2.57,0,0,0-.81-1.3l-.49-.49c-.16-.16-.65-.16-1-.16-.33.16-.49.49-.33.65h0a.57.57,0,0,1,.16.33,1.75,1.75,0,0,1,.33,1,2.3,2.3,0,0,1-.16,1.47,8,8,0,0,1-1.14,1.79,4.8,4.8,0,0,0-.81,2.12,2.53,2.53,0,0,0,.33,2A3.48,3.48,0,0,0,14.76,45.44Z"/><path class="cls-1" d="M19.48,45.44l.49.49a.91.91,0,0,0,1,.16c.33-.16.49-.49.33-.65h0a2,2,0,0,1-.33-.49,7.94,7.94,0,0,1-.49-1.14,2.26,2.26,0,0,1,0-1.47,15.85,15.85,0,0,1,.81-1.79,20.77,20.77,0,0,0,1.14-2,2.42,2.42,0,0,0,0-2.12,2.57,2.57,0,0,0-.81-1.3l-.49-.49c-.16-.16-.65-.16-1-.16-.33.16-.49.49-.33.65h0a.57.57,0,0,1,.16.33,1.75,1.75,0,0,1,.33,1,2.3,2.3,0,0,1-.16,1.47A8,8,0,0,1,19,39.74a4.8,4.8,0,0,0-.81,2.12,2.53,2.53,0,0,0,.33,2A5.8,5.8,0,0,0,19.48,45.44Z"/><path class="cls-1" d="M24.37,45.44l.49.49a.91.91,0,0,0,1,.16c.33-.16.49-.49.33-.65h0a2,2,0,0,1-.33-.49,7.94,7.94,0,0,1-.49-1.14,2.26,2.26,0,0,1,0-1.47,15.85,15.85,0,0,1,.81-1.79,20.77,20.77,0,0,0,1.14-2,2.42,2.42,0,0,0,0-2.12,2.57,2.57,0,0,0-.81-1.3L26,34.69c-.16-.16-.65-.16-1-.16-.33.16-.49.49-.33.65h0a.57.57,0,0,1,.16.33,1.75,1.75,0,0,1,.33,1A2.3,2.3,0,0,1,25,37.95a8,8,0,0,1-1.14,1.79,4.8,4.8,0,0,0-.81,2.12,2.53,2.53,0,0,0,.33,2A3.48,3.48,0,0,0,24.37,45.44Z"/><path class="cls-2" d="M115.33,60.94a22.66,22.66,0,0,0-7.49,5.21s-2.28-4.4-4.89-9.45c-2.61-4.89-5.7-10.42-7-12.21a20.45,20.45,0,0,0-7.33-6.19h0a12.28,12.28,0,0,0-4.72-1.47L73.15,59A1.13,1.13,0,0,1,71,59L60.45,36.84a12.22,12.22,0,0,0-4.89,1.47h0a20.71,20.71,0,0,0-7.33,6.19c-2.77,3.75-8.79,21.66-8.79,21.66s-4.56-2.28-9.28-4.56c-.65-.16-1.63-.33-2.28-.49H12.41c-.81,2.93.16,5.86,4.07,7.65,4.4,2,24.59,12.38,26.38,12.87,2,.49,4.23-1,5.21-2.93l6-18.24-3.58,29.8c-.16,2.28,44.13,2.28,43.81,0l-3.75-29.8L100,78.69c1,2,2.93,3.58,5.21,2.93s17.91-10.26,23.12-12.87c4.56-2.28,5.54-5,4.72-7.65H117.44ZM72.18,78a2,2,0,1,1,2-2A1.88,1.88,0,0,1,72.18,78Zm0-9a2,2,0,1,1,2-2A1.88,1.88,0,0,1,72.18,69.08Z"/><circle class="cls-2" cx="71.85" cy="18.27" r="16.77"/><path class="cls-2" d="M70.71,39.12l-5.37-2.61V44l5.54-2.61a2.32,2.32,0,0,0,1,.33,1.75,1.75,0,0,0,1-.33L78.36,44V36.51L73,39.12a1.65,1.65,0,0,0-1.14-.65A1.23,1.23,0,0,0,70.71,39.12Z"/><path class="cls-1" d="M112.63,56.7c8.58-.18,17.85.18,26.73,0"/><path class="cls-1" d="M122.56,48.25a.34.34,0,1,1,.38-.57,3.36,3.36,0,0,0,3.74,0,.34.34,0,1,1,.38.57,4,4,0,0,1-4.5,0Zm6.69,8.32a.32.32,0,0,1-.34.32h-8a.34.34,0,0,1-.36-.32c0-.08,0-.74.94-1.21l1.52-.69a1.58,1.58,0,0,0,.81-1.59V51.42c0-.13-.31-.43-.55-.69a11.49,11.49,0,0,1-1.34-1.66c-1.48-1.56-2.39-4.37-2.39-7.87a67.51,67.51,0,0,1,1.77-12.88h0a.3.3,0,0,1,0,0,3,3,0,0,1,1.19-1.65,2.66,2.66,0,0,1,1.1-.36.73.73,0,0,0,.2,0,2.31,2.31,0,0,1,1.67-.51,1.65,1.65,0,0,1,1.1.76.34.34,0,0,1,0,.06,1.84,1.84,0,0,1,1.22.26,1.78,1.78,0,0,1,.67,1.54,67.12,67.12,0,0,1,1.76,12.84c0,3.45-.9,6.24-2.36,7.82a8.87,8.87,0,0,1-1.46,1.81c-.21.21-.54.47-.54.59v1.65a1.66,1.66,0,0,0,.89,1.59l1.55.68C129.22,55.83,129.25,56.49,129.25,56.57Zm-7.75-26.1h6.71c-.16-.79-.3-1.39-.37-1.72h-6C121.8,29.08,121.66,29.68,121.5,30.47Zm.59-2.4h5.65a1,1,0,0,0-.36-.69,1.7,1.7,0,0,0-1.3,0,.34.34,0,0,1-.26-.63.88.88,0,0,0-.52-.3,1.68,1.68,0,0,0-1.14.39,1,1,0,0,1-.53.17,2,2,0,0,0-.85.27A1.89,1.89,0,0,0,122.1,28.07Zm-1.91,13.14c0,5.6,2.33,8.53,4.63,8.53h0c2.32,0,4.68-2.93,4.68-8.53a81.44,81.44,0,0,0-1.18-10.05h-7A57.27,57.27,0,0,0,120.18,41.21Zm8.19,15c-.09,0-.22-.16-.4-.26l-1.53-.65a2.29,2.29,0,0,1-1.3-2.22V51.37c0-.38.82-1.09.86-1.13a3.24,3.24,0,0,1-2.27,0c.58.6.72.83.72,1.08v1.71a2.21,2.21,0,0,1-1.22,2.21l-1.47.67c-.17.09-.29.25-.37.25Z"/></g></g></svg>