<svg xmlns="http://www.w3.org/2000/svg" viewBox="0 0 115.8 93.64"><defs><style>.cls-1{fill:none;stroke:#0a58a5;stroke-miterlimit:10;stroke-width:5px;}</style></defs><title>Asset 8</title><g id="Layer_2" data-name="Layer 2"><g id="Layer_1-2" data-name="Layer 1"><path class="cls-1" d="M90.4,58.83A32.5,32.5,0,1,0,57.9,91.14,32.51,32.51,0,0,0,90.4,58.83ZM57.9,78.59A19.58,19.58,0,1,1,77.66,59,19.74,19.74,0,0,1,57.9,78.59Zm0-34h0a1.26,1.26,0,0,1-1.29,1.29A13.17,13.17,0,0,0,44.79,57.53a1.39,1.39,0,0,1-1.29,1.29,1.31,1.31,0,0,1-1.29-1.48,15.58,15.58,0,0,1,14.22-14A1.31,1.31,0,0,1,57.9,44.61Zm53.74-29.36h-27L80.06,5.45a5.32,5.32,0,0,0-4.8-3H40.36a5.32,5.32,0,0,0-4.8,3l-4.43,9.79H18.2a2.44,2.44,0,0,0-2.4-2.4H10.26a2.44,2.44,0,0,0-2.4,2.4H4.16A1.66,1.66,0,0,0,2.5,16.9V85a1.66,1.66,0,0,0,1.66,1.66H37.59a34.79,34.79,0,0,1-14.4-28.07,34.61,34.61,0,0,1,34.53-34c19,0,34.72,15.33,34.72,34.16A33.84,33.84,0,0,1,78,86.53h33.61a1.66,1.66,0,0,0,1.66-1.66v-68A1.66,1.66,0,0,0,111.64,15.24ZM107.58,27.8H93.36V23.18h14.22Z"/></g></g></svg>