<svg xmlns="http://www.w3.org/2000/svg" viewBox="0 0 97.78 112.67"><defs><style>.cls-1{fill:#0a58a5;stroke:#0a58a5;stroke-miterlimit:10;stroke-width:2px;}</style></defs><title>Asset 15</title><g id="Layer_2" data-name="Layer 2"><g id="Layer_1-2" data-name="Layer 1"><path class="cls-1" d="M61.29,18.35V11.09h.78a6.59,6.59,0,0,0,6.61-6.55c0-3.61-3-3.54-6.61-3.54H35.71C32.06,1,29.1.93,29.1,4.54a6.59,6.59,0,0,0,6.61,6.55h.78v7.26A47.62,47.62,0,0,0,1,64.2c0,26.17,21.48,47.47,47.89,47.47S96.78,90.37,96.78,64.2A47.62,47.62,0,0,0,61.29,18.35ZM33.79,4.54a1.92,1.92,0,0,1,1.92-1.9H62.07A1.91,1.91,0,0,1,64,4.54c0,1.05-.86,4.91-1.92,4.91H35.71C34.65,9.45,33.79,5.59,33.79,4.54ZM40,17.34V11.09H57.77v6.25l-1.38,0a48.23,48.23,0,0,0-15,0ZM2.72,66.16h9.74a2.32,2.32,0,1,0,0-4.65H2.76c.63-10.06,4.1-20.34,10.55-27.35l8.21,5.64a2.36,2.36,0,0,0,3.31,0,2.31,2.31,0,0,0,0-3.29l-6.33-5.6c6-5.22,15.26-10.68,23.47-12q2.36-.33,4.76-.44v9a2.34,2.34,0,0,0,4.69,0v-9c1.46.07,2.92.22,4.36.42,8.3,1.33,20.69,8,26.7,13.34l-9.17,4.26a2.31,2.31,0,0,0,0,3.29,2.36,2.36,0,0,0,3.31,0L84,35.53a42.46,42.46,0,0,1,11,26h-9.3a2.32,2.32,0,1,0,0,4.65h9.35A42.43,42.43,0,0,1,84.31,92.48l-7.67-4.61a2.36,2.36,0,0,0-3.31,0,2.31,2.31,0,0,0,0,3.29l9.55,4.65c-7.1,6.44-21.24,13.56-31.45,14.15v-9.81a2.34,2.34,0,0,0-4.69,0V110c-10.27-.5-24.47-7.58-31.64-14l9.74-4.83a2.31,2.31,0,0,0,0-3.29,2.36,2.36,0,0,0-3.31,0l-7.88,4.82A42.43,42.43,0,0,1,2.72,66.16Z"/><path class="cls-1" d="M48.89,91.32a27.41,27.41,0,0,0,27.36-26.5A2.33,2.33,0,0,0,74,62.45c-1.29,0,.65,1,.62,2.27-.28,12.11-13.47,25-25.69,25-12.5,0-25.7-13.09-25.7-25.49,0-7.84,7.07-18,13.7-22.08l3.75,18.52a8.88,8.88,0,0,0,0,7.17,9,9,0,0,0,11.86,4.54,8.89,8.89,0,0,0-1.06-16.69L40.12,39.19a2.35,2.35,0,0,0-2.89-.81,2.32,2.32,0,0,0-1.38,2A27,27,0,0,0,21.52,64.2,27.28,27.28,0,0,0,48.89,91.32ZM50,59a2.34,2.34,0,0,0,1.52,1,4.3,4.3,0,0,1,3.19,2.47c1,2.15-1.87,6.52-4,7.48a4.29,4.29,0,0,1-1.74.37c-1.7,0-5.09-2.84-5.78-4.39a4.2,4.2,0,0,1,.2-3.85,2.31,2.31,0,0,0,.25-1.69L39.74,43Z"/></g></g></svg>