<svg xmlns="http://www.w3.org/2000/svg" viewBox="0 0 47.13 76.7"><defs><style>.cls-1{fill:none;stroke:#0957a5;stroke-miterlimit:10;stroke-width:2px;}.cls-2{fill:#0957a5;}</style></defs><title>Asset 2</title><g id="Layer_2" data-name="Layer 2"><g id="Layer_1-2" data-name="Layer 1"><path class="cls-1" d="M19.44,15.37a7.26,7.26,0,1,0-5.59-8.61A7.26,7.26,0,0,0,19.44,15.37Z"/><path class="cls-2" d="M40.82,26.75v-1l1.26,0c6.88.21,6.19-7.52,1.15-7.82l-2.4-.12V16.53s-5.22-.16-7.39-.16c-21.92,0-30.14,4.52-32.25,8.83C-4.08,36,12.05,37.77,12.05,37.77v-1.2l1.39,0a6.41,6.41,0,0,0,1.27-.09c0,.43.13,6.27.14,6.7a8.15,8.15,0,0,0-4.12-1.72c-.73,0-2.47.28-2.8,2.83a3.16,3.16,0,0,0,.61,2.59,2.88,2.88,0,0,0,2.27.89h0a10.51,10.51,0,0,0,3.76-.95C12.67,51.62,1.65,66.35,1.65,66.35l.85.85L.85,69.3c-3.09,4,3.06,8.8,6.15,4.81l1.06-1.36.75.75s10.79-15.32,13-18.23C36.5,51.92,35.09,70,35.09,70h1.06c-.06.67-.14,1.36-.25,2.08a4,4,0,1,0,7.88,1.24A33,33,0,0,0,44.12,70h1.23s1.9-20.47-15.14-24.77c-.06-2.86-.26-12.76-.38-18.43ZM9.72,44.32c.24-1.45,2.56-.18,3.58.62C12.3,45.24,9.38,46.31,9.72,44.32Zm2.33-14.68v-.88s-1-.16-1.19-.2a14.81,14.81,0,0,1,1.3-1.74h2.32s0,2.37.06,3Zm32.2,39.23H36.31c.44-19.54-15.22-14.48-15.22-14.48-2.33,3-4.4,6-6.4,9-1.89,2.76-3.83,5.61-6,8.43L3.17,66.26A178.14,178.14,0,0,0,15,48.36,15.11,15.11,0,0,1,15,53.66l2.22.51A19.39,19.39,0,0,0,17,46.23H29.52C42,49.12,44.4,62.66,44.25,68.87ZM28.67,25.67S29,39.94,29,43.94H16c0-.71-.21-7.48-.21-7.75A3.3,3.3,0,0,0,15.67,30c0-.82-.08-4.37-.08-4.37h-4L9.24,29.25s1.15.38,1.67.48l0,6.06c-9.78,0-17.29-13.58,8.77-17.49.39.69,1.44,2.53,1.91,3.14,1,1.28,2-2.27,2.38-3.59a128.07,128.07,0,0,1,15.76-.23v8C37.76,25.59,28.67,25.67,28.67,25.67Z"/></g></g></svg>