<svg xmlns="http://www.w3.org/2000/svg" viewBox="0 0 66.21 80.42"><defs><style>.cls-1{fill:#0957a5;}</style></defs><title>Asset 2</title><g id="Layer_2" data-name="Layer 2"><g id="Layer_1-2" data-name="Layer 1"><path class="cls-1" d="M36.89,59.19a4.18,4.18,0,0,1-3.78,2.06,4.18,4.18,0,0,1-3.78-2.06A.95.95,0,1,1,31,58.33a2.3,2.3,0,0,0,2.09,1,2.35,2.35,0,0,0,2.08-1,1,1,0,0,1,1.7.86ZM21.27,47.49H15.94a1.32,1.32,0,0,0-1.32,1.32v.33a1.32,1.32,0,0,0,1.32,1.32h5.33a1.32,1.32,0,0,0,1.32-1.32v-.33A1.32,1.32,0,0,0,21.27,47.49Zm29.66-7.69a1,1,0,0,0-1.62-1c-.59,1-2.23,1.63-4,1.63s-3.4-.67-4-1.63a.95.95,0,0,0-1.62,1A4.47,4.47,0,0,0,41,41.13l-1,1.39a.6.6,0,0,0,1,.7l1-1.45a.56.56,0,0,0,0-.06c.2.09.4.17.61.24L42.32,43a.6.6,0,1,0,1.14.38l.41-1.21q.42.07.86.1v1.34a.6.6,0,1,0,1.2,0V42.32q.44,0,.86-.1l.41,1.21A.6.6,0,0,0,48.33,43L48,41.94c.21-.07.42-.15.61-.24a.57.57,0,0,0,0,.06l1,1.45a.6.6,0,0,0,1-.7l-1-1.39A4.48,4.48,0,0,0,50.93,39.81ZM26.18,38.5a1,1,0,0,0-1.31.31c-.59,1-2.23,1.63-4,1.63s-3.4-.67-4-1.63a.95.95,0,0,0-1.62,1,4.48,4.48,0,0,0,1.31,1.32l-1,1.39a.6.6,0,0,0,1,.7l1-1.45a.55.55,0,0,0,0-.06c.2.09.4.17.61.24L17.88,43a.6.6,0,1,0,1.14.38l.41-1.21q.42.07.86.1v1.34a.6.6,0,1,0,1.2,0V42.32q.44,0,.86-.1l.41,1.21A.6.6,0,0,0,23.89,43l-.37-1.11c.21-.07.42-.15.61-.24a.57.57,0,0,0,0,.06l1,1.45a.6.6,0,0,0,1-.7l-1-1.39a4.48,4.48,0,0,0,1.31-1.32A1,1,0,0,0,26.18,38.5Zm40-10.23V62.1h-6l-.15,9.76a8.69,8.69,0,0,1-8.68,8.55h-.13l-5.52-.08a8.7,8.7,0,0,1-8.55-8.81l0-2.74A29,29,0,0,1,33,69h-.94c-6,0-11.57-1.81-15.51-5-.62-.51-1.22-1-1.8-1.58L0,62.1V28.27H0C.17,11.85,12.51-4.06,32.79,1.09H33C52.85-4,63.81,9.62,66.14,28.27Zm-7.87,33a1.09,1.09,0,0,0-1.07-1.11h0a1.09,1.09,0,0,0-1.09,1.07v.89l0,1.41a1,1,0,0,1-1.42.81,1.2,1.2,0,0,1-.63-.92V62.1l0-2.37v-.5l0-1.54,0-1.61,0-1.48a1.09,1.09,0,0,0-1.07-1.1,1.11,1.11,0,0,0-.77.31,1.08,1.08,0,0,0-.33.76L52,58.82l0,1.4,0,1.41v.85a1,1,0,0,1-1,.94h-.16a.93.93,0,0,1-.56-.22h0l-.09-.06a1,1,0,0,1-.27-.68l0-1.48L50,53h0a1.09,1.09,0,0,0-1.07-1.1,1.14,1.14,0,0,0-.77.31,1.08,1.08,0,0,0-.33.76l-.14,9.48a1,1,0,0,1-1,.94h-.16a1,1,0,0,1-.94-1l.12-7.91a1.09,1.09,0,1,0-2.18,0l-.12,8.22v.58a1,1,0,0,1-.53.84l-.14.07a1,1,0,0,1-1.39-.86l0-2.42.05-3.64a1.09,1.09,0,0,0-1.07-1.1h0a1,1,0,0,0-.24,0,1.08,1.08,0,0,0-.84,1L39.26,61l-.08,5.57,0,1.93,0,3.07a6.8,6.8,0,0,0,6.68,6.88l5.52.08h.1a6.79,6.79,0,0,0,6.78-6.68l.15-9.74Zm-17.94-7h0a3,3,0,0,1,1.23.29v-.1a3,3,0,0,1,3-2.94h0a3,3,0,0,1,1.42.39,3,3,0,0,1,.7-1A3,3,0,0,1,49,50a3,3,0,0,1,2.77,2,2.86,2.86,0,0,1,1.44-.34A3,3,0,0,1,54.7,52a6.47,6.47,0,0,0-6.42-5.73H46.63a6.47,6.47,0,0,0-6.47,6.47v1.46ZM61.5,32.69c0-1,0-1.89-.07-2.8-14.51,2.78-26.79-2-34.79-12.5C16.25,30.4,13,31.85,5,33.66a55.1,55.1,0,0,0,.86,6c.92,3.83,2,9.43,4.67,14.7a34.57,34.57,0,0,0,7.21,8.12c3.76,3.07,9.26,4.74,15.08,4.58H33a27.41,27.41,0,0,0,4.24-.21l.15-9.71a3,3,0,0,1,.84-2V52.79a8.38,8.38,0,0,1,8.37-8.37h1.64a8.37,8.37,0,0,1,8.34,7.84A40.48,40.48,0,0,0,61.5,32.69Z"/></g></g></svg>