<svg id="Layer_1" data-name="Layer 1" xmlns="http://www.w3.org/2000/svg" viewBox="0 0 2224 1152"><title>Logo_fertige_Version2</title><path d="M331.77,353.39l-15.14-15.14c-10-11.25-15.58-27.69-15.58-51.49v-91.3c0-22.93,5.63-39.37,15.58-51.06,13.41-13.85,33.75-20.34,64-20.34,29.86,0,49.76,6.92,63.61,20.77L459.42,160c10.82,10.82,15.14,27.69,15.14,50.63v91.3c0,23.8-4.76,40.24-15.14,51.49-13.41,13.85-33.75,20.77-63.61,20.77C365.09,374.16,345.19,366.81,331.77,353.39Zm78.75-165.72a45.33,45.33,0,0,0-13-2.16h-4.33c-21.63,0-30.72,14.28-30.72,36.78v68.37a62.12,62.12,0,0,0,3,19.9,40,40,0,0,0,12.55,1.73h4.33c11.25,0,19.47-3,24.66-10,4.33-6.49,6.49-15.58,6.49-26.83V207.14A59.27,59.27,0,0,0,410.52,187.67Z" style="fill:#a0d6c5"/><path d="M645.91,306.66c.87-.87,2.6-.87,4.33.43l13.41,12.55c1.3,1.3,2.16,1.73,2.16,4.76v43.27c0,1.3-.87,3-2.6,3H539.46c-2.16,0-3-1.3-4.33-2.6l-12.55-12.55a3.94,3.94,0,0,1-.43-5.19l5.19-5.62V137.91l-5.19-5.62c-1.73-2.16-.87-4.76,2.16-4.76h51.49c2.16,0,3,1.3,4.33,2.6l13,13.41c1.3,1.3,1.73,2.6.43,3.89l-5.62,5.63v158.8h52.36Z" style="fill:#a0d6c5"/><path d="M714.27,131.85a2.75,2.75,0,0,1,2.16-4.76H809c23.37,0,41.11,6.49,52.79,19.47,17.74,22.5,30.72,29,30.72,64v91.73c0,42-24.23,68.37-68.37,68.37h-92.6c-1.3,0-2.16-.87-3-1.73l-14.28-14.28a2.89,2.89,0,0,1,0-4.33l5.19-5.62V137.91Zm66.2,53.65V312.29h16c20.77,0,35.48-13.41,35.48-35.48v-71a49,49,0,0,0-3-16.87,42.54,42.54,0,0,0-17.31-3.46Z" style="fill:#a0d6c5"/><path d="M941,176c-.87-.87-1.73-1.73-1.73-3v-42.4a3.72,3.72,0,0,1,3.46-3.46h143.65a3.93,3.93,0,0,1,3,1.3l14.28,13.85a4.91,4.91,0,0,1,1.3,3.46v42.4c0,2.6-3.46,4.33-5.19,2.6l-5.62-5.19h-41.54V359.88l5.19,5.63a3,3,0,0,1-2.16,5.19h-51.92c-1.3,0-2.16-.87-3-1.73l-13.85-13.85a3.44,3.44,0,0,1-.43-4.76l5.19-5.62V185.51H965.24L960,190.7c-.87.87-2.16,1.3-3,.43Z" style="fill:#a0d6c5"/><path d="M1157.35,344.74V137.91l-5.19-6.06a2.75,2.75,0,0,1,2.16-4.76h51.49a4.41,4.41,0,0,1,3.46,2.16l13.85,13.85c1.3,1.3,1.73,2.6.43,3.89l-5.62,6.06V359.88l5.63,5.63c1.3,1.3.43,5.19-2.6,5.19h-51.49c-1.3,0-1.73-.87-2.6-1.73l-14.28-13.85a3.44,3.44,0,0,1-.43-4.76Z" style="fill:#a0d6c5"/><path d="M1277.21,344.74V137.91l-5.19-6.06a2.75,2.75,0,0,1,2.16-4.76h46.73a2.38,2.38,0,0,1,2.16,1.3l15.14,15.14,30.29,41.11,38.08-56.25a2.38,2.38,0,0,1,2.16-1.3h46.73c2.6,0,3,1.3,5.19,3.46l10.82,10.38c1.73,1.73,3.46,3.89,1.3,6.06l-5.19,6.06V359.88l5.19,5.63a3,3,0,0,1-2.16,5.19H1418.7a9.2,9.2,0,0,1-6.49-3l-9.52-10.82c-1.73-2.16-3-4.76-1.3-6.49l5.63-5.62V243.49l-24.66,34.62c-1.3,1.73-3.46,1.3-4.76,0L1362.45,263l-24.66-31.15V359.88l5.63,5.63c1.3,1.3.43,5.19-2.6,5.19h-51.49c-2.6,0-3-1.3-5.19-3l-10.82-10.82c-2.16-1.73-3-4.33-1.3-6.49Z" style="fill:#a0d6c5"/><path d="M1647.59,127.09c1.73,0,2.16.87,3.46,2.16l13.85,13.85a4.14,4.14,0,0,1,.87,3v42c0,2.6-2.6,5.19-5.19,2.6l-5.19-5.19h-67.5v32h35.48l5.19-5.62c.87-1.3,3.46-1.3,4.76,0l13.85,14.28c.87.87,1.73,1.3,1.73,3V279a3.14,3.14,0,0,1-5.19,2.16l-5.19-4.76h-50.62v35.91h52.36l5.19-5.19a2.8,2.8,0,0,1,3.89-.43c.87.43,1.3,1.73,15.58,16a3.3,3.3,0,0,1,.87,2.16v42.84a3.25,3.25,0,0,1-3,3H1539c-.87,0-1.73-.43-3-1.73l-13.85-13.85c-1.3-1.3-1.73-3.46-.43-4.76l5.19-5.62V137.91l-5.19-6.06a2.75,2.75,0,0,1,2.16-4.76Z" style="fill:#a0d6c5"/><path d="M1713.79,131.85a2.75,2.75,0,0,1,2.16-4.76h73.13c19.9,0,35.91,5.19,46.3,16l17.31,17.74c9.09,10,13.41,25.1,13.41,43.7v43.7c0,12.12-2.16,23.37-6.49,32-4.76,10-11.68,17.74-21.2,22.07l26,57.12,6.06,6.06c2.16,1.3.43,5.19-2.6,5.19h-54.52c-1.3,0-1.73-.87-2.6-1.73l-14.28-13.85c-1.3-1.3-2.16-2.6-.43-4.76l4.33-5.62-15.58-34.62h-5.19v49.76l5.63,5.63c3,3,1.3,5.19-1.73,5.19H1731.1a4.5,4.5,0,0,1-3.46-1.73l-13.41-13.85a3.39,3.39,0,0,1-.43-4.76l5.19-5.62V137.91Zm65.77,119.86c8.22-.87,13.85-3,18.17-6.49,5.63-4.33,7.79-11.25,7.79-22.93v-22.5a49.46,49.46,0,0,0-1.3-12.12,72,72,0,0,0-19-2.16h-5.62Z" style="fill:#a0d6c5"/><path d="M316.63,338.25c-10-11.25-15.58-27.69-15.58-51.49v-91.3c0-22.93,5.63-39.37,15.58-51.06,13.41-13.85,33.75-20.34,64-20.34,29.86,0,50.63,6.49,63.61,20.77,10.38,11.25,15.14,27.69,15.14,50.63v91.3c0,23.8-4.76,40.24-15.14,51.49C430.86,352.09,410.52,359,380.67,359,349.95,359,329.61,352.09,316.63,338.25ZM382.4,170.36h-4.33c-11.25,0-19,3-24.23,9.52-4.76,6.92-6.49,15.58-6.49,27.26v68.37c0,30.29,16.44,36.78,30.72,36.78h4.33c11.25,0,19.47-3,24.66-10,4.33-6.49,6.49-15.58,6.49-26.83V207.14C413.55,176.42,397.11,170.36,382.4,170.36Z" style="fill:#0957a5"/><path d="M645.91,306.66c1.3-1.3,4.76-.43,4.76,2.6v43.27c0,1.3-.87,3-2.6,3H524.32a3.09,3.09,0,0,1-2.16-5.19l5.19-5.62V137.48l-5.19-5.62c-1.73-2.16-.87-4.76,2.16-4.76h51.49c3,0,4.33,3,2.6,4.76l-5.62,5.63V311.85h67.5Z" style="fill:#0957a5"/><path d="M714.27,131.85a2.75,2.75,0,0,1,2.16-4.76H809c23.37,0,41.11,6.49,52.79,19.47,10.38,11.25,15.58,28.13,15.58,48.89v91.73c0,42-24.23,68.37-68.37,68.37h-92.6a3,3,0,0,1-2.16-5.19l5.19-5.62V137.91Zm51.06,38.51V312.29h31.15c20.77,0,35.48-13.41,35.48-35.48v-71c0-21.63-11.25-35.48-35.48-35.48Z" style="fill:#0957a5"/><path d="M944.9,175.56c-1.73,1.73-5.62,0-5.62-2.6v-42.4a3.72,3.72,0,0,1,3.46-3.46h143.65a3.18,3.18,0,0,1,3.46,3.46V173c0,2.6-3.46,4.33-5.19,2.6l-5.62-5.19H1037.5V344.74l5.19,5.63a3,3,0,0,1-2.16,5.19H988.6a3.14,3.14,0,0,1-2.16-5.19l5.19-5.62V170.36H950.09Z" style="fill:#0957a5"/><path d="M1157.35,344.74V137.91l-5.19-6.06a2.75,2.75,0,0,1,2.16-4.76h51.49c2.6,0,4.33,3,2.6,4.76l-5.62,6.06V344.74l5.63,5.63c1.3,1.3.43,5.19-2.6,5.19h-51.49a3.09,3.09,0,0,1-2.16-5.19Z" style="fill:#0957a5"/><path d="M1277.21,344.74V137.91l-5.19-6.06a2.75,2.75,0,0,1,2.16-4.76h46.73a2.38,2.38,0,0,1,2.16,1.3l43.7,58.85,39.81-58.85a2.38,2.38,0,0,1,2.16-1.3h46.73c2.6,0,4.33,2.6,2.16,4.76l-5.19,6.06V344.74l5.19,5.63a3,3,0,0,1-2.16,5.19h-51.92a3.14,3.14,0,0,1-2.16-5.19l5.63-5.62v-138L1367.21,263a2.83,2.83,0,0,1-4.76,0l-39.81-50.63v132.4l5.63,5.63c1.3,1.3.43,5.19-2.6,5.19h-51.49a3.09,3.09,0,0,1-2.16-5.19Z" style="fill:#0957a5"/><path d="M1523.84,355.56a3.09,3.09,0,0,1-2.16-5.19l5.19-5.62V137.91l-5.19-6.06a2.75,2.75,0,0,1,2.16-4.76h123.75a2.89,2.89,0,0,1,3,2.6V173c0,2.6-2.6,5.19-5.19,2.6l-5.19-5.19h-67.5v47.16h50.63l5.19-5.62a3,3,0,0,1,5.19,2.16v49.76a3.14,3.14,0,0,1-5.19,2.16l-5.19-4.76h-50.62v51.06h67.5l5.19-5.19c2.16-2.16,5.19-.43,5.19,2.6v42.84a3.25,3.25,0,0,1-3,3Z" style="fill:#0957a5"/><path d="M1713.79,131.85a2.75,2.75,0,0,1,2.16-4.76h73.13c38.51,0,61.88,21.63,61.88,62.31v43.7c0,12.12-2.16,23.37-6.49,32-4.76,10-11.68,17.74-21.2,22.07l26,57.12,6.06,6.06c2.16,1.3.43,5.19-2.6,5.19h-54.52a3,3,0,0,1-2.16-5.19l4.33-5.62L1777.83,295h-13.41v49.76l5.63,5.63c3,3,1.3,5.19-1.73,5.19H1716a3.09,3.09,0,0,1-2.16-5.19l5.19-5.62V137.91ZM1770,252.14c13.85,0,22.07-2.16,27.69-6.92,5.63-4.33,7.79-11.25,7.79-22.93v-22.5c0-12.12-2.16-19.47-7.79-23.37-5.19-4.33-13.41-6.06-27.69-6.06h-5.62v81.78Z" style="fill:#0957a5"/><path d="M294.42,1060.51c1.73,1.73.87,5.19-2.6,5.19H240.33c-1.3,0-1.73-.87-2.6-1.73l-14.28-13.85c-1.73-1.3-1.3-3.46-.43-4.76l5.19-5.62V832.91L223,826.85a2.75,2.75,0,0,1,2.16-4.76H348.94a4.68,4.68,0,0,1,3,1.3l14.28,14.71a2.25,2.25,0,0,1,.87,1.73V883.1c0,2.6-2.6,5.19-5.19,2.6l-5.19-5.19h-67.5v32h35.48l5.19-5.62a3.27,3.27,0,0,1,3.46-.43c1.3.43,1.73,1.3,14.28,14.71,1.3,1.3,2.6,3,2.6,4.33V974a3.14,3.14,0,0,1-5.19,2.16l-5.19-4.76H289.23v83.51Z" style="fill:#9fd6c5"/><path d="M538.9,1001.66c.87-.87,2.6-.87,4.33.43l13.41,12.55c1.3,1.3,2.16,1.73,2.16,4.76v43.27c0,1.3-.87,3-2.6,3H432.45c-2.16,0-3-1.3-4.33-2.6l-12.55-12.55a3.94,3.94,0,0,1-.43-5.19l5.19-5.62V832.91l-5.19-5.62c-1.73-2.16-.87-4.76,2.16-4.76H468.8c2.16,0,3,1.3,4.33,2.6l13,13.41c1.3,1.3,1.73,2.6.43,3.89l-5.62,5.63v158.8h52.36Z" style="fill:#9fd6c5"/><path d="M607.26,826.85c-1.73-2.16-.87-4.76,2.16-4.76h51.49a3.66,3.66,0,0,1,2.6.87l15.58,15.58c.87.87.43,2.6-.43,3.46l-5.19,6.06v137.6c0,8.22.87,14.71,3,19.9a44.67,44.67,0,0,0,13,1.73h4.33c21.2,0,31.15-14.71,31.15-36.78V832.91l-5.62-6.06c-1.3-1.3-.87-4.76,2.16-4.76h52.36c1.3,0,2.16.87,3,1.73L791.59,839c.87.87.43,2.16-.43,3l-5.62,6.06V996.9c0,49.76-27.26,72.26-78.75,72.26-34.18,0-61.87-12.12-82.21-41.11-8.22-11.25-12.12-26.39-12.12-46.3V832.91Z" style="fill:#9fd6c5"/><path d="M1011.83,913c0,1.73-1.3,3-3.46,3H962.94a3.87,3.87,0,0,1-3.46-1.73l-15.14-15.14a3.59,3.59,0,0,1,.87-3.46l5.63-5.19c-.87-2.6-1.3-5.19-2.6-7.36a32.25,32.25,0,0,0-13.41-2.6h-4.33c-11.25,0-19,3-24.23,10-4.76,6.49-6.49,15.14-6.49,26.83v68.37a62.11,62.11,0,0,0,3,19.9,40,40,0,0,0,12.55,1.73h4.33c16.88,0,26.83-9.52,29.86-24.66H937.84l-5.62,5.19c-.87.87-2.16,1.3-3,.43l-16-14.71a5.49,5.49,0,0,1-1.73-3V928.1a3.88,3.88,0,0,1,3.89-3.89h77.88a4.64,4.64,0,0,1,2.6.87c.87.87.87,1.3,14.28,14.71.87.87,1.73,1.73,1.73,2.6V996.9c0,50.62-27.26,72.26-78.75,72.26-40.24,0-60.58-14.28-80.91-39.37-9.09-11.25-13.85-26.83-13.85-48v-91.3c0-50.19,28.13-71.39,79.62-71.39,25.1,0,46.3,4.76,59.71,17.74,19.47,18.61,34.18,31.59,34.18,68.8Z" style="fill:#9fd6c5"/><path d="M1125.2,1054.88l5.63,5.63a3.21,3.21,0,0,1-2.6,5.19h-51.49c-1.73,0-3-1.3-4.33-2.6l-12.55-13c-1.3-1.3-2.16-3-.43-4.76l5.19-5.62V832.91l-5.19-6.06a2.75,2.75,0,0,1,2.16-4.76h73.13c17.31,0,31.59,4.33,42,13,7.36,6.49,16.88,15.14,22.93,23.37,7.79,10,12.12,23.8,12.12,41.11v43.7c0,36.78-22.93,61.88-61.87,61.88H1125.2Zm0-108.17c14.71-2.16,26-9.52,26-29V894.79a43.55,43.55,0,0,0-1.3-11.68c-5.19-1.73-11.68-2.16-19-2.16h-5.62Z" style="fill:#9fd6c5"/><path d="M1383.95,1001.66c.87-.87,2.6-.87,4.33.43l13.41,12.55c1.3,1.3,2.16,1.73,2.16,4.76v43.27c0,1.3-.87,3-2.6,3H1277.5c-2.16,0-3-1.3-4.33-2.6l-12.55-12.55a3.94,3.94,0,0,1-.43-5.19l5.19-5.62V832.91l-5.19-5.62c-1.73-2.16-.87-4.76,2.16-4.76h51.49c2.16,0,3,1.3,4.33,2.6l13,13.41c1.3,1.3,1.73,2.6.43,3.89l-5.62,5.63v158.8h52.36Z" style="fill:#9fd6c5"/><path d="M1414.24,1049.26a3.22,3.22,0,0,1,.43-3.89l5.19-5.62,55.82-207.26-3.46-5.62c-1.3-2.16-.43-4.76,3-4.76h54.09a3.74,3.74,0,0,1,2.6,1.3L1547.08,839a2.09,2.09,0,0,1,0,3l-3.89,5.63L1599,1054.88l6.06,5.63c1.3,1.3.43,5.19-2.6,5.19H1550.1c-1.3,0-1.73-.87-2.6-1.73l-14.71-14.71a3.34,3.34,0,0,1,.43-3.89l5.19-5.19-6.92-25.1h-39.81l-10.82,40.24,5.19,5.19a3.21,3.21,0,0,1-2.6,5.19H1432c-1.3,0-2.16-.87-3.46-2.16Zm97.36-109-4.76,16.88h9.52Z" style="fill:#9fd6c5"/><path d="M1615,871c-.87-.87-1.73-1.73-1.73-3v-42.4a3.72,3.72,0,0,1,3.46-3.46H1760.4a3.93,3.93,0,0,1,3,1.3l14.28,13.85a4.91,4.91,0,0,1,1.3,3.46v42.4c0,2.6-3.46,4.33-5.19,2.6l-5.62-5.19h-41.54v174.38l5.19,5.63a3,3,0,0,1-2.16,5.19h-51.92c-1.3,0-2.16-.87-3-1.73l-13.85-13.85a3.44,3.44,0,0,1-.43-4.76l5.19-5.62V880.51h-26.39l-5.19,5.19c-.87.87-2.16,1.3-3,.43Z" style="fill:#9fd6c5"/><path d="M1827,871.85c-.87-.87-2.16-2.16-2.16-3.89V825.12a3.34,3.34,0,0,1,3.46-3h134.13a3.31,3.31,0,0,1,2.16.87l14.71,15.14c.87.87.87,1.3.87,1.73v38.94a1.59,1.59,0,0,1-.43,1.3l-74.86,127.21h50.19l5.63-5.19a3.33,3.33,0,0,1,4.33.43c.43.43.43.87,14.28,14.71a3.08,3.08,0,0,1,1.3,2.6v42.84a2.94,2.94,0,0,1-3,3h-133.7a3.31,3.31,0,0,1-2.16-.87l-15.14-15.14a3.31,3.31,0,0,1-.87-2.16V1009a3.35,3.35,0,0,1,.43-1.3l74.42-127.21h-49.76l-5.19,5.19c-1.3,1.3-3,1.73-4.33.43Z" style="fill:#9fd6c5"/><path d="M279.28,1045.36c1.73,1.73.87,5.19-2.6,5.19H225.19a3.09,3.09,0,0,1-2.16-5.19l5.19-5.62V832.91L223,826.85a2.75,2.75,0,0,1,2.16-4.76H348.94a2.89,2.89,0,0,1,3,2.6V868c0,2.6-2.6,5.19-5.19,2.6l-5.19-5.19h-67.5v47.16h50.63l5.19-5.62c1.3-1.73,5.19-.43,5.19,2.16v49.76A3.14,3.14,0,0,1,329.9,961l-5.19-4.76H274.09v83.51Z" style="fill:#0957a5"/><path d="M538.9,1001.66c1.3-1.3,4.76-.43,4.76,2.6v43.27c0,1.3-.87,3-2.6,3H417.31a3.09,3.09,0,0,1-2.16-5.19l5.19-5.62V832.48l-5.19-5.62c-1.73-2.16-.87-4.76,2.16-4.76H468.8c3,0,4.33,3,2.6,4.76l-5.62,5.63v174.38h67.5Z" style="fill:#0957a5"/><path d="M607.26,826.85c-1.73-2.16-.87-4.76,2.16-4.76h51.49c3.46,0,4.33,3,2.6,4.76l-5.19,6.06v137.6c0,30.29,16.88,36.78,31.15,36.78h4.33c21.2,0,31.15-14.71,31.15-36.78V832.91l-5.62-6.06c-1.3-1.3-.87-4.76,2.16-4.76h52.36c2.16,0,3.89,3,2.16,4.76l-5.62,6.06V981.76c0,49.76-27.26,72.26-78.75,72.26-48.89,0-79.18-19.47-79.18-72.26V832.91Z" style="fill:#0957a5"/><path d="M996.69,897.81c0,1.73-1.3,3-3.46,3H947.79c-3,0-4.76-3-2.6-5.19l5.63-5.19c-3.46-15.14-13.41-25.1-31.15-25.1h-4.33c-11.25,0-19,3-24.23,10-4.76,6.49-6.49,15.14-6.49,26.83v68.37c0,30.29,16.44,36.78,30.72,36.78h4.33c21.2,0,31.15-14.71,31.15-36.78v-3H922.7l-5.62,5.19c-1.73,1.73-5.62,0-5.62-2.16V928.1a3.88,3.88,0,0,1,3.89-3.89h77.88a3.35,3.35,0,0,1,3.46,3v54.52c0,50.63-27.26,72.26-78.75,72.26-48,0-79.62-19-79.62-72.26v-91.3c0-50.19,28.13-71.39,79.62-71.39,48.46,0,78.75,18.61,78.75,71.39Z" style="fill:#0957a5"/><path d="M1110.05,1039.74l5.63,5.63a3.21,3.21,0,0,1-2.6,5.19h-51.49a3,3,0,0,1-2.16-5.19l5.19-5.62V832.91l-5.19-6.06a2.75,2.75,0,0,1,2.16-4.76h73.13c38.51,0,61.88,21.63,61.88,62.31v43.7c0,36.78-22.93,61.88-61.87,61.88h-24.66Zm5.63-92.6c19,0,35.48-6.06,35.48-29.42V894.79c0-23.8-11.25-29-35.48-29h-5.63v81.35Z" style="fill:#0957a5"/><path d="M1383.95,1001.66c1.3-1.3,4.76-.43,4.76,2.6v43.27c0,1.3-.87,3-2.6,3H1262.36a3.09,3.09,0,0,1-2.16-5.19l5.19-5.62V832.48l-5.19-5.62c-1.73-2.16-.87-4.76,2.16-4.76h51.49c3,0,4.33,3,2.6,4.76l-5.63,5.63v174.38h67.5Z" style="fill:#0957a5"/><path d="M1414.67,1045.36l5.19-5.62,55.82-207.26-3.46-5.62c-1.3-2.16-.43-4.76,3-4.76h54.09a3.1,3.1,0,0,1,2.6,4.76l-3.89,5.63,55.82,207.26,6.06,5.63c1.3,1.3.43,5.19-2.6,5.19H1535a3,3,0,0,1-1.73-5.19l5.19-5.19-11.25-40.24h-50.62l-10.82,40.24,5.19,5.19a3.21,3.21,0,0,1-2.6,5.19h-51.49A3,3,0,0,1,1414.67,1045.36Zm101.68-88.27-14.71-52.36-13.85,52.36Z" style="fill:#0957a5"/><path d="M1618.91,870.55c-1.73,1.73-5.62,0-5.62-2.6v-42.4a3.72,3.72,0,0,1,3.46-3.46H1760.4a3.18,3.18,0,0,1,3.46,3.46V868c0,2.6-3.46,4.33-5.19,2.6l-5.62-5.19H1711.5v174.38l5.19,5.63a3,3,0,0,1-2.16,5.19h-51.92a3.14,3.14,0,0,1-2.16-5.19l5.19-5.62V865.36H1624.1Z" style="fill:#0957a5"/><path d="M1830.49,870.55a3.33,3.33,0,0,1-5.62-2.6V825.12a3.34,3.34,0,0,1,3.46-3h134.13a2.68,2.68,0,0,1,2.6,2.6v38.94a1.59,1.59,0,0,1-.43,1.3l-83.51,142.36h74l5.63-5.19c1.73-1.3,4.76-.87,4.76,2.6v42.84a2.94,2.94,0,0,1-3,3h-133.7a2.94,2.94,0,0,1-3-3V1009a3.35,3.35,0,0,1,.43-1.3l83.51-142.36h-74Z" style="fill:#0957a5"/><path d="M746.29,543.91c-1.28,1.28-4.15,0-4.15-1.91V510.73a2.75,2.75,0,0,1,2.55-2.55H850.63a2.35,2.35,0,0,1,2.55,2.55V542c0,1.91-2.55,3.19-3.83,1.91l-4.15-3.83H814.58V668.68l3.83,4.15a2.24,2.24,0,0,1-1.6,3.83H778.52a2.31,2.31,0,0,1-1.6-3.83l3.83-4.15V540.08H750.12Z" style="fill:#0957a5"/><path d="M899.13,511.69a2,2,0,0,1,1.6-3.51h53.93c28.4,0,45.63,16,45.63,45.95v32.23c0,8.93-1.6,17.23-4.79,23.61-3.51,7.34-8.62,13.08-15.64,16.27L999,668.36l4.47,4.47c1.6,1,.32,3.83-1.92,3.83H961.35a2.24,2.24,0,0,1-1.6-3.83l3.19-4.15L946.36,632h-9.89v36.7l4.15,4.15c2.23,2.23,1,3.83-1.28,3.83H900.73a2.28,2.28,0,0,1-1.6-3.83l3.83-4.15V516.15Zm41.48,88.71c10.21,0,16.27-1.6,20.42-5.11,4.15-3.19,5.74-8.3,5.74-16.91V561.78c0-8.93-1.6-14.36-5.74-17.23-3.83-3.19-9.89-4.47-20.42-4.47h-4.15v60.31Z" style="fill:#0957a5"/><path d="M1054.84,668.68V516.15l-3.83-4.47a2,2,0,0,1,1.6-3.51h38c1.91,0,3.19,2.23,1.91,3.51l-4.15,4.47V668.68l4.15,4.15a2.47,2.47,0,0,1-1.91,3.83h-38a2.28,2.28,0,0,1-1.6-3.83Z" style="fill:#0957a5"/><path d="M1180.88,672.83a2.27,2.27,0,0,1-1.91,3.83h-38a2.28,2.28,0,0,1-1.6-3.83l3.83-4.15V516.15l-3.83-4.47a2,2,0,0,1,1.6-3.51h91.26a2.13,2.13,0,0,1,2.23,1.91V542c0,1.91-1.91,3.83-3.83,1.91l-3.83-3.83h-49.78v34.78h37.33l3.83-4.15c1-1.28,3.83-.32,3.83,1.6V609a2.31,2.31,0,0,1-3.83,1.59l-3.83-3.51h-37.33v61.58Z" style="fill:#0957a5"/><path d="M1322.56,672.83a2.27,2.27,0,0,1-1.91,3.83h-38a2.28,2.28,0,0,1-1.6-3.83l3.83-4.15V516.15l-3.83-4.47a2,2,0,0,1,1.6-3.51h91.26a2.13,2.13,0,0,1,2.23,1.91V542c0,1.91-1.91,3.83-3.83,1.91l-3.83-3.83h-49.78v34.78h37.33l3.83-4.15c1-1.28,3.83-.32,3.83,1.6V609a2.31,2.31,0,0,1-3.83,1.59l-3.83-3.51h-37.33v61.58Z" style="fill:#0957a5"/><path d="M1425.94,543.91c-1.28,1.28-4.15,0-4.15-1.91V510.73a2.75,2.75,0,0,1,2.55-2.55h105.94a2.35,2.35,0,0,1,2.55,2.55V542c0,1.91-2.55,3.19-3.83,1.91l-4.15-3.83h-30.63V668.68l3.83,4.15a2.24,2.24,0,0,1-1.6,3.83h-38.29a2.31,2.31,0,0,1-1.6-3.83l3.83-4.15V540.08h-30.63Z" style="fill:#0957a5"/><path d="M747.52,543.63l8.93,9.25h-.32a2.13,2.13,0,0,1-3.19,0l-7.66-7.66a6.69,6.69,0,0,0,1.91-1.28Zm11.49,6.7-8.93-9.25h4.79l8.3,8h-2.87Zm9.25-1.28-8.3-8h5.11l8,8Zm8.3-1.6-6.38-6.38h5.11l1.28,1.28Zm3.83,130.19,8,8H788l-1.28-.64-7.34-7.34Zm12.76,2.55,5.42,5.42h-5.11l-8-8h4.79Zm15.32,5.42h-4.79l-8-8h4.79Zm2.23-8,8,8h-5.11l-8-8Zm5.11,0a5.12,5.12,0,0,0,3.51-1.6l8.93,8.93a2.42,2.42,0,0,1-1.28.64h-3.19Zm.64-135.93,8,8.3v5.11l-8-8.3Zm0,10.21,8,8.3V565l-8-8Zm0,10.21,8,8v5.11l-8-8Zm0,9.89,8,8.3v5.11l-8-8.3Zm8,18.51v4.79l-8-8v-5.11Zm-8,1.92,8,8v5.11l-8-8Zm0,10.21,8,8v5.11l-8-8.3Zm0,9.89,8,8.3v4.79l-8-8Zm0,10.21,8,8v5.11l-8-8Zm0,10.21,8,8v5.11l-8-8.3Zm0,9.89,7,7,1,1.28V656l-8-8Zm8,18.19v5.11l-8-8v-5.11Zm-8,2.23,8,8v5.11l-3.51-3.51a5,5,0,0,0-1.6-4.47l-2.87-3.19Zm9.25-122.21,8,8h-4.79l-8.3-8Zm10.21,0,8,8h-5.11l-8-8Zm14.36,4.47,3.83,3.51H849l-8-8h1.6l3.19,2.87a5.29,5.29,0,0,0,3.83,1.6ZM863,548.1v3.19c0,.64,0,1-.32,1.28l-8.93-8.93a6.69,6.69,0,0,0,1.28-3.51Zm0-25.21-8-8.3v-4.15c.64.64,6.7,7,7.34,7.34a2.44,2.44,0,0,1,.64,1.6Zm-8-3.19,8,8.3v4.79l-8-8Zm0,10.21,8,8V543l-8-8Z" style="fill:#0957a5"/><path d="M904.51,677.33l8.3,8.3h-1.91a2.28,2.28,0,0,1-1.91-1c-1-.64-6.7-6.7-7.34-7.34Zm13.08,8.3-8-8.3h5.11l8,8.3Zm15.32,0h-5.11l-8-8.3h5.11Zm1.92-8.3,8.3,8.3H938l-8.3-8.3Zm11.81-124.44-8-8.3v-3.51h1.28l8.3,8h-1.6Zm0,9.89-8-8v-5.11l8,8Zm0,10.21-8-8V559.9l8,8Zm0,10.21-8-8.3V569.8l8,8.3Zm0,9.89-8-8V580l8,8Zm-3.51,1.6h-4.47v-4.47Zm3.51,49.14-8-8.3V633h2.23l4.15,4.15,1.91,4.15h-.32Zm-8-3.19,8,8v5.11l-8-8Zm0,10.21,8,8v5.11l-8-8Zm0,9.89,8,8.3v5.11L942.8,670a3.19,3.19,0,0,0-1.28-1.6l-2.87-3.19Zm9.25,24.89-8.3-8.62a5.09,5.09,0,0,0,2.87-2.23l8.62,8.93a2.13,2.13,0,0,1-2.23,1.92Zm5.42-136.57-8-8,5.74,1,7.34,7.34C956.84,549.37,955.25,549.06,953.33,549.06Zm12.13,128.59,8,8h-1.91a2.44,2.44,0,0,1-1.6-.64c-1-1-7-6.7-7.34-7.34Zm13.08,8-8-8h4.79l8.3,8Zm7-8,8,8h-4.79l-8.3-8ZM983.33,625l9.25,8.93a17.88,17.88,0,0,0-2.55,1.6l.64,1.6-4.79-4.47-3.19-7.34A1.11,1.11,0,0,0,983.33,625Zm5.74-4.47,8.93,8.93-2.55,2.23-8.93-8.93Zm5.74,31-4.47-9.57,4.79,4.79,4.47,9.57Zm1,26.17,8,8h-5.11l-8-8Zm-2.23-62.86,9.25,8.93-2.23,2.87v.32l-9.25-9.25A17.51,17.51,0,0,0,993.54,614.79Zm3.83-6.38,8.93,8.93a17.09,17.09,0,0,0-1.6,3.51l-8.93-8.93a6.41,6.41,0,0,1,1.28-2.55C997,609,997.37,608.72,997.37,608.41Zm3.19-72.43a49.28,49.28,0,0,0-2.23-7.34l2.87,2.55,3.19,4.79,2.87,6.7ZM999,604.9l1-3.83,8.93,8.61c-.32,1.28-1,2.55-1.28,4.15Zm1.91,59.67-1.6-3.51,4.79,4.47,4.47,9.57-2.55-2.23a5.72,5.72,0,0,0-1.28-4.47Zm0-67.65,1-4.15,8.3,8.3a21.53,21.53,0,0,1-.64,4.47Zm3.51,79.13,8.93,9.25c-.32,0-.64.32-1.28.32h-3.19l-8-8A5.12,5.12,0,0,0,1004.39,676.05Zm-2.87-134,7,7,.64.32,1,6.06-8-8A31.47,31.47,0,0,0,1001.52,542Zm.64,15.64v-4.79l1.28,1,7,7V566Zm8.3,18.19-8.3-8v-5.11l8.3,8.3Zm0,10.21-8.3-8V573l8.3,8Zm-8.3,1.91V583.2l8.3,8v5.11Z" style="fill:#0957a5"/><path d="M1062.14,677.65l8,8H1065l-8-8Zm9.89,0,8.3,8h-5.11l-8-8Zm10.21,0,8,8h-4.79l-8.3-8Zm7.34,0a2.69,2.69,0,0,0,2.23-.64l8.62,8.62h-5.11l-8-8Zm1.6-163.06,8.93,8.93-1.6,1.6v2.23l-8-8.3v-3.83Zm-.64,9.57,8,8v5.11l-8-8Zm0,10.21,8,8v5.11l-8-8.3Zm0,9.89,8,8.3v5.11l-8-8.3Zm0,10.21,8,8v5.11l-8-8Zm0,10.21,8,8v5.11l-8-8Zm0,9.89,8,8.3V588l-8-8.3Zm0,10.21,8,8v5.11l-8-8Zm0,10.21,8,8v5.11l-8-8Zm0,9.89,8,8.3v5.11l-8-8.3Zm0,10.21,8,8v5.11l-8-8Zm0,10.21,8,8v5.11l-8-8Zm0,9.89,8,8.3v5.11l-8-8.3Zm0,10.21,8,8v5.11l-8-8Zm0,10.21,8,8v5.11l-8-8ZM1102.67,521l-9.25-8.93a6.69,6.69,0,0,0,1.28-1.92c3.19,3.19,7.34,7.66,7.66,7.66A2.46,2.46,0,0,1,1102.67,521Zm-8,153.48a5.74,5.74,0,0,0-.64-5.11l4.47,4.47V678l3.83,4.15c.64.32.64.64.64,1.28l-8.62-8.62A.31.31,0,0,1,1094.69,674.46Z" style="fill:#0957a5"/><path d="M1144.46,677.65l8.3,8h-1.6c-1,0-1.28,0-1.91-.64l-7.34-7.34Zm13.4,8-8.3-8h5.11l8,8Zm7-8,8,8h-5.11l-8-8Zm9.89,0,8.3,8H1178l-8-8ZM1186.9,553.2l-8-8v-4.15h1l8,8.3h-1Zm0,10.21-8-8v-5.11l8,8Zm-8-3.19,8,8.3v1h-3.83l-4.15-4.15Zm0,50.73,8,8V624l-8-8Zm0,9.89,8,8.3v5.11l-8-8.3Zm0,10.21,8,8v5.11l-8-8Zm0,10.21,8,8v5.11l-8-8Zm0,9.89,8,8.3v5.11l-8-8.3Zm0,10.21,8,8v5.11l-3.83-3.51a3.94,3.94,0,0,0-1.28-2.55l-2.87-2.87Zm.64,16a4.06,4.06,0,0,0,2.87-2.23l8.93,8.93a2.13,2.13,0,0,1-2.23,1.6h-1Zm6.38-69.56,8,8h-5.11l-8-8Zm7-58.39-8-8.3h5.11l8,8.3Zm2.87,58.39,8.3,8H1199l-8-8Zm7.34-58.39-8.3-8.3H1200l8.3,8.3Zm2.87,58.39,8.3,8h-5.11l-8.3-8Zm7.34-58.39-8.3-8.3h5.11l8,8.3Zm7,62.54,3.83,3.83h-5.11l-8-8h.32l3.19,3.19a5.57,5.57,0,0,0,3.83,1.28A4.05,4.05,0,0,0,1220.41,611.92Zm2.87-62.54-8-8.3h5.11l8,8.3Zm0,60.31a9.3,9.3,0,0,0,.64-2.87v-1.28l8,8v5.11Zm.64-34.46,8,8v5.11l-8-8.3Zm8,23-8-8v-5.11l8,8.3Zm-8-2.87,8,8v5.1l-8-8Zm.32,20.42,4.15,4.15h-.32Zm8.93-70.52c.32,0,.64-.32,1-.64l8.62,8.93a2,2,0,0,1-2.23-.32l-3.83-3.83h-3.19l-3.83-3.83h1.28A6.23,6.23,0,0,0,1233.17,545.23Zm11.17,4.79-8.3-8.3a2.39,2.39,0,0,0,.32-1.6v-3.19l8,8.3Zm-8-38.29v-1c.64.32,7,6.7,7.34,7a4.53,4.53,0,0,1,.64,1.92Zm8,18.19-8-8v-5.11l8,8Zm0,10.21-8-8.3v-5.11l8,8.3Z" style="fill:#0957a5"/><path d="M1286.14,677.65l8.3,8h-1.6c-1,0-1.28,0-1.91-.64l-7.34-7.34Zm13.4,8-8.3-8h5.11l8,8Zm7-8,8,8h-5.11l-8-8Zm9.89,0,8.3,8h-5.11l-8-8Zm12.13-124.45-8-8v-4.15h1l8,8.3h-1Zm0,10.21-8-8v-5.11l8,8Zm-8-3.19,8,8.3v1h-3.83l-4.15-4.15Zm0,50.73,8,8V624l-8-8Zm0,9.89,8,8.3v5.11l-8-8.3Zm0,10.21,8,8v5.11l-8-8Zm0,10.21,8,8v5.11l-8-8Zm0,9.89,8,8.3v5.11l-8-8.3Zm0,10.21,8,8v5.11l-3.83-3.51a3.94,3.94,0,0,0-1.28-2.55l-2.87-2.87Zm.64,16a4.06,4.06,0,0,0,2.87-2.23L1333,684a2.13,2.13,0,0,1-2.23,1.6h-1Zm6.38-69.56,8,8h-5.11l-8-8Zm7-58.39-8-8.3h5.11l8,8.3Zm2.87,58.39,8.3,8h-5.11l-8-8Zm7.34-58.39-8.3-8.3h5.11l8.3,8.3Zm2.87,58.39,8.3,8h-5.11l-8.3-8Zm7.34-58.39-8.3-8.3h5.11l8,8.3Zm7,62.54,3.83,3.83h-5.11l-8-8h.32l3.19,3.19a5.57,5.57,0,0,0,3.83,1.28A4.05,4.05,0,0,0,1362.08,611.92Zm2.87-62.54-8-8.3h5.11l8,8.3Zm0,60.31a9.3,9.3,0,0,0,.64-2.87v-1.28l8,8v5.11Zm.64-34.46,8,8v5.11l-8-8.3Zm8,23-8-8v-5.11l8,8.3Zm-8-2.87,8,8v5.1l-8-8Zm.32,20.42,4.15,4.15h-.32Zm8.93-70.52c.32,0,.64-.32,1-.64l8.62,8.93a2,2,0,0,1-2.23-.32l-3.83-3.83h-3.19l-3.83-3.83h1.28A6.23,6.23,0,0,0,1374.84,545.23ZM1386,550l-8.3-8.3a2.39,2.39,0,0,0,.32-1.6v-3.19l8,8.3Zm-8-38.29v-1c.64.32,7,6.7,7.34,7a4.53,4.53,0,0,1,.64,1.92Zm8,18.19-8-8v-5.11l8,8Zm0,10.21-8-8.3v-5.11l8,8.3Z" style="fill:#0957a5"/><path d="M1427.17,543.63l8.93,9.25h-.32a2.13,2.13,0,0,1-3.19,0l-7.66-7.66a6.68,6.68,0,0,0,1.91-1.28Zm11.49,6.7-8.93-9.25h4.79l8.3,8h-2.87Zm9.25-1.28-8.3-8h5.11l8,8Zm8.3-1.6-6.38-6.38h5.11l1.28,1.28ZM1460,677.65l8,8h-.32l-1.28-.64-7.34-7.34Zm12.76,2.55,5.42,5.42h-5.11l-8-8h4.79Zm15.32,5.42h-4.79l-8-8h4.79Zm2.23-8,8,8h-5.11l-8-8Zm5.11,0a5.12,5.12,0,0,0,3.51-1.6l8.93,8.93a2.42,2.42,0,0,1-1.28.64h-3.19Zm.64-135.93,8,8.3v5.11l-8-8.3Zm0,10.21,8,8.3V565l-8-8Zm0,10.21,8,8v5.11l-8-8Zm0,9.89,8,8.3v5.11l-8-8.3Zm8,18.51v4.79l-8-8v-5.11Zm-8,1.92,8,8v5.11l-8-8Zm0,10.21,8,8v5.11l-8-8.3Zm0,9.89,8,8.3v4.79l-8-8Zm0,10.21,8,8v5.11l-8-8Zm0,10.21,8,8v5.11l-8-8.3Zm0,9.89,7,7,1,1.28V656l-8-8Zm8,18.19v5.11l-8-8v-5.11Zm-8,2.23,8,8v5.11l-3.51-3.51a5,5,0,0,0-1.6-4.47l-2.87-3.19Zm9.25-122.21,8,8h-4.79l-8.3-8Zm10.21,0,8,8h-5.11l-8-8Zm14.36,4.47,3.83,3.51h-5.11l-8-8h1.6l3.19,2.87a5.29,5.29,0,0,0,3.83,1.6Zm12.76,2.55v3.19c0,.64,0,1-.32,1.28l-8.93-8.93a6.69,6.69,0,0,0,1.28-3.51Zm0-25.21-8-8.3v-4.15c.64.64,6.7,7,7.34,7.34a2.44,2.44,0,0,1,.64,1.6Zm-8-3.19,8,8.3v4.79l-8-8Zm0,10.21,8,8V543l-8-8Z" style="fill:#0957a5"/><line x1="620.84" y1="479.19" x2="1641.08" y2="479.18" style="fill:none;stroke:#0957a5;stroke-miterlimit:10;stroke-width:8px"/><line x1="620.84" y1="708.11" x2="1641.08" y2="708.11" style="fill:none;stroke:#0957a5;stroke-miterlimit:10;stroke-width:8px"/></svg>