<svg id="Layer_1" data-name="Layer 1" xmlns="http://www.w3.org/2000/svg" viewBox="0 0 805 446"><title>logo_website_oldtimer-trifft-flugplatz-02</title><path d="M86,116.77l-6.3-6.3c-4.14-4.68-6.48-11.52-6.48-21.41v-38c0-9.54,2.34-16.37,6.48-21.23,5.58-5.76,14-8.46,26.63-8.46,12.42,0,20.69,2.88,26.45,8.64l6.3,6.3c4.5,4.5,6.3,11.52,6.3,21.05v38c0,9.9-2,16.73-6.3,21.41-5.58,5.76-14,8.64-26.45,8.64C99.87,125.41,91.59,122.35,86,116.77Zm32.75-68.91a18.84,18.84,0,0,0-5.4-.9h-1.8c-9,0-12.77,5.94-12.77,15.29V90.68A25.84,25.84,0,0,0,100,99a16.63,16.63,0,0,0,5.22.72h1.8c4.68,0,8.1-1.26,10.26-4.14,1.8-2.7,2.7-6.48,2.7-11.16V56A24.64,24.64,0,0,0,118.76,47.86Z" style="fill:#a0d6c5"/><path d="M216.64,97.34c.36-.36,1.08-.36,1.8.18l5.58,5.22a2.11,2.11,0,0,1,.9,2v18a1.19,1.19,0,0,1-1.08,1.26H172.38c-.9,0-1.26-.54-1.8-1.08l-5.22-5.22a1.64,1.64,0,0,1-.18-2.16l2.16-2.34v-86l-2.16-2.34c-.72-.9-.36-2,.9-2h21.41c.9,0,1.26.54,1.8,1.08l5.4,5.58c.54.54.72,1.08.18,1.62l-2.34,2.34v66H214.3Z" style="fill:#a0d6c5"/><path d="M245.07,24.65a1.14,1.14,0,0,1,.9-2h38.51c9.72,0,17.09,2.7,22,8.1,7.38,9.36,12.78,12.06,12.78,26.63V95.54C319.2,113,309.13,124,290.77,124H252.27a1.82,1.82,0,0,1-1.26-.72l-5.94-5.94a1.2,1.2,0,0,1,0-1.8l2.16-2.34v-86ZM272.6,47V99.68h6.66c8.64,0,14.75-5.58,14.75-14.75V55.41a20.36,20.36,0,0,0-1.26-7,17.68,17.68,0,0,0-7.2-1.44Z" style="fill:#a0d6c5"/><path d="M339.35,43a1.82,1.82,0,0,1-.72-1.26V24.11a1.55,1.55,0,0,1,1.44-1.44h59.74a1.63,1.63,0,0,1,1.26.54L407,29a2,2,0,0,1,.54,1.44V48c0,1.08-1.44,1.8-2.16,1.08L403,47H385.77v72.51l2.16,2.34A1.26,1.26,0,0,1,387,124H365.44a1.82,1.82,0,0,1-1.26-.72l-5.76-5.76a1.43,1.43,0,0,1-.18-2l2.16-2.34V47h-11l-2.16,2.16a.89.89,0,0,1-1.26.18Z" style="fill:#a0d6c5"/><path d="M429.32,113.17v-86l-2.16-2.52a1.14,1.14,0,0,1,.9-2h21.41a1.84,1.84,0,0,1,1.44.9l5.76,5.76c.54.54.72,1.08.18,1.62l-2.34,2.52v86l2.34,2.34a1.39,1.39,0,0,1-1.08,2.16H434.35c-.54,0-.72-.36-1.08-.72l-5.94-5.76a1.43,1.43,0,0,1-.18-2Z" style="fill:#a0d6c5"/><path d="M479.16,113.17v-86L477,24.65a1.14,1.14,0,0,1,.9-2h19.43a1,1,0,0,1,.9.54l6.3,6.3,12.6,17.09L533,23.21a1,1,0,0,1,.9-.54h19.43c1.08,0,1.26.54,2.16,1.44l4.5,4.32c.72.72,1.44,1.62.54,2.52l-2.16,2.52v86l2.16,2.34a1.26,1.26,0,0,1-.9,2.16H538a3.83,3.83,0,0,1-2.7-1.26l-4-4.5c-.72-.9-1.26-2-.54-2.7l2.34-2.34V71.07L522.88,85.46a1.27,1.27,0,0,1-2,0l-6.3-6.3-10.26-13v53.26l2.34,2.34a1.39,1.39,0,0,1-1.08,2.16H484.19c-1.08,0-1.26-.54-2.16-1.26l-4.5-4.5a1.86,1.86,0,0,1-.54-2.7Z" style="fill:#a0d6c5"/><path d="M633.17,22.67c.72,0,.9.36,1.44.9l5.76,5.76a1.72,1.72,0,0,1,.36,1.26V48c0,1.08-1.08,2.16-2.16,1.08L636.41,47H608.34V60.27H623.1l2.16-2.34a1.41,1.41,0,0,1,2,0L633,63.87c.36.36.72.54.72,1.26V85.82a1.3,1.3,0,0,1-2.16.9l-2.16-2H608.34V99.68h21.77l2.16-2.16a1.16,1.16,0,0,1,1.62-.18c.36.18.54.72,6.48,6.66a1.38,1.38,0,0,1,.36.9v17.81a1.35,1.35,0,0,1-1.26,1.26H588c-.36,0-.72-.18-1.26-.72L581,117.49a1.43,1.43,0,0,1-.18-2l2.16-2.34v-86l-2.16-2.52a1.14,1.14,0,0,1,.9-2Z" style="fill:#a0d6c5"/><path d="M660.7,24.65a1.14,1.14,0,0,1,.9-2H692c8.28,0,14.93,2.16,19.25,6.66l7.2,7.38c3.78,4.14,5.58,10.44,5.58,18.17V73a30.3,30.3,0,0,1-2.7,13.31,18.27,18.27,0,0,1-8.82,9.18l10.8,23.75,2.52,2.52c.9.54.18,2.16-1.08,2.16H702.09c-.54,0-.72-.36-1.08-.72l-5.94-5.76a1.26,1.26,0,0,1-.18-2l1.8-2.34-6.48-14.39h-2.16v20.69l2.34,2.34c1.26,1.26.54,2.16-.72,2.16H667.9a1.87,1.87,0,0,1-1.44-.72l-5.58-5.76a1.41,1.41,0,0,1-.18-2l2.16-2.34v-86Zm27.35,49.84a13.88,13.88,0,0,0,7.56-2.7c2.34-1.8,3.24-4.68,3.24-9.54V52.89a20.55,20.55,0,0,0-.54-5,29.9,29.9,0,0,0-7.92-.9h-2.34Z" style="fill:#a0d6c5"/><path d="M79.71,110.47c-4.14-4.68-6.48-11.52-6.48-21.41v-38c0-9.54,2.34-16.37,6.48-21.23,5.58-5.76,14-8.46,26.63-8.46,12.42,0,21.05,2.7,26.45,8.64,4.32,4.68,6.3,11.52,6.3,21.05v38c0,9.9-2,16.73-6.3,21.41-5.58,5.76-14,8.64-26.45,8.64C93.57,119.11,85.11,116.23,79.71,110.47Zm27.35-69.81h-1.8c-4.68,0-7.92,1.26-10.08,4-2,2.88-2.7,6.48-2.7,11.34V84.38c0,12.59,6.84,15.29,12.78,15.29h1.8c4.68,0,8.1-1.26,10.26-4.14,1.8-2.7,2.7-6.48,2.7-11.16V56C120,43.18,113.18,40.66,107.06,40.66Z" style="fill:#3c56a3"/><path d="M216.64,97.34a1.26,1.26,0,0,1,2,1.08v18a1.19,1.19,0,0,1-1.08,1.26H166.08a1.28,1.28,0,0,1-.9-2.16l2.16-2.34V27l-2.16-2.34c-.72-.9-.36-2,.9-2h21.41c1.26,0,1.8,1.26,1.08,2L186.23,27V99.5H214.3Z" style="fill:#3c56a3"/><path d="M245.07,24.65a1.14,1.14,0,0,1,.9-2h38.51c9.72,0,17.09,2.7,22,8.1,4.32,4.68,6.48,11.7,6.48,20.33V89.24c0,17.45-10.08,28.43-28.43,28.43H246a1.25,1.25,0,0,1-.9-2.16l2.16-2.34v-86Zm21.23,16v59h13c8.64,0,14.75-5.58,14.75-14.75V55.41c0-9-4.68-14.75-14.75-14.75Z" style="fill:#3c56a3"/><path d="M341,42.82a1.51,1.51,0,0,1-2.34-1.08V24.11a1.55,1.55,0,0,1,1.44-1.44h59.74a1.32,1.32,0,0,1,1.44,1.44V41.74c0,1.08-1.44,1.8-2.16,1.08l-2.34-2.16H379.48v72.51l2.16,2.34a1.26,1.26,0,0,1-.9,2.16H359.14a1.3,1.3,0,0,1-.9-2.16l2.16-2.34V40.66H343.13Z" style="fill:#3c56a3"/><path d="M429.32,113.17v-86l-2.16-2.52a1.14,1.14,0,0,1,.9-2h21.41c1.08,0,1.8,1.26,1.08,2l-2.34,2.52v86l2.34,2.34a1.39,1.39,0,0,1-1.08,2.16H428.06a1.28,1.28,0,0,1-.9-2.16Z" style="fill:#3c56a3"/><path d="M479.16,113.17v-86L477,24.65a1.14,1.14,0,0,1,.9-2h19.43a1,1,0,0,1,.9.54L516.4,47.68,533,23.21a1,1,0,0,1,.9-.54h19.43c1.08,0,1.8,1.08.9,2L552,27.16v86l2.16,2.34a1.26,1.26,0,0,1-.9,2.16H531.7a1.3,1.3,0,0,1-.9-2.16l2.34-2.34V55.77L516.58,79.16a1.18,1.18,0,0,1-2,0L498,58.11v55.06l2.34,2.34a1.39,1.39,0,0,1-1.08,2.16H477.9a1.28,1.28,0,0,1-.9-2.16Z" style="fill:#3c56a3"/><path d="M581.71,117.67a1.28,1.28,0,0,1-.9-2.16l2.16-2.34v-86l-2.16-2.52a1.14,1.14,0,0,1,.9-2h51.46a1.2,1.2,0,0,1,1.26,1.08v18c0,1.08-1.08,2.16-2.16,1.08l-2.16-2.16H602V60.27H623.1l2.16-2.34a1.24,1.24,0,0,1,2.16.9V79.52a1.3,1.3,0,0,1-2.16.9l-2.16-2H602V99.68h28.07l2.16-2.16c.9-.9,2.16-.18,2.16,1.08v17.81a1.35,1.35,0,0,1-1.26,1.26Z" style="fill:#3c56a3"/><path d="M660.7,24.65a1.14,1.14,0,0,1,.9-2H692c16,0,25.73,9,25.73,25.91V66.75A30.31,30.31,0,0,1,715,80.06a18.27,18.27,0,0,1-8.82,9.18L717,113l2.52,2.52c.9.54.18,2.16-1.08,2.16H695.79a1.26,1.26,0,0,1-.9-2.16l1.8-2.34-9.36-20.69h-5.58v20.69l2.34,2.34c1.26,1.26.54,2.16-.72,2.16H661.6a1.28,1.28,0,0,1-.9-2.16l2.16-2.34v-86Zm23.39,50c5.76,0,9.18-.9,11.52-2.88,2.34-1.8,3.24-4.68,3.24-9.54V52.89c0-5-.9-8.1-3.24-9.72-2.16-1.8-5.58-2.52-11.52-2.52h-2.34v34Z" style="fill:#3c56a3"/><path d="M82.77,81.68a2,2,0,1,1-2,2A2,2,0,0,1,82.77,81.68ZM83,49.84a2,2,0,1,1-2,2A2,2,0,0,1,83,49.84Zm0,6.48a2,2,0,1,1-2,2A2,2,0,0,1,83,56.31Zm0,6.3a2,2,0,1,1-2,2A2,2,0,0,1,83,62.61Zm0,6.48a2,2,0,1,1-2,2A2,2,0,0,1,83,69.09Zm0,6.3a2,2,0,1,1-2,2A2,2,0,0,1,83,75.39Zm0,13a2,2,0,1,1-2,2A2,2,0,0,1,83,88.34Zm.72-44.8a2,2,0,1,1-2,2A2,2,0,0,1,83.67,43.54Zm.54,50.92a2,2,0,1,1-2,2A2,2,0,0,1,84.21,94.46Zm1.62-57a2,2,0,1,1-2,2A2,2,0,0,1,85.83,37.42ZM87.27,100a2,2,0,1,1-2,2A2,2,0,0,1,87.27,100ZM90,32.74a2,2,0,1,1-2,2A2,2,0,0,1,90,32.74Zm2.16,71.43a2,2,0,1,1-2,2A2,2,0,0,1,92.13,104.17Zm3.6-74.49a2,2,0,1,1-2,2A2,2,0,0,1,95.73,29.68Zm2,76.83a2,2,0,1,1-2,2A2,2,0,0,1,97.71,106.51Zm4.14-77.91a2,2,0,1,1-2,2A2,2,0,0,1,101.85,28.6Zm2.34,78.81a2,2,0,1,1-2,2A2,2,0,0,1,104.19,107.41Zm4.14-78.81a2,2,0,1,1-2,2A2,2,0,0,1,108.32,28.6Zm2.34,78.63a2,2,0,1,1-2,2A2,2,0,0,1,110.66,107.23Zm4-78.09a2,2,0,1,1-2,2A2,2,0,0,1,114.62,29.14ZM117,105.79a2,2,0,1,1-2,2A2,2,0,0,1,117,105.79Zm3.6-74.49a2,2,0,1,1-2,2A2,2,0,0,1,120.56,31.3Zm1.8,71.43a2,2,0,1,1-2,2A2,2,0,0,1,122.36,102.74Zm3.06-67.29a2,2,0,1,1-2,2A2,2,0,0,1,125.42,35.44Zm1.26,62.44a2,2,0,1,1-2,2A2,2,0,0,1,126.68,97.88ZM128.48,41a2,2,0,1,1-2,2A2,2,0,0,1,128.48,41ZM129,91.94a2,2,0,1,1-2,2A2,2,0,0,1,129,91.94Zm.54-6.3a2,2,0,1,1-2,2A2,2,0,0,1,129.56,85.64Zm.18-38.33a2,2,0,1,1-2,2A2,2,0,0,1,129.74,47.32Zm0,6.48a2,2,0,1,1-2,2A2,2,0,0,1,129.74,53.79Zm0,6.12a2,2,0,1,1-2,2A2,2,0,0,1,129.74,59.91Zm0,6.48a2,2,0,1,1-2,2A2,2,0,0,1,129.74,66.39Zm0,6.48a2,2,0,1,1-2,2A2,2,0,0,1,129.74,72.87Zm0,6.3a2,2,0,1,1-2,2A2,2,0,0,1,129.74,79.16Z" style="fill:#fcfdff"/><path d="M176.52,29.5a2,2,0,1,1-2,2A2,2,0,0,1,176.52,29.5Zm0,6.48a2,2,0,1,1-2,2A2,2,0,0,1,176.52,36Zm0,6.3a2,2,0,1,1-2,2A2,2,0,0,1,176.52,42.28Zm0,6.66a2,2,0,1,1-2,2A2,2,0,0,1,176.52,48.94Zm0,6.3a2,2,0,1,1-2,2A2,2,0,0,1,176.52,55.23Zm0,6.48a2,2,0,1,1-2,2A2,2,0,0,1,176.52,61.71Zm0,6.48a2,2,0,1,1-2,2A2,2,0,0,1,176.52,68.19Zm0,6.3a2,2,0,1,1-2,2A2,2,0,0,1,176.52,74.49Zm0,6.66a2,2,0,1,1-2,2A2,2,0,0,1,176.52,81.14Zm0,6.48a2,2,0,1,1-2,2A2,2,0,0,1,176.52,87.62Zm0,6.48a2,2,0,1,1-2,2A2,2,0,0,1,176.52,94.1Zm0,6.48a2,2,0,1,1-2,2A2,2,0,0,1,176.52,100.58Zm0,6.3a2,2,0,1,1-2,2A2,2,0,0,1,176.52,106.87Zm6.48-.18a2,2,0,1,1-2,2A2,2,0,0,1,183,106.69Zm6.66,0a2,2,0,1,1-2,2A2,2,0,0,1,189.65,106.69Zm6.66,0a2,2,0,1,1-2,2A2,2,0,0,1,196.31,106.69Zm6.66,0a2,2,0,1,1-2,2A2,2,0,0,1,203,106.69Zm6.48,0a2,2,0,1,1-2,2A2,2,0,0,1,209.44,106.69Z" style="fill:#fcfdff"/><path d="M256.76,29.5a2,2,0,1,1-2,2A2,2,0,0,1,256.76,29.5Zm0,6.48a2,2,0,1,1-2,2A2,2,0,0,1,256.76,36Zm0,6.3a2,2,0,1,1-2,2A2,2,0,0,1,256.76,42.28Zm0,6.66a2,2,0,1,1-2,2A2,2,0,0,1,256.76,48.94Zm0,6.3a2,2,0,1,1-2,2A2,2,0,0,1,256.76,55.23Zm0,6.48a2,2,0,1,1-2,2A2,2,0,0,1,256.76,61.71Zm0,6.48a2,2,0,1,1-2,2A2,2,0,0,1,256.76,68.19Zm0,6.3a2,2,0,1,1-2,2A2,2,0,0,1,256.76,74.49Zm0,6.66a2,2,0,1,1-2,2A2,2,0,0,1,256.76,81.14Zm0,6.48a2,2,0,1,1-2,2A2,2,0,0,1,256.76,87.62Zm0,6.48a2,2,0,1,1-2,2A2,2,0,0,1,256.76,94.1Zm0,6.48a2,2,0,1,1-2,2A2,2,0,0,1,256.76,100.58Zm0,6.3a2,2,0,1,1-2,2A2,2,0,0,1,256.76,106.87Zm6.3-77.37a2,2,0,1,1-2,2A2,2,0,0,1,263.06,29.5Zm.18,77.37a2,2,0,1,1-2,2A2,2,0,0,1,263.24,106.87Zm6.3-77.37a2,2,0,1,1-2,2A2,2,0,0,1,269.54,29.5Zm0,77.37a2,2,0,1,1-2,2A2,2,0,0,1,269.54,106.87Zm6.3,0a2,2,0,1,1-2,2A2,2,0,0,1,275.84,106.87ZM276,29.5a2,2,0,1,1-2,2A2,2,0,0,1,276,29.5Zm6.3,0a2,2,0,1,1-2,2A2,2,0,0,1,282.32,29.5Zm.18,77.19a2,2,0,1,1-2,2A2,2,0,0,1,282.5,106.69Zm6.12-76.29a2,2,0,1,1-2,2A2,2,0,0,1,288.61,30.4Zm.18,75.39a2,2,0,1,1-2,2A2,2,0,0,1,288.79,105.79Zm5.76-2.7a2,2,0,1,1-2,2A2,2,0,0,1,294.55,103.1Zm.18-70.35a2,2,0,1,1-2,2A2,2,0,0,1,294.73,32.74Zm4.68,4.14a2,2,0,1,1-2,2A2,2,0,0,1,299.41,36.88Zm.18,62.26a2,2,0,1,1-2,2A2,2,0,0,1,299.59,99.14Zm2.7-56.5a2,2,0,1,1-2,2A2,2,0,0,1,302.29,42.64Zm.36,51.1a2,2,0,1,1-2,2A2,2,0,0,1,302.65,93.74Zm.72-44.8a2,2,0,1,1-2,2A2,2,0,0,1,303.37,48.94Zm0,6.3a2,2,0,1,1-2,2A2,2,0,0,1,303.37,55.23Zm0,6.48a2,2,0,1,1-2,2A2,2,0,0,1,303.37,61.71Zm0,6.48a2,2,0,1,1-2,2A2,2,0,0,1,303.37,68.19Zm0,6.3a2,2,0,1,1-2,2A2,2,0,0,1,303.37,74.49Zm0,6.48a2,2,0,1,1-2,2A2,2,0,0,1,303.37,81Zm0,6.48a2,2,0,1,1-2,2A2,2,0,0,1,303.37,87.44Z" style="fill:#fcfdff"/><path d="M348.35,29.5a2,2,0,1,1-2,2A2,2,0,0,1,348.35,29.5Zm5.94,0a2,2,0,1,1-2,2A2,2,0,0,1,354.29,29.5Zm6.48,0a2,2,0,1,1-2,2A2,2,0,0,1,360.76,29.5Zm6.12,0a2,2,0,1,1-2,2A2,2,0,0,1,366.88,29.5ZM370.3,36a2,2,0,1,1-2,2A2,2,0,0,1,370.3,36Zm0,6.3a2,2,0,1,1-2,2A2,2,0,0,1,370.3,42.28Zm0,6.66a2,2,0,1,1-2,2A2,2,0,0,1,370.3,48.94Zm0,6.3a2,2,0,1,1-2,2A2,2,0,0,1,370.3,55.23Zm0,6.48a2,2,0,1,1-2,2A2,2,0,0,1,370.3,61.71Zm0,6.48a2,2,0,1,1-2,2A2,2,0,0,1,370.3,68.19Zm0,6.3a2,2,0,1,1-2,2A2,2,0,0,1,370.3,74.49Zm0,6.66a2,2,0,1,1-2,2A2,2,0,0,1,370.3,81.14Zm0,6.48a2,2,0,1,1-2,2A2,2,0,0,1,370.3,87.62Zm0,6.48a2,2,0,1,1-2,2A2,2,0,0,1,370.3,94.1Zm0,6.48a2,2,0,1,1-2,2A2,2,0,0,1,370.3,100.58Zm0,6.3a2,2,0,1,1-2,2A2,2,0,0,1,370.3,106.87ZM373,29.5a2,2,0,1,1-2,2A2,2,0,0,1,373,29.5Zm6.12,0a2,2,0,1,1-2,2A2,2,0,0,1,379.12,29.5Zm6.12,0a2,2,0,1,1-2,2A2,2,0,0,1,385.23,29.5Zm6.3,0a2,2,0,1,1-2,2A2,2,0,0,1,391.53,29.5Z" style="fill:#fcfdff"/><path d="M438.85,29.5a2,2,0,1,1-2,2A2,2,0,0,1,438.85,29.5Zm0,6.48a2,2,0,1,1-2,2A2,2,0,0,1,438.85,36Zm0,6.3a2,2,0,1,1-2,2A2,2,0,0,1,438.85,42.28Zm0,6.66a2,2,0,1,1-2,2A2,2,0,0,1,438.85,48.94Zm0,6.3a2,2,0,1,1-2,2A2,2,0,0,1,438.85,55.23Zm0,6.48a2,2,0,1,1-2,2A2,2,0,0,1,438.85,61.71Zm0,6.48a2,2,0,1,1-2,2A2,2,0,0,1,438.85,68.19Zm0,6.3a2,2,0,1,1-2,2A2,2,0,0,1,438.85,74.49Zm0,6.66a2,2,0,1,1-2,2A2,2,0,0,1,438.85,81.14Zm0,6.48a2,2,0,1,1-2,2A2,2,0,0,1,438.85,87.62Zm0,6.48a2,2,0,1,1-2,2A2,2,0,0,1,438.85,94.1Zm0,6.48a2,2,0,1,1-2,2A2,2,0,0,1,438.85,100.58Zm0,6.3a2,2,0,1,1-2,2A2,2,0,0,1,438.85,106.87Z" style="fill:#fcfdff"/><path d="M488.51,29.5a2,2,0,1,1-2,2A2,2,0,0,1,488.51,29.5Zm0,6.48a2,2,0,1,1-2,2A2,2,0,0,1,488.51,36Zm0,6.3a2,2,0,1,1-2,2A2,2,0,0,1,488.51,42.28Zm0,6.66a2,2,0,1,1-2,2A2,2,0,0,1,488.51,48.94Zm0,6.3a2,2,0,1,1-2,2A2,2,0,0,1,488.51,55.23Zm0,6.48a2,2,0,1,1-2,2A2,2,0,0,1,488.51,61.71Zm0,6.48a2,2,0,1,1-2,2A2,2,0,0,1,488.51,68.19Zm0,6.3a2,2,0,1,1-2,2A2,2,0,0,1,488.51,74.49Zm0,6.66a2,2,0,1,1-2,2A2,2,0,0,1,488.51,81.14Zm0,6.48a2,2,0,1,1-2,2A2,2,0,0,1,488.51,87.62Zm0,6.48a2,2,0,1,1-2,2A2,2,0,0,1,488.51,94.1Zm0,6.48a2,2,0,1,1-2,2A2,2,0,0,1,488.51,100.58Zm0,6.3a2,2,0,1,1-2,2A2,2,0,0,1,488.51,106.87ZM494.09,32a2,2,0,1,1-2,2A2,2,0,0,1,494.09,32Zm3.6,4.86a2,2,0,1,1-2,2A2,2,0,0,1,497.69,36.88Zm3.42,4.86a2,2,0,1,1-2,2A2,2,0,0,1,501.11,41.74Zm4,5a2,2,0,1,1-2,2A2,2,0,0,1,505.07,46.78Zm3.24,4.68a2,2,0,1,1-2,2A2,2,0,0,1,508.3,51.46Zm3.78,4.86a2,2,0,1,1-2,2A2,2,0,0,1,512.08,56.31Zm3.78,5a2,2,0,1,1-2,2A2,2,0,0,1,515.86,61.35Zm3.42-4.86a2,2,0,1,1-2,2A2,2,0,0,1,519.28,56.49Zm3.6-5a2,2,0,1,1-2,2A2,2,0,0,1,522.88,51.46Zm3.6-4.86a2,2,0,1,1-2,2A2,2,0,0,1,526.48,46.6Zm3.42-5a2,2,0,1,1-2,2A2,2,0,0,1,529.9,41.56Zm3.42-4.68a2,2,0,1,1-2,2A2,2,0,0,1,533.31,36.88Zm3.78-4.68a2,2,0,1,1-2,2A2,2,0,0,1,537.09,32.2Zm5.4-2.7a2,2,0,1,1-2,2A2,2,0,0,1,542.49,29.5Zm0,6.48a2,2,0,1,1-2,2A2,2,0,0,1,542.49,36Zm0,6.3a2,2,0,1,1-2,2A2,2,0,0,1,542.49,42.28Zm0,6.66a2,2,0,1,1-2,2A2,2,0,0,1,542.49,48.94Zm0,6.3a2,2,0,1,1-2,2A2,2,0,0,1,542.49,55.23Zm0,6.48a2,2,0,1,1-2,2A2,2,0,0,1,542.49,61.71Zm0,6.48a2,2,0,1,1-2,2A2,2,0,0,1,542.49,68.19Zm0,6.3a2,2,0,1,1-2,2A2,2,0,0,1,542.49,74.49Zm0,6.66a2,2,0,1,1-2,2A2,2,0,0,1,542.49,81.14Zm0,6.48a2,2,0,1,1-2,2A2,2,0,0,1,542.49,87.62Zm0,6.48a2,2,0,1,1-2,2A2,2,0,0,1,542.49,94.1Zm0,6.48a2,2,0,1,1-2,2A2,2,0,0,1,542.49,100.58Zm0,6.3a2,2,0,1,1-2,2A2,2,0,0,1,542.49,106.87Z" style="fill:#fcfdff"/><path d="M592.15,29.32a2,2,0,1,1-2,2A2,2,0,0,1,592.15,29.32Zm0,6.48a2,2,0,1,1-2,2A2,2,0,0,1,592.15,35.8Zm0,6.3a2,2,0,1,1-2,2A2,2,0,0,1,592.15,42.1Zm0,6.66a2,2,0,1,1-2,2A2,2,0,0,1,592.15,48.76Zm0,6.3a2,2,0,1,1-2,2A2,2,0,0,1,592.15,55.05Zm0,6.48a2,2,0,1,1-2,2A2,2,0,0,1,592.15,61.53Zm0,6.48a2,2,0,1,1-2,2A2,2,0,0,1,592.15,68Zm0,6.3a2,2,0,1,1-2,2A2,2,0,0,1,592.15,74.31Zm0,6.66a2,2,0,1,1-2,2A2,2,0,0,1,592.15,81Zm0,6.48a2,2,0,1,1-2,2A2,2,0,0,1,592.15,87.44Zm0,6.48a2,2,0,1,1-2,2A2,2,0,0,1,592.15,93.92Zm0,6.48a2,2,0,1,1-2,2A2,2,0,0,1,592.15,100.4Zm0,6.3a2,2,0,1,1-2,2A2,2,0,0,1,592.15,106.69Zm6.48,0a2,2,0,1,1-2,2A2,2,0,0,1,598.63,106.69Zm.18-77.19a2,2,0,1,1-2,2A2,2,0,0,1,598.81,29.5Zm.36,37.79a2,2,0,1,1-2,2A2,2,0,0,1,599.17,67.29Zm6.12,39.41a2,2,0,1,1-2,2A2,2,0,0,1,605.29,106.69Zm.18-77.19a2,2,0,1,1-2,2A2,2,0,0,1,605.46,29.5Zm.36,37.79a2,2,0,1,1-2,2A2,2,0,0,1,605.83,67.29Zm6.12,39.41a2,2,0,1,1-2,2A2,2,0,0,1,611.94,106.69Zm.18-77.19a2,2,0,1,1-2,2A2,2,0,0,1,612.12,29.5Zm.36,37.79a2,2,0,1,1-2,2A2,2,0,0,1,612.48,67.29Zm6.12,39.41a2,2,0,1,1-2,2A2,2,0,0,1,618.6,106.69Zm.18-77.19a2,2,0,1,1-2,2A2,2,0,0,1,618.78,29.5Zm.36,37.79a2,2,0,1,1-2,2A2,2,0,0,1,619.14,67.29Zm5.94,39.41a2,2,0,1,1-2,2A2,2,0,0,1,625.08,106.69Zm.18-77.19a2,2,0,1,1-2,2A2,2,0,0,1,625.26,29.5Z" style="fill:#fcfdff"/><path d="M672.58,29.32a2,2,0,1,1-2,2A2,2,0,0,1,672.58,29.32Zm0,6.48a2,2,0,1,1-2,2A2,2,0,0,1,672.58,35.8Zm0,6.3a2,2,0,1,1-2,2A2,2,0,0,1,672.58,42.1Zm0,6.66a2,2,0,1,1-2,2A2,2,0,0,1,672.58,48.76Zm0,6.3a2,2,0,1,1-2,2A2,2,0,0,1,672.58,55.05Zm0,6.48a2,2,0,1,1-2,2A2,2,0,0,1,672.58,61.53Zm0,6.48a2,2,0,1,1-2,2A2,2,0,0,1,672.58,68Zm0,6.3a2,2,0,1,1-2,2A2,2,0,0,1,672.58,74.31Zm0,6.66a2,2,0,1,1-2,2A2,2,0,0,1,672.58,81Zm0,6.48a2,2,0,1,1-2,2A2,2,0,0,1,672.58,87.44Zm0,6.48a2,2,0,1,1-2,2A2,2,0,0,1,672.58,93.92Zm0,6.48a2,2,0,1,1-2,2A2,2,0,0,1,672.58,100.4Zm0,6.3a2,2,0,1,1-2,2A2,2,0,0,1,672.58,106.69Zm6.48-77.37a2,2,0,1,1-2,2A2,2,0,0,1,679.06,29.32Zm0,51.82a2,2,0,1,1-2,2A2,2,0,0,1,679.06,81.14Zm6.3-51.64a2,2,0,1,1-2,2A2,2,0,0,1,685.35,29.5Zm.18,51.64a2,2,0,1,1-2,2A2,2,0,0,1,685.53,81.14Zm6.12-51.64a2,2,0,1,1-2,2A2,2,0,0,1,691.65,29.5Zm.18,51.64a2,2,0,1,1-2,2A2,2,0,0,1,691.83,81.14Zm3.78,5.94a2,2,0,1,1-2,2A2,2,0,0,1,695.61,87.08Zm2.7-56.5a2,2,0,1,1-2,2A2,2,0,0,1,698.31,30.58Zm0,49.3a2,2,0,1,1-2,2A2,2,0,0,1,698.31,79.88Zm.36,13.67a2,2,0,1,1-2,2A2,2,0,0,1,698.67,93.56Zm3.24,6.48a2,2,0,1,1-2,2A2,2,0,0,1,701.91,100Zm1.8-66a2,2,0,1,1-2,2A2,2,0,0,1,703.71,34Zm.18,42.64a2,2,0,1,1-2,2A2,2,0,0,1,703.89,76.65ZM705,106.51a2,2,0,1,1-2,2A2,2,0,0,1,705,106.51Zm2-35.09a2,2,0,1,1-2,2A2,2,0,0,1,706.95,71.43Zm.36-32.21a2,2,0,1,1-2,2A2,2,0,0,1,707.31,39.22ZM708,58.29a2,2,0,1,1-2,2A2,2,0,0,1,708,58.29Zm.18-12.77a2,2,0,1,1-2,2A2,2,0,0,1,708.21,45.52Zm0,6.66a2,2,0,1,1-2,2A2,2,0,0,1,708.21,52.17Zm0,12.6a2,2,0,1,1-2,2A2,2,0,0,1,708.21,64.77Z" style="fill:#fcfdff"/><path d="M67.48,424.81A1.28,1.28,0,0,1,66.4,427H45c-.54,0-.72-.36-1.08-.72L38,420.49a1.42,1.42,0,0,1-.18-2L40,416.17v-86l-2.16-2.52a1.14,1.14,0,0,1,.9-2H90.15a1.94,1.94,0,0,1,1.26.54l5.94,6.12a.94.94,0,0,1,.36.72v18c0,1.08-1.08,2.16-2.16,1.08L93.39,350H65.32v13.31H80.08l2.16-2.34a1.36,1.36,0,0,1,1.44-.18c.54.18.72.54,5.94,6.12a3.23,3.23,0,0,1,1.08,1.8v20.15a1.3,1.3,0,0,1-2.16.9l-2.16-2H65.32v34.73Z" style="fill:#9fd6c5"/><path d="M169.14,400.34c.36-.36,1.08-.36,1.8.18l5.58,5.22a2.11,2.11,0,0,1,.9,2v18a1.19,1.19,0,0,1-1.08,1.26H124.88c-.9,0-1.26-.54-1.8-1.08l-5.22-5.22a1.64,1.64,0,0,1-.18-2.16l2.16-2.34v-86l-2.16-2.34c-.72-.9-.36-2,.9-2H140c.9,0,1.26.54,1.8,1.08l5.4,5.58c.54.54.72,1.08.18,1.62L145,336.46v66H166.8Z" style="fill:#9fd6c5"/><path d="M197.57,327.65c-.72-.9-.36-2,.9-2h21.41A1.52,1.52,0,0,1,221,326l6.48,6.48a1.11,1.11,0,0,1-.18,1.44l-2.16,2.52v57.22a21.64,21.64,0,0,0,1.26,8.28,18.56,18.56,0,0,0,5.4.72h1.8c8.82,0,13-6.12,13-15.29V330.16l-2.34-2.52a1.19,1.19,0,0,1,.9-2h21.77a1.82,1.82,0,0,1,1.26.72l6.12,6.3a.89.89,0,0,1-.18,1.26l-2.34,2.52v61.9c0,20.69-11.33,30-32.75,30-14.21,0-25.73-5-34.19-17.09-3.42-4.68-5-11-5-19.25v-61.9Z" style="fill:#9fd6c5"/><path d="M365.81,363.45a1.28,1.28,0,0,1-1.44,1.26H345.48A1.61,1.61,0,0,1,344,364l-6.3-6.3a1.5,1.5,0,0,1,.36-1.44l2.34-2.16a15.32,15.32,0,0,0-1.08-3.06,13.41,13.41,0,0,0-5.58-1.08H332c-4.68,0-7.92,1.26-10.08,4.14-2,2.7-2.7,6.3-2.7,11.16v28.43a25.84,25.84,0,0,0,1.26,8.28,16.63,16.63,0,0,0,5.22.72h1.8c7,0,11.16-4,12.42-10.26H335l-2.34,2.16a.89.89,0,0,1-1.26.18l-6.66-6.12a2.29,2.29,0,0,1-.72-1.26V369.75a1.61,1.61,0,0,1,1.62-1.62h32.39a1.92,1.92,0,0,1,1.08.36c.36.36.36.54,5.94,6.12.36.36.72.72.72,1.08v22.67c0,21.05-11.34,30-32.75,30-16.73,0-25.19-5.94-33.65-16.37-3.78-4.68-5.76-11.16-5.76-20v-38c0-20.87,11.7-29.69,33.11-29.69,10.44,0,19.25,2,24.83,7.38,8.1,7.74,14.21,13.14,14.21,28.61Z" style="fill:#9fd6c5"/><path d="M412.95,422.47l2.34,2.34a1.34,1.34,0,0,1-1.08,2.16H392.79a2.74,2.74,0,0,1-1.8-1.08l-5.22-5.4c-.54-.54-.9-1.26-.18-2l2.16-2.34v-86l-2.16-2.52a1.14,1.14,0,0,1,.9-2h30.41c7.2,0,13.13,1.8,17.45,5.4a69.62,69.62,0,0,1,9.54,9.72c3.24,4.14,5,9.9,5,17.09V376c0,15.29-9.54,25.73-25.73,25.73H412.95Zm0-45c6.12-.9,10.8-4,10.8-12.06v-9.54a18.13,18.13,0,0,0-.54-4.86,25.92,25.92,0,0,0-7.92-.9h-2.34Z" style="fill:#9fd6c5"/><path d="M520.54,400.34c.36-.36,1.08-.36,1.8.18l5.58,5.22a2.11,2.11,0,0,1,.9,2v18a1.19,1.19,0,0,1-1.08,1.26H476.28c-.9,0-1.26-.54-1.8-1.08l-5.22-5.22a1.64,1.64,0,0,1-.18-2.16l2.16-2.34v-86l-2.16-2.34c-.72-.9-.36-2,.9-2h21.41c.9,0,1.26.54,1.8,1.08l5.4,5.58c.54.54.72,1.08.18,1.62l-2.34,2.34v66h21.77Z" style="fill:#9fd6c5"/><path d="M533.14,420.13a1.34,1.34,0,0,1,.18-1.62l2.16-2.34L558.69,330l-1.44-2.34c-.54-.9-.18-2,1.26-2H581a1.55,1.55,0,0,1,1.08.54l6.3,6.48a.87.87,0,0,1,0,1.26l-1.62,2.34L610,422.47l2.52,2.34a1.39,1.39,0,0,1-1.08,2.16H589.64c-.54,0-.72-.36-1.08-.72l-6.12-6.12a1.39,1.39,0,0,1,.18-1.62l2.16-2.16-2.88-10.44H565.35l-4.5,16.73,2.16,2.16a1.34,1.34,0,0,1-1.08,2.16H540.52c-.54,0-.9-.36-1.44-.9Zm40.49-45.34-2,7h4Z" style="fill:#9fd6c5"/><path d="M616.63,346a1.82,1.82,0,0,1-.72-1.26V327.11a1.55,1.55,0,0,1,1.44-1.44h59.74a1.63,1.63,0,0,1,1.26.54l5.94,5.76a2,2,0,0,1,.54,1.44V351c0,1.08-1.44,1.8-2.16,1.08L680.32,350H663v72.51l2.16,2.34a1.26,1.26,0,0,1-.9,2.16H642.72a1.82,1.82,0,0,1-1.26-.72l-5.76-5.76a1.43,1.43,0,0,1-.18-2l2.16-2.34V350h-11l-2.16,2.16c-.36.36-.9.54-1.26.18Z" style="fill:#9fd6c5"/><path d="M704.79,346.36a2.42,2.42,0,0,1-.9-1.62V326.93a1.39,1.39,0,0,1,1.44-1.26h55.78a1.38,1.38,0,0,1,.9.36l6.12,6.3c.36.36.36.54.36.72v16.19a.66.66,0,0,1-.18.54l-31.13,52.9h20.87l2.34-2.16a1.39,1.39,0,0,1,1.8.18c.18.18.18.36,5.94,6.12a1.28,1.28,0,0,1,.54,1.08v17.81a1.22,1.22,0,0,1-1.26,1.26h-55.6a1.38,1.38,0,0,1-.9-.36l-6.3-6.3a1.38,1.38,0,0,1-.36-.9v-16a1.39,1.39,0,0,1,.18-.54L735.38,350H714.69l-2.16,2.16a1.21,1.21,0,0,1-1.8.18Z" style="fill:#9fd6c5"/><path d="M61.19,418.51a1.28,1.28,0,0,1-1.08,2.16H38.69a1.28,1.28,0,0,1-.9-2.16L40,416.17v-86l-2.16-2.52a1.14,1.14,0,0,1,.9-2H90.15a1.2,1.2,0,0,1,1.26,1.08v18c0,1.08-1.08,2.16-2.16,1.08l-2.16-2.16H59v19.61H80.08l2.16-2.34c.54-.72,2.16-.18,2.16.9v20.69a1.3,1.3,0,0,1-2.16.9l-2.16-2H59v34.73Z" style="fill:#3f56a3"/><path d="M169.14,400.34a1.26,1.26,0,0,1,2,1.08v18a1.19,1.19,0,0,1-1.08,1.26H118.58a1.28,1.28,0,0,1-.9-2.16l2.16-2.34V330l-2.16-2.34c-.72-.9-.36-2,.9-2H140c1.26,0,1.8,1.26,1.08,2L138.74,330V402.5H166.8Z" style="fill:#3f56a3"/><path d="M197.57,327.65c-.72-.9-.36-2,.9-2h21.41c1.44,0,1.8,1.26,1.08,2l-2.16,2.52v57.22c0,12.59,7,15.29,13,15.29h1.8c8.82,0,13-6.12,13-15.29V330.16l-2.34-2.52a1.19,1.19,0,0,1,.9-2h21.77a1.22,1.22,0,0,1,.9,2l-2.34,2.52v61.9c0,20.69-11.34,30-32.75,30-20.33,0-32.93-8.1-32.93-30v-61.9Z" style="fill:#3f56a3"/><path d="M359.51,357.15a1.28,1.28,0,0,1-1.44,1.26H339.18c-1.26,0-2-1.26-1.08-2.16l2.34-2.16c-1.44-6.3-5.58-10.44-13-10.44h-1.8c-4.68,0-7.92,1.26-10.08,4.14-2,2.7-2.7,6.3-2.7,11.16v28.43c0,12.59,6.84,15.29,12.77,15.29h1.8c8.82,0,13-6.12,13-15.29v-1.26h-11.7l-2.34,2.16a1.51,1.51,0,0,1-2.34-.9V369.75a1.61,1.61,0,0,1,1.62-1.62h32.39a1.39,1.39,0,0,1,1.44,1.26v22.67c0,21.05-11.34,30-32.75,30-20,0-33.11-7.92-33.11-30v-38c0-20.87,11.7-29.69,33.11-29.69,20.15,0,32.75,7.74,32.75,29.69Z" style="fill:#3f56a3"/><path d="M406.65,416.17l2.34,2.34a1.34,1.34,0,0,1-1.08,2.16H386.5a1.25,1.25,0,0,1-.9-2.16l2.16-2.34v-86l-2.16-2.52a1.14,1.14,0,0,1,.9-2h30.41c16,0,25.73,9,25.73,25.91v18.17c0,15.29-9.54,25.73-25.73,25.73H406.65ZM409,377.67c7.92,0,14.75-2.52,14.75-12.24v-9.54c0-9.9-4.68-12.06-14.75-12.06h-2.34v33.83Z" style="fill:#3f56a3"/><path d="M520.54,400.34a1.26,1.26,0,0,1,2,1.08v18a1.19,1.19,0,0,1-1.08,1.26H470a1.28,1.28,0,0,1-.9-2.16l2.16-2.34V330l-2.16-2.34c-.72-.9-.36-2,.9-2h21.41c1.26,0,1.8,1.26,1.08,2L490.14,330V402.5h28.07Z" style="fill:#3f56a3"/><path d="M533.32,418.51l2.16-2.34L558.69,330l-1.44-2.34c-.54-.9-.18-2,1.26-2H581a1.29,1.29,0,0,1,1.08,2L580.46,330l23.21,86.19,2.52,2.34a1.39,1.39,0,0,1-1.08,2.16H583.34a1.24,1.24,0,0,1-.72-2.16l2.16-2.16-4.68-16.73H559l-4.5,16.73,2.16,2.16a1.34,1.34,0,0,1-1.08,2.16H534.22A1.25,1.25,0,0,1,533.32,418.51ZM575.6,381.8,569.49,360l-5.76,21.77Z" style="fill:#3f56a3"/><path d="M618.25,345.82a1.51,1.51,0,0,1-2.34-1.08V327.11a1.55,1.55,0,0,1,1.44-1.44h59.74a1.32,1.32,0,0,1,1.44,1.44v17.63c0,1.08-1.44,1.8-2.16,1.08L674,343.66H656.75v72.51l2.16,2.34a1.26,1.26,0,0,1-.9,2.16H636.42a1.3,1.3,0,0,1-.9-2.16l2.16-2.34V343.66H620.41Z" style="fill:#3f56a3"/><path d="M706.23,345.82a1.38,1.38,0,0,1-2.34-1.08V326.93a1.39,1.39,0,0,1,1.44-1.26h55.78a1.11,1.11,0,0,1,1.08,1.08v16.19a.66.66,0,0,1-.18.54l-34.73,59.2h30.77l2.34-2.16a1.2,1.2,0,0,1,2,1.08v17.81a1.22,1.22,0,0,1-1.26,1.26h-55.6a1.22,1.22,0,0,1-1.26-1.26v-16a1.39,1.39,0,0,1,.18-.54l34.73-59.2H708.39Z" style="fill:#3f56a3"/><path d="M47.38,332.32a2,2,0,1,1-2,2A2,2,0,0,1,47.38,332.32Zm0,6.48a2,2,0,1,1-2,2A2,2,0,0,1,47.38,338.8Zm0,6.3a2,2,0,1,1-2,2A2,2,0,0,1,47.38,345.1Zm0,6.66a2,2,0,1,1-2,2A2,2,0,0,1,47.38,351.76Zm0,6.3a2,2,0,1,1-2,2A2,2,0,0,1,47.38,358.05Zm0,6.48a2,2,0,1,1-2,2A2,2,0,0,1,47.38,364.53Zm0,6.48a2,2,0,1,1-2,2A2,2,0,0,1,47.38,371Zm0,6.3a2,2,0,1,1-2,2A2,2,0,0,1,47.38,377.31Zm0,6.66a2,2,0,1,1-2,2A2,2,0,0,1,47.38,384Zm0,6.48a2,2,0,1,1-2,2A2,2,0,0,1,47.38,390.44Zm0,6.48a2,2,0,1,1-2,2A2,2,0,0,1,47.38,396.92Zm0,6.48a2,2,0,1,1-2,2A2,2,0,0,1,47.38,403.4Zm0,6.3a2,2,0,1,1-2,2A2,2,0,0,1,47.38,409.69ZM54,332.5a2,2,0,1,1-2,2A2,2,0,0,1,54,332.5Zm.36,37.79a2,2,0,1,1-2,2A2,2,0,0,1,54.4,370.29Zm6.3-37.79a2,2,0,1,1-2,2A2,2,0,0,1,60.7,332.5Zm.36,37.79a2,2,0,1,1-2,2A2,2,0,0,1,61.06,370.29Zm6.3-37.79a2,2,0,1,1-2,2A2,2,0,0,1,67.35,332.5Zm.36,37.79a2,2,0,1,1-2,2A2,2,0,0,1,67.71,370.29ZM74,332.5a2,2,0,1,1-2,2A2,2,0,0,1,74,332.5Zm.36,37.79a2,2,0,1,1-2,2A2,2,0,0,1,74.37,370.29Zm6.12-37.79a2,2,0,1,1-2,2A2,2,0,0,1,80.49,332.5Z" style="fill:#fcfdff"/><path d="M127.27,332.5a2,2,0,1,1-2,2A2,2,0,0,1,127.27,332.5Zm0,6.48a2,2,0,1,1-2,2A2,2,0,0,1,127.27,339Zm0,6.3a2,2,0,1,1-2,2A2,2,0,0,1,127.27,345.28Zm0,6.66a2,2,0,1,1-2,2A2,2,0,0,1,127.27,351.94Zm0,6.3a2,2,0,1,1-2,2A2,2,0,0,1,127.27,358.23Zm0,6.48a2,2,0,1,1-2,2A2,2,0,0,1,127.27,364.71Zm0,6.48a2,2,0,1,1-2,2A2,2,0,0,1,127.27,371.19Zm0,6.3a2,2,0,1,1-2,2A2,2,0,0,1,127.27,377.49Zm0,6.66a2,2,0,1,1-2,2A2,2,0,0,1,127.27,384.14Zm0,6.48a2,2,0,1,1-2,2A2,2,0,0,1,127.27,390.62Zm0,6.48a2,2,0,1,1-2,2A2,2,0,0,1,127.27,397.1Zm0,6.48a2,2,0,1,1-2,2A2,2,0,0,1,127.27,403.58Zm0,6.3a2,2,0,1,1-2,2A2,2,0,0,1,127.27,409.87Zm6.48-.18a2,2,0,1,1-2,2A2,2,0,0,1,133.75,409.69Zm6.66,0a2,2,0,1,1-2,2A2,2,0,0,1,140.41,409.69Zm6.66,0a2,2,0,1,1-2,2A2,2,0,0,1,147.06,409.69Zm6.66,0a2,2,0,1,1-2,2A2,2,0,0,1,153.72,409.69Zm6.48,0a2,2,0,1,1-2,2A2,2,0,0,1,160.2,409.69Z" style="fill:#fcfdff"/><path d="M207.16,332.86a2,2,0,1,1-2,2A2,2,0,0,1,207.16,332.86Zm0,12.78a2,2,0,1,1-2,2A2,2,0,0,1,207.16,345.64Zm0,31.85a2,2,0,1,1-2,2A2,2,0,0,1,207.16,377.49Zm.18-38.15a2,2,0,1,1-2,2A2,2,0,0,1,207.34,339.34Zm0,12.78a2,2,0,1,1-2,2A2,2,0,0,1,207.34,352.12Zm0,6.12a2,2,0,1,1-2,2A2,2,0,0,1,207.34,358.23Zm0,6.48a2,2,0,1,1-2,2A2,2,0,0,1,207.34,364.71Zm0,6.48a2,2,0,1,1-2,2A2,2,0,0,1,207.34,371.19Zm0,12.78a2,2,0,1,1-2,2A2,2,0,0,1,207.34,384Zm0,6.3a2,2,0,1,1-2,2A2,2,0,0,1,207.34,390.26Zm.9,6.12a2,2,0,1,1-2,2A2,2,0,0,1,208.24,396.38Zm2.7,5.58a2,2,0,1,1-2,2A2,2,0,0,1,210.94,402Zm4.5,4.86a2,2,0,1,1-2,2A2,2,0,0,1,215.44,406.82Zm5.58,2.34a2,2,0,1,1-2,2A2,2,0,0,1,221,409.15Zm6.48.9a2,2,0,1,1-2,2A2,2,0,0,1,227.49,410.05Zm6.3.18a2,2,0,1,1-2,2A2,2,0,0,1,233.79,410.23Zm6.12-.9a2,2,0,1,1-2,2A2,2,0,0,1,239.91,409.33Zm5.94-3.06a2,2,0,1,1-2,2A2,2,0,0,1,245.84,406.28Zm4.5-4.32a2,2,0,1,1-2,2A2,2,0,0,1,250.34,402Zm2.7-5.76a2,2,0,1,1-2,2A2,2,0,0,1,253,396.2Zm.9-6.12a2,2,0,1,1-2,2A2,2,0,0,1,253.94,390.08Zm.18-57a2,2,0,1,1-2,2A2,2,0,0,1,254.12,333Zm0,6.12a2,2,0,1,1-2,2A2,2,0,0,1,254.12,339.16Zm0,6.48a2,2,0,1,1-2,2A2,2,0,0,1,254.12,345.64Zm0,6.3a2,2,0,1,1-2,2A2,2,0,0,1,254.12,351.94Zm0,6.3a2,2,0,1,1-2,2A2,2,0,0,1,254.12,358.23Zm0,6.12a2,2,0,1,1-2,2A2,2,0,0,1,254.12,364.35Zm0,6.66a2,2,0,1,1-2,2A2,2,0,0,1,254.12,371Zm0,6.48a2,2,0,1,1-2,2A2,2,0,0,1,254.12,377.49Zm0,6.12a2,2,0,1,1-2,2A2,2,0,0,1,254.12,383.6Z" style="fill:#fcfdff"/><path d="M301.26,367.23a2,2,0,1,1-2,2A2,2,0,0,1,301.26,367.23Zm0,6.66a2,2,0,1,1-2,2A2,2,0,0,1,301.26,373.89Zm0,13a2,2,0,1,1-2,2A2,2,0,0,1,301.26,386.84Zm.18-32.21a2,2,0,1,1-2,2A2,2,0,0,1,301.44,354.63Zm0,6.3a2,2,0,1,1-2,2A2,2,0,0,1,301.44,360.93Zm0,19.61a2,2,0,1,1-2,2A2,2,0,0,1,301.44,380.54Zm.18-32.21a2,2,0,1,1-2,2A2,2,0,0,1,301.62,348.34Zm0,44.62a2,2,0,1,1-2,2A2,2,0,0,1,301.62,393Zm1.26,6.3a2,2,0,1,1-2,2A2,2,0,0,1,302.88,399.26Zm.36-57a2,2,0,1,1-2,2A2,2,0,0,1,303.24,342.22Zm3.06,62.44a2,2,0,1,1-2,2A2,2,0,0,1,306.3,404.66ZM307,337a2,2,0,1,1-2,2A2,2,0,0,1,307,337Zm4.68,71.07a2,2,0,1,1-2,2A2,2,0,0,1,311.7,408.07Zm.9-74.31a2,2,0,1,1-2,2A2,2,0,0,1,312.6,333.76Zm5,75.93a2,2,0,1,1-2,2A2,2,0,0,1,317.64,409.69Zm1.08-77.37a2,2,0,1,1-2,2A2,2,0,0,1,318.72,332.32Zm5.22,77.73a2,2,0,1,1-2,2A2,2,0,0,1,323.93,410.05Zm1.26-77.91a2,2,0,1,1-2,2A2,2,0,0,1,325.19,332.14Zm3.78,43a2,2,0,1,1-2,2A2,2,0,0,1,329,375.15Zm1.44,34.91a2,2,0,1,1-2,2A2,2,0,0,1,330.41,410.05Zm.9-77.55a2,2,0,1,1-2,2A2,2,0,0,1,331.31,332.5Zm4,42.64a2,2,0,1,1-2,2A2,2,0,0,1,335.27,375.15Zm1.26,33.47a2,2,0,1,1-2,2A2,2,0,0,1,336.53,408.61Zm.9-74.31a2,2,0,1,1-2,2A2,2,0,0,1,337.43,334.3Zm4.5,40.84a2,2,0,1,1-2,2A2,2,0,0,1,341.93,375.15Zm.18,30.23a2,2,0,1,1-2,2A2,2,0,0,1,342.11,405.38Zm.54-67.65a2,2,0,1,1-2,2A2,2,0,0,1,342.65,337.72Zm3.24,62.8a2,2,0,1,1-2,2A2,2,0,0,1,345.89,400.52Zm.36-57.4a2,2,0,1,1-2,2A2,2,0,0,1,346.25,343.12Zm.9,6.3a2,2,0,1,1-2,2A2,2,0,0,1,347.15,349.42Zm.54,45a2,2,0,1,1-2,2A2,2,0,0,1,347.69,394.4Zm.54-19.25a2,2,0,1,1-2,2A2,2,0,0,1,348.23,375.15Zm0,6.3a2,2,0,1,1-2,2A2,2,0,0,1,348.23,381.45Zm.18,6.66a2,2,0,1,1-2,2A2,2,0,0,1,348.41,388.1Z" style="fill:#fcfdff"/><path d="M395.73,332.32a2,2,0,1,1-2,2A2,2,0,0,1,395.73,332.32Zm0,6.48a2,2,0,1,1-2,2A2,2,0,0,1,395.73,338.8Zm0,6.3a2,2,0,1,1-2,2A2,2,0,0,1,395.73,345.1Zm0,6.66a2,2,0,1,1-2,2A2,2,0,0,1,395.73,351.76Zm0,6.3a2,2,0,1,1-2,2A2,2,0,0,1,395.73,358.05Zm0,6.48a2,2,0,1,1-2,2A2,2,0,0,1,395.73,364.53Zm0,6.48a2,2,0,1,1-2,2A2,2,0,0,1,395.73,371Zm0,6.3a2,2,0,1,1-2,2A2,2,0,0,1,395.73,377.31Zm0,6.66a2,2,0,1,1-2,2A2,2,0,0,1,395.73,384Zm0,6.48a2,2,0,1,1-2,2A2,2,0,0,1,395.73,390.44Zm0,6.48a2,2,0,1,1-2,2A2,2,0,0,1,395.73,396.92Zm0,6.48a2,2,0,1,1-2,2A2,2,0,0,1,395.73,403.4Zm0,6.3a2,2,0,1,1-2,2A2,2,0,0,1,395.73,409.69Zm6.48-77.37a2,2,0,1,1-2,2A2,2,0,0,1,402.2,332.32Zm0,51.82a2,2,0,1,1-2,2A2,2,0,0,1,402.2,384.14Zm6.3-51.64a2,2,0,1,1-2,2A2,2,0,0,1,408.5,332.5Zm.18,51.64a2,2,0,1,1-2,2A2,2,0,0,1,408.68,384.14Zm6.12-51.64a2,2,0,1,1-2,2A2,2,0,0,1,414.8,332.5Zm.18,51.64a2,2,0,1,1-2,2A2,2,0,0,1,415,384.14Zm6.48-50.56a2,2,0,1,1-2,2A2,2,0,0,1,421.46,333.58Zm0,49.3a2,2,0,1,1-2,2A2,2,0,0,1,421.46,382.88Zm5.4-45.88a2,2,0,1,1-2,2A2,2,0,0,1,426.85,337Zm.18,42.64a2,2,0,1,1-2,2A2,2,0,0,1,427,379.65Zm3.06-5.22a2,2,0,1,1-2,2A2,2,0,0,1,430.09,374.43Zm.36-32.21a2,2,0,1,1-2,2A2,2,0,0,1,430.45,342.22Zm.72,19.07a2,2,0,1,1-2,2A2,2,0,0,1,431.17,361.29Zm.18-12.78a2,2,0,1,1-2,2A2,2,0,0,1,431.35,348.52Zm0,6.66a2,2,0,1,1-2,2A2,2,0,0,1,431.35,355.17Zm0,12.59a2,2,0,1,1-2,2A2,2,0,0,1,431.35,367.77Z" style="fill:#fcfdff"/><path d="M478.67,332.5a2,2,0,1,1-2,2A2,2,0,0,1,478.67,332.5Zm0,6.48a2,2,0,1,1-2,2A2,2,0,0,1,478.67,339Zm0,6.3a2,2,0,1,1-2,2A2,2,0,0,1,478.67,345.28Zm0,6.66a2,2,0,1,1-2,2A2,2,0,0,1,478.67,351.94Zm0,6.3a2,2,0,1,1-2,2A2,2,0,0,1,478.67,358.23Zm0,6.48a2,2,0,1,1-2,2A2,2,0,0,1,478.67,364.71Zm0,6.48a2,2,0,1,1-2,2A2,2,0,0,1,478.67,371.19Zm0,6.3a2,2,0,1,1-2,2A2,2,0,0,1,478.67,377.49Zm0,6.66a2,2,0,1,1-2,2A2,2,0,0,1,478.67,384.14Zm0,6.48a2,2,0,1,1-2,2A2,2,0,0,1,478.67,390.62Zm0,6.48a2,2,0,1,1-2,2A2,2,0,0,1,478.67,397.1Zm0,6.48a2,2,0,1,1-2,2A2,2,0,0,1,478.67,403.58Zm0,6.3a2,2,0,1,1-2,2A2,2,0,0,1,478.67,409.87Zm6.48-.18a2,2,0,1,1-2,2A2,2,0,0,1,485.15,409.69Zm6.66,0a2,2,0,1,1-2,2A2,2,0,0,1,491.81,409.69Zm6.66,0a2,2,0,1,1-2,2A2,2,0,0,1,498.46,409.69Zm6.66,0a2,2,0,1,1-2,2A2,2,0,0,1,505.12,409.69Zm6.48,0a2,2,0,1,1-2,2A2,2,0,0,1,511.6,409.69Z" style="fill:#fcfdff"/><path d="M544.17,409.69a2,2,0,1,1-2,2A2,2,0,0,1,544.17,409.69Zm1.8-6.3a2,2,0,1,1-2,2A2,2,0,0,1,546,403.4Zm1.8-5.94a2,2,0,1,1-2,2A2,2,0,0,1,547.77,397.46Zm1.62-5.94a2,2,0,1,1-2,2A2,2,0,0,1,549.38,391.52Zm1.8-6.3a2,2,0,1,1-2,2A2,2,0,0,1,551.18,385.22Zm1.62-6.3a2,2,0,1,1-2,2A2,2,0,0,1,552.8,378.93Zm1.8-5.76a2,2,0,1,1-2,2A2,2,0,0,1,554.6,373.17Zm1.8-6.12a2,2,0,1,1-2,2A2,2,0,0,1,556.4,367.05Zm.72,20.51a2,2,0,1,1-2,2A2,2,0,0,1,557.12,387.56Zm.9-26.81a2,2,0,1,1-2,2A2,2,0,0,1,558,360.75Zm1.8-6.3a2,2,0,1,1-2,2A2,2,0,0,1,559.82,354.46Zm1.62-5.94a2,2,0,1,1-2,2A2,2,0,0,1,561.44,348.52Zm1.8-6.12a2,2,0,1,1-2,2A2,2,0,0,1,563.24,342.4Zm.9,45.16a2,2,0,1,1-2,2A2,2,0,0,1,564.14,387.56Zm.9-51.28a2,2,0,1,1-2,2A2,2,0,0,1,565,336.28Zm4.86.36a2,2,0,1,1-2,2A2,2,0,0,1,569.9,336.64Zm1.26,50.92a2,2,0,1,1-2,2A2,2,0,0,1,571.16,387.56Zm.72-45a2,2,0,1,1-2,2A2,2,0,0,1,571.88,342.58Zm1.62,6.12a2,2,0,1,1-2,2A2,2,0,0,1,573.5,348.7Zm1.8,6.12a2,2,0,1,1-2,2A2,2,0,0,1,575.29,354.81Zm2,6.12a2,2,0,1,1-2,2A2,2,0,0,1,577.27,360.93Zm.72,26.63a2,2,0,1,1-2,2A2,2,0,0,1,578,387.56Zm.9-20.51a2,2,0,1,1-2,2A2,2,0,0,1,578.89,367.05Zm1.8,5.94a2,2,0,1,1-2,2A2,2,0,0,1,580.69,373Zm1.8,6.3a2,2,0,1,1-2,2A2,2,0,0,1,582.49,379.29Zm1.62,5.94a2,2,0,1,1-2,2A2,2,0,0,1,584.11,385.22Zm2,6.3a2,2,0,1,1-2,2A2,2,0,0,1,586.09,391.52Zm1.8,5.94a2,2,0,1,1-2,2A2,2,0,0,1,587.89,397.46Zm1.8,6.3a2,2,0,1,1-2,2A2,2,0,0,1,589.69,403.76Zm1.8,5.94a2,2,0,1,1-2,2A2,2,0,0,1,591.49,409.69Z" style="fill:#fcfdff"/><path d="M623.88,332.5a2,2,0,1,1-2,2A2,2,0,0,1,623.88,332.5Zm5.94,0a2,2,0,1,1-2,2A2,2,0,0,1,629.81,332.5Zm6.48,0a2,2,0,1,1-2,2A2,2,0,0,1,636.29,332.5Zm6.12,0a2,2,0,1,1-2,2A2,2,0,0,1,642.41,332.5Zm3.42,6.48a2,2,0,1,1-2,2A2,2,0,0,1,645.83,339Zm0,6.3a2,2,0,1,1-2,2A2,2,0,0,1,645.83,345.28Zm0,6.66a2,2,0,1,1-2,2A2,2,0,0,1,645.83,351.94Zm0,6.3a2,2,0,1,1-2,2A2,2,0,0,1,645.83,358.23Zm0,6.48a2,2,0,1,1-2,2A2,2,0,0,1,645.83,364.71Zm0,6.48a2,2,0,1,1-2,2A2,2,0,0,1,645.83,371.19Zm0,6.3a2,2,0,1,1-2,2A2,2,0,0,1,645.83,377.49Zm0,6.66a2,2,0,1,1-2,2A2,2,0,0,1,645.83,384.14Zm0,6.48a2,2,0,1,1-2,2A2,2,0,0,1,645.83,390.62Zm0,6.48a2,2,0,1,1-2,2A2,2,0,0,1,645.83,397.1Zm0,6.48a2,2,0,1,1-2,2A2,2,0,0,1,645.83,403.58Zm0,6.3a2,2,0,1,1-2,2A2,2,0,0,1,645.83,409.87Zm2.7-77.37a2,2,0,1,1-2,2A2,2,0,0,1,648.53,332.5Zm6.12,0a2,2,0,1,1-2,2A2,2,0,0,1,654.64,332.5Zm6.12,0a2,2,0,1,1-2,2A2,2,0,0,1,660.76,332.5Zm6.3,0a2,2,0,1,1-2,2A2,2,0,0,1,667.06,332.5Z" style="fill:#fcfdff"/><path d="M711.86,332.5a2,2,0,1,1-2,2A2,2,0,0,1,711.86,332.5ZM712,405a2,2,0,1,1-2,2A2,2,0,0,1,712,405Zm.36,4.68a2,2,0,1,1-2,2A2,2,0,0,1,712.4,409.69Zm2.7-10.26a2,2,0,1,1-2,2A2,2,0,0,1,715.1,399.44Zm3.24-66.93a2,2,0,1,1-2,2A2,2,0,0,1,718.34,332.5Zm0,61.36a2,2,0,1,1-2,2A2,2,0,0,1,718.34,393.86Zm.54,15.83a2,2,0,1,1-2,2A2,2,0,0,1,718.88,409.69Zm2.7-21.59a2,2,0,1,1-2,2A2,2,0,0,1,721.58,388.1Zm3.24-55.6a2,2,0,1,1-2,2A2,2,0,0,1,724.82,332.5Zm.18,50a2,2,0,1,1-2,2A2,2,0,0,1,725,382.52Zm.36,27.17a2,2,0,1,1-2,2A2,2,0,0,1,725.36,409.69Zm2.52-32.75a2,2,0,1,1-2,2A2,2,0,0,1,727.88,376.95Zm3.24-5.76a2,2,0,1,1-2,2A2,2,0,0,1,731.11,371.19Zm.18-38.68a2,2,0,1,1-2,2A2,2,0,0,1,731.29,332.5Zm.54,77.19a2,2,0,1,1-2,2A2,2,0,0,1,731.83,409.69Zm2.52-44.08a2,2,0,1,1-2,2A2,2,0,0,1,734.35,365.61Zm3.06-33.11a2,2,0,1,1-2,2A2,2,0,0,1,737.41,332.5Zm.18,27.53a2,2,0,1,1-2,2A2,2,0,0,1,737.59,360Zm.9,49.66a2,2,0,1,1-2,2A2,2,0,0,1,738.49,409.69Zm2.34-55.42a2,2,0,1,1-2,2A2,2,0,0,1,740.83,354.28Zm3.24-21.77a2,2,0,1,1-2,2A2,2,0,0,1,744.07,332.5Zm0,16.37a2,2,0,1,1-2,2A2,2,0,0,1,744.07,348.88Zm.54,60.82a2,2,0,1,1-2,2A2,2,0,0,1,744.61,409.69Zm2.52-66.58a2,2,0,1,1-2,2A2,2,0,0,1,747.13,343.12Zm3.42-10.62a2,2,0,1,1-2,2A2,2,0,0,1,750.55,332.5Zm0,5a2,2,0,1,1-2,2A2,2,0,0,1,750.55,337.54Zm.54,72.15a2,2,0,1,1-2,2A2,2,0,0,1,751.09,409.69Z" style="fill:#fcfdff"/><line x1="170.21" y1="175.56" x2="594.46" y2="175.55" style="fill:none;stroke:#3f56a3;stroke-miterlimit:10;stroke-width:2px"/><line x1="170.21" y1="270.75" x2="594.46" y2="270.75" style="fill:none;stroke:#3f56a3;stroke-miterlimit:10;stroke-width:2px"/><path d="M222.39,202.48a1.11,1.11,0,0,1-1.72-.8v-13a1.14,1.14,0,0,1,1.06-1.06h44.05a1,1,0,0,1,1.06,1.06v13c0,.8-1.06,1.33-1.59.8l-1.72-1.59H250.79v53.47l1.59,1.73a.93.93,0,0,1-.66,1.59H235.79a1,1,0,0,1-.66-1.59l1.59-1.73V200.88H224Z" style="fill:#3f56a3"/><path d="M285.95,189.08a.84.84,0,0,1,.66-1.46H309c11.81,0,19,6.63,19,19.11v13.4a22.34,22.34,0,0,1-2,9.82,13.48,13.48,0,0,1-6.5,6.77l8,17.51,1.86,1.86c.66.4.13,1.59-.8,1.59H311.82a.93.93,0,0,1-.66-1.59l1.33-1.73-6.9-15.26h-4.11v15.26l1.73,1.73c.93.93.4,1.59-.53,1.59H286.61a1,1,0,0,1-.66-1.59l1.59-1.73V190.93ZM303.2,226c4.25,0,6.77-.66,8.49-2.12s2.39-3.45,2.39-7v-6.9c0-3.71-.66-6-2.39-7.17s-4.11-1.86-8.49-1.86h-1.73V226Z" style="fill:#3f56a3"/><path d="M350.7,254.36V190.93l-1.59-1.86a.84.84,0,0,1,.66-1.46h15.79c.8,0,1.33.93.8,1.46l-1.72,1.86v63.43l1.72,1.73a1,1,0,0,1-.8,1.59H349.77a1,1,0,0,1-.66-1.59Z" style="fill:#3f56a3"/><path d="M403.11,256.08a.94.94,0,0,1-.8,1.59H386.52a1,1,0,0,1-.66-1.59l1.59-1.73V190.93l-1.59-1.86a.84.84,0,0,1,.66-1.46h37.95a.89.89,0,0,1,.93.8v13.27c0,.8-.8,1.59-1.59.8l-1.59-1.59h-20.7v14.46H417l1.59-1.72c.4-.53,1.59-.13,1.59.66v15.26a1,1,0,0,1-1.59.66L417,228.75H401.52v25.61Z" style="fill:#3f56a3"/><path d="M462,256.08a.94.94,0,0,1-.8,1.59H445.43a1,1,0,0,1-.66-1.59l1.59-1.73V190.93l-1.59-1.86a.84.84,0,0,1,.66-1.46h37.95a.89.89,0,0,1,.93.8v13.27c0,.8-.8,1.59-1.59.8l-1.59-1.59h-20.7v14.46H476l1.59-1.72c.4-.53,1.59-.13,1.59.66v15.26a1,1,0,0,1-1.59.66L476,228.75H460.43v25.61Z" style="fill:#3f56a3"/><path d="M505,202.48a1.11,1.11,0,0,1-1.72-.8v-13a1.14,1.14,0,0,1,1.06-1.06H548.4a1,1,0,0,1,1.06,1.06v13c0,.8-1.06,1.33-1.59.8l-1.73-1.59H533.41v53.47l1.59,1.73a.93.93,0,0,1-.66,1.59H518.41a1,1,0,0,1-.66-1.59l1.59-1.73V200.88H506.6Z" style="fill:#3f56a3"/><path d="M223.32,201.53l3.72,3.85h-.13a.88.88,0,0,1-1.33,0l-3.18-3.18a2.78,2.78,0,0,0,.8-.53Zm4.78,2.79-3.72-3.85h2l3.45,3.32h-1.19Zm3.85-.53-3.45-3.32h2.12l3.32,3.32Zm3.45-.66-2.65-2.65h2.12l.53.53ZM237,257.26l3.32,3.32h-.13l-.53-.27-3.05-3.05Zm5.31,1.06,2.25,2.26h-2.12l-3.32-3.32h2Zm6.37,2.26h-2l-3.32-3.32h2Zm.93-3.32,3.32,3.32h-2.12l-3.32-3.32Zm2.12,0a2.13,2.13,0,0,0,1.46-.66l3.72,3.72a1,1,0,0,1-.53.27H255Zm.26-56.53,3.32,3.45v2.12L252,202.86Zm0,4.25,3.32,3.45v2L252,207.1Zm0,4.25,3.32,3.32v2.12L252,211.35Zm0,4.11,3.32,3.45v2.12L252,215.46Zm3.32,7.7v2L252,219.71v-2.12Zm-3.32.8,3.32,3.32v2.12L252,224Zm0,4.25,3.32,3.32v2.12L252,228.07Zm0,4.11,3.32,3.45v2L252,232.31Zm0,4.25,3.32,3.32v2.12L252,236.56Zm0,4.25L255.3,242v2.12L252,240.67Zm0,4.11,2.92,2.92.4.53v2L252,244.92Zm3.32,7.56v2.12L252,249.17V247Zm-3.32.93,3.32,3.32v2.12l-1.46-1.46a2.06,2.06,0,0,0-.66-1.86L252,252.09Zm3.85-50.82,3.32,3.32h-2l-3.45-3.32Zm4.25,0,3.32,3.32h-2.12L258,200.47Zm6,1.86,1.59,1.46h-2.12l-3.32-3.32h.66l1.33,1.19a2.2,2.2,0,0,0,1.59.66Zm5.31,1.06v1.33c0,.27,0,.4-.13.53l-3.71-3.72a2.78,2.78,0,0,0,.53-1.46Zm0-10.48L268,189.46v-1.73c.27.27,2.79,2.92,3.05,3.05a1,1,0,0,1,.27.66ZM268,191.58l3.32,3.45v2L268,193.7Zm0,4.25,3.32,3.32v2.12L268,197.95Z" style="fill:#3f56a3"/><path d="M288.6,257.13l3.45,3.45h-.8a.94.94,0,0,1-.8-.4c-.4-.27-2.79-2.79-3.05-3.05Zm5.44,3.45-3.32-3.45h2.12l3.32,3.45Zm6.37,0h-2.12L295,257.13h2.12Zm.8-3.45,3.45,3.45h-2.12l-3.45-3.45Zm4.91-51.75-3.32-3.45v-1.46h.53l3.45,3.32h-.66Zm0,4.11-3.32-3.32v-2.12l3.32,3.32Zm0,4.25-3.32-3.32V208.3l3.32,3.32Zm0,4.25-3.32-3.45v-2.12l3.32,3.45Zm0,4.11-3.32-3.32v-2.12l3.32,3.32Zm-1.46.66H302.8V220.9Zm1.46,20.43-3.32-3.45v-1.06h.93l1.73,1.73.8,1.72h-.13Zm-3.32-1.33,3.32,3.32v2.12L302.8,244Zm0,4.25,3.32,3.32v2.12l-3.32-3.32Zm0,4.11,3.32,3.45v2.12l-1.59-1.72a1.33,1.33,0,0,0-.53-.66l-1.19-1.33Zm3.85,10.35L303.2,257a2.12,2.12,0,0,0,1.19-.93l3.58,3.71a.89.89,0,0,1-.93.8Zm2.25-56.79-3.32-3.32,2.39.4,3.05,3.05C310.36,203.92,309.7,203.79,308.9,203.79Zm5,53.47,3.32,3.32h-.8a1,1,0,0,1-.66-.27c-.4-.4-2.92-2.79-3.05-3.05Zm5.44,3.32-3.32-3.32h2l3.45,3.32Zm2.92-3.32,3.32,3.32h-2l-3.45-3.32Zm-.93-21.89,3.85,3.71a7.49,7.49,0,0,0-1.06.66l.27.66-2-1.86-1.33-3.05A.46.46,0,0,0,321.38,235.37Zm2.39-1.86,3.72,3.72-1.06.93-3.72-3.72Zm2.39,12.87-1.86-4,2,2,1.86,4Zm.4,10.88,3.32,3.32h-2.12l-3.32-3.32Zm-.93-26.14,3.85,3.71-.93,1.19v.13l-3.85-3.85A7.33,7.33,0,0,0,325.62,231.12Zm1.59-2.65,3.72,3.72a7.1,7.1,0,0,0-.66,1.46l-3.71-3.71a2.67,2.67,0,0,1,.53-1.06C327.08,228.73,327.21,228.6,327.21,228.47Zm1.33-30.12a20.6,20.6,0,0,0-.93-3.05l1.19,1.06,1.33,2,1.19,2.79ZM327.88,227l.4-1.59L332,229c-.13.53-.4,1.06-.53,1.72Zm.8,24.81-.66-1.46,2,1.86,1.86,4-1.06-.93a2.38,2.38,0,0,0-.53-1.86Zm0-28.13.4-1.73,3.45,3.45a9,9,0,0,1-.27,1.86Zm1.46,32.91,3.72,3.85c-.13,0-.27.13-.53.13H332l-3.32-3.32A2.13,2.13,0,0,0,330.13,256.6Zm-1.19-55.73,2.92,2.92.27.13.4,2.52-3.32-3.32A13.16,13.16,0,0,0,328.94,200.87Zm.26,6.5v-2l.53.4,2.92,2.92v2.12Zm3.45,7.56-3.45-3.32v-2.12l3.45,3.45Zm0,4.25-3.45-3.32v-2.12l3.45,3.32Zm-3.45.8v-2l3.45,3.32v2.12Z" style="fill:#3f56a3"/><path d="M354.15,257.26l3.32,3.32h-2.12L352,257.26Zm4.11,0,3.45,3.32h-2.12l-3.32-3.32Zm4.25,0,3.32,3.32h-2l-3.45-3.32Zm3.05,0a1.12,1.12,0,0,0,.93-.27l3.58,3.58h-2.12l-3.32-3.32Zm.66-67.8,3.72,3.71-.66.66v.93L366,191.31v-1.59Zm-.26,4,3.32,3.32v2.12L366,195.56Zm0,4.25,3.32,3.32v2.12L366,199.67Zm0,4.11,3.32,3.45v2.12L366,203.92Zm0,4.25,3.32,3.32v2.12L366,208.17Zm0,4.25,3.32,3.32v2.12L366,212.41Zm0,4.11,3.32,3.45V220L366,216.52Zm0,4.25,3.32,3.32v2.12L366,220.77Zm0,4.25,3.32,3.32v2.12L366,225Zm0,4.11,3.32,3.45v2.12L366,229.13Zm0,4.25,3.32,3.32v2.12L366,233.38Zm0,4.25,3.32,3.32v2.12L366,237.62Zm0,4.11,3.32,3.45v2.12L366,241.74Zm0,4.25,3.32,3.32v2.12L366,246Zm0,4.25,3.32,3.32v2.12L366,250.23Zm5-56-3.85-3.71a2.8,2.8,0,0,0,.53-.8c1.33,1.33,3.05,3.18,3.18,3.18A1,1,0,0,1,371,192.11Zm-3.32,63.82a2.39,2.39,0,0,0-.27-2.12l1.86,1.86v1.73l1.59,1.72c.27.13.27.27.27.53l-3.58-3.58A.13.13,0,0,1,367.68,255.93Z" style="fill:#3f56a3"/><path d="M388.38,257.26l3.45,3.32h-.66c-.4,0-.53,0-.8-.27l-3.05-3.05Zm5.57,3.32-3.45-3.32h2.12l3.32,3.32Zm2.92-3.32,3.32,3.32h-2.12l-3.32-3.32Zm4.11,0,3.45,3.32h-2.12L399,257.26Zm5-51.75-3.32-3.32v-1.73h.4l3.32,3.45H406Zm0,4.25-3.32-3.32v-2.12l3.32,3.32Zm-3.32-1.33,3.32,3.45v.4h-1.59l-1.72-1.72Zm0,21.1,3.32,3.32V235l-3.32-3.32Zm0,4.11,3.32,3.45v2.12l-3.32-3.45Zm0,4.25,3.32,3.32v2.12L402.71,240Zm0,4.25,3.32,3.32v2.12l-3.32-3.32Zm0,4.11L406,249.7v2.12l-3.32-3.45Zm0,4.25,3.32,3.32v2.12l-1.59-1.46a1.64,1.64,0,0,0-.53-1.06l-1.19-1.19Zm.26,6.63a1.69,1.69,0,0,0,1.19-.93l3.72,3.71a.88.88,0,0,1-.93.66h-.4Zm2.65-28.93,3.32,3.32h-2.12l-3.32-3.32Zm2.92-24.28-3.32-3.45h2.12l3.32,3.45Zm1.19,24.28,3.45,3.32h-2.12l-3.32-3.32Zm3.05-24.28-3.45-3.45h2.12l3.45,3.45ZM414,228.2l3.45,3.32h-2.12l-3.45-3.32ZM417,203.92l-3.45-3.45h2.12l3.32,3.45Zm2.92,26,1.59,1.59h-2.12l-3.32-3.32h.13l1.33,1.33a2.31,2.31,0,0,0,1.59.53A1.68,1.68,0,0,0,420,229.93Zm1.19-26-3.32-3.45H420l3.32,3.45Zm0,25.08a3.9,3.9,0,0,0,.26-1.19v-.53l3.32,3.32v2.12Zm.26-14.33,3.32,3.32v2.12l-3.32-3.45Zm3.32,9.55-3.32-3.32v-2.12l3.32,3.45ZM421.42,223l3.32,3.32v2.12l-3.32-3.32Zm.13,8.49,1.73,1.73h-.13Zm3.72-29.32c.13,0,.26-.13.4-.27l3.58,3.72a.82.82,0,0,1-.93-.13l-1.59-1.59H425.4l-1.59-1.59h.53A2.59,2.59,0,0,0,425.27,202.19Zm4.64,2-3.45-3.45a1,1,0,0,0,.13-.66v-1.33l3.32,3.45Zm-3.32-15.92v-.4c.27.13,2.92,2.79,3.05,2.92a1.89,1.89,0,0,1,.26.8Zm3.32,7.56-3.32-3.32v-2.12l3.32,3.32Zm0,4.25-3.32-3.45V194.5l3.32,3.45Z" style="fill:#3f56a3"/><path d="M447.29,257.26l3.45,3.32h-.66c-.4,0-.53,0-.8-.27l-3.05-3.05Zm5.57,3.32-3.45-3.32h2.12l3.32,3.32Zm2.92-3.32,3.32,3.32H457l-3.32-3.32Zm4.11,0,3.45,3.32h-2.12l-3.32-3.32Zm5-51.75-3.32-3.32v-1.73h.4l3.32,3.45h-.4Zm0,4.25-3.32-3.32v-2.12l3.32,3.32Zm-3.32-1.33,3.32,3.45v.4h-1.59l-1.73-1.72Zm0,21.1,3.32,3.32V235l-3.32-3.32Zm0,4.11,3.32,3.45v2.12l-3.32-3.45Zm0,4.25,3.32,3.32v2.12L461.62,240Zm0,4.25,3.32,3.32v2.12l-3.32-3.32Zm0,4.11,3.32,3.45v2.12l-3.32-3.45Zm0,4.25,3.32,3.32v2.12l-1.59-1.46a1.64,1.64,0,0,0-.53-1.06l-1.19-1.19Zm.27,6.63a1.69,1.69,0,0,0,1.19-.93l3.71,3.71a.88.88,0,0,1-.93.66h-.4Zm2.65-28.93,3.32,3.32h-2.12l-3.32-3.32Zm2.92-24.28-3.32-3.45h2.12l3.32,3.45Zm1.19,24.28,3.45,3.32H470l-3.32-3.32Zm3.05-24.28-3.45-3.45h2.12l3.45,3.45Zm1.19,24.28,3.45,3.32h-2.12l-3.45-3.32ZM476,203.92l-3.45-3.45h2.12l3.32,3.45Zm2.92,26,1.59,1.59h-2.12L475,228.2h.13l1.33,1.33a2.32,2.32,0,0,0,1.59.53A1.68,1.68,0,0,0,478.87,229.93Zm1.19-26-3.32-3.45h2.12l3.32,3.45Zm0,25.08a3.88,3.88,0,0,0,.27-1.19v-.53l3.32,3.32v2.12Zm.27-14.33,3.32,3.32v2.12l-3.32-3.45Zm3.32,9.55-3.32-3.32v-2.12l3.32,3.45ZM480.33,223l3.32,3.32v2.12l-3.32-3.32Zm.13,8.49,1.72,1.73h-.13Zm3.71-29.32c.13,0,.27-.13.4-.27l3.58,3.72a.82.82,0,0,1-.93-.13l-1.59-1.59h-1.33l-1.59-1.59h.53A2.59,2.59,0,0,0,484.18,202.19Zm4.64,2-3.45-3.45a1,1,0,0,0,.13-.66v-1.33l3.32,3.45Zm-3.32-15.92v-.4c.27.13,2.92,2.79,3.05,2.92a1.88,1.88,0,0,1,.27.8Zm3.32,7.56-3.32-3.32v-2.12l3.32,3.32Zm0,4.25-3.32-3.45V194.5l3.32,3.45Z" style="fill:#3f56a3"/><path d="M505.94,201.53l3.72,3.85h-.13a.88.88,0,0,1-1.33,0L505,202.19a2.77,2.77,0,0,0,.8-.53Zm4.78,2.79L507,200.47h2l3.45,3.32h-1.19Zm3.85-.53-3.45-3.32h2.12l3.32,3.32Zm3.45-.66-2.65-2.65h2.12l.53.53Zm1.59,54.14,3.32,3.32h-.13l-.53-.27-3.05-3.05Zm5.31,1.06,2.26,2.26H525l-3.32-3.32h2Zm6.37,2.26h-2L526,257.26h2Zm.93-3.32,3.32,3.32h-2.12l-3.32-3.32Zm2.12,0a2.13,2.13,0,0,0,1.46-.66l3.71,3.72a1,1,0,0,1-.53.27h-1.33Zm.27-56.53,3.32,3.45v2.12l-3.32-3.45Zm0,4.25,3.32,3.45v2l-3.32-3.32Zm0,4.25,3.32,3.32v2.12l-3.32-3.32Zm0,4.11,3.32,3.45v2.12l-3.32-3.45Zm3.32,7.7v2l-3.32-3.32v-2.12Zm-3.32.8,3.32,3.32v2.12L534.6,224Zm0,4.25,3.32,3.32v2.12l-3.32-3.45Zm0,4.11,3.32,3.45v2l-3.32-3.32Zm0,4.25,3.32,3.32v2.12l-3.32-3.32Zm0,4.25,3.32,3.32v2.12l-3.32-3.45Zm0,4.11,2.92,2.92.4.53v2l-3.32-3.32Zm3.32,7.56v2.12l-3.32-3.32V247Zm-3.32.93,3.32,3.32v2.12l-1.46-1.46a2.06,2.06,0,0,0-.66-1.86l-1.19-1.33Zm3.85-50.82,3.32,3.32h-2l-3.45-3.32Zm4.25,0,3.32,3.32h-2.12l-3.32-3.32Zm6,1.86,1.59,1.46h-2.12l-3.32-3.32h.66l1.33,1.19a2.19,2.19,0,0,0,1.59.66Zm5.31,1.06v1.33c0,.27,0,.4-.13.53l-3.72-3.72a2.78,2.78,0,0,0,.53-1.46Zm0-10.48-3.32-3.45v-1.73c.27.27,2.79,2.92,3.05,3.05a1,1,0,0,1,.27.66Zm-3.32-1.33L554,195v2l-3.32-3.32Zm0,4.25,3.32,3.32v2.12l-3.32-3.32Z" style="fill:#3f56a3"/></svg>