<svg xmlns="http://www.w3.org/2000/svg" viewBox="0 0 97.22 83.48"><defs><style>.cls-1{fill:#0a58a5;}</style></defs><title>Asset 13</title><g id="Layer_2" data-name="Layer 2"><g id="Layer_1-2" data-name="Layer 1"><path class="cls-1" d="M44.38,24.3A14.79,14.79,0,0,0,29.59,39.1V62.35h38V39.1A14.79,14.79,0,0,0,52.84,24.3ZM14.27,34.87a5.81,5.81,0,1,0,5.81,5.81,5.81,5.81,0,0,0-5.81-5.81Zm68.69,0a5.81,5.81,0,1,0,5.81,5.81A5.81,5.81,0,0,0,83,34.87ZM20.87,28.53h7.7a19,19,0,0,1,15.82-8.45H47l-1.59-3.17,3.17-4.23,3.17,4.23L50.2,20.08h2.64a19,19,0,0,1,15.82,8.45h7.7L72.84,8.59a5.28,5.28,0,0,0-5.2-4.37h-38a5.28,5.28,0,0,0-5.2,4.37L20.87,28.53ZM93,62.35a4.23,4.23,0,0,1,0,8.45H88.77v9.51a3.17,3.17,0,0,1-3.17,3.17H80.31a3.17,3.17,0,0,1-3.17-3.17V70.8H20.08v9.51a3.17,3.17,0,0,1-3.17,3.17H11.62a3.17,3.17,0,0,1-3.17-3.17V70.8H4.23a4.23,4.23,0,0,1,0-8.45V53.89a12.62,12.62,0,0,1,2.13-7,10,10,0,0,1,7.91-16.22,10.11,10.11,0,0,1,1.91.18l.21-1.17,3.84-21.8A9.51,9.51,0,0,1,29.59,0h38A9.51,9.51,0,0,1,77,7.86l3.84,21.8L81,30.83A10,10,0,0,1,93,40.68a10,10,0,0,1-2.13,6.18,12.62,12.62,0,0,1,2.13,7v8.45ZM59.71,56.53V34.34a1.59,1.59,0,0,1,3.17,0V56.53a1.59,1.59,0,1,1-3.17,0Zm-25.36,0V34.34a1.59,1.59,0,0,1,3.17,0V56.53a1.59,1.59,0,0,1-3.17,0Zm6.34,0V31.17a1.59,1.59,0,1,1,3.17,0V56.53a1.59,1.59,0,1,1-3.17,0Zm6.34,0V30.12a1.59,1.59,0,0,1,3.17,0V56.53a1.59,1.59,0,1,1-3.17,0Zm6.34,0V31.17a1.59,1.59,0,1,1,3.17,0V56.53a1.59,1.59,0,1,1-3.17,0ZM83.48,23.25A4.23,4.23,0,0,1,87.71,19h2.11a4.23,4.23,0,0,1,0,8.45H87.71a4.23,4.23,0,0,1-4.23-4.23Zm-80.31,0A4.23,4.23,0,0,1,7.4,19H9.51a4.23,4.23,0,1,1,0,8.45H7.4a4.23,4.23,0,0,1-4.23-4.23Z"/></g></g></svg>