<svg xmlns="http://www.w3.org/2000/svg" viewBox="0 0 98.97 93.24"><defs><style>.cls-1{fill:#0957a5;}</style></defs><title>Asset 2</title><g id="Layer_2" data-name="Layer 2"><g id="Layer_1-2" data-name="Layer 1"><path class="cls-1" d="M35.44,48.91l-.4.37a19.88,19.88,0,0,1,.67,2.42,20.6,20.6,0,0,1,.21,6.85c-.34,2.54-1.81,3.94-3,3.71-1.38-.27-1.54-2-1.58-4a19.76,19.76,0,0,0-.7-5,18.67,18.67,0,0,0-.82-2.35c-.08-.19-.16-.38-.25-.57l-.13-.28-.07-.14v-.07h0c.31-1.59-.69,3.56.68-3.57h0l1.07-1C34,42.59,36.93,40,39.91,37.39l2.6-2.25a3.39,3.39,0,0,0,.2-3.7,3.27,3.27,0,0,0-3.33-1.57,3.54,3.54,0,0,0-1,.31,3.28,3.28,0,0,0-.44.26c-.18.13-.47.37-.71.54l-3,2.29L28.3,37.84a30.79,30.79,0,0,1-10.41,5.61c-1.08.29-2,.25-2.1-.66A2.54,2.54,0,0,1,16.46,41c4.7-3.75,9.2-7.78,13.81-11.66q1.73-1.46,3.48-2.88l.44-.35.67-.5a9.48,9.48,0,0,1,1.48-.8,8.61,8.61,0,0,1,3.25-.68,8.37,8.37,0,0,1,5.91,2.33A7.82,7.82,0,0,1,47.9,32a8.07,8.07,0,0,1-1.73,6.25,8.37,8.37,0,0,1-.57.62l-.45.45-.88.88L42.5,42C40.23,44.32,37.86,46.62,35.44,48.91ZM98.88,5.52a6.68,6.68,0,0,0-.81-2.1A6.6,6.6,0,0,0,92.51.2H88.68L78.51.36l-10-.17C57.92.06,47.33,0,36.75,0H23.61a6.5,6.5,0,0,0-1.74.38,6.63,6.63,0,0,0-4.3,5.24,6,6,0,0,0-.06,1V8.2l.08,4,.2,7.91h0a5.16,5.16,0,0,0-1.71,1c-1.25,1.11-2.57,2.23-3.87,3.38l-1,.87c-.32.29-.63.58-1,1a15.62,15.62,0,0,0-1.84,2.31,18.77,18.77,0,0,0-3.16,8.82,19,19,0,0,0-.08,2.35l.08,2.1L5.38,46c-1.7,9.68-.8,19.57-1.09,29.37H3.06a3,3,0,0,0-3,3C.06,82.73.13,87,0,91.34A2.61,2.61,0,0,0,.89,93c.74.54,1.38-.16,1.86-1.2A31.28,31.28,0,0,0,5.17,80.74c9,.42,18,.89,27.07.45l3.81.17q5.2.17,10.39.17c.07,2.57.18,5.14.38,7.7.18,2.28.88,4.18,2.27,4s2.2-1.77,2.35-4.11c.22-3.54.46-7.1.51-10.66h0a2.5,2.5,0,0,0-2.44-2.54h-2c-1.21,0-2.42,0-3.63.06a4.24,4.24,0,0,0,1.51-2.18l.11-.05a15.39,15.39,0,0,0,2-1.22,9.72,9.72,0,0,0,3.12-3.58,11.3,11.3,0,0,0,.79-.9,10.63,10.63,0,0,0,2.43-7c0-.73-.67-1.39-2.06-1.5s-2.25.15-2.49.66c-.44.94-1,1.78-1.33,2.68A21.37,21.37,0,0,1,46,67.25a15.47,15.47,0,0,0-3.83,2.06l-.43.29h0l-1.43,2.58h0v1.74c0,.7,0,1.4-.06,2.1-4.38.12-8.76.29-13.15.42a135.35,135.35,0,0,0-19.45-1,23.79,23.79,0,0,0,1.89-8.49c.44-8.35,1.12-16.7.62-25.11l.09-1.56a9,9,0,0,1,.12-1.35,16,16,0,0,1,3-7.51,19.19,19.19,0,0,1,1.29-1.57L16.3,28c.68-.75,1.33-1.53,2-2.3.37,3.11,1,5.14,1.89,4.84,1.27-.41,2.2-4.65,2.35-10.81l.2-8.3.09-4.16V6.78a1.78,1.78,0,0,1,0-.19A1.23,1.23,0,0,1,23,6.23a1.39,1.39,0,0,1,.51-.54,1.3,1.3,0,0,1,.69-.18h2l4.16.11h8.32c17.88,0,35.66-.35,53.49-.55a2.13,2.13,0,0,1,.49.06,1.6,1.6,0,0,1,.32.11,1.64,1.64,0,0,1,.52.39,1.51,1.51,0,0,1,.38,1.13l-.23,6q-.21,6-.33,12.07l-.16,12.11v11a.17.17,0,0,0,0,.07v.13a.69.69,0,0,1-.35.39.64.64,0,0,1-.26.06H84.91l-12.16,0c-8.11,0-16.24,0-24.29-.1a12.7,12.7,0,0,0-4.41.89c-1.41.74.42,1.38,3.16,1.86a208.55,208.55,0,0,0,31.13,2.45l10.06.17h3.78a8.55,8.55,0,0,0,.89,0,6.33,6.33,0,0,0,1-.19,6.12,6.12,0,0,0,3.34-2.32,6.21,6.21,0,0,0,.91-1.87,6.61,6.61,0,0,0,.21-1v-.89l.31-20.14Q99,17.4,99,7.31V6.62A6.85,6.85,0,0,0,98.88,5.52Z"/><path class="cls-1" d="M85.94,35.55,79.7,28.81h0L75.1,24.44l1-1,0-.06c.19-.26,1-1.38,1.44-1.95a1.48,1.48,0,0,0,.07-1.66l.51-1.05a.34.34,0,0,0-.08-.4.35.35,0,0,0-.4-.05l-1,.57A1.47,1.47,0,0,0,75,19c-.54.48-1.61,1.34-1.87,1.54l-.06,0-1,1-4.59-4.35h0l-7.06-5.88a.34.34,0,0,0-.47,0l-2.46,2.59a.35.35,0,0,0,0,.45l5.78,7.23,0,0L67.89,26l-5.07,6.72-3.91-2.5a.35.35,0,0,0-.44.05l-1.66,1.74a.35.35,0,0,0,0,.45l3,3.84,0,0a.35.35,0,0,0,.23.09l.74,0,.06.73a.34.34,0,0,0,.15.25l4,2.77a.35.35,0,0,0,.45,0l1.66-1.74a.34.34,0,0,0,0-.43l-2.7-3.77,6.45-5.42,4.61,4.38,0,0L83,38.66a.35.35,0,0,0,.45,0L85.94,36A.34.34,0,0,0,85.94,35.55Zm-16.6-6.92a1.15,1.15,0,0,1-.76-.34,1.13,1.13,0,0,1-.37-.74.58.58,0,0,1,.18-.44c.29-.3.45-.19.47-.17h0l1,1h0s.14.18-.14.48A.59.59,0,0,1,69.33,28.63Zm5.44-5a.17.17,0,0,1-.24,0L72.9,22.11a.17.17,0,0,1,0-.24l.2-.21a.17.17,0,0,1,.1-.05A1.56,1.56,0,0,1,75,23.33a.17.17,0,0,1,0,.11l-.2.21Z"/></g></g></svg>