<svg xmlns="http://www.w3.org/2000/svg" viewBox="0 0 115.39 97.98"><defs><style>.cls-1{fill:none;stroke:#0a58a5;stroke-miterlimit:10;stroke-width:4px;}</style></defs><title>Asset 11</title><g id="Layer_2" data-name="Layer 2"><g id="Layer_1-2" data-name="Layer 1"><path class="cls-1" d="M97.45,22H97A12.76,12.76,0,0,0,84.9,34.82v4.06h-.29a3.31,3.31,0,0,0-3.34,3.29s0,0,0,0V57.55a3.31,3.31,0,0,0,3.31,3.31h25.49a3.31,3.31,0,0,0,3.31-3.31V42.2a3.31,3.31,0,0,0-3.31-3.31h0V34.51A12.58,12.58,0,0,0,97.47,22Zm2.36,31.77a.63.63,0,0,1-.48.75H95.46a.63.63,0,0,1-.62-.76l.72-3.51A2.76,2.76,0,0,1,97,45.38h.33a2.76,2.76,0,0,1,1.75,4.9Zm4.71-14.83H90.44V34.72a7.2,7.2,0,0,1,6.39-7.24h.68a7.07,7.07,0,0,1,7.07,7.07h0v4.37Zm.39,39.17a3.47,3.47,0,0,0,0-6.93L79.28,69.06,70.12,51.51A24.42,24.42,0,0,0,66.19,46h0a25,25,0,0,0-2.87-2.62,84.66,84.66,0,0,0-11.25-7.21l-6,28.8L43,45.9l2-3.26-3-3.8,7.85-5V30.59a11.78,11.78,0,0,0,1.51-4.06c.58,0,1.31-.85,2.15-3.73,1.11-3.93-.07-4.53-1.07-4.42a10.34,10.34,0,0,0,.43-1.62c1.7-10.2-3.33-10.56-3.33-10.56a7.72,7.72,0,0,0-3-2.81,10.2,10.2,0,0,0-6.22-1.31,9,9,0,0,0-2.47.47h0a10.92,10.92,0,0,0-2.72,1.4,14.58,14.58,0,0,0-2.8,2.32,11.3,11.3,0,0,0-3,5.32,11.53,11.53,0,0,0,0,5.24h0a10.34,10.34,0,0,0,.43,1.62c-1-.09-2.19.48-1.07,4.42.81,2.88,1.57,3.69,2.15,3.73a12.07,12.07,0,0,0,1.51,4.11v3.15l7.85,5-3,3.8,2.16,3.22L36.34,65l-6-28.8a84.83,84.83,0,0,0-11,7A24.76,24.76,0,0,0,12,52.45L7.48,62,2.57,72.47a6,6,0,0,0,.38,5.8L14.3,95.39h46L61.64,65.8l8.9,11.64a7.08,7.08,0,0,0,6.06,2.8ZM14.85,76.51a2,2,0,0,1,0-2.12l6.74-10L23,90Z"/></g></g></svg>