<svg xmlns="http://www.w3.org/2000/svg" viewBox="0 0 119.35 96.74"><defs><style>.cls-1{fill:none;stroke:#0a58a5;stroke-miterlimit:10;stroke-width:4px;}</style></defs><title>Asset 10</title><g id="Layer_2" data-name="Layer 2"><g id="Layer_1-2" data-name="Layer 1"><path class="cls-1" d="M116.46,89.06l-1.26-1-2.95,4.81C78.46,57.33,59.62,8.82,59.57,8.7h0c0,.12-18.84,48.49-52.56,84L4.15,88l-1.26,1,3.72,4.06-.05.06.08,0,0,0,.17-.06A100.53,100.53,0,0,1,45.68,93s11.3-20,13.9-38c2.59,18.08,13.9,38,13.9,38a100.66,100.66,0,0,1,38.63,0l0,.06.47,0h.16Z"/><path class="cls-1" d="M40.15,28.12l-3.63,3.67a.56.56,0,0,0,.67.9c1.26-.67,3.65-1.53,4.7-1a.56.56,0,0,0,.5-1,4.69,4.69,0,0,0-3.16,0l3-3.08a.56.56,0,0,0-.56-.94c-1.22.37-2.89.64-3.89-.13a.57.57,0,1,0-.69.89A4.14,4.14,0,0,0,40.15,28.12Z"/><path class="cls-1" d="M29.05,15.93a6.47,6.47,0,0,0,5.17,1l-6.16,6a.56.56,0,0,0,.65.91c1.42-.72,5.5-2.37,7.37-1.42a.56.56,0,0,0,.51-1c-1.53-.78-3.86-.3-5.68.31l5.51-5.39a.57.57,0,0,0,.09-.69.56.56,0,0,0-.64-.26c-2.79.79-4.85.68-6.11-.34a.56.56,0,1,0-.71.88Z"/><path class="cls-1" d="M17.4,14a.58.58,0,0,0,.23,0c2-.91,7.93-3,10.54-1.45a.56.56,0,1,0,.56-1c-2.27-1.3-6.07-.5-8.69.33l8.78-7.77a.56.56,0,0,0-.5-1c-4,.92-6.93.6-8.67-1A.56.56,0,0,0,18.9,3c1.71,1.52,4.27,2,7.65,1.58L17,13a.57.57,0,0,0,.37,1Z"/></g></g></svg>