<?xml version="1.0" encoding="utf-8"?>
<!-- Generator: Adobe Illustrator 21.1.0, SVG Export Plug-In . SVG Version: 6.00 Build 0)  -->
<svg version="1.1" id="Layer_1" xmlns="http://www.w3.org/2000/svg" xmlns:xlink="http://www.w3.org/1999/xlink" x="0px" y="0px"
	 viewBox="0 0 60 60" style="enable-background:new 0 0 60 60;" xml:space="preserve">
<style type="text/css">
	.st0{fill:#0957A5;}
</style>
<title>Asset 5</title>
<path class="st0" d="M29,10.7l0.1,16c0.7-0.2,1.5-0.2,2.2,0l-0.1-16c0-0.6-0.5-1.1-1.1-1.1C29.3,9.6,28.9,10,29,10.7z M60,30
	c0,16.6-13.4,30-30,30S0,46.6,0,30S13.4,0,30,0S60,13.4,60,30z M56.1,30C56.1,15.6,44.4,3.9,30,3.9C15.6,3.9,3.9,15.6,3.9,30
	c0,14.4,11.7,26.1,26.1,26.1c0,0,0,0,0,0C44.4,56.1,56.1,44.4,56.1,30z M32.6,30c0,1.4-1.2,2.6-2.6,2.6s-2.6-1.2-2.6-2.6
	c0-1.4,1.2-2.6,2.6-2.6l0,0C31.4,27.4,32.6,28.6,32.6,30z M31.3,30c0-0.7-0.6-1.3-1.3-1.3s-1.3,0.6-1.3,1.3s0.6,1.3,1.3,1.3
	c0,0,0,0,0,0C30.7,31.3,31.3,30.7,31.3,30z M31.3,5.5h-2.6v6.1h2.6L31.3,5.5z M28.7,54.5h2.6v-6.1h-2.6L28.7,54.5z M5.5,31.3h6.1
	v-2.6H5.5V31.3z M48.5,28.7v2.6h6.1v-2.6L48.5,28.7z"/>
<path class="st0" d="M31.1,41.1l-0.1-8c-0.7,0.2-1.5,0.2-2.2,0l0.1,8c0,0.6,0.5,1.1,1.1,1.1C30.8,42.2,31.2,41.8,31.1,41.1z"/>
</svg>
