<svg xmlns="http://www.w3.org/2000/svg" viewBox="0 0 44.2 44.1"><title>freier_Eintritt</title><g id="Layer_2" data-name="Layer 2"><g id="Layer_1-2" data-name="Layer 1"><ellipse cx="34.75" cy="22.5" rx="0.89" ry="1.54" style="fill:#125aa3"/><path d="M41.8,22h-.9a15.69,15.69,0,0,0-4.5-6.2v-6a.68.68,0,0,0-.7-.7,6.71,6.71,0,0,0-5.8,3.2,18.91,18.91,0,0,0-4-.8,8.66,8.66,0,0,0,.6-3.2,8.3,8.3,0,1,0-13.9,6.1,13.3,13.3,0,0,0-1.9,1.4,14.36,14.36,0,0,0-5.4,9.9,6.75,6.75,0,0,1-2-1.3h0a7,7,0,0,0,1.9-4.2,2.65,2.65,0,0,0-2.6-2.6A2.65,2.65,0,0,0,0,20.2a7.54,7.54,0,0,0,1.4,4.2c-.6.6-1.1,1-1.1,1a.67.67,0,0,0-.1,1,.67.67,0,0,0,1,.1,8.86,8.86,0,0,0,1.2-1,6.48,6.48,0,0,0,3,1.8c.2,4.7,3,9,7.6,11.7l-.4,2.5a2.38,2.38,0,0,0,.5,1.8,2.14,2.14,0,0,0,1.7.8h1.5a2.25,2.25,0,0,0,2.2-1.9l.2-1a21.13,21.13,0,0,0,10,0l.2,1a2.25,2.25,0,0,0,2.2,1.9h1.5a2.14,2.14,0,0,0,1.7-.8,2.38,2.38,0,0,0,.5-1.8L34.4,39a15.27,15.27,0,0,0,6.7-7.8H42A2.22,2.22,0,0,0,44.2,29V24.4A2.57,2.57,0,0,0,41.8,22ZM1.4,20.1a1.16,1.16,0,0,1,1.2-1.2,1.16,1.16,0,0,1,1.2,1.2,5.56,5.56,0,0,1-1.4,3.1,5,5,0,0,1-1-3.1Zm15.4-7.5a20.29,20.29,0,0,0-2.6,1.1,6.48,6.48,0,0,1-2.9-5.4h0a6.9,6.9,0,1,1,13.8,0,6.7,6.7,0,0,1-.7,3.1h-.8a12.75,12.75,0,0,0-2,.1m-3.9-.1,1.2-.1h0M42.5,28.8a.77.77,0,0,1-.7.8H40.4a.75.75,0,0,0-.7.5A13.88,13.88,0,0,1,33,37.8a.67.67,0,0,0-.4.7l.5,3a1,1,0,0,1-.2.7.86.86,0,0,1-.6.3H30.8a.85.85,0,0,1-.8-.7L29.7,40a.55.55,0,0,0-.3-.5c-.1-.1-.2-.1-.4-.1h-.2a19.52,19.52,0,0,1-5.4.7,20,20,0,0,1-5.4-.7.66.66,0,0,0-.6.1.55.55,0,0,0-.3.5l-.3,1.8a.85.85,0,0,1-.8.7H14.5a.71.71,0,0,1-.6-.3.84.84,0,0,1-.2-.7l.5-3a.67.67,0,0,0-.4-.7C9.2,35.2,6.5,31,6.5,26.5c0-7.6,7.5-13.7,16.8-13.7a20.63,20.63,0,0,1,6.5,1.1.74.74,0,0,0,.9-.4,5.55,5.55,0,0,1,4.1-3v5.6a.86.86,0,0,0,.3.6,13.43,13.43,0,0,1,4.5,6.2.75.75,0,0,0,.7.5h1.4a.86.86,0,0,1,.8.8v4.6Z" style="fill:#125aa3"/><path d="M34.9,21.3" style="fill:#125aa3"/><path d="M9.3,29.5C9.2,31,11,33.7,12.4,34a.72.72,0,0,0,.9-.5.76.76,0,0,0-.5-.9c-1.1-.4-2-2.2-2.2-3.3a.67.67,0,0,0-.6-.7H9.9a1.15,1.15,0,0,0-.6.9Z" style="fill:#125aa3"/><path d="M14.46,7.6h.88a5.07,5.07,0,0,1,.41-1.36,3.68,3.68,0,0,1,.71-1,2.93,2.93,0,0,1,1-.66,3.12,3.12,0,0,1,1.2-.23,2.91,2.91,0,0,1,1.37.3,3.11,3.11,0,0,1,1,.83l-.37.41-.1.09a.2.2,0,0,1-.13,0,.31.31,0,0,1-.21-.11,2.48,2.48,0,0,0-.3-.25,1.94,1.94,0,0,0-1.22-.37,1.94,1.94,0,0,0-1.46.6,3.22,3.22,0,0,0-.77,1.75h3.28v.33a.28.28,0,0,1-.08.19.29.29,0,0,1-.23.09h-3c0,.08,0,.16,0,.24s0,.16,0,.25v.19c0,.06,0,.12,0,.18h2.8V9.4a.27.27,0,0,1-.08.19.3.3,0,0,1-.23.09H16.42a3.32,3.32,0,0,0,.74,1.85,1.9,1.9,0,0,0,1.45.62,2.31,2.31,0,0,0,.57-.06,1.92,1.92,0,0,0,.43-.16,1.7,1.7,0,0,0,.31-.21l.23-.21.17-.16a.23.23,0,0,1,.15-.06l.08,0,.08.06.45.42a3,3,0,0,1-1,1,3.06,3.06,0,0,1-1.48.34,3.18,3.18,0,0,1-1.25-.24,2.78,2.78,0,0,1-1-.68,3.56,3.56,0,0,1-.67-1.07,5.43,5.43,0,0,1-.36-1.42h-.85V9.06h.8c0-.06,0-.12,0-.18V8.69q0-.12,0-.24c0-.08,0-.16,0-.24h-.81Z" style="fill:#125aa3"/></g></g></svg>