<svg xmlns="http://www.w3.org/2000/svg" viewBox="0 0 94.16 102.57"><defs><style>.cls-1{fill:none;stroke:#0a58a5;stroke-miterlimit:10;stroke-width:3px;}</style></defs><title>Asset 12</title><g id="Layer_2" data-name="Layer 2"><g id="Layer_1-2" data-name="Layer 1"><path class="cls-1" d="M78,87.93l.09,0V37.05l-.22.1L61.08,30.44H61c-1.12.1-2.32.18-3.57.24h-.1l0,.09a9.33,9.33,0,0,1-2.93,4.11l-.17.14,13.54,6.77V92.17Z"/><path class="cls-1" d="M62.12,18.82l-6.24,3.79.1.13a8.7,8.7,0,0,1,1.77,4.6v.14h.14c6.69-.34,11.15-1.24,13.26-2.68A12.75,12.75,0,1,0,56.79,3.72c-3,2.08-6.36,8.9-8.6,14.26l0,.05.26.65h.09a11.25,11.25,0,0,1,4.85,1.67l.07,0,7.05-4.28a1.58,1.58,0,0,1,1.64,2.69Z"/><polygon class="cls-1" points="12.28 38.36 12.24 38.22 1.91 34.48 1.91 48.19 12.28 51.95 12.28 38.36"/><path class="cls-1" d="M27.41,29.87l-.49-.09A18.68,18.68,0,0,1,20,27.39a16.12,16.12,0,0,1-1.39-1.07l-.07-.06L4.22,32l9.39,3.4Z"/><polygon class="cls-1" points="46.57 100.95 64.51 93.8 64.6 93.76 64.6 61.2 46.48 67.69 28.96 61.34 28.96 93.85 46.52 100.93 46.57 100.95"/><path class="cls-1" d="M39.94,28c0,3.43,3.3,6.22,7.35,6.22s7.35-2.79,7.35-6.22-3.3-6.22-7.35-6.22S39.94,24.56,39.94,28Z"/><polygon class="cls-1" points="64.6 44.13 46.48 50.63 28.96 44.27 28.96 57.99 46.44 64.32 46.49 64.34 64.6 57.85 64.6 44.13"/><path class="cls-1" d="M40.51,35.13a9.4,9.4,0,0,1-3.23-4.31l0-.09h-.1c-1,0-2-.08-3-.14h0l-4.91,2-13.75,5.1V87.9l10.38,4.27V41.8h.56v-.29h0L40.7,35.28Z"/><path class="cls-1" d="M36.11,3.72A12.75,12.75,0,0,0,21.75,24.79c2.29,1.56,7.31,2.48,14.92,2.75h.14V27.4a8.51,8.51,0,0,1,1.29-4l.08-.12-7.41-4.5a1.58,1.58,0,0,1,1.64-2.69L40.37,21l.08-.06a11,11,0,0,1,4.45-2l.17,0L45,18.67C42.68,13,39.26,5.86,36.11,3.72Z"/><path class="cls-1" d="M50.42,36.93a11.53,11.53,0,0,1-5.69.14h0L32.27,42.12l14.17,5.14,0,0,15.6-5.59L50.51,36.93l0,0Z"/><polygon class="cls-1" points="12.28 87.12 12.28 55.3 6.68 53.27 6.68 84.86 12.28 87.12"/><polygon class="cls-1" points="87.88 52.86 81.28 55.23 81.28 87.11 87.88 84.48 87.88 52.86"/><path class="cls-1" d="M89.82,31.75l-14.94-6-.07.06a15.69,15.69,0,0,1-1.88,1.53,15.82,15.82,0,0,1-5.2,2l-.44.1L80.9,34.95Z"/><polygon class="cls-1" points="92.66 34.09 81.28 38.16 81.28 51.88 92.66 47.81 92.66 34.09"/></g></g></svg>