<svg xmlns="http://www.w3.org/2000/svg" viewBox="0 0 90 53.84"><title>Hubschrauber</title><g id="Layer_2" data-name="Layer 2"><g id="Layer_1-2" data-name="Layer 1"><path d="M88.5,0H2.67a1.5,1.5,0,0,0,0,3H44.09V8.64H41.5a5.08,5.08,0,0,0-5.08,5.08v.93H9.61L7.23,9.22A3.77,3.77,0,0,0,0,11.13L.27,22.77A3.77,3.77,0,0,0,4,27.14h.23a3.77,3.77,0,0,0,2.84-1.29l2.16-2.48,19.12,2.47A20.46,20.46,0,0,0,41.18,44.4v6.43H30.72a1.5,1.5,0,0,0,0,3h40A7.34,7.34,0,0,0,78,46.51a1.5,1.5,0,0,0-3,0,4.33,4.33,0,0,1-4.33,4.33H66.05V45.94A10.39,10.39,0,0,0,75.16,35.8V33a17.77,17.77,0,0,0-.42-3.83,18.49,18.49,0,0,0-8.37-11.65,19.5,19.5,0,0,0-10.26-2.89H54.75v-.93a5.08,5.08,0,0,0-5.08-5.08H47.08V3H88.5a1.5,1.5,0,1,0,0-3ZM44.18,50.84V45.38a21.79,21.79,0,0,0,5.33.68H63.05v4.78H44.18Zm27.64-21A14.73,14.73,0,0,1,72.16,33v.17l0-7.38-3.49-4.19c-1.4-1.68-10.91-.6-8.73-.6h6.22A15.39,15.39,0,0,1,71.82,29.83ZM59.64,18A7,7,0,0,0,53,25,11.23,11.23,0,0,0,64.17,36.18h8a7.47,7.47,0,0,1-7.59,6.88h-15c-10,0-18.16-7.82-18.16-17.42V24.52A1.5,1.5,0,0,0,30,23L8.82,20.29H8.63a1.5,1.5,0,0,0-1.13.51L4.81,23.87a.77.77,0,0,1-.58.26H4a.77.77,0,0,1-.76-.93,1.47,1.47,0,0,0,0-.34L3,11a1.47,1.47,0,0,0,0-.16.77.77,0,0,1,1.48-.41l2.77,6.32a1.5,1.5,0,0,0,1.37.9H56.12A16.82,16.82,0,0,1,59.64,18Zm-7.89-4.3v.93H39.42v-.93a2.08,2.08,0,0,1,2.08-2.08h8.17A2.08,2.08,0,0,1,51.75,13.72Z" style="fill:#125aa3"/><path d="M47.06,38.52a13.28,13.28,0,0,1-8-4.92c-.68-.87-1.42-1.57-2.29-.89s-.28,1.27.39,2.14A15.76,15.76,0,0,0,47.43,40.7l.28,0c1,0,1.09-.06,1.23-1.06S48.15,38.67,47.06,38.52Z" style="fill:#125aa3"/></g></g></svg>