<svg xmlns="http://www.w3.org/2000/svg" viewBox="0 0 106.47 116.98"><defs><style>.cls-1{fill:none;stroke:#0a58a5;stroke-miterlimit:10;stroke-width:3px;}</style></defs><title>Asset 7</title><g id="Layer_2" data-name="Layer 2"><g id="Layer_1-2" data-name="Layer 1"><path class="cls-1" d="M89.51,56.94c-.66-6.16-3.09-11-6.85-13.75A1.82,1.82,0,0,0,80.9,43a1.85,1.85,0,0,0-1.12,1.39c-.41,2.32-4.3,6.49-6.62,8C58.94,61.55,58.44,72.5,58.42,73a1.84,1.84,0,1,0,3.68.12c0-.09.44-9.44,13-17.57a26.24,26.24,0,0,0,7.15-7.61,17.69,17.69,0,0,1,3.56,9.45c.78,7.34-1.47,15.16-5.73,19.91-5.86,6.52-15,7.55-18.85,7.68C64.08,79.4,68,73.48,72.47,71.87a1.86,1.86,0,0,0,1.11-2.38,1.83,1.83,0,0,0-2.35-1.12c-7,2.55-12.26,12.34-15,18.68A70,70,0,0,0,38.7,57.31a1.83,1.83,0,0,0-2.6,0,1.87,1.87,0,0,0,0,2.63,65.4,65.4,0,0,1,10.55,14,34,34,0,0,1-17.43-7.32C24.68,62.89,21.85,56,21.85,48.69c0-5.18,1.42-9.74,3.87-12.66,2.37,2.66,5.91,4.36,8.63,5.66.9.43,1.75.88,2.4,1.24,13.51,7.58,14.09,23.72,14.09,23.92a2,2,0,0,0,1.84,2h0a2,2,0,0,0,1.8-2.08c0-.75-.58-18.54-16-27.18-.76-.43-1.67-.86-2.62-1.31-3-1.44-6.81-3.24-8.37-6a1.83,1.83,0,0,0-2.76-.52c-4.14,3.41-6.62,9.74-6.62,16.94,0,8.55,3.27,16.33,8.74,20.83a37.47,37.47,0,0,0,21.78,8.33A62.81,62.81,0,0,1,55,101.5a1.85,1.85,0,0,0,1.84,1.84h0a1.85,1.85,0,0,0,1.83-1.87,49.2,49.2,0,0,0-1-8.2c.42-1.23,1-2.83,1.81-4.62l.93,0c3.67,0,15-.71,22.4-8.93C87.79,74.25,90.4,65.3,89.51,56.94Z"/><path class="cls-1" d="M79.09,17.9a1.83,1.83,0,0,0-2.52.68,1.87,1.87,0,0,0,.67,2.54,48.85,48.85,0,0,1,24,42.08c0,26.78-21.56,48.56-48.05,48.56S5.18,90,5.18,63.2A48.2,48.2,0,0,1,41.9,16,14.25,14.25,0,0,0,56.35,29.35,1.65,1.65,0,0,0,58,27.7V24.1h7.34a1.86,1.86,0,0,0,0-3.72H58V10.47h7.34a1.86,1.86,0,0,0,0-3.72H58V3.16A1.65,1.65,0,0,0,56.35,1.5,14.39,14.39,0,0,0,42.28,12.21a1.82,1.82,0,0,0-.63,0A51.9,51.9,0,0,0,1.5,63.2c0,28.83,23.21,52.28,51.73,52.28S105,92,105,63.2A52.59,52.59,0,0,0,79.09,17.9Zm-24.37-13v21a10.83,10.83,0,0,1-9.57-10.5A10.83,10.83,0,0,1,54.72,4.92Z"/></g></g></svg>