<?xml version="1.0" encoding="utf-8"?>
<!-- Generator: Adobe Illustrator 21.1.0, SVG Export Plug-In . SVG Version: 6.00 Build 0)  -->
<svg version="1.1" id="Layer_1" xmlns="http://www.w3.org/2000/svg" xmlns:xlink="http://www.w3.org/1999/xlink" x="0px" y="0px"
	 viewBox="0 0 98.4 87.1" style="enable-background:new 0 0 98.4 87.1;" xml:space="preserve">
<style type="text/css">
	.st0{fill:#0957A5;}
	.st1{fill:#FFFFFF;}
	.st2{fill:none;stroke:#0957A5;stroke-width:5;stroke-linecap:round;stroke-miterlimit:10;}
</style>
<g>
	
		<ellipse transform="matrix(0.999 -4.480368e-02 4.480368e-02 0.999 -0.8071 1.005)" class="st0" cx="22" cy="18.5" rx="7.6" ry="7.6"/>
	
		<ellipse transform="matrix(0.999 -4.480368e-02 4.480368e-02 0.999 -0.7538 3.3796)" class="st0" cx="75" cy="18.5" rx="7.6" ry="7.6"/>
	<path class="st0" d="M81.3,41.3l1-7c0-0.1,0-0.2,0-0.2c9.6-1.3,13.4-11.7,14.1-17.4c-0.3-1.8-1.5-3.3-3.3-3.5
		c-1.7-0.2-3.3,1-3.5,2.7c-0.1,0.5-1.6,12-9.9,12H70c-3.2,0-5.5,2-7.1,3.5c-0.5,0.4-1.1,1-1.5,1.2c-1.5-0.1-2.9-0.5-3.9-0.7l0.5-1.8
		c0.2-0.7,0.1-1.4-0.2-2l-0.3-0.6c-0.2-0.4-0.3-0.8-0.1-1.2l0.6-2.2c0.1,0,0.2-0.1,0.2-0.2l0.3-1c0-0.1,0-0.2-0.1-0.3
		c0.1-0.2-0.1-0.4-0.3-0.5l-1.7-0.5c-0.2-0.1-0.4,0.1-0.5,0.3c-0.1,0-0.2,0.1-0.2,0.2l-0.3,1c0,0.1,0,0.2,0.1,0.3l-0.6,2.2
		c-0.1,0.4-0.4,0.7-0.7,0.9l-0.6,0.3c-0.6,0.3-1,0.9-1.2,1.6l-2.6,9.7c-0.2,0.7,0.2,1.4,0.9,1.5l3.3,0.9c0.7,0.2,1.4-0.2,1.6-0.9
		l0.5-1.9c1.2,0.3,3.2,0.8,5.3,0.9c0.1,0,0.3,0,0.4,0c2.3,0,4.1-1.6,5.5-2.8c0.3-0.3,1.7-0.6,2-0.9l1,6.4"/>
	<path class="st0" d="M44.5,28.6c-0.2-0.7-0.6-1.2-1.2-1.5l-0.6-0.3c-0.4-0.2-0.6-0.5-0.7-0.9l-0.6-2.3c0.1,0,0.2-0.2,0.1-0.3
		l-0.3-1c0-0.1-0.1-0.2-0.3-0.2c-0.1-0.2-0.3-0.3-0.5-0.3l-1.7,0.5c-0.2,0.1-0.3,0.3-0.3,0.5c0,0.2,0,0.3,0,0.4l0.3,1
		c0,0.1,0.1,0.2,0.2,0.2l0.6,2.2c0.1,0.4,0.1,0.8-0.1,1.2l-0.3,0.4c-0.3,0.6-0.4,1.3-0.2,2l0.5,1.7c-1,0.3-2.5,0.6-4,0.7
		c-0.4-0.2-1-0.8-1.5-1.2c-1.6-1.5-3.9-3.5-7.1-3.5h-9.7c-8.3,0-9.9-11.5-9.9-12c-0.3-1.7-1.8-2.9-3.5-2.7S0.8,15,1,16.7
		c0.6,5.7,4.4,16.2,14.2,17.4c0,0.1,0,0.1,0,0.2v17.9l-2,27.9c-0.1,2,1.4,3.7,3.4,3.9c0.1,0,0.2,0,0.3,0c1.9,0,3.5-1.5,3.6-3.4
		l1.9-25.8l3,9.3c0.4,1.2,0.6,2.5,0.7,3.8l1,12.8c0.2,1.9,1.7,3.3,3.6,3.3c0.1,0,0.2,0,0.3,0c2-0.2,3.5-1.9,3.3-3.9l-1-12.8
		c-0.1-1.8-0.5-3.7-1.1-5.4L29,51.8V35.4c0.3,0.2,0.6,0.5,0.8,0.7c1.4,1.3,3.2,2.8,5.5,2.8c0.1,0,0.2,0,0.4,0c2.1-0.2,4.2-0.6,5.4-1
		l0.5,1.9c0.2,0.7,0.9,1.1,1.6,0.9l3.3-0.9c0.7-0.2,1.1-0.9,0.9-1.6L44.5,28.6z"/>
	<path class="st0" d="M48.4,44c-0.5,0-1,0.4-1,1v2.9c0,0.5,0.4,1,1,1s1-0.4,1-1V45C49.4,44.4,48.9,44,48.4,44z"/>
	<path class="st0" d="M52.4,42.9c-0.4-0.4-1-0.4-1.4,0s-0.4,1,0,1.4l2,2c0.2,0.2,0.4,0.3,0.7,0.3s0.5-0.1,0.7-0.3
		c0.4-0.4,0.4-1,0-1.4L52.4,42.9z"/>
	<path class="st0" d="M44.4,42.9l-2,2c-0.4,0.4-0.4,1,0,1.4c0.2,0.2,0.4,0.3,0.7,0.3s0.5-0.1,0.7-0.3l2-2c0.4-0.4,0.4-1,0-1.4
		S44.7,42.5,44.4,42.9z"/>
	<path class="st0" d="M38.5,15.8c1.2-0.2,2.1-1.2,2.1-2.2V6.4l6.8-1v5.1c-0.4-0.1-0.9-0.2-1.4-0.1c-1.4,0.3-2.3,1.4-2,2.5
		c0.2,1.1,1.5,1.8,2.9,1.6c1.2-0.2,2.1-1.2,2.1-2.2V3.4c0-0.6-0.5-1.1-1.1-1l-7.6,1.1c-0.5,0.1-0.9,0.5-0.9,1v7.2
		c-0.4-0.1-0.9-0.2-1.4-0.1c-1.4,0.3-2.3,1.4-2,2.5C35.9,15.4,37.2,16.1,38.5,15.8z"/>
	<path class="st0" d="M54.9,17.2c1.2-0.2,2-1.1,2-2.1l0,0V7.8c2,0,1.8,2,1.3,3.3c-0.1,0.2,0,0.3,0.2,0.4l0.3,0.1
		c0.1,0.1,0.3,0,0.4-0.1c2-2.4,0.5-5.7-3-6.1c-0.3,0-0.6,0.2-0.6,0.6v7.2c-0.4-0.1-0.9-0.2-1.4-0.1c-1.3,0.3-2.2,1.4-2,2.5
		C52.3,16.8,53.6,17.5,54.9,17.2z"/>
</g>
<g>
	<path class="st0" d="M70.3,41.1c3.6,0,7.3,0,10.9,0c0.8,0.8,1.1,2.2,1.5,3.2c-4.8,5-9.2,5.1-13.9,0C69.2,43.2,69.6,42,70.3,41.1z
		 M81.6,52.6l-0.9,0.1L84,75.5c-1.4,0.3-2.6,0.5-4.1,0.4l-1.7-19.7l-0.9,0L79,76.1c-2.2,0.2-4.2,0.2-6.4,0l1.7-19.8l-0.9,0
		l-1.6,19.7c-1.5,0.1-2.6,0-4.1-0.4l3.2-22.9l-0.9-0.1l-3.2,22.7c-1.7,0-8.9-2.1-10.5-2.8c4.8-14,9.5-20,12.5-27.9
		c5.1,5,8.9,4.9,14,0c3.9,9.8,7.9,16.8,14.1,27.7c-1.6,0.6-10.3,3-12,3L81.6,52.6z"/>
</g>
<circle class="st1" cx="71" cy="28.5" r="0.3"/>
<circle class="st1" cx="71.9" cy="29.3" r="0.3"/>
<circle class="st1" cx="73.1" cy="30" r="0.3"/>
<circle class="st1" cx="74.5" cy="30.3" r="0.3"/>
<circle class="st1" cx="75.9" cy="30.1" r="0.3"/>
<circle class="st1" cx="77.2" cy="29.5" r="0.3"/>
<circle class="st1" cx="78.2" cy="28.5" r="0.3"/>
<line class="st2" x1="83" y1="74.8" x2="86.5" y2="80.4"/>
<line class="st2" x1="71.6" y1="76.4" x2="71.6" y2="84"/>
<rect x="71.1" y="74.4" transform="matrix(9.118169e-02 -0.9958 0.9958 9.118169e-02 -8.8872 139.9399)" class="st1" width="2.2" height="0.9"/>
<polygon class="st1" points="84.9,75.3 84,75.5 83.5,72.2 84.4,71.9 "/>
<path class="st0" d="M22.4,26.1c-3.5,0-6.4-2.4-7.2-5.6c-1.4-0.3-2.5-1.8-2.5-3.7c0-1.3,0.5-2.5,1.3-3.1c-0.1-0.4-0.2-0.8-0.2-1.3
	c0-2,3.7-1.9,7.1-3.1c3.3-1.1,4.4-2.6,3.9-5.1c2.5,0.7,6.7,4.2,6.7,7.5c0,1.5-0.8,2.9-2.2,3.9c0.4,0.9,0.6,1.9,0.6,3
	C29.8,22.8,26.5,26.1,22.4,26.1"/>
<circle class="st1" cx="23.4" cy="34.9" r="0.6"/>
<circle class="st1" cx="23.4" cy="38.9" r="0.6"/>
<circle class="st1" cx="23.4" cy="42.9" r="0.6"/>
<polygon class="st1" points="20.9,28.4 20.9,30.9 23.8,30.1 26.5,30.9 26.5,28.4 23.7,29.2 "/>
<ellipse transform="matrix(0.7071 -0.7071 0.7071 0.7071 -13.9776 25.5566)" class="st1" cx="23.9" cy="29.7" rx="0.8" ry="0.8"/>
<path class="st0" d="M79.5,14.5c0,0,2.9-3.9,4.3-4.5c2-0.9,8.7,0.1,8.7,0.1s-4.9,6.2-7.4,6.7C83.6,17,79.5,14.5,79.5,14.5z"/>
<path class="st0" d="M67.5,18.4c0-1.1,0.8-3.1,1.2-4c-1.4-1.1-1.8-3.3-0.6-3.8c2.9-1.1,3.1,1.5,3.1,1.5s-0.9-0.4-0.6,0.2"/>
<g>
	<path class="st0" d="M72.7,13.1c0,0.1,0,0.1,0,0.2c-0.1,0.3-0.1,0.7,0.2,0.9c0.5,0.4,0.5,0,0.7,0c0.2-0.1,0.5,0.1,0.7-0.2
		c0.2-0.4,0.1-1-0.3-1.3c-0.3-0.3-0.9-0.4-1.2,0c0,0-0.1,0.1,0,0.1c0.6,0,1.3,0.4,1.2,0.3c-0.1,0-0.5-0.2-0.8-0.2
		c-0.1,0-0.6-0.1-0.5,0c0,0,0.1,0.1,0.2,0.1c1.7,0.5,1,1.2,0.9,1c0-0.1,0.3-0.1,0.2-0.3c-0.2-0.5-1.2-0.7-1-0.6c0,0,0.1,0.1,0.2,0.2
		c0.6,0.4,0.3,0.8,0.3,0.7c0-0.2,0-0.3-0.1-0.4c0-0.1-0.5-0.5-0.5-0.3c0,0,0.1,0.1,0.1,0.2c0.1,0.3,0,0.6,0,0.7c0,0,0.1-0.3,0-0.7
		c0-0.1-0.2-0.4-0.3-0.4C72.6,12.8,72.7,13.1,72.7,13.1L72.7,13.1z"/>
	<path class="st0" d="M72.7,12.6c0.2-0.1,0.3-0.3,0.6-0.3c0.3,0,0.4,0.1,0.6,0.2c0.3,0.1,0.6-0.4,0.6-0.7c0-0.4,0.1-0.5-0.2-0.7
		c-0.2-0.1-0.1-0.1-0.3-0.2c-0.3-0.1-0.6,0-0.9,0.2c-0.1,0.1-0.2,0.2-0.3,0.3c-0.1,0.1-0.1,0.2-0.1,0.2c-0.2,0.3-0.2,0.9-0.1,0.8
		c0.1-0.1,0.2-0.3,0.2-0.4c0-0.1,0.1-0.4,0.1-0.4c0,0,0,0.3,0,0.3c0,0,0.3-0.3,0.3-0.3c0.1-0.1,0.5-0.6,0.5-0.5c0,0-0.7,0.8-0.7,0.9
		c0,0-0.1,0.2-0.1,0.2c0.3-0.1,0.9-0.9,0.9-0.9c0,0.1-0.2,0.3-0.2,0.3c0.1,0.1,0.4-0.3,0.4-0.3c-0.1,0.2-0.3,0.3-0.5,0.4
		c-0.1,0.1-0.5,0.4-0.5,0.5c0,0.1,0.6-0.3,0.7-0.4c0.1,0,0.7-0.2,0.7-0.2c-0.2,0.1-0.5,0.1-0.7,0.2c-0.3,0.1-0.5,0.3-0.5,0.3
		c0,0,0,0,0.1,0c0.5-0.1,1.1,0,1,0c-0.3,0-0.2-0.1-1.2,0.1C72.8,12.3,72.7,12.4,72.7,12.6C72.7,12.6,72.7,12.6,72.7,12.6L72.7,12.6z
		"/>
	<path class="st0" d="M72.6,13c0.1,0.4,0,0.5,0,0.8c0,0.1,0.1,0.2,0,0.3c-0.1,0.3-0.3,0.4-0.6,0.6c-0.3,0.1-0.2,0.1-0.5,0.1
		c-0.7-0.1-0.3-0.1-0.7-0.4c-0.3-0.3-0.2-0.8,0.1-1.1c0.2-0.3,1.1-0.4,1.3-0.3c0,0,0.1,0.1,0,0.1c-0.4,0.1-1.3,0.8-1.3,0.8
		c0.1,0,1-0.8,1.2-0.6c0.1,0.1-0.3,0.3-0.3,0.3c-0.1,0.1-0.8,0.7-0.8,0.7c0.3-0.2,0.7-0.6,1-0.7c0,0,0.1,0,0,0.1
		c-0.1,0.2-0.8,1-0.7,1.2c0,0-0.1-0.1,0.2-0.5c0.1-0.2,0.4-0.5,0.6-0.9c0,0-0.5,1.2-0.4,1.2c0.1,0,0.4-1.2,0.5-1.2c0,0,0,1.1,0,1
		c0.1-0.2,0.1-0.4,0.1-0.6c0-0.2,0-0.4-0.1-0.5C72.2,12.9,72.5,12.9,72.6,13C72.5,12.9,72.5,12.9,72.6,13L72.6,13z"/>
	<path class="st0" d="M71.7,12.6c-0.4,0.1-0.5,0.2-0.9,0.4c-0.3,0.1-0.7-0.1-0.8-0.4c-0.3-0.8,0.5-1.6,1.2-1.3
		c0.4,0.2,0.3,0.5,0.5,0.7c0.1,0.1,0.4,0.3,0.4,0.4c0.1,0.1-0.5-0.1-0.6-0.3c-0.1-0.1-0.1-0.2-0.2-0.2c-0.1-0.1-0.2-0.2-0.3-0.3
		c0,0,0.2,0.2,0.3,0.3c0.1,0.1,0.1,0.2,0.2,0.2c0,0,0.3,0.2,0.3,0.2c-0.5,0-1-0.7-1-0.7c0.2,0.5,0.5,0.6,0.6,0.6
		c0,0.1-0.7-0.3-0.9-0.3c0,0,0.2,0,0.4,0.1c0.7,0.3,0.8,0.3,0.8,0.3c-0.5,0-0.9-0.2-1.3-0.2c0,0,1.1,0.2,1.1,0.2c0,0-1.1,0.1-1,0.2
		c0,0,1.4-0.2,1.3-0.1c-0.2,0.1-0.8,0.1-0.9,0.3c0,0,0.6-0.2,0.8-0.2c0.1,0,0.3-0.1,0.4-0.1c0,0,0.3,0.1,0.3,0.1c0,0,0.1,0.1,0,0.1
		C72.4,12.6,71.9,12.6,71.7,12.6L71.7,12.6z"/>
	<path class="st0" d="M72.5,12.5c-0.2-0.3-0.6-0.4-0.7-0.8c-0.2-0.6-0.3-0.3-0.6-0.6c-0.2-0.2,0-0.3,0-0.4c0.1-0.3,0.1-0.7,0.4-0.5
		c0.2,0.1,0.9-0.3,1.1,0.3c0.1,0.2,0.1,0.1,0.2,0.3c0.2,0.2-0.1,0.4-0.2,0.5c-0.2,0.2-0.5,1-0.3,1.2c0,0,0,0,0,0
		c-0.1,0-0.1-0.2-0.1-0.2c0,0,0-0.4,0-0.4c0,0,0.1-0.1,0.1-0.1c0-0.1-0.1-0.1,0-0.2c0,0,0.1-0.1,0.1-0.1c0-0.1-0.1-0.1-0.1-0.2
		c0,0,0.1-0.4,0-0.4c0,0,0,0.4-0.1,0.4c0,0-0.2-0.1-0.2-0.1c0-0.2-0.2-0.5-0.1-0.5c0,0.2,0.1,0.2,0.1,0.4c0,0.1,0,0.1,0,0.1
		c0,0-0.1,0.1-0.1,0.1c0,0-0.3-0.7-0.3-0.6c0,0.1,0.3,0.5,0.2,0.6c0,0.1,0,0.1,0,0.1c0,0-0.1,0.2-0.1,0.2c-0.1-0.2-0.3-0.9-0.3-0.8
		c0,0.1,0.3,0.9,0.2,0.9c0,0,0,0-0.1-0.1c-0.2-0.5-0.5-0.6-0.4-0.6c0.1,0.1,0.3,0.1,0.4,0.5c0.2,0.6,0.3,0.1,0.3,0.3
		c0,0.1,0,0.1,0,0.2c0,0.1,0.2,0,0.2,0c0,0,0,0.4,0.1,0.4c0,0.1,0,0.1,0.1,0.2C72.4,12.4,72.5,12.5,72.5,12.5
		C72.5,12.5,72.5,12.6,72.5,12.5C72.5,12.6,72.5,12.6,72.5,12.5C72.5,12.6,72.5,12.6,72.5,12.5L72.5,12.5z"/>
	<path class="st0" d="M72.4,12.4c0-0.1,0-0.2-0.1-0.2c0-0.1,0-0.2,0-0.2c0,0,0-0.2-0.1-0.2c0,0,0.1,0-0.1,0.1c0,0,0,0,0-0.1
		c0-0.1,0.2-0.1,0.2-0.1c0,0-0.1-0.1-0.1-0.1c0,0-0.1,0-0.2,0c-0.1-0.1,0-0.1,0.1-0.1c0,0,0,0,0.1,0c0.1,0-0.1-0.1-0.1-0.1
		c0-0.1,0-0.2,0.2-0.1c0.1,0,0,0,0.1,0c0.1,0,0.2,0.1,0.1,0.1c-0.1,0-0.2-0.1-0.1,0c0,0,0.1,0,0.1,0c0.1,0,0,0.1-0.1,0.1
		c0,0,0,0.1,0,0.1c0,0,0,0,0.1,0c0,0,0.1,0.1,0,0.1c-0.1,0.1-0.1-0.1-0.1,0.2c0,0.1,0,0.1,0,0.2c0,0.1,0,0.1,0,0.2
		C72.4,12.3,72.5,12.4,72.4,12.4C72.5,12.4,72.5,12.4,72.4,12.4L72.4,12.4z"/>
</g>
<g>
	<path class="st1" d="M72.7,13.1c0,0.1,0,0.1,0,0.2c-0.1,0.3-0.1,0.6,0.2,0.8c0.5,0.4,0.5,0,0.6,0c0.2-0.1,0.5,0.1,0.6-0.2
		c0.2-0.4,0.1-0.9-0.2-1.2c-0.3-0.3-0.8-0.4-1.1,0c0,0,0,0.1,0,0.1c0.5,0,1.2,0.3,1.1,0.3c-0.1,0-0.5-0.2-0.7-0.2c0,0-0.5-0.1-0.4,0
		c0,0,0.1,0.1,0.2,0.1c1.6,0.4,0.9,1.1,0.8,0.9c0-0.1,0.3-0.1,0.2-0.3c-0.2-0.4-1.1-0.7-1-0.6c0,0,0.1,0.1,0.2,0.2
		c0.6,0.4,0.3,0.7,0.3,0.7c0-0.2,0-0.3-0.1-0.4c0-0.1-0.5-0.4-0.5-0.3c0,0,0.1,0.1,0.1,0.2c0.1,0.3,0,0.6,0,0.6c0,0,0.1-0.3,0-0.6
		c0-0.1-0.2-0.4-0.3-0.4C72.6,12.8,72.7,13,72.7,13.1L72.7,13.1z"/>
	<path class="st1" d="M72.7,12.6c0.2-0.1,0.3-0.2,0.6-0.2c0.2,0,0.4,0.1,0.6,0.2c0.2,0.1,0.5-0.4,0.5-0.7c0-0.3,0.1-0.5-0.2-0.7
		C74,11,74.1,11,73.9,10.9c-0.3-0.1-0.6,0-0.8,0.2c-0.1,0.1-0.2,0.2-0.3,0.3c-0.1,0.1-0.1,0.1-0.1,0.2c-0.1,0.3-0.2,0.9-0.1,0.7
		c0.1-0.1,0.2-0.3,0.2-0.4c0-0.1,0.1-0.4,0.1-0.4c0,0,0,0.3,0,0.3c0,0,0.3-0.3,0.3-0.3c0.1-0.1,0.4-0.6,0.4-0.5c0,0-0.6,0.8-0.7,0.9
		c0,0-0.1,0.2-0.1,0.2c0.2-0.1,0.8-0.8,0.8-0.8c0,0.1-0.2,0.3-0.2,0.3c0,0.1,0.4-0.3,0.4-0.3c-0.1,0.2-0.3,0.3-0.5,0.4
		c-0.1,0-0.5,0.4-0.5,0.4c0,0.1,0.5-0.3,0.7-0.4c0.1,0,0.7-0.2,0.6-0.2c-0.2,0.1-0.5,0.1-0.7,0.2c-0.3,0.1-0.5,0.3-0.5,0.3
		c0,0,0,0,0.1,0c0.5-0.1,1.1,0,1,0c-0.3,0-0.2-0.1-1.1,0.1C72.8,12.3,72.6,12.4,72.7,12.6C72.6,12.6,72.7,12.6,72.7,12.6L72.7,12.6z
		"/>
	<path class="st1" d="M72.5,12.9c0.1,0.3,0,0.4,0,0.7c0,0.1,0.1,0.2,0,0.3c-0.1,0.3-0.3,0.4-0.5,0.5c-0.3,0.1-0.2,0.1-0.4,0.1
		c-0.7-0.1-0.3-0.1-0.6-0.4c-0.3-0.3-0.1-0.8,0.1-1.1c0.2-0.2,1-0.4,1.2-0.3c0,0,0.1,0.1,0,0.1c-0.4,0.1-1.3,0.7-1.2,0.8
		c0.1,0,0.9-0.8,1.1-0.6c0.1,0.1-0.3,0.3-0.3,0.3c-0.1,0.1-0.7,0.6-0.7,0.6c0.3-0.2,0.6-0.6,0.9-0.7c0,0,0,0,0,0.1
		c-0.1,0.2-0.8,1-0.6,1.2c0,0-0.1-0.1,0.1-0.4c0.1-0.2,0.4-0.5,0.6-0.8c0,0-0.4,1.1-0.4,1.1c0.1,0,0.4-1.2,0.4-1.1c0,0,0,1,0,0.9
		c0.1-0.2,0-0.4,0.1-0.6c0-0.2,0-0.4-0.1-0.5C72.2,12.9,72.5,12.8,72.5,12.9C72.5,12.9,72.5,12.9,72.5,12.9L72.5,12.9z"/>
	<path class="st1" d="M71.8,12.6c-0.4,0.1-0.5,0.2-0.8,0.3c-0.2,0.1-0.6-0.1-0.7-0.4c-0.3-0.8,0.5-1.5,1.1-1.2
		c0.4,0.2,0.3,0.4,0.5,0.7c0.1,0.1,0.4,0.3,0.4,0.4c0.1,0.1-0.5-0.1-0.6-0.2c-0.1-0.1-0.1-0.1-0.2-0.2c-0.1-0.1-0.2-0.2-0.3-0.3
		c0,0,0.2,0.2,0.3,0.3c0.1,0.1,0.1,0.2,0.1,0.2c0,0,0.3,0.2,0.3,0.2c-0.5,0-0.9-0.7-0.9-0.7c0.2,0.4,0.5,0.6,0.5,0.6
		c0,0.1-0.6-0.3-0.9-0.2c0,0,0.2,0,0.4,0.1c0.7,0.3,0.8,0.3,0.7,0.3c-0.4,0-0.9-0.2-1.2-0.2c0,0,1.1,0.2,1.1,0.2c0,0-1,0.1-0.9,0.2
		c0,0,1.3-0.2,1.2-0.1c-0.2,0.1-0.7,0.1-0.9,0.3c0,0,0.6-0.2,0.8-0.2c0.1,0,0.3-0.1,0.3-0.1c0,0,0.3,0.1,0.3,0.1c0,0,0.1,0.1,0,0.1
		C72.3,12.6,71.9,12.6,71.8,12.6L71.8,12.6z"/>
	<path class="st1" d="M72.4,12.5c-0.2-0.3-0.5-0.4-0.7-0.7c-0.2-0.5-0.3-0.3-0.5-0.6c-0.2-0.1,0-0.3,0-0.4c0.1-0.3,0.1-0.6,0.4-0.5
		c0.2,0.1,0.8-0.3,1.1,0.3c0.1,0.2,0.1,0.1,0.2,0.3c0.2,0.2-0.1,0.4-0.2,0.5c-0.2,0.2-0.5,0.9-0.2,1.1c0,0,0,0,0,0
		c-0.1,0-0.1-0.2-0.1-0.2c0,0,0-0.4,0-0.4c0,0,0.1-0.1,0.1-0.1c0-0.1-0.1-0.1,0-0.2c0,0,0.1-0.1,0.1-0.1c0-0.1-0.1-0.1-0.1-0.2
		c0,0,0.1-0.4,0-0.4c0,0,0,0.4-0.1,0.4c0,0-0.1-0.1-0.2-0.1c0-0.2-0.1-0.5-0.1-0.5c0,0.1,0.1,0.2,0.1,0.4c0,0.1,0,0.1,0,0.1
		c0,0-0.1,0.1-0.1,0.1c0,0-0.3-0.7-0.3-0.6c0,0,0.3,0.4,0.2,0.6c0,0.1,0,0.1,0,0.1c0,0-0.1,0.2-0.1,0.1c-0.1-0.2-0.3-0.9-0.3-0.8
		c0,0.1,0.3,0.8,0.2,0.8c0,0,0,0-0.1-0.1c-0.2-0.5-0.4-0.6-0.4-0.6c0.1,0.1,0.3,0.1,0.4,0.5c0.2,0.5,0.2,0.1,0.3,0.3
		c0,0.1,0,0.1,0,0.2c0,0.1,0.2,0,0.2,0c0,0,0,0.3,0.1,0.4c0,0.1,0,0.1,0.1,0.1C72.4,12.4,72.4,12.5,72.4,12.5
		C72.5,12.5,72.5,12.5,72.4,12.5C72.5,12.6,72.5,12.6,72.4,12.5C72.5,12.6,72.5,12.6,72.4,12.5L72.4,12.5z"/>
	<path class="st1" d="M72.4,12.4c0,0,0-0.1-0.1-0.2c0-0.1,0-0.2,0-0.2c0,0,0-0.2-0.1-0.2c0,0,0.1,0-0.1,0.1c0,0,0,0,0-0.1
		c0-0.1,0.2-0.1,0.2-0.1c0,0-0.1-0.1-0.1-0.1c0,0-0.1,0-0.1,0c-0.1-0.1,0-0.1,0.1-0.1c0,0,0,0,0.1,0c0.1,0-0.1,0-0.1-0.1
		c0-0.1,0-0.1,0.2-0.1c0,0,0,0,0.1,0c0.1,0,0.2,0.1,0.1,0.1c-0.1,0-0.2-0.1-0.1,0c0,0,0.1,0,0.1,0c0.1,0,0,0.1-0.1,0.1
		c0,0,0,0.1,0,0.1c0,0,0,0,0,0c0,0,0.1,0.1,0,0.1c-0.1,0.1-0.1-0.1-0.1,0.2c0,0.1,0,0.1,0,0.2C72.4,12.2,72.4,12.3,72.4,12.4
		C72.4,12.4,72.4,12.4,72.4,12.4C72.5,12.5,72.4,12.4,72.4,12.4L72.4,12.4z"/>
</g>
</svg>
