<svg xmlns="http://www.w3.org/2000/svg" viewBox="0 0 84.98 119.69"><defs><style>.cls-1{fill:none;stroke:#0a58a5;stroke-miterlimit:10;stroke-width:3px;}</style></defs><title>Asset 9</title><g id="Layer_2" data-name="Layer 2"><g id="Layer_1-2" data-name="Layer 1"><path class="cls-1" d="M4.94,13.6l.22-.12a1.64,1.64,0,0,0,.6-2.24l-1-1.72a1.64,1.64,0,0,0-2.24-.6L2.32,9a1.64,1.64,0,0,0-.6,2.24l1,1.72A1.64,1.64,0,0,0,4.94,13.6ZM3.14,10.46l.22-.12,1,1.72h0l-.22.12Z"/><path class="cls-1" d="M8.08,20.94l.22-.12a1.64,1.64,0,0,0,.6-2.24L7.67,16.46a1.64,1.64,0,0,0-2.24-.6L5.22,16a1.64,1.64,0,0,0-.6,2.24l1.22,2.13A1.64,1.64,0,0,0,8.08,20.94ZM6,17.39l.22-.12L7.48,19.4h0l-.22.12Z"/><path class="cls-1" d="M18.32,9.38l.22-.12A1.64,1.64,0,0,0,19.14,7l-1-1.72a1.64,1.64,0,0,0-2.24-.6l-.22.12a1.64,1.64,0,0,0-.6,2.24l1,1.72A1.64,1.64,0,0,0,18.32,9.38ZM16.51,6.24l.22-.12,1,1.72L17.5,8Z"/><path class="cls-1" d="M20,11a1.64,1.64,0,0,0-.6,2.24l1.22,2.13a1.64,1.64,0,0,0,2.24.6l.22-.12a1.64,1.64,0,0,0,.6-2.24l-1.22-2.13a1.64,1.64,0,0,0-2.24-.6Zm2.26,3.42-.22.12-1.22-2.13.22-.12Z"/><path class="cls-1" d="M43.91,110.26c.86,1.49,8.91,14.28,26.94,3.91,15.59-9,13.24-20.93,11-24.79-1.84-3.2-5.46-4.67-8.65-6-2.71-1.11-5.26-2.15-6.33-4s-1.13-5-1.2-7.74c-.09-3.76-.17-7-2.44-7.75a2,2,0,0,0-1.74.16c-1.18.73-1.46,2.6-1.79,4.78-.27,1.79-.61,4-1.51,4.54-1.94,1.12-6.57.06-7.37-.23L19.16,16.44l-.61-3.58-8.37-11L3.6,4.39l5.06,12.7,2.16,2.68,2.44,1.66L40.85,68.15c-.05.74-.21,5.57-1.14,6.1-2.42,1.39-9.1-5.56-13.07-10.94l-.69-.94-.65,1c-.13.2-3.21,4.93-1,8.59,1,1.57,3.78,4.3,7,7.46,3.53,3.43,7.54,7.32,8.77,9.47C42,92.13,42.05,96,42.08,99.75S42.13,107.15,43.91,110.26ZM74.49,90.78a2,2,0,1,1-.73,2.72A2,2,0,0,1,74.49,90.78Zm2.46,5a2,2,0,1,1-.74,2.72A2,2,0,0,1,76.95,95.78ZM72,105.47a2.6,2.6,0,0,1-1,3.54l-5.21,3a2.6,2.6,0,0,1-3.54-1l-.3-.52A2.6,2.6,0,0,1,63,107l5.22-3a2.6,2.6,0,0,1,3.54,1l.3.52ZM42.51,70.83l-30-51.05,6.67-3.34,32.4,58,2.92,5.08-5.23,3L42.51,70.83Zm11.31,28a2.6,2.6,0,0,1,1-3.54L62.19,91a2.6,2.6,0,0,1,3.54,1l.85,1.48a2.6,2.6,0,0,1-1,3.54l-7.41,4.26a2.6,2.6,0,0,1-3.54-1Z"/><path class="cls-1" d="M69,105.41l-5.22,3a1,1,0,0,0-.35,1.31l.3.52a1,1,0,0,0,1.31.35l5.22-3a1,1,0,0,0,.35-1.31l-.3-.52A1,1,0,0,0,69,105.41Z"/><path class="cls-1" d="M78.87,97.08a1,1,0,0,0-1.78,1C77.66,99.08,79.44,98.05,78.87,97.08Z"/><path class="cls-1" d="M76.4,92a1,1,0,1,0-1.77,1C75.19,94,77,93,76.4,92Z"/></g></g></svg>