<svg id="Layer_1" data-name="Layer 1" xmlns="http://www.w3.org/2000/svg" xmlns:xlink="http://www.w3.org/1999/xlink" viewBox="0 0 100 100"><defs><clipPath id="clip-path"><rect x="14.92" y="4.62" width="96.22" height="68.04" style="fill:none"/></clipPath></defs><title>molch_combo_konzert</title><path d="M32.31,87.94l-.83-2.61-.83.26.83,2.61Zm-1-2.19.2.63-.31.1-.2-.63Zm.32,2.08-.36-1.15.31-.1.36,1.15Z" style="fill:#0957a5"/><path d="M33.46,87.58,32.63,85l-.83.26.83,2.61Zm-1-2.19.4,1.25-.31.1-.4-1.25Zm.32,2.08-.17-.52.31-.1.17.52Z" style="fill:#0957a5"/><path d="M34.6,87.22l-.83-2.61-.94.3.83,2.61Zm-1-2.19.07.21-.31.1-.07-.21Zm.32,2.08-.5-1.56.31-.1.5,1.56Z" style="fill:#0957a5"/><path d="M35.75,86.85l-.83-2.61-.83.26.83,2.61Zm-1-2.19.23.73-.31.1-.23-.73ZM35,86.74l-.33-1,.31-.1.33,1Z" style="fill:#0957a5"/><path d="M36.9,86.49l-.83-2.61-.83.26.83,2.61Zm-1-2.19.46,1.46-.31.1-.46-1.46Zm.32,2.08-.07-.21.31-.1.07.21Z" style="fill:#0957a5"/><path d="M38,86.12l-.83-2.61-.83.26.83,2.61Zm-1-2.19.2.63-.31.1-.2-.63ZM37.32,86,37,85l.31-.1.33,1Z" style="fill:#0957a5"/><circle cx="47.34" cy="82.14" r="0.33" transform="translate(-22.63 18.17) rotate(-17.61)" style="fill:#0957a5"/><path d="M46.88,87.22a.44.44,0,1,0,.28-.55A.4.4,0,0,0,46.88,87.22Zm.52-.17a.11.11,0,0,1-.07.14l-.14-.07a.11.11,0,1,1,.21-.07Z" style="fill:#0957a5"/><circle cx="38.26" cy="66.21" r="0.33" transform="translate(-18.24 14.68) rotate(-17.61)" style="fill:#0957a5"/><circle cx="37.85" cy="58.76" r="0.33" transform="translate(-16 14.2) rotate(-17.61)" style="fill:#0957a5"/><circle cx="43.96" cy="76.56" r="0.33" transform="translate(-21.1 16.89) rotate(-17.61)" style="fill:#0957a5"/><circle cx="41.1" cy="72.99" r="0.33" transform="translate(-20.15 15.85) rotate(-17.61)" style="fill:#0957a5"/><path d="M41.43,83.79a.44.44,0,1,0-.28.55A.47.47,0,0,0,41.43,83.79Zm-.63.2a.11.11,0,0,1,.07-.14l.14.07a.11.11,0,1,1-.21.07Z" style="fill:#0957a5"/><path d="M37.84,73.91a.44.44,0,1,0,.28-.55A.47.47,0,0,0,37.84,73.91Zm.52-.17a.11.11,0,1,1-.14-.07A.11.11,0,0,1,38.36,73.75Z" style="fill:#0957a5"/><path d="M41.85,76.43a.44.44,0,1,0,.28-.55A.47.47,0,0,0,41.85,76.43Zm.63-.2a.11.11,0,0,1-.07.14l-.14-.07.07-.14A.11.11,0,0,1,42.48,76.23Z" style="fill:#0957a5"/><path d="M38.77,74.31l2.81,1.63c.14.07.14.07.21-.07l0-.1,0-.1L38.91,74c-.14-.07-.14-.07-.21.07Z" style="fill:#0957a5"/><path d="M41.82,78.85a.77.77,0,1,0-.5,1A.75.75,0,0,0,41.82,78.85Zm-.94.3a.33.33,0,1,1,.41.21A.29.29,0,0,1,40.88,79.14Z" style="fill:#0957a5"/><path d="M40.86,78a.11.11,0,0,0,.07-.14l-.1-.31a.11.11,0,1,0-.21.07l.1.31C40.65,78.07,40.76,78,40.86,78Z" style="fill:#0957a5"/><path d="M40.4,78.38l.07-.14,0-.1L40.27,78c0-.1-.14-.07-.24,0s-.18.17,0,.24l.17.18C40.2,78.44,40.3,78.41,40.4,78.38Z" style="fill:#0957a5"/><path d="M39.64,78.85l.24,0c.1,0,.1,0,.18-.17l0-.1a.11.11,0,0,0-.14-.07l-.24,0c-.1,0-.1,0-.18.17S39.53,78.88,39.64,78.85Z" style="fill:#0957a5"/><path d="M40.15,79.38A.11.11,0,0,0,40,79.3l-.31.1a.11.11,0,0,0,.07.21l.31-.1A.11.11,0,0,0,40.15,79.38Z" style="fill:#0957a5"/><path d="M40.42,79.86c0-.1-.14-.07-.24,0L40,80c-.1,0-.07.14,0,.24s.14.07.24,0l.18-.17c.07-.14.18-.17,0-.24Z" style="fill:#0957a5"/><path d="M41,80.25h0c0-.1-.07-.21-.17-.18s-.1,0-.18.17l0,.24c0,.1,0,.1.17.18s.1,0,.18-.17Z" style="fill:#0957a5"/><path d="M41.76,80.47l-.1-.31a.11.11,0,1,0-.21.07l.1.31a.11.11,0,0,0,.14.07Z" style="fill:#0957a5"/><path d="M41.87,79.75c-.1,0-.07.14,0,.24l.17.18c0,.1.14.07.24,0l.07-.14,0-.1-.17-.18C42.08,79.68,42,79.71,41.87,79.75Z" style="fill:#0957a5"/><path d="M42.26,79.51h.35c.1,0,.1,0,.18-.17l0-.1a.11.11,0,0,0-.14-.07l-.24,0c-.1,0-.1,0-.18.17Z" style="fill:#0957a5"/><path d="M42.13,78.75a.11.11,0,0,0,.14.07l.31-.1a.11.11,0,0,0-.07-.21l-.21.07C42.2,78.61,42.1,78.64,42.13,78.75Z" style="fill:#0957a5"/><path d="M41.79,78.05c-.1,0-.07.14,0,.24s.14.07.24,0l.18-.17.07-.14,0-.1c0-.1-.14-.07-.24,0Z" style="fill:#0957a5"/><path d="M41.63,77.53a.11.11,0,0,0-.14-.07c-.1,0-.1,0-.18.17l0,.24c0,.1,0,.1.17.18s.1,0,.18-.17v-.35Z" style="fill:#0957a5"/><path d="M44.58,81.06a.77.77,0,1,0,.5-1A.75.75,0,0,0,44.58,81.06Zm1-.33a.33.33,0,1,1-.41-.21A.35.35,0,0,1,45.63,80.73Z" style="fill:#0957a5"/><path d="M44.75,79.41l.1.31a.11.11,0,1,0,.21-.07l-.1-.31a.11.11,0,0,0-.14-.07C44.71,79.3,44.71,79.3,44.75,79.41Z" style="fill:#0957a5"/><path d="M44.5,80.06l.07-.14,0-.1-.17-.18c0-.1-.14-.07-.24,0s-.07.14,0,.24l.17.18C44.42,80.2,44.53,80.16,44.5,80.06Z" style="fill:#0957a5"/><path d="M44.28,80.47a.11.11,0,0,0-.14-.07l-.24,0c-.1,0-.1,0-.18.17s0,.1.17.18l.21-.07c0,.1.14.07.18-.17Z" style="fill:#0957a5"/><path d="M44.27,81.16a.11.11,0,0,0-.14-.07l-.31.1a.11.11,0,0,0,.07.21l.31-.1A.11.11,0,0,0,44.27,81.16Z" style="fill:#0957a5"/><path d="M44.57,81.76l.07-.14,0-.1c0-.1-.14-.07-.24,0l-.18.17c-.1,0-.07.14,0,.24s.14.07.24,0Z" style="fill:#0957a5"/><path d="M45.23,82h0c0-.1-.07-.21-.17-.18s-.1,0-.18.17l0,.24c0,.1,0,.1.17.18s.1,0,.18-.17Z" style="fill:#0957a5"/><path d="M45.61,81.77a.11.11,0,0,0-.07.14l.1.31a.11.11,0,1,0,.21-.07l-.1-.31A.11.11,0,0,0,45.61,81.77Z" style="fill:#0957a5"/><path d="M46.1,81.5c-.1,0-.07.14,0,.24l.27.14c0,.1.14.07.24,0l.07-.14,0-.1-.17-.18A.85.85,0,0,0,46.1,81.5Z" style="fill:#0957a5"/><path d="M46.45,81.16l.24,0c.1,0,.1,0,.18-.17l0-.1a.11.11,0,0,0-.14-.07l-.24,0c-.1,0-.1,0-.18.17S46.35,81.19,46.45,81.16Z" style="fill:#0957a5"/><path d="M46.36,80.5a.11.11,0,0,0,.14.07l.31-.1a.11.11,0,0,0-.07-.21l-.31.1C46.29,80.29,46.32,80.4,46.36,80.5Z" style="fill:#0957a5"/><path d="M46,79.81c-.1,0-.07.14,0,.24s.14.07.24,0l.18-.17.07-.14,0-.1c0-.1-.14-.07-.24,0Z" style="fill:#0957a5"/><path d="M45.4,79.66c0,.1,0,.1.17.18s.1,0,.18-.17l0-.24,0-.1a.11.11,0,0,0-.14-.07c-.1,0-.1,0-.18.17Z" style="fill:#0957a5"/><path d="M38.18,95.95C53.19,90.84,50.66,84.3,49.93,82c-1.85-5.84-7.81-9.8-8.94-13.34-.79-2.5.51-6.7-.41-9.62-1.26-4-4.32-4.94-4.81-2.14-.2,1.55,1.18,4.79-2.37,5.91-.73.23-1.91.49-3.23-1.15l-13.4-40c-.62-2.67,1.67-5.23,1.67-5.23l.1,0,0-.1-.2-.63a5,5,0,0,0-.44-1L14,8.27C16,6.4,15.46,4.83,15.26,4.21c-.1-.31-1-2.78-3.5-2A3.51,3.51,0,0,0,9.46,5.47l0,.24-.24,0h0l0-.1c-.07-.21-.2-.28-.45-.32H8.36L8,5.35c-.07.14-.18.17-.14.27l.09,1A.42.42,0,0,0,8.47,7h.35L9.13,7c.1,0,.07-.14.14-.27l.24,0,0,1.94-.24,0h0l0-.1c-.07-.21-.2-.28-.45-.32H8.49l-.31.1c-.07.14-.18.17-.14.27L8,9.5a.42.42,0,0,0,.48.42h.35l.31-.1c.1,0,.07-.14.14-.27l.24,0-.06,1.62-.24,0h0l0-.1c-.07-.21-.2-.28-.45-.32H8.39c-.24,0-.42.13-.42.48l0,.93a.42.42,0,0,0,.48.42h.35a.4.4,0,0,0,.46-.37l.31-.1,0,1.73-.24,0h0l0-.1c-.07-.21-.2-.28-.45-.32H8.42c-.24,0-.42.13-.42.48l0,.93a.42.42,0,0,0,.48.42h.35l.31-.1a.24.24,0,0,0,.14-.27h.35v1.83H9.23l0-.1c-.07-.21-.2-.28-.45-.32H8.41l-.31.1a.24.24,0,0,0-.14.27l.09,1a.42.42,0,0,0,.48.42h.35a.4.4,0,0,0,.46-.37h.35l0,1.73H9.3l0-.1c-.07-.21-.2-.28-.45-.32H8.47c-.24,0-.42.13-.42.48l0,.93a.42.42,0,0,0,.48.42h.35l.31-.1a.24.24,0,0,0,.14-.27h.35l0,.8,0,.1.14.07a3.42,3.42,0,0,1,2.4,1.76L23,59.93c-.16,1.31-.54,1.55-1.58,1.88-3.65,1.16-5.3-4.4-5.3-4.4C15.52,55.64,14.37,56,14,56.14S11,57.41,12.62,62.41s5.07,8,6.1,11.26c1.62,5.11-1.57,10.6.68,17.68,0,0,2.21,9.85,17.64,5h0m1.35-.08M8.48,6.7a.11.11,0,0,1-.14-.07h0l0-.93a.11.11,0,0,1,.07-.14l.1,0,.24,0c.1,0,.14.07.17.18l-.08.83a.11.11,0,0,1-.07.14l-.1,0Zm0,2.87a.11.11,0,0,1-.14-.07h0l0-.93a.11.11,0,0,1,.07-.14l.1,0H8.9c.1,0,.14.07.17.18l0,.93A.11.11,0,0,1,9,9.65l-.1,0Zm0,2.63a.11.11,0,0,1-.14-.07h0l0-.93a.11.11,0,0,1,.07-.14l.1,0h.35c.1,0,.14.07.17.18l0,.93c0,.1-.07.14-.18.17Zm0,2.63a.11.11,0,0,1-.14-.07h0l0-.93c0-.1.07-.14.18-.17H9c.1,0,.14.07.17.18l0,.93a.11.11,0,0,1-.07.14l-.1,0Zm0,2.87a.11.11,0,0,1-.14-.07h0l0-.93a.11.11,0,0,1,.07-.14l.1,0,.24,0c.1,0,.14.07.17.18l0,.93c0,.1-.07.14-.18.17Zm0,2.63a.11.11,0,0,1-.14-.07h0l0-.93c0-.1.07-.14.18-.17l.24,0c.1,0,.14.07.17.18l0,.93a.11.11,0,0,1-.07.14l-.1,0Zm18.74,41,.6,1.88M26.44,58.6l.66,2.08M23,47.86,26.24,58m1.85,5.84.5,1.56-.31.1-.52.17-3.3-10.77h0a.11.11,0,1,0-.21.07l3.3,10.77a1.39,1.39,0,0,1-.66.09l-1.68-5.66h0a.11.11,0,1,0-.21.07l1.65,5.56c-.35,0-.55.06-.69,0L25.1,62.7h0a.11.11,0,0,0-.21.07l.79,2.85c-.24,0-.27-.14-.27-.14L12.88,22.75l3.44-1.09.1.31L30.61,64.16a.82.82,0,0,1-.21.41l-3-8.59a.11.11,0,0,0-.21.07l3,8.69a2.46,2.46,0,0,1-.75.42l-1.61-4.88a.11.11,0,1,0-.21.07l1.6,4.85a1.47,1.47,0,0,1-.45.13L22.48,45.4a.11.11,0,1,0-.21.07l.56,1.77M31.6,68l-.1-.31h0a.33.33,0,1,0-.2-.63h0l-.1-.31h0a.52.52,0,0,1,.69.36c.17.52,0,.8-.29.9Zm-.31.1-.73.23-.1-.31c.1,0,.18-.17.11-.38s-.17-.18-.31-.25l-.1-.31.63-.2Zm3.85,11.05L33,79.34l-1.46-4.59.73-.23,1.36,4.27a.11.11,0,1,0,.21-.07h0l-1.36-4.27.73-.23Zm.34.35a.57.57,0,0,1,.34.35l0,.1c0,.1,0,.1,0,.24Zm-.14.27c-.1,0-.14-.07,0,0-.24,0-.42.13-.38.24s.2.28.31.25.21-.07.18-.17l.1.31-.31.1-1.8.11-.1-.31.07-.14c0-.1-.07-.21-.17-.18l-.13-.42,2-.18h0Zm-7-4,.73-.23.17.52h0a.11.11,0,1,0,.21-.07l-.17-.52.73-.23,1.32,4.17-1.66.18-.21.07Zm-1.64-5.9.63-.2,1.19,4.1-.73.23Zm-1-3.37c.24,0,.45,0,.69,0L26.89,68l-.63.2ZM30,67.78h0l.07.21.17.52-.73.23-.1-.31a.22.22,0,0,0-.13-.42l-.1-.31.73-.23Zm1.89,5.6a.22.22,0,1,0,.13.42l.1.31-.73.23-.1-.31c.1,0,.07-.14,0-.24s0-.1-.17-.18l-.13-.42L31.8,73Zm-1.72,1.46-.1-.31c.1,0,.18-.17.11-.38s-.17-.18-.31-.25l-.1-.31.94-.3.1.31A.22.22,0,1,0,31,74l.1.31-.94.3Zm1,0,1.42,4.48-1,.09-1.36-4.27Zm-2.07,0a.22.22,0,1,0-.13-.42l-.1-.31.73-.23.13.42,0,.1,0,.1.13.42-.73.23ZM27.43,69a.22.22,0,0,0-.13-.42l-.1-.31.63-.2.17.52h0l.17.52-.63.2Zm1.64-1c-.07.14-.07.14,0,.24s0,.1.17.18l.13.42-.83.26-.1-.31h0a.29.29,0,0,0,.21-.41.35.35,0,0,0-.41-.21l-.1-.31.83-.26Zm.33,1,1.29,4.07-.94.3-1.29-4.07ZM28,67.61l-.4-1.25.52-.17.31-.1.4,1.25Zm-.64-1.29.43,1.36-.63.2-.43-1.36Zm.86,3.06,1.29,4.07-.73.23-1.19-4.1ZM31,73l-1.29-4.07.73-.23,1.29,4.07Zm-1.82-5.73L28.79,66l.63-.2.43,1.36-.63.2ZM26,68.93a.22.22,0,1,0,.13.42l.1.31a.73.73,0,0,1-.58-.39.5.5,0,0,1,.25-.65Zm.45.32c.1,0,.07-.14,0-.24s-.07-.21-.17-.18l-.1-.31.63-.2.13.42A.38.38,0,0,0,27,69c0,.1,0,.1.17.18l.13.42-.63.2Zm1.27,5.45c-.1,0-.07.14,0,.24s.07.21.17.18l.1.31a.73.73,0,0,1-.58-.39.5.5,0,0,1,.25-.65Zm.37.46a.24.24,0,0,0,.14-.27.38.38,0,0,0-.17-.18l-.1-.31.73-.23.13.42a.38.38,0,0,0,0,.24c0,.1,0,.1.17.18l.13.42-.73.23ZM29.54,81a.57.57,0,0,1-.34-.35l0-.1a.58.58,0,0,1,.11-.38Zm.25-.31h0c.24,0,.31-.1.35-.34s-.2-.28-.31-.25l-.1,0-.1-.31.21-.07,1.59,0,.36,1.15-1.9.15Zm2.1.48.26.83a.11.11,0,1,0,.21-.07l-.26-.83,1-.09.56,1.77-3.13,1-.66-2.43Zm.25-.31-.1-.31c.1,0,.28-.2.25-.31S32.08,80,32,80l-.1,0-.1-.31,1-.09.1.31a.24.24,0,0,0-.14.27c0,.1.2.28.31.25l.1.31Zm1.28-7.52.07-.14c0-.1,0-.1-.14-.07l-.13-.42a.62.62,0,0,1,.33,1ZM33,73a.24.24,0,0,0-.14.27c0,.1.17.18.31.25l.1.31-.73.23-.13-.42a.38.38,0,0,0,0-.24c0-.1,0-.1-.17-.18l-.13-.42.73-.23ZM32,72.65l-1.29-4.07.73-.23,1.29,4.07ZM30.12,67l-.43-1.36c.21-.07.38-.24.59-.3l.5,1.56-.63.2Zm-5.7,14.2c-1.09-3.44.36-7.91-.57-10.83A51.74,51.74,0,0,0,21,64.47a.93.93,0,0,1,.61-1.34,5.81,5.81,0,0,1,2.32.07l.86,3.06a1.89,1.89,0,0,0,.69.36L26,68.38a.85.85,0,0,0-.46,1.07.93.93,0,0,0,1,.6l1.22,4.2a.93.93,0,0,0-.46,1.07,1,1,0,0,0,.89.64l1.15,4a1.12,1.12,0,0,0-.32.79l.07.21a.92.92,0,0,0,.65.6l.69,2.53-1.15.36C27.2,84.86,25.38,84.18,24.42,81.15Zm6.64,7.53a.52.52,0,0,1-.69-.36l-1-3.13a.52.52,0,0,1,.36-.69l.73-.23.33,1a.11.11,0,1,0,.21-.07l-.36-1.15,3.13-1L34,84a.11.11,0,1,0,.21-.07L34,83.06l3-1a.52.52,0,0,1,.69.36l1,3.13a.52.52,0,0,1-.36.69L31,88.58ZM48,87.34c-.46,1.07-2.64,1.07-4.81,0s-3.38-2.71-2.92-3.78,2.64-1.07,4.81,0S48.52,86.24,48,87.34ZM37,57.3c0-.45.85-1.3,2,2.24,1,3.23-.68,6.53.31,9.65,1.19,3.75,7.69,8.69,8.82,12.23.46,1.46-.56,2.93-4,1.26-4.22-2.1-6.45-1.17-6.45-1.17l-3.65,1.16L33.55,81l1.66-.18.42-.13.2.63a.11.11,0,1,0,.21-.07h0l-.26-.83a1.09,1.09,0,0,0,.25-.65L36,79.56a.92.92,0,0,0-.65-.6l-1.73-5.07a.91.91,0,0,0-.53-1.67l-1.43-4.14h0A.86.86,0,0,0,32.2,67a.94.94,0,0,0-1.1-.57h0l-.53-1.67c.56-.41.56-.75.56-.75.48.42,1,.6,2.66.07C38,62.74,37.07,57.75,37,57.3ZM11.85,19.86a.55.55,0,1,1-.69-.36C11.34,19.33,11.75,19.55,11.85,19.86Zm1.12-3a.44.44,0,0,1,.26.83l-.31.1a.44.44,0,0,1-.26-.83Zm-1.54.95a.55.55,0,1,1,.36-.69A.59.59,0,0,1,11.43,17.81ZM14,14.95a.44.44,0,1,1,.26.83l-.31.1a.44.44,0,1,1-.26-.83Zm-2.24-.55A.55.55,0,1,1,11,14C11.31,13.83,11.62,14.08,11.72,14.39Zm-.06-2.73A.55.55,0,1,1,11,11.3C11.25,11.1,11.56,11.35,11.66,11.66ZM11.73,9A.55.55,0,1,1,11,8.64C11.22,8.47,11.63,8.69,11.73,9Zm0-2.87a.55.55,0,1,1-.69-.36C11.23,5.6,11.64,5.82,11.74,6.13Z" style="fill:#0957a5"/><path d="M43.38,83.4a3.42,3.42,0,0,0-.85,1.3,8.35,8.35,0,0,0-.47,1.41l.82.43c1.75.82,3.38.88,3.8.05s-.66-2.08-2.41-2.91A2,2,0,0,1,43.38,83.4Zm-.05,1.28c.14.07.07.21,0,.45s-.25.31-.28.2-.07-.21,0-.45S43.18,84.61,43.32,84.68Z" style="fill:#0957a5"/><g style="opacity:0.87"><g style="clip-path:url(#clip-path)"><path d="M67.65,35.2H64l-.51,2,2.55-.07a8.26,8.26,0,0,1,1.34,0l-.14-.44a4.59,4.59,0,0,1,.08-1A2.51,2.51,0,0,1,67.65,35.2Z"/><polygon points="91.17 48.91 91.17 48.91 91.17 48.91 91.17 48.91" style="fill:#ec1c24"/><polygon points="68.83 41.81 68.83 41.8 68.83 41.81 68.83 41.81" style="fill:#ec1c24"/><path d="M68.65,31l-.27.39h.33l-.12-.1a.83.83,0,0,0,.36-.06A.46.46,0,0,0,68.65,31Z"/><path d="M92.63,47.94s0,0,.07,0h0l-.09,0Z" style="fill:#ec1c24"/><path d="M57.12,27.12l-.07.08A.23.23,0,0,0,57.12,27.12Z" style="fill:#ec1c24"/><path d="M56.77,27.2l.07.08v-.16l-.05.08Z" style="fill:#ec1c24"/><polygon points="91.15 48.78 91.15 48.79 91.15 48.78 91.15 48.78" style="fill:#ec1c24"/><path d="M62.27,46.59h.16v-.15l-.11.11Z" style="fill:#ec1c24"/><path d="M61.65,37.16l-.49-2h-5.4V37q.64,0,3.52.1Z"/><path d="M69.38,31.32l0,.07h0Z" style="fill:#ec1c24"/><path d="M86.93,30.22h.17L87,30.13a.38.38,0,0,1-.12.08Z" style="fill:#ec1c24"/><path d="M57.85,27l.08,0V26.9Z" style="fill:#ec1c24"/><path d="M55.75,47.95v1h0v0h1.14l.1-.07a1.11,1.11,0,0,0,.15-.24v0a.08.08,0,0,0,0-.06,7.21,7.21,0,0,0-.75.23,2.21,2.21,0,0,0-.05-.52l-.15.13-.33-.24L56,48Z"/><path d="M54,39.57l-.26.19a.72.72,0,0,1,.26,0Z" style="fill:#ec1c24"/><path d="M53.64,39.4l-.28.13a.8.8,0,0,1,.38-.08A.11.11,0,0,0,53.64,39.4Z" style="fill:#ec1c24"/><path d="M69.16,46.44c0,.26.05.42.05.47a0,0,0,0,1-.05.05,3.58,3.58,0,0,1-.38-.29s.05-.12.16-.22l-.16-.15a1.18,1.18,0,0,1,.19-.16,2.17,2.17,0,0,1-.13-1V43.38a.65.65,0,0,0-.29.08l-.15-.14a1.17,1.17,0,0,1,.43.06V41.88a.18.18,0,0,1-.06.08l0,0a2.19,2.19,0,0,0-.37-.08.6.6,0,0,0-.24.08.27.27,0,0,1-.07-.12,1,1,0,0,1,.07-.19,3.46,3.46,0,0,1,.48-.08.55.55,0,0,1,.23.07V39c0-.51,0-1,.46-1.35V35.2H67.85l-.12.27,0,.45c0,.11,0,.24,0,.38s0,.3,0,.5l0,.4h0v.05a.14.14,0,0,0,.07.11h-.1l0,.27.25.26a1.32,1.32,0,0,1,.13.33,2.34,2.34,0,0,0-.38-.22c0-.16-.09-.37-.17-.64h-.94c-.9,0-1.9-.05-3-.14l-.93,3.62h0l-.91-3.64q-3.18,0-5.9,0v.5c.51.32.46.83.46,1.35v6.17c0,.51,0,1-.46,1.35v1.25l.22.07,0,0,.07-.06.51,0a.59.59,0,0,1,.2,0l-.38.14a.71.71,0,0,0,.09.28l0,0a.1.1,0,0,1,0-.07h.2a.39.39,0,0,0-.2.05,1.59,1.59,0,0,0,.15.44l0,0,.07-.06a.78.78,0,0,1,.29,0,1.7,1.7,0,0,0,.13-.33,1.3,1.3,0,0,0,.29-.23,2.58,2.58,0,0,1-.29-.24l.14-.15.2.09a.63.63,0,0,1-.06.29,5.45,5.45,0,0,1,.57.33h0a.12.12,0,0,0-.07,0,.93.93,0,0,0-.18-.15l-.15.15s0,.08.09.15l-.22,0-.07,0a.72.72,0,0,1-.18.14,3.7,3.7,0,0,0,.14.36H60V46.5c-.51-.32-.46-.83-.46-1.35V41.62c-.1-.17-.18-.31-.24-.41l.18-.19a.55.55,0,0,1,0,.11v0a.24.24,0,0,0,.07.1.88.88,0,0,0,.19-.2s0-.06,0-.09h.05a.28.28,0,0,1,.11.08,1.08,1.08,0,0,0,.07.44l-.2.25h0l1.88,7.17h1.35l.53-2.12a1.38,1.38,0,0,0-.44.08c-.05,0-.13-.05-.22-.15l-.29.05a.51.51,0,0,0-.22.16.3.3,0,0,1,.14.05l.23.11a.31.31,0,0,0,.08.22H62.6a.25.25,0,0,1-.11-.07,1,1,0,0,1-.45-.08A.33.33,0,0,0,62,47l-.68-.21.5-.11a.91.91,0,0,0,.4-.19.43.43,0,0,1-.07-.16.54.54,0,0,1,.07-.15,5.42,5.42,0,0,0,.6-.14l.15-.3a1.85,1.85,0,0,1,.22.28l.23.33.2-.34,1.12-4.49h0v1.17H65v-.05a.17.17,0,0,1,.07-.09,1.43,1.43,0,0,1,.45.29,1.15,1.15,0,0,1-.45-.07,1.14,1.14,0,0,0-.29.07v2.38a2.72,2.72,0,0,1-.07.86l.07.06-.05,0-.1.11v0a.15.15,0,0,0,.07.11h-.14l0,0a1,1,0,0,1-.2.17v.77h.31a.56.56,0,0,0-.29.08h0v1.61h5V46.5l-.11-.08ZM58.23,41.67v-.05a.22.22,0,0,0-.07-.11,9,9,0,0,1,.39-.82,2.54,2.54,0,0,0,.07.68A4.61,4.61,0,0,0,58.23,41.67Zm3.39,5.39h.06a.23.23,0,0,1-.11.07h0A.26.26,0,0,1,61.62,47.05Zm-.69-7.51a.17.17,0,0,0,.07.09h-.3a.35.35,0,0,0,.23-.14Zm-.26-.41h.13l-.11.07S60.65,39.14,60.67,39.14Zm.21,3.21a.14.14,0,0,0-.11.07,1,1,0,0,0-.3-.22v-.05a.27.27,0,0,1,.07-.09.3.3,0,0,1,.22.08s0,0,0,.07l.19.15Zm.71-.53a1.89,1.89,0,0,1-.6-.08,1,1,0,0,1,.3-.23,4,4,0,0,1,.74.16A1.1,1.1,0,0,0,61.59,41.81Zm1,.37a.34.34,0,0,1,.22-.07A.34.34,0,0,1,62.57,42.18Zm.34,1.21-.11.06.11-.06.34-.16Zm1.66,3.32a.29.29,0,0,1-.05.11h-.05a.17.17,0,0,1-.11-.05V46.7a.15.15,0,0,1,.07-.11h0a.28.28,0,0,1,.11.07Zm1.82-5.64a.34.34,0,0,1-.23.07A.31.31,0,0,1,66.39,41.07Zm-.31,1v0a.36.36,0,0,1-.07.1l.05,0,.11.11a2.2,2.2,0,0,0-.22.23.33.33,0,0,0,.07.22h0a.15.15,0,0,0-.11.07l.05,0,.09.1h-.15a8.25,8.25,0,0,0-.07-.9A.88.88,0,0,0,66.08,42.12Zm-1,1a.14.14,0,0,1,.07-.1,1.65,1.65,0,0,0,.37.22h-.15a.67.67,0,0,1-.3-.08Zm.32,4-.11.11a.47.47,0,0,1,0,.16.9.9,0,0,1,0,.15c0,.12-.06.15-.09.07a4.1,4.1,0,0,1-.21-.45l.26-.12a.51.51,0,0,1,.17.05Zm0-.63a.71.71,0,0,1,.07-.3l-.29-.14a1.19,1.19,0,0,1,.14-.31s-.12-.05-.22-.14a.31.31,0,0,0,.22-.08,8,8,0,0,1,.45.82A1,1,0,0,0,65.34,46.52Zm-.08-1.13a.3.3,0,0,1-.22-.08v-.15a1.16,1.16,0,0,1,.3-.07,1.76,1.76,0,0,1,.37.07A.68.68,0,0,1,65.26,45.4Zm-.17-.76.07-.07.13-.14,0,.06a.35.35,0,0,0,.08.15l-.2.2v-.06A.24.24,0,0,0,65.09,44.64Zm1.9-.22a.88.88,0,0,0-.37.16l.29.15-.26.11a.44.44,0,0,0-.19.18h0a.26.26,0,0,1-.11-.06c.18-.27.32-.5.45-.68a.73.73,0,0,1-.3-.08,1.09,1.09,0,0,0-.22.31.85.85,0,0,1-.19-.15s0,0,0-.08-.15-.31-.45-.45l-.15.15s0-.11-.15-.21a2.23,2.23,0,0,1-.08.66l-.29.3a.71.71,0,0,0-.08-.3c.1,0,.17-.2.23-.45L65,43.45l0,.06.11.09a.36.36,0,0,0,.22-.06l.45.22c.11-.14.28-.35.52-.61a1.28,1.28,0,0,0-.05.4,4,4,0,0,0,.13.5l0-.05.11-.09.45.22Zm.34-2.57a.52.52,0,0,0,.11.11V42a.38.38,0,0,1-.07.11,1.13,1.13,0,0,0-.45.07,2.57,2.57,0,0,1,.22-.6.3.3,0,0,0,.23-.08l0,.05a.18.18,0,0,0,.07.11l-.05,0a.54.54,0,0,0-.11.11Zm-.28-.64L67,41.14a.34.34,0,0,0,.22-.07c.05,0,.13,0,.23.15Zm.69,2.07a.21.21,0,0,1-.09-.06s.08-.06.09-.06l.13.06Zm1,.39a.74.74,0,0,1-.07.29.33.33,0,0,1-.22-.06A1.28,1.28,0,0,1,68.77,43.68Zm-.48.44A.26.26,0,0,0,68.4,44v.15h-.05a.14.14,0,0,1-.09,0Zm.86,3.23h-.38c0,.19.07.29.07.31s0,0-.07,0a1.71,1.71,0,0,0-.6-.45,3,3,0,0,0,.37-.29,6.13,6.13,0,0,1,.61.29Z"/><path d="M89.9,18l.67-.24a.61.61,0,0,0,0-.09h-.73C89.86,17.75,89.88,17.86,89.9,18Z"/><path d="M90.73,18a.27.27,0,0,0,.11-.09v0Z" style="fill:#ec1c24"/><path d="M63.4,46.37s-.12,0-.23-.15l-.28.05a.51.51,0,0,1-.17-.05.93.93,0,0,0-.05.22.91.91,0,0,0,.05.22,3.89,3.89,0,0,1,.67.13L63.6,46Z"/><path d="M90.57,18.95l.11-.1,0,0-.06,0a.29.29,0,0,0-.08.11Z" style="fill:#ec1c24"/><path d="M53.15,38.75h0l.08-.06Z" style="fill:#ec1c24"/><path d="M53.67,23.77s.05-.12.16-.22l-.17,0v.25Z" style="fill:#ec1c24"/><path d="M46.46,46.15a.73.73,0,0,0-.07.35A.89.89,0,0,0,46.46,46.15Z" style="fill:#ec1c24"/><path d="M54,45V40.8H52.93l0,0,.1-.11c-.06-.13-.14-.33-.22-.6A8.36,8.36,0,0,1,53,38.7l.05-.06.09-.11c-.05-.11-.15-.29-.29-.53a5.54,5.54,0,0,1,.74.3l-.29.16c0,.27.05.43.05.49a1,1,0,0,1-.05.27l.3.05.37-.05a.61.61,0,0,0,0,.2v-.25a5.26,5.26,0,0,0-.36-2.07l-1.75,0A11.83,11.83,0,0,1,53.59,37c-.75-1.6-2.47-2.06-4.7-2.06-3,0-5.11.85-5.11,4.25V45a4.27,4.27,0,0,0,.89,2.91l0-.05s0,.07,0,.1l.16.16.26-.27a1.26,1.26,0,0,1,.42-.26.29.29,0,0,1,.21.06c.16-.17.3-.3.42-.41a1.62,1.62,0,0,1,.07-.5L46,46.07a3.82,3.82,0,0,0-.91-.36,5.45,5.45,0,0,0-.36-.83.62.62,0,0,1-.35-.28,8.3,8.3,0,0,1,.49-.7,3.08,3.08,0,0,1-.21-.5,1,1,0,0,0-.36.06l.42-.2a6,6,0,0,0,.42-.93,1.51,1.51,0,0,0,.43-.28,3.44,3.44,0,0,0-.28,1,1.79,1.79,0,0,0,.15.65,8.69,8.69,0,0,1-.15,1.06,8.22,8.22,0,0,0,.78.85l.65.06a1.29,1.29,0,0,1,.61.21,2.34,2.34,0,0,0-.49.28l-.36.57.72,1v.64q-.61,0-1.73.16a7,7,0,0,0,3.37.65C51.92,49.21,54,48.36,54,45Zm-8.06,1.45a.24.24,0,0,0,.09-.06v.05s0,.06.07.09a.33.33,0,0,1-.22-.07Zm0,.72-.15.05s0,0-.07-.05Zm1.21-.59a.26.26,0,0,1-.15,0,.87.87,0,0,0,.34-.07A.58.58,0,0,1,47.18,46.53Zm6.12-3.16s0,.17.15.53a1,1,0,0,0-.29-.23l-.05.05-.11.09a1.33,1.33,0,0,1,.11-.27A.9.9,0,0,1,53.3,43.37Zm-.5-1.84a.2.2,0,0,1,.05-.09l.05,0a.36.36,0,0,1,.09.11h-.21Zm-2.23-5.7h-.36l0-.05a.51.51,0,0,0-.13-.12A1.29,1.29,0,0,1,50.57,35.84Zm-1.2,1.26v.42h-.49a.86.86,0,0,0-.07-.35A1.64,1.64,0,0,0,49.36,37.1Zm-2.6,1.75-.09.09h-.05a.14.14,0,0,1-.09-.05.58.58,0,0,0,.29-.08Zm.33,2.42,0,0L47,41.14h.28Zm.08-2.69a.25.25,0,0,0,0-.15.66.66,0,0,0-.11-.2h.28A1.31,1.31,0,0,0,47.18,38.58Zm3.1,3.6-.55.12v2.87c0,.1,0,1.07-.83,1.07s-.83-1-.83-1.07V42.69a3,3,0,0,1-.46-.14,1.64,1.64,0,0,1,.07-.49,4.65,4.65,0,0,1-.21-.42c0-.05.05-.12.15-.21a1,1,0,0,1,.41.07l0,.08V39c0-.1,0-1.06.83-1.06s.83,1,.83,1.06v2.74l.29.06a1.19,1.19,0,0,1,.56.24A1.11,1.11,0,0,1,50.28,42.19Zm1-1.33a1.86,1.86,0,0,0-.5.06.71.71,0,0,0-.07-.28,1.11,1.11,0,0,0,.23-.36l.28.13a.88.88,0,0,1,.2.22A.42.42,0,0,1,51.27,40.85Zm-.07-.78-.05,0-.1-.09a.34.34,0,0,1,.07-.23,1.32,1.32,0,0,1-.42-.28.66.66,0,0,1,.07-.28,3.74,3.74,0,0,1,.57.14,3.42,3.42,0,0,0,.29.57A.63.63,0,0,1,51.2,40.07Zm.28-1.12a1,1,0,0,1-.21-.57,1.28,1.28,0,0,0,.36-.13s.11,0,.21.13a1.83,1.83,0,0,1-.08.57l-.13,0ZM51.84,41l-.05-.06-.09-.09a.6.6,0,0,0,.28-.07v0a.11.11,0,0,0,.05.09A.24.24,0,0,0,51.84,41Zm-.14-3.12-.21-.21c0-.09.16-.16.36-.21a.47.47,0,0,1,.2.27A.44.44,0,0,1,51.7,37.88Zm1.38,9.61v.14a.6.6,0,0,0-.29.08C52.88,47.57,53,47.49,53.08,47.49Z"/><path d="M38,38.85c0,.06,0,.12,0,.17l.05-.09Z" style="fill:#ec1c24"/><path d="M66.39,44.13a.26.26,0,0,1,.07-.08A.19.19,0,0,0,66.39,44.13Z" style="fill:#ec1c24"/><path d="M38.18,40.23v0a1.55,1.55,0,0,1,.05-.31L38,39.77v0l.13.12,0,.3Z" style="fill:#ec1c24"/><path d="M39.83,48.61v-.14a.7.7,0,0,0-.36.08v.15q-1.06,0-3.18.13a1,1,0,0,0-.07-.36.55.55,0,0,0-.22.14,1,1,0,0,1-.35-.14c0,.05,0,.13-.14.22a.7.7,0,0,1,.08-.36h0a.25.25,0,0,1,.09.07A.91.91,0,0,1,35.8,48a2.08,2.08,0,0,1,.64.43.28.28,0,0,0,.2-.07c.05-.16.13-.4.22-.72a3.55,3.55,0,0,0,.28.85.29.29,0,0,1,.21.08s0-.11.15-.21l.21.21a4,4,0,0,0,.42-.36V48h-.23a.28.28,0,0,0-.07-.21l0,0a.25.25,0,0,0,.1-.05l.28.21.21-.21a1.33,1.33,0,0,0,.29.4,5.59,5.59,0,0,0,.49.37,1.11,1.11,0,0,1,.29-.41.24.24,0,0,0,.2-.08l.44.21a.3.3,0,0,0,.07.21,4.62,4.62,0,0,1,.76,0l.09,0c0-.18,0-.28,0-.29a.6.6,0,0,1,.17-.29,2,2,0,0,1,.21.35h0a.32.32,0,0,1,.06-.21h.25l.31-.23V46.28l-.13.06.13-.12V43.17H40.71l-.18.09a.52.52,0,0,0,0-.09H38v1.56c0,.56.11,1.52-.79,1.52s-.79-1-.79-1.52V40.58q-.41-.11-1-.22c.15-.19.28-.29.38-.29l.11-.32a.35.35,0,0,1,.19-.21.77.77,0,0,1,.21.17.93.93,0,0,1,.08.29l0,0v-.54c0-.56-.11-1.52.79-1.52a.69.69,0,0,1,.75.62.56.56,0,0,0,0-.14l.36.57v.49a.75.75,0,0,1-.34.08v.14l.14.11.29-.13s.06,0,.09.05l-.05,0-.11.11c.05,0,.13.05.22.16a.3.3,0,0,0-.22.08l.05,0,.11.11a1,1,0,0,1,.29-.23h.05a.22.22,0,0,1,.11.08l0,0,0,0h0s0,0,0,0l.07,0,.14-.26H38.9v-.05a.16.16,0,0,1,.07-.09l.16.1.21.12a1.89,1.89,0,0,1-.29.18L39,40l.09.21H41l.1-.1,0,0,.06.06h.95V36.42a9.46,9.46,0,0,0-4.74-1.49,6.16,6.16,0,0,0-4.07,1,3.91,3.91,0,0,0-1.17,3.27v.63l0,0h0V44c0,.44,0,.87,0,1.29l0,.13h.15a4.46,4.46,0,0,1,.13-.57.73.73,0,0,1,.29.07.93.93,0,0,1,.06.26c0,.06,0,.22-.06.5a2.13,2.13,0,0,1-.49-.13l-.09-.06a3.65,3.65,0,0,0,1.1,2.56,6.26,6.26,0,0,0,4.23,1.14,9.39,9.39,0,0,0,3.11-.6Zm-.34-1.1a.11.11,0,0,1,.07-.09l.13.13h-.21ZM39,39.3H39a.24.24,0,0,1,.15-.08A.18.18,0,0,1,39,39.3Zm1.64.56v0l.16.13-.16-.1Zm-1.14-4.3.28.05h-.38A.18.18,0,0,1,39.54,35.56Zm-.62,1.29a.24.24,0,0,1,.07-.09.81.81,0,0,0,.41-.08.26.26,0,0,0,.08.21s0,.11-.15.21h-.21l-.21-.21Zm-5.8,8.59s0-.11-.13-.21a1,1,0,0,1,.13-.42.93.93,0,0,1,.36.06v.22c.05,0,.12,0,.21.15A1.11,1.11,0,0,1,33.12,45.44Zm1.15-5.78a.24.24,0,0,1-.11-.07,1,1,0,0,0,.22-.29.31.31,0,0,1-.08.23.69.69,0,0,1,.3.07.62.62,0,0,0-.3.08Zm.54,3.3a.72.72,0,0,0-.29.07s0-.11-.13-.21a1.1,1.1,0,0,0,.21-.36.58.58,0,0,1,.28.08A1,1,0,0,1,34.81,43Zm.33-2.61a.64.64,0,0,0-.3.08.34.34,0,0,0,.15-.3c-.07,0-.11-.06-.12-.08s0,0,.05-.06.12,0,.22.15a1.22,1.22,0,0,1,.15-.45,1,1,0,0,0,.08.38A1.37,1.37,0,0,0,35.14,40.36Zm.58,2.19a.74.74,0,0,0,.36-.08,1.32,1.32,0,0,0,.15.29.57.57,0,0,1-.36.21,1.06,1.06,0,0,1-.21-.21A.33.33,0,0,1,35.72,42.54Zm0,4.52a.22.22,0,0,1-.13.21.23.23,0,0,1,.21.14l-.21,0-.15,0Z"/><path d="M93.68,38.29a1.75,1.75,0,0,0,0-.34v0l0-.1h0A3.54,3.54,0,0,0,93,36.38h-.63l-.48-.13-.49-.12.06-.05.1-.11a4.4,4.4,0,0,1,1,.08,2.12,2.12,0,0,1,.37.23c-.88-1-2.38-1.35-4.24-1.35q-.49,0-.95,0l.07.08h-.09l0-.07c-2.48.19-4.11,1.2-4.11,4.21v.71l.18-.1a.6.6,0,0,1,.29.05,1,1,0,0,0,.09.24,2.65,2.65,0,0,1-.38.75.15.15,0,0,0-.13.05l0,.12V45A3.78,3.78,0,0,0,85,48.42l.1,0h-.06a6.66,6.66,0,0,0,3.56.76h.18v-.06a.11.11,0,0,1,0-.06l0-.05.67-.44a.47.47,0,0,0,.14-.13l.62-.24a2.24,2.24,0,0,0,.53-.05s.07,0,.14.09h0a.08.08,0,0,0-.07,0,.79.79,0,0,1,.14.18,1,1,0,0,1,.23-.14l-.28.23,0,.06,0,0h0l.14.05,0,0,0,0a.16.16,0,0,1-.1,0l0,0,.06.09h0l0,0,.07.09.11.07.44-.18h-.12v0a.07.07,0,0,0,0-.07,1,1,0,0,1,.26.05l.19-.11h0L92,48.36h.19a.26.26,0,0,0,0,.11,3.17,3.17,0,0,0,.47-.35L92.59,48a.81.81,0,0,1-.28,0,.24.24,0,0,0,0,0h0a.16.16,0,0,1,0,.1.32.32,0,0,1,0-.12.08.08,0,0,1,0-.07v0s0,0,0,.06,0,0,0,0h0a.18.18,0,0,1,0-.11.56.56,0,0,0,.18,0,.58.58,0,0,1,.05-.29l.29.33A4.26,4.26,0,0,0,93.76,45V39.18a6.94,6.94,0,0,0-.05-.87Zm-6.48,5.18h.26a2.56,2.56,0,0,0-.13.28h0a.2.2,0,0,1-.1-.07Zm-.68-.82a.47.47,0,0,0,0,.18c0,.06,0,.23.12.5a.75.75,0,0,0-.23.26c-.06.12-.13.19-.18.21h-.05a.19.19,0,0,1-.08-.05.26.26,0,0,1-.12-.15v-.05a.42.42,0,0,1,0-.08.44.44,0,0,0,0,.08v.05l0,.06.28-.13c-.07-.31-.11-.49-.12-.56a.14.14,0,0,1,.05-.13,1.11,1.11,0,0,1-.34-.13A3.3,3.3,0,0,0,86.52,42.65Zm-1.09-.53a2.44,2.44,0,0,0,.34.2h-.13a.29.29,0,0,1-.21-.06Zm-.07.53a.28.28,0,0,1-.26.15C85.14,42.7,85.23,42.65,85.37,42.65Zm-.5-4.8a.19.19,0,0,1,.13,0h0l-.06,0a.2.2,0,0,0,.05.15.17.17,0,0,0-.09,0V38a.38.38,0,0,1-.2-.05A.53.53,0,0,1,84.87,37.85Zm-.24.37,0,.05,0,0Zm0,4.05h.24a.48.48,0,0,1,0,.13.2.2,0,0,1,0,.11h-.28l-.2-.09A1.14,1.14,0,0,1,84.67,42.27Zm.24.73h-.29l.15-.05Zm-1.05,1.94v0l0-.07a.13.13,0,0,1,.13.1Zm.57,1a1.46,1.46,0,0,1-.42-.1.36.36,0,0,1,.28-.1l.25.2Zm.18-2.41a.91.91,0,0,1,.28-.2.32.32,0,0,1,.21.07.32.32,0,0,1,.05-.21l.49-.27s0,.11.13.2l-.28.34.21.41.61.19a1,1,0,0,0,.41-.06.32.32,0,0,1,.07-.21.29.29,0,0,0,.07.21l-.13.13a.69.69,0,0,1,.2.28.86.86,0,0,1,.07-.26.43.43,0,0,1,.15-.22.51.51,0,0,1,0,.16s0,.15,0,.32l-.06,0-.08.1-.06,0-.09-.09a1.66,1.66,0,0,0-.2.2h-.28c-.17-.09-.42-.26-.74-.47l0,0,.09-.09s-.12,0-.21-.13a.25.25,0,0,1-.07.19,5.69,5.69,0,0,1-.89-.06,2.58,2.58,0,0,0,.05-.32A.35.35,0,0,0,84.61,43.54Zm2.2,4.16a.21.21,0,0,1-.1,0l-.13,0,.13,0Zm-2-.86a.12.12,0,0,1-.05-.05h0a.1.1,0,0,1,.07,0Zm.13-.05-.11-.14-.06,0a.08.08,0,0,0-.07,0v-.15l.13.14.11,0Zm-.24-1.47a.73.73,0,0,1,.24-.09Zm.42-.14a1.2,1.2,0,0,1,.2-.15s.08,0,.15.1l-.2.1A.18.18,0,0,1,85.09,45.17Zm.44,1.76h0a.08.08,0,0,0-.06,0l-.05-.24A.31.31,0,0,1,85.53,46.93Zm-.09,1.63a.54.54,0,0,1,.18-.15C85.56,48.51,85.5,48.56,85.44,48.56Zm.18-.82a.49.49,0,0,0-.14.2l.14.06.14,0-.14,0h-.15a.19.19,0,0,1,0-.05h0a.35.35,0,0,1,.14-.2.08.08,0,0,1,0,.06.8.8,0,0,1,0,.12h0l.11.06a.1.1,0,0,1-.11-.06l-.08,0a.13.13,0,0,0,0-.08h0Zm.29-.72s0-.07.09-.13a.12.12,0,0,1,.09,0C86,47,85.94,47,85.92,47Zm.18-.28s.06,0,.08,0,0,0,0,.05h0Zm.31,1.88-.07.07a.2.2,0,0,1-.13,0l.13-.08s0,0,.09,0Zm.17.32.24-.34c0,.05,0,.09,0,.11a.63.63,0,0,1-.08.14s.08,0,.14.09Zm.93-.29a.08.08,0,0,0-.07,0l0,0,0,0a.07.07,0,0,1,.09,0Zm-.12-.33a.47.47,0,0,1,0-.15.43.43,0,0,1,0-.14h.09a.61.61,0,0,0,.05.29Zm-.19-2.81h-.33a.41.41,0,0,1,.28-.2,1.32,1.32,0,0,1,.38,0A.79.79,0,0,0,87.2,45.52Zm.38-1.15,0,0a1,1,0,0,0-.13-.34l0,0,.09-.09c0,.27,0,.43,0,.46S87.58,44.37,87.58,44.37Zm.36-8.62h0v.05a.26.26,0,0,1-.06.09.09.09,0,0,1,0-.07C87.88,35.78,87.9,35.75,87.94,35.75Zm-.16.78-.07.07h0l.07-.06h0ZM88,48.88l0,0,.05,0Zm.05-.8c0-.13-.1-.32-.2-.57,0,0,.09,0,.16-.11a.16.16,0,0,0-.05-.13.34.34,0,0,1,.15,0l.14,0a.18.18,0,0,0,0,.13.46.46,0,0,0,.19,0,.54.54,0,0,0-.13.18.24.24,0,0,0,0,.14A1.46,1.46,0,0,1,88,48.08Zm-.2-1.15A.21.21,0,0,1,88,47,.24.24,0,0,1,87.81,46.93Zm.65.85h0a.2.2,0,0,1,.1-.05Zm.46.11-.1-.09a.15.15,0,0,1,.15.09Zm0-.37h.23v0l.05.06a.25.25,0,0,0-.15,0Zm.35.46-.07,0a.38.38,0,0,1,.05-.2.69.69,0,0,0,0,.25Zm.07-1.09h0a.08.08,0,0,0-.06,0,.82.82,0,0,1-.15-.15l-.15.15s.08,0,.15.09A.23.23,0,0,1,89,47l-.24.33v0a.21.21,0,0,1,0-.07.88.88,0,0,0-.13-.14,3.3,3.3,0,0,1,.48-.29s0-.07-.09-.13a.57.57,0,0,0,.28-.06v0a.11.11,0,0,0,0,.06h0a.08.08,0,0,0-.06,0A.27.27,0,0,0,89.34,46.89Zm.14-3v1.3c0,.1,0,1.07-.83,1.07s-.83-1-.83-1.07V39c0-.1,0-1.06.83-1.06s.83,1,.83,1.06v4.85h0Zm1.2-2.65-.15.15h-.29c0-.05,0-.09,0-.11l.08-.17a.66.66,0,0,0,.29-.05Zm-.29-3.29a.6.6,0,0,0-.24,0,.42.42,0,0,0-.05-.22.78.78,0,0,1,.29,0Zm-.44-1.81.07-.07h0l-.07.07Zm-.17.32a1,1,0,0,0,.47-.08v0a.24.24,0,0,0,.08.1,1.73,1.73,0,0,0-.54.08Zm0,7h.05l.09,0v0a.25.25,0,0,0,.07.09A.31.31,0,0,1,89.72,43.47Zm-.05-.41s0-.05,0-.05l.29.05Zm.81-.39-.28.41a.22.22,0,0,0,0-.09,3.12,3.12,0,0,0-.24-.57A1.67,1.67,0,0,1,90,41.9a1.4,1.4,0,0,1,.25-.13l.32-.07a1.06,1.06,0,0,1,.15.2,1.17,1.17,0,0,0,0,.37Zm.48-.55a.28.28,0,0,0,.21-.08l-.13.13v.05l.05.09H91a.17.17,0,0,1,0-.09A.32.32,0,0,1,91,42.12ZM90.87,47h0Zm.19.62v0a.1.1,0,0,1,0-.06l.09.09Zm.29.72a.15.15,0,0,1,.05-.13A.16.16,0,0,1,91.34,48.36Zm-.2-1.18a.16.16,0,0,1,0-.07.43.43,0,0,1,0-.09l.18,0,.11,0Zm.34.52a.13.13,0,0,1,.08,0,.09.09,0,0,1,.06,0Zm.9-1a.25.25,0,0,0,.14,0v0l0,.07h0A.07.07,0,0,1,92.39,46.69Zm.14.33h0l0,0h.09Zm.2-4.75h0l0,0h0Zm.55,4.94s0,0,0-.05A.73.73,0,0,0,93.2,47h0a.11.11,0,0,0,.08,0A1.25,1.25,0,0,1,93.29,47.21Z"/><path d="M45.41,48.33l0-.17a.72.72,0,0,1-.19.13h0A.12.12,0,0,1,45.41,48.33Z" style="fill:#ec1c24"/><path d="M45.37,48h0v0Z" style="fill:#ec1c24"/><path d="M88.06,47.7l0,0h0a.15.15,0,0,0,.05-.13A.14.14,0,0,0,88.06,47.7Z" style="fill:#ec1c24"/><path d="M80.86,29.57a.24.24,0,0,1,0,.12H80.6c.09-.13.18-.21.26-.21V25.61H76.72v1.55c0,.56.11,1.52-.79,1.52s-.79-1-.79-1.52V21.86c0-.56-.11-1.52.79-1.52s.79,1,.79,1.52v.82h3.73a6.32,6.32,0,0,0-.08-1.15l-.44-.6A.3.3,0,0,1,80,20.7c.11.18.28.46.52.82.05.25.12.64.21,1.15h.12V18.86q-.28-.19-.59-.35v0a.6.6,0,0,1-.33-.09h.2a9.63,9.63,0,0,0-4-1.07,6.16,6.16,0,0,0-4.07,1,2.87,2.87,0,0,0-.78,1,.54.54,0,0,1,.1.14.42.42,0,0,1-.2.22h0q-.06.18-.1.37l.05,0s0,0-.06,0a6.28,6.28,0,0,0-.13,1.15.16.16,0,0,1,.09,0l.2.07h-.28c0,.11,0,.21,0,.32v4.78c0,.39,0,.77,0,1.14h0a1.28,1.28,0,0,1,.48-.06,2.07,2.07,0,0,1,.27.22.93.93,0,0,1,.14.29,1,1,0,0,1-.23.24c-.12.1-.18.18-.18.26a.45.45,0,0,1,.3.09h-.2a1.44,1.44,0,0,1-.45-.16l-.05,0a3.41,3.41,0,0,0,1,2.06,4.42,4.42,0,0,0,2.11,1l.37-.13.3.06a.16.16,0,0,0,.12-.06,1,1,0,0,1,.05.16l.37,0a.44.44,0,0,0-.06-.12.32.32,0,0,1,.25.09h-.06l-.06,0,.59.06.38,0a7.8,7.8,0,0,0,4.48-1.45Zm-9.37-2.72a.25.25,0,0,0-.13.08v-.2h.06l.13.09Zm6.89,2.49h0a.14.14,0,0,0-.1.06s0,0,0,0h0a1.72,1.72,0,0,0-.31-.14A1.12,1.12,0,0,1,78.38,29.34Zm-3.11-.76.25.69a.35.35,0,0,0-.25.08c0-.05-.06-.14-.18-.25h-.25A1.66,1.66,0,0,1,75.27,28.58Zm3-8.53a.25.25,0,0,0-.08-.21h.15a.25.25,0,0,0,.08.21Zm.21,0a.35.35,0,0,1,.23-.07A.34.34,0,0,1,78.5,20Zm.17-.5a.16.16,0,0,0-.09.07.82.82,0,0,1-.13-.13.23.23,0,0,1,.05-.09.57.57,0,0,1,.23.15Zm1,.58a4.84,4.84,0,0,0-.59-.45h.05a.16.16,0,0,0,.09-.08l.3.27.3.27Zm.13-1.2a1.65,1.65,0,0,1,.57.09,2.32,2.32,0,0,0-.57.07Zm-.49-.1.25.1h-1a1.19,1.19,0,0,0,.49-.16A.64.64,0,0,1,79.28,18.82Zm-1.15-1,.16.27.21.31h.3a1.63,1.63,0,0,0-.57.09.07.07,0,0,1,0-.05s.09,0,.26,0a1.85,1.85,0,0,1-.32-.14Zm0,.66h0a.15.15,0,0,1-.11.05h0A.22.22,0,0,1,78.17,18.53Zm.15.4a3.21,3.21,0,0,0-.82.09,1.43,1.43,0,0,1-.38-.05l-.42-.12A13.6,13.6,0,0,1,78.31,18.92Zm-2.4-.13a4.44,4.44,0,0,1,.6.05,9.89,9.89,0,0,0-1.38.08,1.06,1.06,0,0,1-.47-.08ZM74,17.73l0,0h0l0,0-.06,0Zm0,.49-.07-.07Zm-1.11.54a1.24,1.24,0,0,0,.41-.17s0-.12-.16-.24a3.57,3.57,0,0,0,.88-.08l.06.06a.47.47,0,0,0,.12.1,1.45,1.45,0,0,0-.49.16l.43.08a.74.74,0,0,1,.37.17H73.35A1.06,1.06,0,0,1,72.86,18.76Zm1.23,5.67a.28.28,0,0,1-.12-.08v-.17c0,.05.06.14.17.25Zm.13,1.22a1.71,1.71,0,0,0,.17.34.31.31,0,0,1-.25-.09l0-.05a.29.29,0,0,0-.07-.12h0A.28.28,0,0,0,74.22,25.65Zm.17.6a1.72,1.72,0,0,0,.09.61l-.34.34,0-.05a.32.32,0,0,0-.07-.12A1.91,1.91,0,0,0,74.39,26.25Zm-.7.69a.28.28,0,0,0,0-.07.32.32,0,0,1,.24-.08.27.27,0,0,0-.24.16h0a1.54,1.54,0,0,1-.13.32,1.12,1.12,0,0,1,.08-.46v.05A.25.25,0,0,0,73.7,26.94Zm-.06,1.47a.68.68,0,0,1,.29.08,2.34,2.34,0,0,1-.15.53c-.06,0-.14.05-.24.16A3.24,3.24,0,0,1,73.64,28.4Zm2.31,1.53a1.36,1.36,0,0,1-.08.52l-.28-.07a1,1,0,0,1-.23-.15.51.51,0,0,1-.3.21,1.28,1.28,0,0,1-.45-.07l-.14.14a.46.46,0,0,0,.3.21.61.61,0,0,0-.3.08l-.61-.05a1,1,0,0,0-.28.05c0-.12.08-.24.12-.38L73.8,30a1,1,0,0,0,.29.22l.6-1.19.74.6a1.43,1.43,0,0,0,.23-.3.47.47,0,0,0,.35-.15c0,.1-.09.22-.29.37a.25.25,0,0,0,.23.15l.14-.29v.52Zm.55,1.58a.1.1,0,0,0-.07,0l0,0-.07-.07h0a.07.07,0,0,0,.07,0l.09.09Zm1-.16a.23.23,0,0,0,.14,0v0a.15.15,0,0,0,.05.07A.4.4,0,0,1,77.53,31.35Zm.53-.42v0a.11.11,0,0,1,0-.07h0l.06,0A.16.16,0,0,0,78.06,30.93Zm-.27-.14-1,.09a1.29,1.29,0,0,1-.37-.15,1,1,0,0,0,.21-.29c0-.05,0-.12-.14-.21a1.1,1.1,0,0,0-.44.15l.24-.19a.81.81,0,0,0,.13-.26l.37-.14h0l.37-.15v-.16a2.44,2.44,0,0,0,.58-.14,1.1,1.1,0,0,0-.29.53.69.69,0,0,0-.29.07,1,1,0,0,1,.44.16,1.08,1.08,0,0,0,.12-.29.25.25,0,0,0,0-.16,2,2,0,0,1,.36-.07,1.29,1.29,0,0,1,.3.07.74.74,0,0,0-.05.33,1.26,1.26,0,0,1,0,.33,1.73,1.73,0,0,0,.16.21l.21.23A7.64,7.64,0,0,0,77.79,30.8Zm1.26,0c0-.1-.13-.15-.29-.15s.06,0,.29-.15a2.08,2.08,0,0,1-.23-.29.28.28,0,0,0,.23-.08s.12,0,.22.15a1,1,0,0,1-.08.44s.12,0,.22.15A1,1,0,0,1,79,30.82Z"/><path d="M54.73,27l-.08-.07Z" style="fill:#ec1c24"/><path d="M88.93,49.17a.55.55,0,0,0,0-.09l0,0,0,.12A.4.4,0,0,0,88.93,49.17Z" style="fill:#ec1c24"/><polygon points="88.93 49.21 88.93 49.21 88.93 49.21 88.93 49.21" style="fill:#ec1c24"/><path d="M52.08,31.64l-.13-.12a.39.39,0,0,1,.08-.26c.12,0,.3.12.53.34a.81.81,0,0,0,.34-.08s0,.09,0,.13a11,11,0,0,0,1.58-.11.91.91,0,0,1-.13-.2h.23l.08.17A4,4,0,0,0,57,30.41h-.07a2.83,2.83,0,0,1-.72.08,3.08,3.08,0,0,1,.72-.08h0v0s0-.06-.07-.11l.14.14a3,3,0,0,0,.21-.26l-.06,0,.11-.11,0-.05V29.9a3.83,3.83,0,0,1-.52,0h-.23c-.06.14-.13.27-.19.39L56.11,30a.51.51,0,0,0,0,.09.27.27,0,0,1,.07.2.8.8,0,0,1-.07-.2h-.3a1.15,1.15,0,0,1-.05-.21.15.15,0,0,1,.05-.09,1.09,1.09,0,0,1,.37.15l.15-.15a.48.48,0,0,0,.19.05l0-.05.21,0,.52,0v.08h.08l0,0a3.49,3.49,0,0,0,.35-.77.56.56,0,0,0,0-.14l.06.08a5.74,5.74,0,0,0,.23-1.7v-.29h0l-.29-.21a1,1,0,0,0,.29-.11v-.39h-.15a.09.09,0,0,1,.15,0V26l-.07.07a.15.15,0,0,0,0-.15.19.19,0,0,1,0-.15V22.67a.67.67,0,0,1-.2-.06l0,0h0a.24.24,0,0,1-.07.09l.07-.1V22.6h0a.18.18,0,0,0,0-.08s0-.08-.05-.16l0,.05-.11.11h0a.27.27,0,0,1-.09-.07,2.65,2.65,0,0,1,.07-.66.87.87,0,0,1,.29.44h.15v-.62c0-3.4-2.08-4.25-5.11-4.25s-5.11.85-5.11,4.25v5.79C47.71,30.52,49.46,31.49,52.08,31.64Zm.74-.36a.29.29,0,0,1-.21-.06L53,31H53l.09.07A1.16,1.16,0,0,1,52.82,31.28Zm.85.2a.26.26,0,0,1-.08.12h-.34a1.11,1.11,0,0,1,.08-.44l.15.13.2.13Zm.17,0v-.06a.43.43,0,0,1,.07-.11.72.72,0,0,1-.29-.06c.1-.15.2-.22.29-.22s0,.12.15.22Zm-.07-6.72h0l0,0,0,0a.22.22,0,0,0,.14-.09,1.58,1.58,0,0,0,.13-.23.45.45,0,0,1,.16-.19l.06.19.17-.16.23.23a1.54,1.54,0,0,0-.36.07,1.31,1.31,0,0,1,0,.17,1.43,1.43,0,0,1-.05.32h0a.15.15,0,0,1-.11-.07L54,24.81l0,0h0a.32.32,0,0,0-.12.07l0,0-.11-.11h.05l.05,0Zm1,.86h-.23v-.05l.05-.09.05,0ZM54,25.35s0,.08-.12.11a.12.12,0,0,1,0-.05.22.22,0,0,1,0-.09.17.17,0,0,0,0-.08.07.07,0,0,0,0-.06s.08,0,.09,0,.06,0,.13.1A.2.2,0,0,0,54,25.35Zm.11.4h-.15a.11.11,0,0,1,.07,0A.11.11,0,0,1,54.07,25.74Zm-.07.65a.3.3,0,0,1-.22-.07A.34.34,0,0,1,54,26.39Zm-.37,2.41.37-.37a.63.63,0,0,1-.08.3A.87.87,0,0,0,53.63,28.8Zm.4,1.33a.23.23,0,0,0-.11.07.3.3,0,0,1,.08-.12s0,0,.07.05Zm.77-3s0,0-.07,0a3.74,3.74,0,0,0-.51-.42l-.18.07a1.93,1.93,0,0,0,.23-.21h.05a.22.22,0,0,1,.1.07l-.2.07a1.48,1.48,0,0,1,.35.14c0-.05,0-.13.15-.23l.08.16.06-.07a.57.57,0,0,0,.05.23l.11.22a.29.29,0,0,1-.2-.06Zm.4,1.95-.11.05s0,0,0-.05h.13Zm-.1-2.17a.3.3,0,0,1,.22-.08A.28.28,0,0,1,55.09,26.94ZM56,30.86h-.15l-.15-.15Zm-.25-4.5s0,.06-.07.06a0,0,0,0,1,0,0l-.05,0-.09-.11a2.12,2.12,0,0,1,.28-.21l-.13-.29.21-.05.15.05C55.82,26.11,55.74,26.32,55.71,26.36Zm1,1.42v0a.25.25,0,0,0-.07-.11H57Zm.5-.36-.2.05-.46-.28.22-.23a2.79,2.79,0,0,1-.52-.13,1.19,1.19,0,0,0-.07-.45.22.22,0,0,1,.21.15l.66-.21a.29.29,0,0,1,.07-.21.29.29,0,0,0,.08.21,2.75,2.75,0,0,1-.29.52,1.37,1.37,0,0,1,.44.28A1.39,1.39,0,0,1,57.2,27.43ZM57,25.81a.34.34,0,0,0,.22-.07v.05a.25.25,0,0,1-.07.09h0Zm.15-.36h.05a.15.15,0,0,0,.09-.05v-.05a.44.44,0,0,0-.07-.11h0a.24.24,0,0,1,.11.07A.23.23,0,0,1,57.12,25.45Zm0-.37a1,1,0,0,1,.08-.44l0,.05.11.09A2.24,2.24,0,0,0,57.12,25.08Zm.15-.73.14-.05s0,0,.08.05Zm.28-1.08a4.37,4.37,0,0,0-.52.29l-.05,0a.39.39,0,0,1-.09-.11A2.57,2.57,0,0,0,57.55,23.27ZM57.5,20a.29.29,0,0,1-.22-.08A.29.29,0,0,1,57.5,20Zm-.87-.73.33.05a.41.41,0,0,0,.17-.05.29.29,0,0,0,.08.21h-.05s-.06,0-.09-.07l-.4.25a.11.11,0,0,1-.12,0A.79.79,0,0,1,56.62,19.25Zm.65,1.67A.83.83,0,0,1,57,21l-.34-.05Zm-.41-.37s0,0-.09,0-.12,0-.22-.15Zm.34,1.53a1.74,1.74,0,0,0-.29-.44c.05-.1.12-.24.21-.44a2.63,2.63,0,0,0,.15,1l-.21.21-.22.23a2.43,2.43,0,0,1,.07.33.14.14,0,0,1-.07.11l0,0,0,0-.14-.15v0s0-.06.07-.09a.49.49,0,0,1-.12-.16l-.11-.21Zm-.46,1.84a.3.3,0,0,0-.22.08s0-.06,0-.07Zm-.12,0s0-.06,0-.07h.14A.23.23,0,0,0,56.62,23.92Zm0,.72.4.05h-.6A.5.5,0,0,1,56.64,24.63Zm-.25.67a2.4,2.4,0,0,1,.37-.22s0,0,0-.07l.11-.08a3.17,3.17,0,0,0,.14.37l-.28-.14v.44l.21.21h-.15l-.14-.15-.05.05a.42.42,0,0,1-.09.09,2.1,2.1,0,0,0-.29-.65h-.37l.05,0,.09.11-.15.07-.15.08a1.1,1.1,0,0,1-.36-.15.9.9,0,0,0,.42-.14l-.13-.29a.41.41,0,0,1,.13-.23.85.85,0,0,0,.37-.07A1.8,1.8,0,0,1,56.4,25.31Zm-.53-3.59.09-.07a2,2,0,0,1,.12.4.13.13,0,0,1,0,.12L56,22.09a.53.53,0,0,0,0-.14l-.1-.21ZM56,23.54a.76.76,0,0,1-.12.19c0,.08,0,.17,0,.26a1.2,1.2,0,0,1,0-.22l-.22.22.06-.21h0l-.38-.29.42.25a2.81,2.81,0,0,0,.06-.29,1.33,1.33,0,0,0-.07-.35A2.49,2.49,0,0,0,56,23.54Zm-1-1.46a2,2,0,0,0,.29-.29c0,.26.12.62.22,1.1l-.15.14A1,1,0,0,1,55,23a3.63,3.63,0,0,0,.22-.58A1.36,1.36,0,0,1,55.08,22.09ZM55,25.18s0,0,.07,0h0l-.07,0,0,0h-.14v-.05a.3.3,0,0,1,.08-.11v.05l0,0S54.95,25.18,55,25.18Zm-.07-.94v-.05a.47.47,0,0,0-.07-.11.31.31,0,0,0-.08-.23h.16Zm-.16-.82v-.15l.15.15Zm0-.73-.05,0a.41.41,0,0,1-.09.09s.12.05.21.15h-.21l-.16-.15Zm-.7.24.19,0H54S54,22.92,54,22.92Zm-1.21-2.58c.88,0,.83,1,.83,1.06v2l.46,0,.16,0-.36-.17a1,1,0,0,1,.58.15h-.05l.2.2-.15.3-.45.23-.4-.1v1.09a.23.23,0,0,1,.1.07h-.1v2.4c0,.1.1.24.17.42h-.15l0-.1a.78.78,0,0,1-.81.74c-.88,0-.83-1-.83-1.07V21.4C52,21.3,51.94,20.34,52.82,20.34ZM50.66,31.16a.34.34,0,0,1,.07-.23.28.28,0,0,0,.08.23Zm.7-8.41h.14a.1.1,0,0,1-.07,0A.11.11,0,0,1,51.36,22.75Zm.08.36v.31A1.22,1.22,0,0,0,51.3,23h0Zm-.37-.5v-.15h.29S51.3,22.51,51.07,22.6Zm.08,2.78.26-.07a.11.11,0,0,1,.09.07.39.39,0,0,1-.16.05Zm.34,4.69-.06,0a1.09,1.09,0,0,1,.07-.37.33.33,0,0,0,.23-.07A1.52,1.52,0,0,1,51.5,30.07Zm.07-8.76.17,0H51.3ZM51,21.9a.44.44,0,0,1,.07-.1.82.82,0,0,1,.37.08,1.31,1.31,0,0,0-.45.07Zm-.16.41v0a.23.23,0,0,0,.07.11.26.26,0,0,1-.21-.08h0A.15.15,0,0,0,50.85,22.31Zm-.34-3.18a.23.23,0,0,1,.06-.1l0,0,.11.11h-.22Zm-.22,4.27H51a2.09,2.09,0,0,1-.19.62l0,0a1.32,1.32,0,0,0-.53-.37Zm-.41,6.13v-.05a.38.38,0,0,1,.08-.13c.05,0,.14.06.25.19Zm0-6.06a.31.31,0,0,1,.22-.07A.35.35,0,0,1,49.91,23.47ZM50,19.76a.3.3,0,0,1-.08.22.3.3,0,0,1-.23-.08A1.34,1.34,0,0,0,50,19.76Zm.07.66a.29.29,0,0,0-.21.07s-.06-.06-.05-.07a.34.34,0,0,1,.12-.08H50A.26.26,0,0,1,50.05,20.42Zm-.14,1.52a.58.58,0,0,1-.29.08A.68.68,0,0,1,49.91,21.94Zm-1,1.46a1.24,1.24,0,0,1-.45.07A1.22,1.22,0,0,1,48.93,23.4Zm-1.06-3.06c.1.05.17.2.21.44l.29.14h-.23a.62.62,0,0,1-.21-.14A1.08,1.08,0,0,0,47.87,20.34Zm.53,3.06a.75.75,0,0,1-.3.07A.85.85,0,0,1,48.4,23.4Zm0,.67v0a.21.21,0,0,1,.08-.11V24a.27.27,0,0,0,.07.09Z"/><polygon points="80.8 44.16 80.81 44.15 80.79 44.17 80.8 44.16" style="fill:#ec1c24"/><path d="M75.53,29.77a.21.21,0,0,0,0,.09l0-.12Z" style="fill:#ec1c24"/><path d="M44.46,30.85l-.44.54h.77l0-.08A.76.76,0,0,0,44.46,30.85Z"/><path d="M91,48.6h0v0l.05-.05h-.08a.25.25,0,0,1-.06.16H91v0Z" style="fill:#ec1c24"/><path d="M79.19,44.69l-.05.05c.07,0,.17.07.31.2Z" style="fill:#ec1c24"/><path d="M79.45,44.54a.32.32,0,0,0-.18.09A.35.35,0,0,0,79.45,44.54Z" style="fill:#ec1c24"/><path d="M91.1,48.85v0l-.1-.16h0Z" style="fill:#ec1c24"/><path d="M79.55,44.43a1.36,1.36,0,0,0-.11.61A1.48,1.48,0,0,0,79.55,44.43Z" style="fill:#ec1c24"/><polygon points="91.02 48.5 91.01 48.51 91.02 48.51 91.02 48.5" style="fill:#ec1c24"/><path d="M87.81,20.08V17.64H82.6v2.44c.51.32.47.83.47,1.35V27.6c0,.51,0,1-.47,1.35v2h0v.15h0v.26h.26l0,0,0,0h4.89V28.95a.93.93,0,0,1-.44-.7l0,0h0a5.06,5.06,0,0,1,0-.61h-.06a1.56,1.56,0,0,1-.24-.39.31.31,0,0,1,.08-.24l.22,0v-.13l-.15-.08a1.61,1.61,0,0,0-.3-.46,1.57,1.57,0,0,0,.08.54,1.74,1.74,0,0,1-.16.38,2.24,2.24,0,0,0-.16-.28,1.09,1.09,0,0,0-.23-.18.31.31,0,0,0-.22.08,2,2,0,0,0-.16-.38,1,1,0,0,0,.46-.08l.3-.3c0-.05,0-.13-.14-.22a2.8,2.8,0,0,1,.13-.65,4.25,4.25,0,0,0,.17-.58h.16c0,.21.05.42.09.64a2,2,0,0,0,.12.44v-.11h.2l0,0a.34.34,0,0,1,.09-.24l.25.27H89v2c0,.51,0,1-.46,1.35v2.44h.06a.72.72,0,0,1,.07-.23,1,1,0,0,1,0,.23h5.11v-.05l-.11-.08a.26.26,0,0,1,.07-.2h0V28.95c-.51-.32-.46-.83-.46-1.35V21.43a3.27,3.27,0,0,1,0-.77l-.07-.07c-.05,0-.13.06-.24.17s-.14-.06-.25-.17a1,1,0,0,0-.41.08V20.5a.83.83,0,0,1-.4-.08l-.65.65a2.63,2.63,0,0,0-.16-.73,3.76,3.76,0,0,1,.1-.42,1.79,1.79,0,0,0,.08-.36.28.28,0,0,0,0-.12h0a.28.28,0,0,0,.12-.08l.12.24.12.25a.32.32,0,0,1,.24.08,5.45,5.45,0,0,1,.58-.2.31.31,0,0,1,.22,0,.15.15,0,0,0-.06.12,2.59,2.59,0,0,0,.06.37.93.93,0,0,1,.22.16,1.15,1.15,0,0,1,.11.23,1.21,1.21,0,0,0,.24-.32,1.14,1.14,0,0,0,0,.21.89.89,0,0,1,.39-.47V17.64H91.54a1.21,1.21,0,0,1-.16.32l.06.05.1.12L91.22,18,91,19.52a3.15,3.15,0,0,1-.41-.33,1.52,1.52,0,0,1-.21.27.72.72,0,0,1-.28.15s0,0-.08-.08l.4-.57-.57-.26a.15.15,0,0,0-.16,0,4.82,4.82,0,0,1-.06-.62c0-.08,0-.22,0-.43H88.52v2.44c.51.32.46.83.46,1.35V22.9H87.35V21.43C87.35,20.91,87.3,20.4,87.81,20.08Zm-.3,9.21a.42.42,0,0,1-.24-.14A.47.47,0,0,1,87.51,29.29Zm-.25.85a.62.62,0,0,1,.16-.25c.05.19.12.4.2.62l-.3.21h0l0,.05a.34.34,0,0,1-.2.14l.08-.13h0A1.83,1.83,0,0,0,87,31a.77.77,0,0,0-.08-.4l-.2-.21h.13a1.5,1.5,0,0,0,.15.28l.2-.21C87.24,30.26,87.26,30.16,87.26,30.14Zm-.15-.08v.16h0l0,.08H87l-.08-.08h0A.73.73,0,0,1,86.8,30h0l.09-.05.11.16ZM86.89,28a.31.31,0,0,0,.08.23.82.82,0,0,0-.38.08v-.05a.37.37,0,0,0-.06-.1A1.89,1.89,0,0,0,86.89,28Zm-.31,3.27s-.08,0-.15-.09A.26.26,0,0,1,86.58,31.26Zm-3.8-12.83,0,0a.18.18,0,0,1,.07-.12,1.84,1.84,0,0,1,.57.08A2.23,2.23,0,0,0,82.78,18.43Zm2.38,12.41h-.35c.05-.09.12-.23.21-.41l0,0a.45.45,0,0,1-.09-.09.33.33,0,0,0-.21.07l.21-.19h0l.27.13Zm.91.32-.07,0a.22.22,0,0,1-.14,0ZM86.45,22l-.21.13h-.33a1.33,1.33,0,0,0-.21-.33h-.8l-.22-.11H84a3.24,3.24,0,0,0-.38-.32.52.52,0,0,0-.06-.22l.11-.13.12-.14a7.07,7.07,0,0,0,1-.38q.55.16.7.22a.44.44,0,0,0,0,.21.25.25,0,0,1,.16,0,3.49,3.49,0,0,0,.16.33,3.42,3.42,0,0,1,.81.59Zm5.88,8.23h-.15a.33.33,0,0,0-.07-.21.29.29,0,0,1,.21.08Zm.33-.27v-.05a.28.28,0,0,0-.07-.09h.34A.27.27,0,0,1,92.66,30Zm-.07-6.62.05,0,.1-.12v.24H92.7A.21.21,0,0,1,92.6,23.35Zm.49.74a.55.55,0,0,1-.33.24C92.86,24.17,93,24.09,93.09,24.09Zm-.33-3.27c0,.06.06.14.18.25a.6.6,0,0,1-.41.16A2.32,2.32,0,0,0,92.75,20.82Zm-.59,2.13.12.08h-.07s-.07,0-.11-.08Zm-.21.81.29.29.36.36h-.41c0,.12.08.23.25.33a.82.82,0,0,0-.33.08,1,1,0,0,0-.08-.41.76.76,0,0,0,.21-.09.65.65,0,0,0,.11-.17L92,23.92a.77.77,0,0,1-.08.33A1.32,1.32,0,0,1,91.9,24,1.32,1.32,0,0,1,91.95,23.76Zm.7-5.83.1-.12a1,1,0,0,1,.41.08.25.25,0,0,1-.24.16v0a.24.24,0,0,1,.08-.12.93.93,0,0,0-.41.08Zm-.33.81.12-.11.21.09a.51.51,0,0,1,.11.15H92.7a.14.14,0,0,1-.11-.07h-.32Zm-.45.78h0l0,0,0,0h0l0,0ZM91.1,30.84h0a.07.07,0,0,1-.06,0C91.1,30.79,91.13,30.8,91.1,30.84Zm.14-7.48a.34.34,0,0,0-.22.07v0a.28.28,0,0,1,.08-.11h0Zm-.3-.74h0a.31.31,0,0,1,.12.07.46.46,0,0,1-.05.16l-.11.21a.79.79,0,0,1-.05-.22A1,1,0,0,1,90.94,22.62Zm.12,7.24h.06a.25.25,0,0,1,.1.07v.4a.32.32,0,0,0-.24.08v-.05a.37.37,0,0,0-.08-.11A1.89,1.89,0,0,1,91.06,29.86Zm-.25-9.6-.08.08h0l-.07-.07ZM90.62,31l-.15.15a.25.25,0,0,0,.07.2h-.13c0-.06-.05-.1,0-.13l.1-.21Zm-.37-7.78a.51.51,0,0,0,.1-.11h.06l.11.07-.05.05-.11.09H90.3a.38.38,0,0,1-.11-.08ZM89.59,20l.26-.24.23.24a.67.67,0,0,0-.23.41h0a.19.19,0,0,0,.12-.07v.24l-.16-.16-.26.24Zm.08,2.77a.87.87,0,0,1-.08.41A.93.93,0,0,1,89.67,22.78Zm-.42,8.39a.22.22,0,0,1-.2.09.31.31,0,0,0,.15-.09L88.76,31a.53.53,0,0,0,.2,0A1.63,1.63,0,0,1,89.25,31.17ZM88.44,25l.22.07a.45.45,0,0,1,.16.17c-.1.15-.2.22-.31.22a.44.44,0,0,1-.24-.16Z"/><path d="M45.19,26.25q0,.13,0,.29l.1-.12Z" style="fill:#ec1c24"/><path d="M59.84,21.43v5.76l.22-.08h.45a.19.19,0,0,1,0-.06.89.89,0,0,1,.05-.21h.21l-.1.27a9.76,9.76,0,0,1,1.12.09q-.59,0-1.95.12v.19a2.2,2.2,0,0,1,.34.12h0a.16.16,0,0,0,.11-.05,1.15,1.15,0,0,0,.14.36,3.16,3.16,0,0,1-.09.44,2.06,2.06,0,0,1-.2.37,2.36,2.36,0,0,1,.07-.66.86.86,0,0,1-.34-.07l-.07-.09a1.07,1.07,0,0,1-.47,1v2.44h8.78l-.3-.31.08,0a1.42,1.42,0,0,1,.1-.54.4.4,0,0,1,.07.23A1.46,1.46,0,0,1,68,31l.17-.08a.94.94,0,0,1,.07-.37.34.34,0,0,0,.22-.07,1.69,1.69,0,0,0,.73.29.31.31,0,0,0-.08-.23.29.29,0,0,1-.21-.07l.51-.19V30l-.15.09a.77.77,0,0,0,.12-.2s0-.06,0-.09l.07,0V27.21l0,0a1.57,1.57,0,0,0-.41-.3.41.41,0,0,0,.3-.09l.14.14V24.71H65.61v.17l.18,0h-.18v1.31a2.2,2.2,0,0,0,.59-.49h.4a7.15,7.15,0,0,0,.41.7h-.7l-.38-.06a.76.76,0,0,0-.22.06v-.05a.28.28,0,0,0-.08-.13v.56l.09,0c0,.25.08.49.12.74a1.8,1.8,0,0,0,.19.68,3.53,3.53,0,0,0,.58.17,2.65,2.65,0,0,0,.42-.07.63.63,0,0,0,.08-.21,1.2,1.2,0,0,0-.08-.29c.07,0,.17-.07.3-.21a.38.38,0,0,0-.11-.3,4.87,4.87,0,0,1-1.2-.11,1.05,1.05,0,0,1,.56-.37l.65-.23a2.5,2.5,0,0,1,.17.48.79.79,0,0,1-.07.32.41.41,0,0,1,.3.11,1.23,1.23,0,0,1-.41.32,1.73,1.73,0,0,1,.61.2,2.56,2.56,0,0,0-.5.2,2.05,2.05,0,0,0,.41.2,11.75,11.75,0,0,0-1.33.2c-.06,0-.16-.06-.3-.19a2.72,2.72,0,0,1-.4.19l-.41-.2.41-.2L65.5,28c-.12.3-.39.49-1,.49h-.42V24.91h-.28a.79.79,0,0,0,.28-.07V22l-.33-.14.33.1v-.5c0-.51,0-1,.46-1.35V17.64H59.38v2.44C59.89,20.4,59.84,20.91,59.84,21.43Zm-.37,7.67v-.15l0,.05.11.09ZM61.3,27.9a.3.3,0,0,1-.08.23A.31.31,0,0,1,61.3,27.9Zm-.55,1.44.24-.29s.06,0,.11,0A1.15,1.15,0,0,1,60.75,29.35Zm.39-.32a.11.11,0,0,1,.07,0,.12.12,0,0,1,.08,0Zm-.39-.28a1.13,1.13,0,0,0,.27-.35.8.8,0,0,0,.17.12l.25.13A2.08,2.08,0,0,0,60.75,28.75Zm.92-1.22h-.15a.4.4,0,0,0,.05-.15.5.5,0,0,0-.05-.16h.15Zm7.6-2.5h.07a.23.23,0,0,1-.15.08h-.05A.27.27,0,0,1,69.28,25Zm0,4.28a.54.54,0,0,1-.07.17.35.35,0,0,1-.15.12.94.94,0,0,1,.07-.37h.05A.29.29,0,0,1,69.23,29.32Zm-.15-1-.28.14C68.84,28.41,68.94,28.37,69.09,28.37Zm-.25-.12a.15.15,0,0,1-.07.11.74.74,0,0,1-.37-.08l.15-.14a.66.66,0,0,1,.3.08Zm0-3.44,0,.07a.32.32,0,0,1-.09.15.82.82,0,0,1-.4-.11A1.08,1.08,0,0,0,68.84,24.81Zm0,.61h-.21a.15.15,0,0,1,.1-.05A.16.16,0,0,1,68.84,25.42Zm0,1.11a2.52,2.52,0,0,0-.51.2A.71.71,0,0,1,68.84,26.53Zm-.9-1.38A.34.34,0,0,1,68,25a.36.36,0,0,1,.2.09.4.4,0,0,0-.3.11Zm-.81.2a3.07,3.07,0,0,1-.74-.3h0l.11-.07.66.34S67.17,25.36,67.13,25.36Zm-6.36,1a.25.25,0,0,1,.23-.15A.25.25,0,0,1,60.77,26.32Zm0-1,.15-.15v.15Zm2.75,2.87h0l0,0,0,0h0l0,0Zm0-3.69s-.07-.06-.07-.08a.49.49,0,0,1,.07-.15.3.3,0,0,1,.22.08C63.64,24.32,63.56,24.36,63.48,24.46Zm.36-5.58h-.16a.29.29,0,0,1-.21-.08.42.42,0,0,1,.29-.21A.56.56,0,0,0,63.84,18.88Zm-.4-1s.06,0,.11-.07c0,.22,0,.33,0,.33s0,0-.05,0a.3.3,0,0,0-.07-.21Zm-.33-.13c-.06,0-.14,0-.23.14a2.35,2.35,0,0,0,.2.33l0,0v0l.15.21h-.15v-.21l0,0c-.09-.07-.2-.18-.35-.33A.5.5,0,0,1,63.11,17.72Zm-.84,2.58a.11.11,0,0,1,.08,0h-.15A.1.1,0,0,1,62.28,20.3Zm0,8a.3.3,0,0,0-.22.08L62,28.27l.2-.05A.15.15,0,0,1,62.27,28.27Zm-.15-4.34h-.37v0a.44.44,0,0,0-.06-.11A2.1,2.1,0,0,1,62.12,23.93Zm-.55-6.2h0a.19.19,0,0,1-.11.05h-.05A.19.19,0,0,1,61.58,17.73Zm-.11,1h.16l-.16.15Zm-.28-1a.11.11,0,0,1,.07,0h-.15A.11.11,0,0,1,61.19,17.74Zm-.35,1.93,0,.05.11.11-.05,0-.09.1h-.05a.11.11,0,0,1-.09-.07C60.7,19.85,60.75,19.77,60.85,19.68Zm.17.88a.27.27,0,0,0,.16.25.3.3,0,0,0-.24.09c-.06,0-.15-.06-.26-.17A.35.35,0,0,1,61,20.55ZM59.5,18.38a.32.32,0,0,1,.12-.08v0a.33.33,0,0,0,.05.11h-.14S59.49,18.39,59.5,18.38Z"/><path d="M85.37,43.4c-.07,0-.12,0-.15,0s0,0,0,0Z"/><path d="M32.81,21.43V27.6c0,.51,0,1-.46,1.35v.86h.09l.06.05.11.09v.66l-.25.22v.55h4.23V28.95c-.51-.32-.46-.83-.46-1.35v-.3l-.09,0a.5.5,0,0,1-.19-.05s.05-.12.16-.32h.12v-3h0l.35,1.32L37,25c.05,0,.13.05.24.16a2.2,2.2,0,0,1-.08.64l-.36.13-.07,0,1.42,5.43h1.35l1.86-7.47h0V27.6c0,.51,0,1-.46,1.35v2.44h.74a3.94,3.94,0,0,0-.06-.75l-.3-.23c-.06-.13-.16-.33-.3-.6v-.05a.44.44,0,0,1,.07-.1,5.16,5.16,0,0,0,.6.68c0,.25.13.6.24,1.05h2.05a3.23,3.23,0,0,1-.07-.47,1.81,1.81,0,0,1,.08-.42,3.55,3.55,0,0,1,1,.09l.17-.2.25-.32a.38.38,0,0,1-.33-.12l.07-.07.15-.19c0-.07-.08-.19-.23-.37l.21-.52h-.35l-.1.19q-.17.36-.4.74l-.15.14a1.22,1.22,0,0,1-.06.22.88.88,0,0,0,0-.13,2.67,2.67,0,0,1-.31.25l0,0H43.5a1.4,1.4,0,0,1-.23-.23q.05-.45.11-1l.12-1a1.86,1.86,0,0,0,.14.31,1.48,1.48,0,0,0,.42.12l.44.05c.12-.24.21-.41.28-.53a.36.36,0,0,0-.07-.24,6,6,0,0,1-.68-.23.48.48,0,0,0,.09-.28.48.48,0,0,1,.05-.24h.6a.3.3,0,0,1,.08-.23l-.39-.07a2.22,2.22,0,0,1-.37-.07,1,1,0,0,0,0-.29l0,0s-.1,0-.21,0a.63.63,0,0,1,.11-.21.41.41,0,0,1,.21-.05l0,.11a2.59,2.59,0,0,1,.61.06,6.78,6.78,0,0,0-.3-1.43l-1.06-1.06h0a1.2,1.2,0,0,1-.15.38H43a1.1,1.1,0,0,0,0-.33.14.14,0,0,1,0-.06l0,.06a.8.8,0,0,0,.13.17,1.05,1.05,0,0,0,.15-.58h-.07l-.85-.32a3.89,3.89,0,0,1-.81-.44l.7.23.74.22a.85.85,0,0,0,.14.21.68.68,0,0,0,.22.09h0a.29.29,0,0,0,.21,0l.65-.12a1.43,1.43,0,0,0,.05.33,1.48,1.48,0,0,1,.05.31.85.85,0,0,1,0,.2.3.3,0,0,0-.2,0l.31.28a.37.37,0,0,1,.2,0,.24.24,0,0,1-.17.07l.09.09.09.08c.1.19.22.38.33.57l.2.33a6.08,6.08,0,0,1,.28-.59q.11,1.34.12,1.6a2.34,2.34,0,0,1-.07.54.46.46,0,0,0-.06-.17v0c-.07.36-.15.79-.22,1.28l0,.09a1.36,1.36,0,0,0,.35.27,2.77,2.77,0,0,0,.07.6l.17.66v1.45h.28V28.95a1.07,1.07,0,0,1-.47-1h0a.27.27,0,0,0-.15.12.91.91,0,0,1,.09-.21s0,0,.07,0,0-.18,0-.27V23.35a1.47,1.47,0,0,1,0,.15.81.81,0,0,1-.08-.34c0-.23,0-.37,0-.41a1.74,1.74,0,0,1,.09-.64c0,.27.05.49.07.66V21.43c0-.51,0-1,.46-1.35V17.64H40.64l-1.26,4.92.52,0a6.23,6.23,0,0,1,1.13.16l-1.7.1-.13.5h0L39,22.79H39a1,1,0,0,1-.44-.05,2.83,2.83,0,0,1,.47-.12l-1.25-5H33.16a1.75,1.75,0,0,0,.15.41.74.74,0,0,1,.32.08v.56a2.16,2.16,0,0,0-.4.16l.32.32a.33.33,0,0,1-.08.24,1.16,1.16,0,0,0-.48.08,1.36,1.36,0,0,1-.4-.16l.4-.79-.56-.4.28-.11a.51.51,0,0,0,.2-.21l-.05,0-.11-.12h-.4v2.44C32.86,20.4,32.81,20.91,32.81,21.43Zm3.63,7.8.06.07h0l-.07-.07ZM44,24.61a.32.32,0,0,1-.24.08A.32.32,0,0,1,44,24.61ZM43.72,26a.34.34,0,0,0,.07.23l0,0-.11.11A.79.79,0,0,1,43.72,26Zm-1.3-1.22a.11.11,0,0,0,.09-.06v.05a.26.26,0,0,0,.07.09.35.35,0,0,1-.23-.07Zm-.73-1.28h.23a1.47,1.47,0,0,1-.14.31h-.05a.29.29,0,0,1-.11-.08A.31.31,0,0,1,41.7,23.47Zm3.72,1.17h0Zm-.13-6.19v.08a.33.33,0,0,0,.11.17l-.33,0L45,18.63l-.16-.17Zm-.73,5.18h0l.1.05h0a2.67,2.67,0,0,0-.14.31,1,1,0,0,0,0-.21A.6.6,0,0,0,44.56,23.63Zm-3-.22a1.24,1.24,0,0,1-.16.37h0a.21.21,0,0,1-.11-.08c-.05,0-.13,0-.23-.14A3.3,3.3,0,0,0,41.55,23.4Zm-1.14.07a.25.25,0,0,1,.24.16l-.05.05-.11.09h-.05a.23.23,0,0,1-.09-.08A.34.34,0,0,1,40.41,23.47Zm-1.83,7.06s.06,0,.09,0l-.23.23h0a.15.15,0,0,1-.11-.07Zm-1.26-6.68s-.05-.05,0-.05l.19.05Zm.74.88a1.17,1.17,0,0,0-.48.08,2.36,2.36,0,0,1,.16-.55A.86.86,0,0,1,38.07,24.73Zm-.48-2.23a.32.32,0,0,1,.24.08,1.87,1.87,0,0,0-.54.07h0ZM36,25.44H36l-.15-.15A.23.23,0,0,1,36,25.44Zm-.6-1.19.23-.05a.51.51,0,0,1,.17.05,1.69,1.69,0,0,0,.08.55l-.28.07s0,0,0-.07a.33.33,0,0,1-.24-.08A1.06,1.06,0,0,1,35.44,24.25Zm.39,2.33v.05a.14.14,0,0,1-.07.1,1,1,0,0,1-.45-.08A1.51,1.51,0,0,0,35.83,26.58Zm-1-.77s0-.05,0-.05l.13.05ZM34.73,24a.59.59,0,0,0,.11-.11v.05a.11.11,0,0,0,.06.09h-.22Zm-1,.87.2.05h-.16S33.73,24.83,33.75,24.83Z"/><path d="M44.18,29.09h0Z" style="fill:#ec1c24"/><path d="M91.58,20.22l0-.05a.3.3,0,0,1-.09-.24.15.15,0,0,1-.1.07h-.06a.25.25,0,0,1,.08.12l0,0v.17Z" style="fill:#ec1c24"/><path d="M75.33,31.55l0,.05.05,0h-.07Z" style="fill:#ec1c24"/><path d="M50.81,23.55s-.07.08-.07.1v0a.16.16,0,0,0,.06-.09Z" style="fill:#ec1c24"/><path d="M81.77,46.57c-.06-.13-.12-.27-.2-.42a1.38,1.38,0,0,1,.31,0A6.25,6.25,0,0,0,82,45,4,4,0,0,0,81.48,43l-.11.05c-.07,0-.17-.07-.3-.2l.07-.06.11-.12a2.49,2.49,0,0,0-1.65-.84v0a2.94,2.94,0,0,0,1.48-.89l-.2-.22-.08,0-.07,0h-.05a.22.22,0,0,1-.11-.06l-.05.05-.11.11a2.39,2.39,0,0,1-.16-.32h-.49a1.81,1.81,0,0,1-.33.48l-.16-.16-.49.25a.8.8,0,0,0-.08-.33,7.1,7.1,0,0,0,.81-.16,1,1,0,0,1-.29-.05l-.36-.11c.06,0,.34-.05.83-.16a.38.38,0,0,0-.07-.24l.19.15.22.17v-.05a.15.15,0,0,1,.07-.11c-.17-.32-.44-.78-.82-1.4a.34.34,0,0,1,.08-.25.41.41,0,0,0,.26-.08,3.79,3.79,0,0,0,.42.24l.47.25h.74l.05-.05.11-.11v.06a.31.31,0,0,1-.06.1l.33.12.1.05c0-.11,0-.22,0-.34a3.23,3.23,0,0,0-1.36-2.92,4.4,4.4,0,0,0-2.13-.54l0,0a1.66,1.66,0,0,0,.15.4l.69.22a4.93,4.93,0,0,1-.31.61l.28.17.33.21H79a1.65,1.65,0,0,1-.76-.39.92.92,0,0,0-.4.08,4.17,4.17,0,0,0-.06-.85,3.51,3.51,0,0,0,.22-.5h-.76a2.51,2.51,0,0,1-.54.19.31.31,0,0,0,.08.24l-1.14.46-.16-.16a6.66,6.66,0,0,1,1.24-.73H71v2.44c.48.21.53.63.55,1.09v6.64a.71.71,0,0,1,0-.12h.21v.4a.4.4,0,0,0-.28.08.86.86,0,0,1-.52.77v2.44H74l0-.16c.06.1.11.15.17.16h3.2A6.93,6.93,0,0,0,80,48.6v0l0,0a3.11,3.11,0,0,0,.79-.47A3,3,0,0,0,81.77,46.57Zm-.62.08.09.09a.18.18,0,0,0-.13,0,0,0,0,0,1,0,0S81.1,46.69,81.15,46.65Zm-.58-8.08a.29.29,0,0,1,.08-.1v.05a.22.22,0,0,0,.06.11h-.14Zm-1-1.76.14,0h-.23Zm-.65,1.62a.69.69,0,0,0,.09-.12h.06a.26.26,0,0,1,.11.07l0,.05-.12.11h0l-.11-.07Zm-7.45-.58.12-.07s0,0,.09.07Zm7.7,5.81h-.24l.2-.09v0Zm-.73-5.47.21.12a.8.8,0,0,1-.39-.08A.31.31,0,0,1,78.45,38.19Zm.19,2.39h-.21c0-.05,0-.08,0-.08Zm-.4,1h.24c0,.14.08.35.13.62a.27.27,0,0,1-.22.09.68.68,0,0,1-.15-.23.54.54,0,0,0,0-.16S78.27,41.73,78.24,41.56Zm.15.86a1,1,0,0,0,.33-.05l.09.11.13.13a2.64,2.64,0,0,1-.1.35.66.66,0,0,1-.37.09.71.71,0,0,0-.09-.21l-.15-.23A.85.85,0,0,0,78.39,42.42Zm-.88-6.87V35.4h.16a1.67,1.67,0,0,0-.22.38l-.31-.16A.72.72,0,0,0,77.51,35.55Zm-.83,1.15a.61.61,0,0,1,.29.08.83.83,0,0,0-.37.08l-.05-.08Zm.83,2.59c0,1-.48,1.23-1.43,1.23h-.29V38.05h.29C77,38.05,77.51,38.28,77.51,39.29Zm-5.44-1.52a.3.3,0,0,1-.22.08A.31.31,0,0,1,72.07,37.77Zm-.21,8.38v-.2h.31A.33.33,0,0,1,71.86,46.15Zm2.23-3.32a1.94,1.94,0,0,1-.13.29h-.23l-.22-.24a3.53,3.53,0,0,1,.53-.23A.27.27,0,0,1,74.09,42.83Zm0-.65h0a.12.12,0,0,1-.07,0V42a.25.25,0,0,1,.15.09v0A.09.09,0,0,1,74.1,42.18Zm.15,1.52h0l-.07,0C74.24,43.66,74.27,43.67,74.24,43.7Zm0,4.33v0a.08.08,0,0,0,0-.07s.07,0,.13.09Zm.09-4.09h0a.1.1,0,0,1-.06,0,2.6,2.6,0,0,0,.29-.24A.69.69,0,0,1,74.28,43.94Zm.13-1.38h0l.07,0h0Zm0-2.66-.16-.29c.06,0,.16.14.32.29Zm-.08-.45h0a.17.17,0,0,1-.12-.07.93.93,0,0,0,.24-.3l.05.05.11.09A3.27,3.27,0,0,1,74.36,39.45Zm.51,3.68a.13.13,0,0,1,0-.07v0s.06,0,.06.07Zm0-4.81.26.06H74.9S74.86,38.32,74.87,38.32Zm.27,10.39a.08.08,0,0,1,0,.07h0l-.07,0a.15.15,0,0,0,.13-.05Zm.24-2-.06,0a.37.37,0,0,1-.18-.05v0s0,0,0-.07l.19.09Zm.2.37-.06,0v0l0-.07h-.09v-.09a1,1,0,0,1,.15.15Zm.12-10.66-.11-.11h.06a.25.25,0,0,0,.09-.07l.16.14-.05,0-.11.07Zm.06,12.27a.25.25,0,0,1,.15,0A.26.26,0,0,1,75.77,48.69Zm1-.07.07.07a.19.19,0,0,0-.14.05l-.19-.09a.7.7,0,0,0,.15-.2h.19s0,.08-.09.15Zm.49-2a.55.55,0,0,1,.16-.18A1.51,1.51,0,0,1,77.24,46.6Zm-1.08-.51h-.37v-3h.37c1,0,1.41.42,1.41,1.47S77.2,46.09,76.16,46.09Zm1.35-7.93.45.24a2.22,2.22,0,0,1,0,.41l-.05,0c0-.07-.07-.18-.22-.34S77.47,38.19,77.51,38.15Zm.31,9.77v0a.14.14,0,0,1,0,.11Zm.78,0-.16,0a.15.15,0,0,1,.09,0l.13,0Zm.4.21a.35.35,0,0,1,.19.06A.38.38,0,0,1,79,48.17Zm0-2.63a1,1,0,0,0-.51.11.68.68,0,0,1,0,.3.56.56,0,0,0,.06.31.36.36,0,0,0-.07.21,1.58,1.58,0,0,0,.16.29h-.2l-.7-.5a1.22,1.22,0,0,0,.05-.52,2.65,2.65,0,0,1,0-.6s.27-.06.72-.19a2.62,2.62,0,0,1,.45-.45,2.77,2.77,0,0,0,.46-.46h.2a.91.91,0,0,1-.11.4c.08.31.22.79.41,1.41C79.62,45.7,79.28,45.6,79,45.54Zm1.13,1.31a2.69,2.69,0,0,1,.09.71A2.36,2.36,0,0,1,80.16,46.85Zm.22-1.49a.24.24,0,0,0-.13.09c-.05-.05-.07-.08-.05-.09l.25,0Zm.42-.59a.31.31,0,0,0-.21.06,3.64,3.64,0,0,1,.07-.76h0a.21.21,0,0,0,.1-.06,1.49,1.49,0,0,1,0,.29C80.85,44.36,80.84,44.52,80.81,44.77Z"/><path d="M81.17,40.59H81a.15.15,0,0,0,.11.05A.15.15,0,0,0,81.17,40.59Z" style="fill:#ec1c24"/><path d="M76.53,30a.77.77,0,0,0,.3-.08v-.14h0C76.72,29.94,76.63,30,76.53,30Z" style="fill:#ec1c24"/><path d="M76.61,30.09l.16-.05Z" style="fill:#ec1c24"/></g></g></svg>