<svg xmlns="http://www.w3.org/2000/svg" viewBox="0 0 74 74.3"><defs><style>.cls-1{fill:#0957a5;}</style></defs><title>Asset 1</title><g id="Layer_2" data-name="Layer 2"><g id="Layer_1-2" data-name="Layer 1"><path class="cls-1" d="M45.6,9.3c9.1,0,14.3,3.5,20.5,9.4a4.38,4.38,0,0,0,3.2,1.5A4.83,4.83,0,0,0,72.5,19,4.38,4.38,0,0,0,74,15.8a4.83,4.83,0,0,0-1.2-3.2C66.6,6.2,58.7,0,45.7,0A36.88,36.88,0,0,0,10.4,25.9H4.7A4.69,4.69,0,0,0,0,30.6a4.57,4.57,0,0,0,4.7,4.7H8.9v2a25.49,25.49,0,0,0,.2,3.9H4.9A4.69,4.69,0,0,0,.2,45.9a4.57,4.57,0,0,0,4.7,4.7h6.4A36.84,36.84,0,0,0,45.8,74.3c13.1,0,21-6.2,26.9-12.1A4.05,4.05,0,0,0,73.9,59a3.93,3.93,0,0,0-1.5-3.2,5.5,5.5,0,0,0-3.2-1.2h0A3.93,3.93,0,0,0,66,56.1c-5.9,5.9-11.3,9.4-20.5,9.4A27.49,27.49,0,0,1,21.1,50.9H47.5a4.69,4.69,0,0,0,4.7-4.7,4.57,4.57,0,0,0-4.7-4.7H18a25.49,25.49,0,0,1-.2-3.9v-2H47.6a4.69,4.69,0,0,0,4.7-4.7,4.57,4.57,0,0,0-4.7-4.7H20.2A27.82,27.82,0,0,1,45.6,9.3Z"/></g></g></svg>