<svg xmlns="http://www.w3.org/2000/svg" viewBox="0 0 1071.07 59.8"><title>Asset 1</title><g id="Layer_2" data-name="Layer 2"><g id="Layer_1-2" data-name="Layer 1"><path d="M667.89,100.67a.74.74,0,0,1-.62,1.24H655c-.31,0-.41-.21-.62-.41l-3.41-3.31a.82.82,0,0,1-.1-1.14l1.24-1.34V46.25l-1.24-1.45a.66.66,0,0,1,.52-1.14h29.59a1.12,1.12,0,0,1,.72.31l3.41,3.52a.54.54,0,0,1,.21.41V58.25c0,.62-.62,1.24-1.24.62l-1.24-1.24H666.65v7.66h8.48l1.24-1.34a.78.78,0,0,1,.83-.1c.31.1.41.31,3.41,3.52a1.86,1.86,0,0,1,.62,1V80a.75.75,0,0,1-1.24.52l-1.24-1.14h-12.1v20Z" transform="translate(0 -42.94)" style="fill:#a0d7c6"/><path d="M726.35,86.6c.21-.21.62-.21,1,.1l3.21,3a1.21,1.21,0,0,1,.52,1.14v10.35a.68.68,0,0,1-.62.72H700.9c-.52,0-.72-.31-1-.62l-3-3a.94.94,0,0,1-.1-1.24L698,95.7V46.25l-1.24-1.35c-.41-.52-.21-1.14.52-1.14h12.31c.52,0,.72.31,1,.62l3.1,3.21c.31.31.41.62.1.93l-1.34,1.34v38H725Z" transform="translate(0 -42.94)" style="fill:#a0d7c6"/><path d="M742.69,44.8c-.41-.52-.21-1.14.52-1.14h12.31a.88.88,0,0,1,.62.21l3.72,3.72a.64.64,0,0,1-.1.83l-1.24,1.45v32.9a12.44,12.44,0,0,0,.72,4.76,10.68,10.68,0,0,0,3.1.41h1c5.07,0,7.45-3.52,7.45-8.79V46.25l-1.34-1.45a.69.69,0,0,1,.52-1.14h12.52a1,1,0,0,1,.72.41l3.52,3.62a.51.51,0,0,1-.1.72l-1.35,1.45V85.46c0,11.9-6.52,17.28-18.83,17.28-8.17,0-14.79-2.9-19.66-9.83-2-2.69-2.9-6.31-2.9-11.07V46.25Z" transform="translate(0 -42.94)" style="fill:#a0d7c6"/><path d="M839.43,65.39a.74.74,0,0,1-.83.72H827.74a.92.92,0,0,1-.83-.41l-3.62-3.62a.86.86,0,0,1,.21-.83L824.84,60a8.81,8.81,0,0,0-.62-1.76,7.71,7.71,0,0,0-3.21-.62h-1c-2.69,0-4.55.72-5.79,2.38s-1.55,3.62-1.55,6.41V82.77a14.85,14.85,0,0,0,.72,4.76,9.56,9.56,0,0,0,3,.41h1c4,0,6.41-2.28,7.14-5.9h-2.79l-1.34,1.24a.51.51,0,0,1-.72.1l-3.83-3.52a1.32,1.32,0,0,1-.41-.72V69a.93.93,0,0,1,.93-.93H835a1.11,1.11,0,0,1,.62.21c.21.21.21.31,3.41,3.52.21.21.41.41.41.62v13c0,12.1-6.52,17.28-18.83,17.28-9.62,0-14.48-3.41-19.35-9.41-2.17-2.69-3.31-6.41-3.31-11.48V60c0-12,6.72-17.07,19-17.07,6,0,11.07,1.14,14.28,4.24,4.66,4.45,8.17,7.55,8.17,16.45Z" transform="translate(0 -42.94)" style="fill:#a0d7c6"/><path d="M866.53,99.32l1.34,1.35a.77.77,0,0,1-.62,1.24H854.95a1.58,1.58,0,0,1-1-.62l-3-3.1c-.31-.31-.52-.72-.1-1.14L852,95.7V46.25l-1.24-1.45a.66.66,0,0,1,.52-1.14h17.48c4.14,0,7.55,1,10,3.1a40,40,0,0,1,5.48,5.59c1.86,2.38,2.9,5.69,2.9,9.83V72.63c0,8.79-5.48,14.79-14.79,14.79h-5.9Zm0-25.86c3.52-.52,6.21-2.28,6.21-6.93V61a10.41,10.41,0,0,0-.31-2.79,14.91,14.91,0,0,0-4.55-.52h-1.34Z" transform="translate(0 -42.94)" style="fill:#a0d7c6"/><path d="M928.4,86.6c.21-.21.62-.21,1,.1l3.21,3a1.21,1.21,0,0,1,.52,1.14v10.35a.68.68,0,0,1-.62.72H903c-.52,0-.72-.31-1-.62l-3-3a.94.94,0,0,1-.1-1.24l1.24-1.34V46.25l-1.24-1.35c-.41-.52-.21-1.14.52-1.14h12.31c.52,0,.72.31,1,.62l3.1,3.21c.31.31.41.62.1.93l-1.34,1.34v38h12.52Z" transform="translate(0 -42.94)" style="fill:#a0d7c6"/><path d="M935.65,98a.77.77,0,0,1,.1-.93L937,95.7l13.35-49.56-.83-1.34c-.31-.52-.1-1.14.72-1.14h12.93a.89.89,0,0,1,.62.31l3.62,3.72a.5.5,0,0,1,0,.72l-.93,1.35,13.35,49.55,1.45,1.35a.8.8,0,0,1-.62,1.24H968.13c-.31,0-.41-.21-.62-.41L964,98a.8.8,0,0,1,.1-.93l1.24-1.24-1.66-6h-9.52l-2.59,9.62,1.24,1.24a.77.77,0,0,1-.62,1.24H939.89c-.31,0-.52-.21-.83-.52Zm23.28-26.07-1.14,4h2.28Z" transform="translate(0 -42.94)" style="fill:#a0d7c6"/><path d="M983.65,55.35a1,1,0,0,1-.41-.72V44.49a.89.89,0,0,1,.83-.83h34.35a.94.94,0,0,1,.72.31l3.41,3.31a1.18,1.18,0,0,1,.31.83V58.25c0,.62-.83,1-1.24.62l-1.34-1.24h-9.93V99.32l1.24,1.35a.72.72,0,0,1-.52,1.24H998.65a1,1,0,0,1-.72-.41l-3.31-3.31a.82.82,0,0,1-.1-1.14l1.24-1.34V57.63h-6.31l-1.24,1.24c-.21.21-.52.31-.72.1Z" transform="translate(0 -42.94)" style="fill:#a0d7c6"/><path d="M1034.35,55.56a1.39,1.39,0,0,1-.52-.93V44.39a.8.8,0,0,1,.83-.72h32.07a.79.79,0,0,1,.52.21l3.52,3.62c.21.21.21.31.21.41v9.31a.38.38,0,0,1-.1.31L1053,87.94h12l1.35-1.24a.8.8,0,0,1,1,.1c.1.1.1.21,3.41,3.52a.74.74,0,0,1,.31.62v10.24a.7.7,0,0,1-.72.72h-32a.79.79,0,0,1-.52-.21l-3.62-3.62a.79.79,0,0,1-.21-.52V88.35a.8.8,0,0,1,.1-.31l17.79-30.42H1040l-1.24,1.24a.7.7,0,0,1-1,.1Z" transform="translate(0 -42.94)" style="fill:#a0d7c6"/><path d="M664.27,97a.74.74,0,0,1-.62,1.24H651.34a.74.74,0,0,1-.52-1.24l1.24-1.34V46.25l-1.24-1.45a.66.66,0,0,1,.52-1.14h29.59a.69.69,0,0,1,.72.62V54.63c0,.62-.62,1.24-1.24.62L679.17,54H663V65.28h12.1l1.24-1.34c.31-.41,1.24-.1,1.24.52v11.9a.75.75,0,0,1-1.24.52l-1.24-1.14H663v20Z" transform="translate(0 -42.94)" style="fill:#3f56a4"/><path d="M726.35,86.6a.72.72,0,0,1,1.14.62V97.56a.68.68,0,0,1-.62.72H697.28a.74.74,0,0,1-.52-1.24L698,95.7V46.15l-1.24-1.34c-.41-.52-.21-1.14.52-1.14h12.31c.72,0,1,.72.62,1.14l-1.34,1.34V87.84H725Z" transform="translate(0 -42.94)" style="fill:#3f56a4"/><path d="M742.69,44.8c-.41-.52-.21-1.14.52-1.14h12.31c.83,0,1,.72.62,1.14l-1.24,1.45v32.9c0,7.24,4,8.79,7.45,8.79h1c5.07,0,7.45-3.52,7.45-8.79V46.25l-1.34-1.45a.69.69,0,0,1,.52-1.14h12.52A.7.7,0,0,1,783,44.8l-1.34,1.45V81.84c0,11.9-6.52,17.28-18.83,17.28-11.69,0-18.93-4.66-18.93-17.28V46.25Z" transform="translate(0 -42.94)" style="fill:#3f56a4"/><path d="M835.81,61.77a.74.74,0,0,1-.83.72H824.12c-.72,0-1.14-.72-.62-1.24L824.84,60c-.83-3.62-3.21-6-7.45-6h-1c-2.69,0-4.55.72-5.79,2.38S809,60,809,62.8V79.15c0,7.24,3.93,8.79,7.34,8.79h1c5.07,0,7.45-3.52,7.45-8.79v-.72h-6.72l-1.34,1.24a.87.87,0,0,1-1.34-.52V69a.93.93,0,0,1,.93-.93H835a.8.8,0,0,1,.83.72v13c0,12.1-6.52,17.28-18.83,17.28-11.48,0-19-4.55-19-17.28V60c0-12,6.72-17.07,19-17.07,11.59,0,18.83,4.45,18.83,17.07Z" transform="translate(0 -42.94)" style="fill:#3f56a4"/><path d="M862.91,95.7,864.26,97a.77.77,0,0,1-.62,1.24H851.33a.72.72,0,0,1-.52-1.24L852,95.7V46.25l-1.24-1.45a.66.66,0,0,1,.52-1.14h17.48c9.21,0,14.79,5.17,14.79,14.9V69c0,8.79-5.48,14.79-14.79,14.79h-5.9Zm1.34-22.14c4.55,0,8.48-1.45,8.48-7V61c0-5.69-2.69-6.93-8.48-6.93h-1.34V73.56Z" transform="translate(0 -42.94)" style="fill:#3f56a4"/><path d="M928.4,86.6a.72.72,0,0,1,1.14.62V97.56a.68.68,0,0,1-.62.72H899.33a.74.74,0,0,1-.52-1.24l1.24-1.34V46.15l-1.24-1.34c-.41-.52-.21-1.14.52-1.14h12.31c.72,0,1,.72.62,1.14l-1.34,1.34V87.84h16.14Z" transform="translate(0 -42.94)" style="fill:#3f56a4"/><path d="M935.75,97,937,95.7l13.35-49.56-.83-1.34c-.31-.52-.1-1.14.72-1.14h12.93a.74.74,0,0,1,.62,1.14l-.93,1.34L976.2,95.7,977.65,97a.8.8,0,0,1-.62,1.24H964.51a.71.71,0,0,1-.41-1.24l1.24-1.24-2.69-9.62h-12.1L948,95.8,949.2,97a.77.77,0,0,1-.62,1.24H936.27A.72.72,0,0,1,935.75,97Zm24.31-21.1-3.52-12.52-3.31,12.52Z" transform="translate(0 -42.94)" style="fill:#3f56a4"/><path d="M984.58,55.25a.87.87,0,0,1-1.34-.62V44.49a.89.89,0,0,1,.83-.83h34.35a.76.76,0,0,1,.83.83V54.63c0,.62-.83,1-1.24.62L1016.65,54h-9.93V95.7L1008,97a.72.72,0,0,1-.52,1.24H995a.75.75,0,0,1-.52-1.24l1.24-1.34V54h-9.93Z" transform="translate(0 -42.94)" style="fill:#3f56a4"/><path d="M1035.17,55.25a.8.8,0,0,1-1.35-.62V44.39a.8.8,0,0,1,.83-.72h32.07a.64.64,0,0,1,.62.62v9.31a.38.38,0,0,1-.1.31l-20,34H1065l1.34-1.24a.69.69,0,0,1,1.14.62V97.56a.7.7,0,0,1-.72.72h-32a.7.7,0,0,1-.72-.72V88.35a.8.8,0,0,1,.1-.31l20-34h-17.69Z" transform="translate(0 -42.94)" style="fill:#3f56a4"/><path d="M7.35,97.77,3.72,94.15C1.34,91.46,0,87.53,0,81.84V60c0-5.48,1.34-9.41,3.72-12.21,3.21-3.31,8.07-4.86,15.31-4.86s11.9,1.66,15.21,5l3.62,3.62c2.59,2.59,3.62,6.62,3.62,12.1V85.46c0,5.69-1.14,9.62-3.62,12.31-3.21,3.31-8.07,5-15.21,5C15.31,102.73,10.55,101,7.35,97.77ZM26.17,58.15a10.84,10.84,0,0,0-3.1-.52H22c-5.17,0-7.35,3.41-7.35,8.79V82.77a14.85,14.85,0,0,0,.72,4.76,9.56,9.56,0,0,0,3,.41h1c2.69,0,4.66-.72,5.9-2.38a11.53,11.53,0,0,0,1.55-6.41V62.8A14.18,14.18,0,0,0,26.17,58.15Z" transform="translate(0 -42.94)" style="fill:#a1d7c6"/><path d="M82.45,86.6c.21-.21.62-.21,1,.1l3.21,3a1.21,1.21,0,0,1,.52,1.14v10.35a.68.68,0,0,1-.62.72H57c-.52,0-.72-.31-1-.62l-3-3a.94.94,0,0,1-.1-1.24l1.24-1.34V46.25L52.87,44.9c-.41-.52-.21-1.14.52-1.14H65.7c.52,0,.72.31,1,.62l3.1,3.21c.31.31.41.62.1.93l-1.35,1.34v38H81.11Z" transform="translate(0 -42.94)" style="fill:#a1d7c6"/><path d="M98.8,44.8a.66.66,0,0,1,.52-1.14h22.14c5.59,0,9.83,1.55,12.62,4.66,4.24,5.38,7.35,6.93,7.35,15.31V85.56c0,10-5.79,16.35-16.35,16.35H102.94a1,1,0,0,1-.72-.41L98.8,98.08a.69.69,0,0,1,0-1L100,95.7V46.25Zm15.83,12.83V87.94h3.83c5,0,8.48-3.21,8.48-8.48v-17a11.7,11.7,0,0,0-.72-4,10.17,10.17,0,0,0-4.14-.83Z" transform="translate(0 -42.94)" style="fill:#a1d7c6"/><path d="M153,55.35a1,1,0,0,1-.41-.72V44.49a.89.89,0,0,1,.83-.83h34.35a.94.94,0,0,1,.72.31l3.41,3.31a1.17,1.17,0,0,1,.31.83V58.25c0,.62-.83,1-1.24.62l-1.34-1.24h-9.93V99.32l1.24,1.35a.72.72,0,0,1-.52,1.24H168a1,1,0,0,1-.72-.41L164,98.18a.82.82,0,0,1-.1-1.14l1.24-1.34V57.63h-6.31l-1.24,1.24a.51.51,0,0,1-.72.1Z" transform="translate(0 -42.94)" style="fill:#a1d7c6"/><path d="M204.74,95.7V46.25L203.5,44.8a.66.66,0,0,1,.52-1.14h12.31a1.06,1.06,0,0,1,.83.52l3.31,3.31c.31.31.41.62.1.93l-1.35,1.45V99.32l1.35,1.35a.8.8,0,0,1-.62,1.24H207.64c-.31,0-.41-.21-.62-.41l-3.41-3.31a.82.82,0,0,1-.1-1.14Z" transform="translate(0 -42.94)" style="fill:#a1d7c6"/><path d="M233.4,95.7V46.25l-1.24-1.45a.66.66,0,0,1,.52-1.14h11.17a.57.57,0,0,1,.52.31L248,47.59l7.24,9.83L264.33,44a.57.57,0,0,1,.52-.31H276c.62,0,.72.31,1.24.83L279.85,47c.41.41.83.93.31,1.45l-1.24,1.45V99.32l1.24,1.35a.72.72,0,0,1-.52,1.24H267.23a2.2,2.2,0,0,1-1.55-.72L263.4,98.6c-.41-.52-.72-1.14-.31-1.55l1.34-1.34V71.49l-5.9,8.28a.73.73,0,0,1-1.14,0l-3.62-3.62-5.9-7.45V99.32l1.35,1.35a.8.8,0,0,1-.62,1.24H236.3c-.62,0-.72-.31-1.24-.72l-2.59-2.59a1.07,1.07,0,0,1-.31-1.55Z" transform="translate(0 -42.94)" style="fill:#a1d7c6"/><path d="M322,43.66c.41,0,.52.21.83.52l3.31,3.31a1,1,0,0,1,.21.72v10c0,.62-.62,1.24-1.24.62l-1.24-1.24H307.68v7.66h8.48l1.24-1.34a.81.81,0,0,1,1.14,0l3.31,3.41c.21.21.41.31.41.72V80a.75.75,0,0,1-1.24.52l-1.24-1.14h-12.1v8.59H320.2l1.24-1.24a.67.67,0,0,1,.93-.1c.21.1.31.41,3.72,3.83a.79.79,0,0,1,.21.52v10.24a.78.78,0,0,1-.72.72H296c-.21,0-.41-.1-.72-.41L292,98.18a.82.82,0,0,1-.1-1.14l1.24-1.34V46.25l-1.24-1.45a.66.66,0,0,1,.52-1.14Z" transform="translate(0 -42.94)" style="fill:#a1d7c6"/><path d="M337.79,44.8a.66.66,0,0,1,.52-1.14h17.48c4.76,0,8.59,1.24,11.07,3.83L371,51.73c2.17,2.38,3.21,6,3.21,10.45V72.63a17.42,17.42,0,0,1-1.55,7.66,10.51,10.51,0,0,1-5.07,5.28l6.21,13.66,1.45,1.45c.52.31.1,1.24-.62,1.24h-13c-.31,0-.41-.21-.62-.41l-3.41-3.31a.72.72,0,0,1-.1-1.14l1-1.34-3.72-8.28h-1.24v11.9l1.35,1.35c.72.72.31,1.24-.41,1.24H341.93a1.08,1.08,0,0,1-.83-.41l-3.21-3.31a.81.81,0,0,1-.1-1.14L339,95.7V46.25Zm15.73,28.66a8,8,0,0,0,4.35-1.55c1.34-1,1.86-2.69,1.86-5.48V61a11.83,11.83,0,0,0-.31-2.9,17.21,17.21,0,0,0-4.55-.52h-1.35Z" transform="translate(0 -42.94)" style="fill:#a1d7c6"/><path d="M3.72,94.15C1.34,91.46,0,87.53,0,81.84V60c0-5.48,1.34-9.41,3.72-12.21,3.21-3.31,8.07-4.86,15.31-4.86s12.1,1.55,15.21,5c2.48,2.69,3.62,6.62,3.62,12.1V81.84c0,5.69-1.14,9.62-3.62,12.31-3.21,3.31-8.07,5-15.21,5C11.69,99.11,6.83,97.46,3.72,94.15ZM19.45,54h-1c-2.69,0-4.55.72-5.79,2.28S11.07,60,11.07,62.8V79.15c0,7.24,3.93,8.79,7.35,8.79h1c2.69,0,4.66-.72,5.9-2.38a11.53,11.53,0,0,0,1.55-6.41V62.8C26.9,55.46,23,54,19.45,54Z" transform="translate(0 -42.94)" style="fill:#3d56a4"/><path d="M82.45,86.6a.72.72,0,0,1,1.14.62V97.56a.68.68,0,0,1-.62.72H53.38A.74.74,0,0,1,52.87,97l1.24-1.34V46.15L52.87,44.8c-.41-.52-.21-1.14.52-1.14H65.7c.72,0,1,.72.62,1.14L65,46.15V87.84H81.11Z" transform="translate(0 -42.94)" style="fill:#3d56a4"/><path d="M98.8,44.8a.66.66,0,0,1,.52-1.14h22.14c5.59,0,9.83,1.55,12.62,4.66C136.56,51,137.8,55,137.8,60V81.94c0,10-5.79,16.35-16.35,16.35H99.32A.72.72,0,0,1,98.8,97L100,95.7V46.25ZM111,54V87.94h7.45c5,0,8.48-3.21,8.48-8.48v-17c0-5.17-2.69-8.48-8.48-8.48Z" transform="translate(0 -42.94)" style="fill:#3d56a4"/><path d="M153.95,55.25a.87.87,0,0,1-1.34-.62V44.49a.89.89,0,0,1,.83-.83h34.35a.76.76,0,0,1,.83.83V54.63c0,.62-.83,1-1.24.62L186,54h-9.93V95.7L177.33,97a.73.73,0,0,1-.52,1.24H164.39a.75.75,0,0,1-.52-1.24l1.24-1.34V54h-9.93Z" transform="translate(0 -42.94)" style="fill:#3d56a4"/><path d="M204.74,95.7V46.25L203.5,44.8a.66.66,0,0,1,.52-1.14h12.31c.62,0,1,.72.62,1.14l-1.34,1.45V95.7L217,97a.8.8,0,0,1-.62,1.24H204A.74.74,0,0,1,203.5,97Z" transform="translate(0 -42.94)" style="fill:#3d56a4"/><path d="M233.4,95.7V46.25l-1.24-1.45a.66.66,0,0,1,.52-1.14h11.17a.57.57,0,0,1,.52.31L254.82,58,264.33,44a.57.57,0,0,1,.52-.31H276c.62,0,1,.62.52,1.14l-1.24,1.45V95.7L276.54,97a.73.73,0,0,1-.52,1.24H263.61a.75.75,0,0,1-.52-1.24l1.34-1.34v-33l-9.52,13.45a.68.68,0,0,1-1.14,0L244.26,64V95.7L245.61,97a.8.8,0,0,1-.62,1.24H232.68a.74.74,0,0,1-.52-1.24Z" transform="translate(0 -42.94)" style="fill:#3d56a4"/><path d="M292.37,98.29a.74.74,0,0,1-.52-1.24l1.24-1.34V46.25l-1.24-1.45a.66.66,0,0,1,.52-1.14H322a.69.69,0,0,1,.72.62V54.63c0,.62-.62,1.24-1.24.62L320.2,54H304.06V65.28h12.1l1.24-1.34a.71.71,0,0,1,1.24.52v11.9a.75.75,0,0,1-1.24.52l-1.24-1.14h-12.1V87.94H320.2l1.24-1.24c.52-.52,1.24-.1,1.24.62V97.56a.78.78,0,0,1-.72.72Z" transform="translate(0 -42.94)" style="fill:#3d56a4"/><path d="M337.79,44.8a.66.66,0,0,1,.52-1.14h17.48c9.21,0,14.79,5.17,14.79,14.9V69A17.42,17.42,0,0,1,369,76.66,10.51,10.51,0,0,1,364,81.94l6.21,13.66L371.62,97c.52.31.1,1.24-.62,1.24H358a.73.73,0,0,1-.52-1.24l1-1.34L353.1,83.8H349.9V95.7L351.24,97c.72.72.31,1.24-.41,1.24H338.31a.74.74,0,0,1-.52-1.24L339,95.7V46.25Zm13.45,28.76c3.31,0,5.28-.52,6.62-1.66s1.86-2.69,1.86-5.48V61c0-2.9-.52-4.66-1.86-5.59S354.65,54,351.24,54H349.9V73.56Z" transform="translate(0 -42.94)" style="fill:#3d56a4"/><path d="M5.48,77.6a1.14,1.14,0,1,1-1.14,1.14A1.15,1.15,0,0,1,5.48,77.6Zm.1-18.31a1.14,1.14,0,1,1-1.14,1.14A1.15,1.15,0,0,1,5.59,59.28Zm0,3.72a1.14,1.14,0,1,1-1.14,1.14A1.15,1.15,0,0,1,5.59,63Zm0,3.62a1.14,1.14,0,1,1-1.14,1.14A1.15,1.15,0,0,1,5.59,66.63Zm0,3.72a1.14,1.14,0,1,1-1.14,1.14A1.15,1.15,0,0,1,5.59,70.35Zm0,3.62a1.14,1.14,0,1,1-1.14,1.14A1.15,1.15,0,0,1,5.59,74Zm0,7.45a1.14,1.14,0,1,1-1.14,1.14A1.15,1.15,0,0,1,5.59,81.42ZM6,55.66A1.14,1.14,0,1,1,4.86,56.8,1.15,1.15,0,0,1,6,55.66Zm.31,29.28a1.14,1.14,0,1,1-1.14,1.14A1.15,1.15,0,0,1,6.31,84.94Zm.93-32.79A1.14,1.14,0,1,1,6.1,53.28,1.15,1.15,0,0,1,7.24,52.15Zm.83,36a1.14,1.14,0,1,1-1.14,1.14A1.15,1.15,0,0,1,8.07,88.15ZM9.62,49.46a1.14,1.14,0,1,1-1.14,1.14A1.15,1.15,0,0,1,9.62,49.46Zm1.24,41.07a1.14,1.14,0,1,1-1.14,1.14A1.15,1.15,0,0,1,10.86,90.53ZM12.93,47.7a1.14,1.14,0,1,1-1.14,1.14A1.15,1.15,0,0,1,12.93,47.7Zm1.14,44.18A1.14,1.14,0,1,1,12.93,93,1.15,1.15,0,0,1,14.07,91.87Zm2.38-44.8a1.14,1.14,0,1,1-1.14,1.14A1.15,1.15,0,0,1,16.45,47.08Zm1.34,45.31a1.14,1.14,0,1,1-1.14,1.14A1.15,1.15,0,0,1,17.79,92.39Zm2.38-45.31A1.14,1.14,0,1,1,19,48.21,1.15,1.15,0,0,1,20.17,47.08Zm1.35,45.21a1.14,1.14,0,1,1-1.14,1.14A1.15,1.15,0,0,1,21.52,92.29Zm2.28-44.9a1.14,1.14,0,1,1-1.14,1.14A1.15,1.15,0,0,1,23.79,47.39Zm1.34,44.07A1.14,1.14,0,1,1,24,92.6,1.15,1.15,0,0,1,25.14,91.46Zm2.07-42.83a1.14,1.14,0,1,1-1.14,1.14A1.15,1.15,0,0,1,27.21,48.63Zm1,41.07a1.14,1.14,0,1,1-1.14,1.14A1.15,1.15,0,0,1,28.24,89.7ZM30,51a1.14,1.14,0,1,1-1.14,1.14A1.15,1.15,0,0,1,30,51Zm.72,35.9A1.14,1.14,0,1,1,29.59,88,1.15,1.15,0,0,1,30.73,86.91Zm1-32.69a1.14,1.14,0,1,1-1.14,1.14A1.15,1.15,0,0,1,31.76,54.21Zm.31,29.28a1.14,1.14,0,1,1-1.14,1.14A1.15,1.15,0,0,1,32.07,83.49Zm.31-3.62A1.14,1.14,0,1,1,31.24,81,1.15,1.15,0,0,1,32.38,79.87Zm.1-22A1.14,1.14,0,1,1,31.35,59,1.15,1.15,0,0,1,32.48,57.84Zm0,3.72a1.14,1.14,0,1,1-1.14,1.14A1.15,1.15,0,0,1,32.48,61.56Zm0,3.52a1.14,1.14,0,1,1-1.14,1.14A1.15,1.15,0,0,1,32.48,65.08Zm0,3.72a1.14,1.14,0,1,1-1.14,1.14A1.15,1.15,0,0,1,32.48,68.8Zm0,3.72a1.14,1.14,0,1,1-1.14,1.14A1.15,1.15,0,0,1,32.48,72.53Zm0,3.62a1.14,1.14,0,1,1-1.14,1.14A1.15,1.15,0,0,1,32.48,76.15Z" transform="translate(0 -42.94)" style="fill:#fdfefe"/><path d="M59.38,47.59a1.14,1.14,0,1,1-1.14,1.14A1.15,1.15,0,0,1,59.38,47.59Zm0,3.72a1.14,1.14,0,1,1-1.14,1.14A1.15,1.15,0,0,1,59.38,51.32Zm0,3.62a1.14,1.14,0,1,1-1.14,1.14A1.15,1.15,0,0,1,59.38,54.94Zm0,3.83a1.14,1.14,0,1,1-1.14,1.14A1.15,1.15,0,0,1,59.38,58.77Zm0,3.62a1.14,1.14,0,1,1-1.14,1.14A1.15,1.15,0,0,1,59.38,62.39Zm0,3.72a1.14,1.14,0,1,1-1.14,1.14A1.15,1.15,0,0,1,59.38,66.11Zm0,3.72A1.14,1.14,0,1,1,58.25,71,1.15,1.15,0,0,1,59.38,69.84Zm0,3.62a1.14,1.14,0,1,1-1.14,1.14A1.15,1.15,0,0,1,59.38,73.46Zm0,3.83a1.14,1.14,0,1,1-1.14,1.14A1.15,1.15,0,0,1,59.38,77.28Zm0,3.72a1.14,1.14,0,1,1-1.14,1.14A1.15,1.15,0,0,1,59.38,81Zm0,3.72a1.14,1.14,0,1,1-1.14,1.14A1.15,1.15,0,0,1,59.38,84.73Zm0,3.72a1.14,1.14,0,1,1-1.14,1.14A1.15,1.15,0,0,1,59.38,88.46Zm0,3.62a1.14,1.14,0,1,1-1.14,1.14A1.15,1.15,0,0,1,59.38,92.08Zm3.72-.1A1.14,1.14,0,1,1,62,93.11,1.15,1.15,0,0,1,63.11,92Zm3.83,0a1.14,1.14,0,1,1-1.14,1.14A1.15,1.15,0,0,1,66.94,92Zm3.83,0a1.14,1.14,0,1,1-1.14,1.14A1.15,1.15,0,0,1,70.76,92Zm3.83,0a1.14,1.14,0,1,1-1.14,1.14A1.15,1.15,0,0,1,74.59,92Zm3.72,0a1.14,1.14,0,1,1-1.14,1.14A1.15,1.15,0,0,1,78.32,92Z" transform="translate(0 -42.94)" style="fill:#fdfefe"/><path d="M105.53,47.59a1.14,1.14,0,1,1-1.14,1.14A1.15,1.15,0,0,1,105.53,47.59Zm0,3.72a1.14,1.14,0,1,1-1.14,1.14A1.15,1.15,0,0,1,105.53,51.32Zm0,3.62a1.14,1.14,0,1,1-1.14,1.14A1.15,1.15,0,0,1,105.53,54.94Zm0,3.83a1.14,1.14,0,1,1-1.14,1.14A1.15,1.15,0,0,1,105.53,58.77Zm0,3.62a1.14,1.14,0,1,1-1.14,1.14A1.15,1.15,0,0,1,105.53,62.39Zm0,3.72a1.14,1.14,0,1,1-1.14,1.14A1.15,1.15,0,0,1,105.53,66.11Zm0,3.72A1.14,1.14,0,1,1,104.39,71,1.15,1.15,0,0,1,105.53,69.84Zm0,3.62a1.14,1.14,0,1,1-1.14,1.14A1.15,1.15,0,0,1,105.53,73.46Zm0,3.83a1.14,1.14,0,1,1-1.14,1.14A1.15,1.15,0,0,1,105.53,77.28Zm0,3.72a1.14,1.14,0,1,1-1.14,1.14A1.15,1.15,0,0,1,105.53,81Zm0,3.72a1.14,1.14,0,1,1-1.14,1.14A1.15,1.15,0,0,1,105.53,84.73Zm0,3.72a1.14,1.14,0,1,1-1.14,1.14A1.15,1.15,0,0,1,105.53,88.46Zm0,3.62a1.14,1.14,0,1,1-1.14,1.14A1.15,1.15,0,0,1,105.53,92.08Zm3.62-44.49A1.14,1.14,0,1,1,108,48.73,1.15,1.15,0,0,1,109.15,47.59Zm.1,44.49a1.14,1.14,0,1,1-1.14,1.14A1.15,1.15,0,0,1,109.25,92.08Zm3.62-44.49a1.14,1.14,0,1,1-1.14,1.14A1.15,1.15,0,0,1,112.87,47.59Zm0,44.49a1.14,1.14,0,1,1-1.14,1.14A1.15,1.15,0,0,1,112.87,92.08Zm3.62,0a1.14,1.14,0,1,1-1.14,1.14A1.15,1.15,0,0,1,116.49,92.08Zm.1-44.49a1.14,1.14,0,1,1-1.14,1.14A1.15,1.15,0,0,1,116.6,47.59Zm3.62,0a1.14,1.14,0,1,1-1.14,1.14A1.15,1.15,0,0,1,120.22,47.59Zm.1,44.38a1.14,1.14,0,1,1-1.14,1.14A1.15,1.15,0,0,1,120.32,92Zm3.52-43.86a1.14,1.14,0,1,1-1.14,1.14A1.15,1.15,0,0,1,123.84,48.11Zm.1,43.35a1.14,1.14,0,1,1-1.14,1.14A1.15,1.15,0,0,1,123.94,91.46Zm3.31-1.55A1.14,1.14,0,1,1,126.11,91,1.15,1.15,0,0,1,127.25,89.91Zm.1-40.45a1.14,1.14,0,1,1-1.14,1.14A1.15,1.15,0,0,1,127.36,49.46ZM130,51.83A1.14,1.14,0,1,1,128.91,53,1.15,1.15,0,0,1,130,51.83Zm.1,35.8A1.14,1.14,0,1,1,129,88.77,1.15,1.15,0,0,1,130.15,87.63Zm1.55-32.48a1.14,1.14,0,1,1-1.14,1.14A1.15,1.15,0,0,1,131.7,55.15Zm.21,29.38a1.14,1.14,0,1,1-1.14,1.14A1.15,1.15,0,0,1,131.91,84.53Zm.41-25.76a1.14,1.14,0,1,1-1.14,1.14A1.15,1.15,0,0,1,132.32,58.77Zm0,3.62a1.14,1.14,0,1,1-1.14,1.14A1.15,1.15,0,0,1,132.32,62.39Zm0,3.72a1.14,1.14,0,1,1-1.14,1.14A1.15,1.15,0,0,1,132.32,66.11Zm0,3.72A1.14,1.14,0,1,1,131.18,71,1.15,1.15,0,0,1,132.32,69.84Zm0,3.62a1.14,1.14,0,1,1-1.14,1.14A1.15,1.15,0,0,1,132.32,73.46Zm0,3.72a1.14,1.14,0,1,1-1.14,1.14A1.15,1.15,0,0,1,132.32,77.18Zm0,3.72A1.14,1.14,0,1,1,131.18,82,1.15,1.15,0,0,1,132.32,80.91Z" transform="translate(0 -42.94)" style="fill:#fdfefe"/><path d="M158.19,47.59A1.14,1.14,0,1,1,157,48.73,1.15,1.15,0,0,1,158.19,47.59Zm3.41,0a1.14,1.14,0,1,1-1.14,1.14A1.15,1.15,0,0,1,161.6,47.59Zm3.72,0a1.14,1.14,0,1,1-1.14,1.14A1.15,1.15,0,0,1,165.33,47.59Zm3.52,0a1.14,1.14,0,1,1-1.14,1.14A1.15,1.15,0,0,1,168.84,47.59Zm2,3.72a1.14,1.14,0,1,1-1.14,1.14A1.15,1.15,0,0,1,170.81,51.32Zm0,3.62a1.14,1.14,0,1,1-1.14,1.14A1.15,1.15,0,0,1,170.81,54.94Zm0,3.83a1.14,1.14,0,1,1-1.14,1.14A1.15,1.15,0,0,1,170.81,58.77Zm0,3.62a1.14,1.14,0,1,1-1.14,1.14A1.15,1.15,0,0,1,170.81,62.39Zm0,3.72a1.14,1.14,0,1,1-1.14,1.14A1.15,1.15,0,0,1,170.81,66.11Zm0,3.72A1.14,1.14,0,1,1,169.67,71,1.15,1.15,0,0,1,170.81,69.84Zm0,3.62a1.14,1.14,0,1,1-1.14,1.14A1.15,1.15,0,0,1,170.81,73.46Zm0,3.83a1.14,1.14,0,1,1-1.14,1.14A1.15,1.15,0,0,1,170.81,77.28Zm0,3.72a1.14,1.14,0,1,1-1.14,1.14A1.15,1.15,0,0,1,170.81,81Zm0,3.72a1.14,1.14,0,1,1-1.14,1.14A1.15,1.15,0,0,1,170.81,84.73Zm0,3.72a1.14,1.14,0,1,1-1.14,1.14A1.15,1.15,0,0,1,170.81,88.46Zm0,3.62a1.14,1.14,0,1,1-1.14,1.14A1.15,1.15,0,0,1,170.81,92.08Zm1.55-44.49a1.14,1.14,0,1,1-1.14,1.14A1.15,1.15,0,0,1,172.36,47.59Zm3.52,0a1.14,1.14,0,1,1-1.14,1.14A1.15,1.15,0,0,1,175.88,47.59Zm3.52,0a1.14,1.14,0,1,1-1.14,1.14A1.15,1.15,0,0,1,179.4,47.59Zm3.62,0a1.14,1.14,0,1,1-1.14,1.14A1.15,1.15,0,0,1,183,47.59Z" transform="translate(0 -42.94)" style="fill:#fdfefe"/><path d="M210.23,47.59a1.14,1.14,0,1,1-1.14,1.14A1.15,1.15,0,0,1,210.23,47.59Zm0,3.72a1.14,1.14,0,1,1-1.14,1.14A1.15,1.15,0,0,1,210.23,51.32Zm0,3.62a1.14,1.14,0,1,1-1.14,1.14A1.15,1.15,0,0,1,210.23,54.94Zm0,3.83a1.14,1.14,0,1,1-1.14,1.14A1.15,1.15,0,0,1,210.23,58.77Zm0,3.62a1.14,1.14,0,1,1-1.14,1.14A1.15,1.15,0,0,1,210.23,62.39Zm0,3.72a1.14,1.14,0,1,1-1.14,1.14A1.15,1.15,0,0,1,210.23,66.11Zm0,3.72A1.14,1.14,0,1,1,209.09,71,1.15,1.15,0,0,1,210.23,69.84Zm0,3.62a1.14,1.14,0,1,1-1.14,1.14A1.15,1.15,0,0,1,210.23,73.46Zm0,3.83a1.14,1.14,0,1,1-1.14,1.14A1.15,1.15,0,0,1,210.23,77.28Zm0,3.72a1.14,1.14,0,1,1-1.14,1.14A1.15,1.15,0,0,1,210.23,81Zm0,3.72a1.14,1.14,0,1,1-1.14,1.14A1.15,1.15,0,0,1,210.23,84.73Zm0,3.72a1.14,1.14,0,1,1-1.14,1.14A1.15,1.15,0,0,1,210.23,88.46Zm0,3.62a1.14,1.14,0,1,1-1.14,1.14A1.15,1.15,0,0,1,210.23,92.08Z" transform="translate(0 -42.94)" style="fill:#fdfefe"/><path d="M238.78,47.59a1.14,1.14,0,1,1-1.14,1.14A1.15,1.15,0,0,1,238.78,47.59Zm0,3.72a1.14,1.14,0,1,1-1.14,1.14A1.15,1.15,0,0,1,238.78,51.32Zm0,3.62a1.14,1.14,0,1,1-1.14,1.14A1.15,1.15,0,0,1,238.78,54.94Zm0,3.83a1.14,1.14,0,1,1-1.14,1.14A1.15,1.15,0,0,1,238.78,58.77Zm0,3.62a1.14,1.14,0,1,1-1.14,1.14A1.15,1.15,0,0,1,238.78,62.39Zm0,3.72a1.14,1.14,0,1,1-1.14,1.14A1.15,1.15,0,0,1,238.78,66.11Zm0,3.72A1.14,1.14,0,1,1,237.64,71,1.15,1.15,0,0,1,238.78,69.84Zm0,3.62a1.14,1.14,0,1,1-1.14,1.14A1.15,1.15,0,0,1,238.78,73.46Zm0,3.83a1.14,1.14,0,1,1-1.14,1.14A1.15,1.15,0,0,1,238.78,77.28Zm0,3.72a1.14,1.14,0,1,1-1.14,1.14A1.15,1.15,0,0,1,238.78,81Zm0,3.72a1.14,1.14,0,1,1-1.14,1.14A1.15,1.15,0,0,1,238.78,84.73Zm0,3.72a1.14,1.14,0,1,1-1.14,1.14A1.15,1.15,0,0,1,238.78,88.46Zm0,3.62a1.14,1.14,0,1,1-1.14,1.14A1.15,1.15,0,0,1,238.78,92.08ZM242,49a1.14,1.14,0,1,1-1.14,1.14A1.15,1.15,0,0,1,242,49Zm2.07,2.79A1.14,1.14,0,1,1,242.92,53,1.15,1.15,0,0,1,244.06,51.83Zm2,2.79a1.14,1.14,0,1,1-1.14,1.14A1.15,1.15,0,0,1,246,54.63Zm2.28,2.9a1.14,1.14,0,1,1-1.14,1.14A1.15,1.15,0,0,1,248.3,57.52Zm1.86,2.69A1.14,1.14,0,1,1,249,61.35,1.15,1.15,0,0,1,250.16,60.21ZM252.33,63a1.14,1.14,0,1,1-1.14,1.14A1.15,1.15,0,0,1,252.33,63Zm2.17,2.9A1.14,1.14,0,1,1,253.37,67,1.15,1.15,0,0,1,254.51,65.9Zm2-2.79a1.14,1.14,0,1,1-1.14,1.14A1.15,1.15,0,0,1,256.47,63.11Zm2.07-2.9a1.14,1.14,0,1,1-1.14,1.14A1.15,1.15,0,0,1,258.54,60.21Zm2.07-2.79a1.14,1.14,0,1,1-1.14,1.14A1.15,1.15,0,0,1,260.61,57.42Zm2-2.9a1.14,1.14,0,1,1-1.14,1.14A1.15,1.15,0,0,1,262.57,54.52Zm2-2.69A1.14,1.14,0,1,1,263.4,53,1.15,1.15,0,0,1,264.54,51.83Zm2.17-2.69a1.14,1.14,0,1,1-1.14,1.14A1.15,1.15,0,0,1,266.71,49.15Zm3.1-1.55a1.14,1.14,0,1,1-1.14,1.14A1.15,1.15,0,0,1,269.82,47.59Zm0,3.72a1.14,1.14,0,1,1-1.14,1.14A1.15,1.15,0,0,1,269.82,51.32Zm0,3.62a1.14,1.14,0,1,1-1.14,1.14A1.15,1.15,0,0,1,269.82,54.94Zm0,3.83a1.14,1.14,0,1,1-1.14,1.14A1.15,1.15,0,0,1,269.82,58.77Zm0,3.62a1.14,1.14,0,1,1-1.14,1.14A1.15,1.15,0,0,1,269.82,62.39Zm0,3.72a1.14,1.14,0,1,1-1.14,1.14A1.15,1.15,0,0,1,269.82,66.11Zm0,3.72A1.14,1.14,0,1,1,268.68,71,1.15,1.15,0,0,1,269.82,69.84Zm0,3.62a1.14,1.14,0,1,1-1.14,1.14A1.15,1.15,0,0,1,269.82,73.46Zm0,3.83a1.14,1.14,0,1,1-1.14,1.14A1.15,1.15,0,0,1,269.82,77.28Zm0,3.72a1.14,1.14,0,1,1-1.14,1.14A1.15,1.15,0,0,1,269.82,81Zm0,3.72a1.14,1.14,0,1,1-1.14,1.14A1.15,1.15,0,0,1,269.82,84.73Zm0,3.72a1.14,1.14,0,1,1-1.14,1.14A1.15,1.15,0,0,1,269.82,88.46Zm0,3.62a1.14,1.14,0,1,1-1.14,1.14A1.15,1.15,0,0,1,269.82,92.08Z" transform="translate(0 -42.94)" style="fill:#fdfefe"/><path d="M298.37,47.49a1.14,1.14,0,1,1-1.14,1.14A1.15,1.15,0,0,1,298.37,47.49Zm0,3.72a1.14,1.14,0,1,1-1.14,1.14A1.15,1.15,0,0,1,298.37,51.21Zm0,3.62A1.14,1.14,0,1,1,297.23,56,1.15,1.15,0,0,1,298.37,54.83Zm0,3.83a1.14,1.14,0,1,1-1.14,1.14A1.15,1.15,0,0,1,298.37,58.66Zm0,3.62a1.14,1.14,0,1,1-1.14,1.14A1.15,1.15,0,0,1,298.37,62.28Zm0,3.72a1.14,1.14,0,1,1-1.14,1.14A1.15,1.15,0,0,1,298.37,66Zm0,3.72a1.14,1.14,0,1,1-1.14,1.14A1.15,1.15,0,0,1,298.37,69.73Zm0,3.62a1.14,1.14,0,1,1-1.14,1.14A1.15,1.15,0,0,1,298.37,73.35Zm0,3.83a1.14,1.14,0,1,1-1.14,1.14A1.15,1.15,0,0,1,298.37,77.18Zm0,3.72A1.14,1.14,0,1,1,297.23,82,1.15,1.15,0,0,1,298.37,80.91Zm0,3.72a1.14,1.14,0,1,1-1.14,1.14A1.15,1.15,0,0,1,298.37,84.63Zm0,3.72a1.14,1.14,0,1,1-1.14,1.14A1.15,1.15,0,0,1,298.37,88.35Zm0,3.62a1.14,1.14,0,1,1-1.14,1.14A1.15,1.15,0,0,1,298.37,92Zm3.72,0A1.14,1.14,0,1,1,301,93.11,1.15,1.15,0,0,1,302.1,92Zm.1-44.38a1.14,1.14,0,1,1-1.14,1.14A1.15,1.15,0,0,1,302.2,47.59Zm.21,21.73a1.14,1.14,0,1,1-1.14,1.14A1.15,1.15,0,0,1,302.41,69.32ZM305.92,92a1.14,1.14,0,1,1-1.14,1.14A1.15,1.15,0,0,1,305.92,92Zm.1-44.38a1.14,1.14,0,1,1-1.14,1.14A1.15,1.15,0,0,1,306,47.59Zm.21,21.73a1.14,1.14,0,1,1-1.14,1.14A1.15,1.15,0,0,1,306.23,69.32ZM309.75,92a1.14,1.14,0,1,1-1.14,1.14A1.15,1.15,0,0,1,309.75,92Zm.1-44.38a1.14,1.14,0,1,1-1.14,1.14A1.15,1.15,0,0,1,309.86,47.59Zm.21,21.73a1.14,1.14,0,1,1-1.14,1.14A1.15,1.15,0,0,1,310.06,69.32ZM313.58,92a1.14,1.14,0,1,1-1.14,1.14A1.15,1.15,0,0,1,313.58,92Zm.1-44.38a1.14,1.14,0,1,1-1.14,1.14A1.15,1.15,0,0,1,313.68,47.59Zm.21,21.73a1.14,1.14,0,1,1-1.14,1.14A1.15,1.15,0,0,1,313.89,69.32ZM317.3,92a1.14,1.14,0,1,1-1.14,1.14A1.15,1.15,0,0,1,317.3,92Zm.1-44.38a1.14,1.14,0,1,1-1.14,1.14A1.15,1.15,0,0,1,317.41,47.59Z" transform="translate(0 -42.94)" style="fill:#fdfefe"/><path d="M344.62,47.49a1.14,1.14,0,1,1-1.14,1.14A1.15,1.15,0,0,1,344.62,47.49Zm0,3.72a1.14,1.14,0,1,1-1.14,1.14A1.15,1.15,0,0,1,344.62,51.21Zm0,3.62A1.14,1.14,0,1,1,343.48,56,1.15,1.15,0,0,1,344.62,54.83Zm0,3.83a1.14,1.14,0,1,1-1.14,1.14A1.15,1.15,0,0,1,344.62,58.66Zm0,3.62a1.14,1.14,0,1,1-1.14,1.14A1.15,1.15,0,0,1,344.62,62.28Zm0,3.72a1.14,1.14,0,1,1-1.14,1.14A1.15,1.15,0,0,1,344.62,66Zm0,3.72a1.14,1.14,0,1,1-1.14,1.14A1.15,1.15,0,0,1,344.62,69.73Zm0,3.62a1.14,1.14,0,1,1-1.14,1.14A1.15,1.15,0,0,1,344.62,73.35Zm0,3.83a1.14,1.14,0,1,1-1.14,1.14A1.15,1.15,0,0,1,344.62,77.18Zm0,3.72A1.14,1.14,0,1,1,343.48,82,1.15,1.15,0,0,1,344.62,80.91Zm0,3.72a1.14,1.14,0,1,1-1.14,1.14A1.15,1.15,0,0,1,344.62,84.63Zm0,3.72a1.14,1.14,0,1,1-1.14,1.14A1.15,1.15,0,0,1,344.62,88.35Zm0,3.62a1.14,1.14,0,1,1-1.14,1.14A1.15,1.15,0,0,1,344.62,92Zm3.72-44.49a1.14,1.14,0,1,1-1.14,1.14A1.15,1.15,0,0,1,348.34,47.49Zm0,29.79a1.14,1.14,0,1,1-1.14,1.14A1.15,1.15,0,0,1,348.34,77.28ZM352,47.59a1.14,1.14,0,1,1-1.14,1.14A1.15,1.15,0,0,1,352,47.59Zm.1,29.69a1.14,1.14,0,1,1-1.14,1.14A1.15,1.15,0,0,1,352.07,77.28Zm3.52-29.69a1.14,1.14,0,1,1-1.14,1.14A1.15,1.15,0,0,1,355.58,47.59Zm.1,29.69a1.14,1.14,0,1,1-1.14,1.14A1.15,1.15,0,0,1,355.69,77.28Zm2.17,3.41a1.14,1.14,0,1,1-1.14,1.14A1.15,1.15,0,0,1,357.86,80.7Zm1.55-32.48a1.14,1.14,0,1,1-1.14,1.14A1.15,1.15,0,0,1,359.41,48.21Zm0,28.35a1.14,1.14,0,1,1-1.14,1.14A1.15,1.15,0,0,1,359.41,76.56Zm.21,7.86a1.14,1.14,0,1,1-1.14,1.14A1.15,1.15,0,0,1,359.62,84.42Zm1.86,3.72a1.14,1.14,0,1,1-1.14,1.14A1.15,1.15,0,0,1,361.48,88.15Zm1-38a1.14,1.14,0,1,1-1.14,1.14A1.15,1.15,0,0,1,362.52,50.18Zm.1,24.52a1.14,1.14,0,1,1-1.14,1.14A1.15,1.15,0,0,1,362.62,74.7Zm.62,17.17A1.14,1.14,0,1,1,362.1,93,1.15,1.15,0,0,1,363.24,91.87Zm1.14-20.17a1.14,1.14,0,1,1-1.14,1.14A1.15,1.15,0,0,1,364.38,71.7Zm.21-18.52a1.14,1.14,0,1,1-1.14,1.14A1.15,1.15,0,0,1,364.59,53.18Zm.41,11a1.14,1.14,0,1,1-1.14,1.14A1.15,1.15,0,0,1,365,64.15Zm.1-7.35A1.14,1.14,0,1,1,364,57.94,1.15,1.15,0,0,1,365.1,56.8Zm0,3.83A1.14,1.14,0,1,1,364,61.77,1.15,1.15,0,0,1,365.1,60.63Zm0,7.24A1.14,1.14,0,1,1,364,69,1.15,1.15,0,0,1,365.1,67.87Z" transform="translate(0 -42.94)" style="fill:#fdfefe"/><path d="M656.34,47.49a1.14,1.14,0,1,1-1.14,1.14A1.15,1.15,0,0,1,656.34,47.49Zm0,3.72a1.14,1.14,0,1,1-1.14,1.14A1.15,1.15,0,0,1,656.34,51.21Zm0,3.62A1.14,1.14,0,1,1,655.2,56,1.15,1.15,0,0,1,656.34,54.83Zm0,3.83a1.14,1.14,0,1,1-1.14,1.14A1.15,1.15,0,0,1,656.34,58.66Zm0,3.62a1.14,1.14,0,1,1-1.14,1.14A1.15,1.15,0,0,1,656.34,62.28Zm0,3.72a1.14,1.14,0,1,1-1.14,1.14A1.15,1.15,0,0,1,656.34,66Zm0,3.72a1.14,1.14,0,1,1-1.14,1.14A1.15,1.15,0,0,1,656.34,69.73Zm0,3.62a1.14,1.14,0,1,1-1.14,1.14A1.15,1.15,0,0,1,656.34,73.35Zm0,3.83a1.14,1.14,0,1,1-1.14,1.14A1.15,1.15,0,0,1,656.34,77.18Zm0,3.72A1.14,1.14,0,1,1,655.2,82,1.15,1.15,0,0,1,656.34,80.91Zm0,3.72a1.14,1.14,0,1,1-1.14,1.14A1.15,1.15,0,0,1,656.34,84.63Zm0,3.72a1.14,1.14,0,1,1-1.14,1.14A1.15,1.15,0,0,1,656.34,88.35Zm0,3.62a1.14,1.14,0,1,1-1.14,1.14A1.15,1.15,0,0,1,656.34,92Zm3.83-44.38A1.14,1.14,0,1,1,659,48.73,1.15,1.15,0,0,1,660.16,47.59Zm.21,21.73a1.14,1.14,0,1,1-1.14,1.14A1.15,1.15,0,0,1,660.37,69.32ZM664,47.59a1.14,1.14,0,1,1-1.14,1.14A1.15,1.15,0,0,1,664,47.59Zm.21,21.73a1.14,1.14,0,1,1-1.14,1.14A1.15,1.15,0,0,1,664.2,69.32Zm3.62-21.73a1.14,1.14,0,1,1-1.14,1.14A1.15,1.15,0,0,1,667.82,47.59ZM668,69.32a1.14,1.14,0,1,1-1.14,1.14A1.15,1.15,0,0,1,668,69.32Zm3.62-21.73a1.14,1.14,0,1,1-1.14,1.14A1.15,1.15,0,0,1,671.65,47.59Zm.21,21.73a1.14,1.14,0,1,1-1.14,1.14A1.15,1.15,0,0,1,671.85,69.32Zm3.52-21.73a1.14,1.14,0,1,1-1.14,1.14A1.15,1.15,0,0,1,675.37,47.59Z" transform="translate(0 -42.94)" style="fill:#fdfefe"/><path d="M702.27,47.59a1.14,1.14,0,1,1-1.14,1.14A1.15,1.15,0,0,1,702.27,47.59Zm0,3.72a1.14,1.14,0,1,1-1.14,1.14A1.15,1.15,0,0,1,702.27,51.32Zm0,3.62a1.14,1.14,0,1,1-1.14,1.14A1.15,1.15,0,0,1,702.27,54.94Zm0,3.83a1.14,1.14,0,1,1-1.14,1.14A1.15,1.15,0,0,1,702.27,58.77Zm0,3.62a1.14,1.14,0,1,1-1.14,1.14A1.15,1.15,0,0,1,702.27,62.39Zm0,3.72a1.14,1.14,0,1,1-1.14,1.14A1.15,1.15,0,0,1,702.27,66.11Zm0,3.72A1.14,1.14,0,1,1,701.13,71,1.15,1.15,0,0,1,702.27,69.84Zm0,3.62a1.14,1.14,0,1,1-1.14,1.14A1.15,1.15,0,0,1,702.27,73.46Zm0,3.83a1.14,1.14,0,1,1-1.14,1.14A1.15,1.15,0,0,1,702.27,77.28Zm0,3.72a1.14,1.14,0,1,1-1.14,1.14A1.15,1.15,0,0,1,702.27,81Zm0,3.72a1.14,1.14,0,1,1-1.14,1.14A1.15,1.15,0,0,1,702.27,84.73Zm0,3.72a1.14,1.14,0,1,1-1.14,1.14A1.15,1.15,0,0,1,702.27,88.46Zm0,3.62a1.14,1.14,0,1,1-1.14,1.14A1.15,1.15,0,0,1,702.27,92.08ZM706,92a1.14,1.14,0,1,1-1.14,1.14A1.15,1.15,0,0,1,706,92Zm3.83,0a1.14,1.14,0,1,1-1.14,1.14A1.15,1.15,0,0,1,709.82,92Zm3.83,0a1.14,1.14,0,1,1-1.14,1.14A1.15,1.15,0,0,1,713.65,92Zm3.83,0a1.14,1.14,0,1,1-1.14,1.14A1.15,1.15,0,0,1,717.48,92Zm3.72,0a1.14,1.14,0,1,1-1.14,1.14A1.15,1.15,0,0,1,721.2,92Z" transform="translate(0 -42.94)" style="fill:#fdfefe"/><path d="M748.21,47.8a1.14,1.14,0,1,1-1.14,1.14A1.15,1.15,0,0,1,748.21,47.8Zm0,7.35a1.14,1.14,0,1,1-1.14,1.14A1.15,1.15,0,0,1,748.21,55.15Zm0,18.31a1.14,1.14,0,1,1-1.14,1.14A1.15,1.15,0,0,1,748.21,73.46Zm.1-21.93a1.14,1.14,0,1,1-1.14,1.14A1.15,1.15,0,0,1,748.31,51.52Zm0,7.35A1.14,1.14,0,1,1,747.17,60,1.15,1.15,0,0,1,748.31,58.87Zm0,3.52a1.14,1.14,0,1,1-1.14,1.14A1.15,1.15,0,0,1,748.31,62.39Zm0,3.72a1.14,1.14,0,1,1-1.14,1.14A1.15,1.15,0,0,1,748.31,66.11Zm0,3.72A1.14,1.14,0,1,1,747.17,71,1.15,1.15,0,0,1,748.31,69.84Zm0,7.35a1.14,1.14,0,1,1-1.14,1.14A1.15,1.15,0,0,1,748.31,77.18Zm0,3.62a1.14,1.14,0,1,1-1.14,1.14A1.15,1.15,0,0,1,748.31,80.8Zm.52,3.52a1.14,1.14,0,1,1-1.14,1.14A1.15,1.15,0,0,1,748.83,84.32Zm1.55,3.21a1.14,1.14,0,1,1-1.14,1.14A1.15,1.15,0,0,1,750.38,87.53ZM753,90.32a1.14,1.14,0,1,1-1.14,1.14A1.15,1.15,0,0,1,753,90.32Zm3.21,1.34A1.14,1.14,0,1,1,755,92.8,1.15,1.15,0,0,1,756.17,91.67Zm3.72.52a1.14,1.14,0,1,1-1.14,1.14A1.15,1.15,0,0,1,759.9,92.18Zm3.62.1a1.14,1.14,0,1,1-1.14,1.14A1.15,1.15,0,0,1,763.52,92.29Zm3.52-.52a1.14,1.14,0,1,1-1.14,1.14A1.15,1.15,0,0,1,767,91.77ZM770.45,90a1.14,1.14,0,1,1-1.14,1.14A1.15,1.15,0,0,1,770.45,90ZM773,87.53a1.14,1.14,0,1,1-1.14,1.14A1.15,1.15,0,0,1,773,87.53Zm1.55-3.31a1.14,1.14,0,1,1-1.14,1.14A1.15,1.15,0,0,1,774.59,84.22Zm.52-3.52A1.14,1.14,0,1,1,774,81.84,1.15,1.15,0,0,1,775.1,80.7Zm.1-32.79A1.14,1.14,0,1,1,774.07,49,1.15,1.15,0,0,1,775.21,47.9Zm0,3.52a1.14,1.14,0,1,1-1.14,1.14A1.15,1.15,0,0,1,775.21,51.42Zm0,3.72a1.14,1.14,0,1,1-1.14,1.14A1.15,1.15,0,0,1,775.21,55.15Zm0,3.62a1.14,1.14,0,1,1-1.14,1.14A1.15,1.15,0,0,1,775.21,58.77Zm0,3.62a1.14,1.14,0,1,1-1.14,1.14A1.15,1.15,0,0,1,775.21,62.39Zm0,3.52A1.14,1.14,0,1,1,774.07,67,1.15,1.15,0,0,1,775.21,65.9Zm0,3.83a1.14,1.14,0,1,1-1.14,1.14A1.15,1.15,0,0,1,775.21,69.73Zm0,3.72a1.14,1.14,0,1,1-1.14,1.14A1.15,1.15,0,0,1,775.21,73.46Zm0,3.52a1.14,1.14,0,1,1-1.14,1.14A1.15,1.15,0,0,1,775.21,77Z" transform="translate(0 -42.94)" style="fill:#fdfefe"/><path d="M802.32,67.56a1.14,1.14,0,1,1-1.14,1.14A1.15,1.15,0,0,1,802.32,67.56Zm0,3.83a1.14,1.14,0,1,1-1.14,1.14A1.15,1.15,0,0,1,802.32,71.39Zm0,7.45A1.14,1.14,0,1,1,801.18,80,1.15,1.15,0,0,1,802.32,78.84Zm.1-18.52a1.14,1.14,0,1,1-1.14,1.14A1.15,1.15,0,0,1,802.42,60.32Zm0,3.62a1.14,1.14,0,1,1-1.14,1.14A1.15,1.15,0,0,1,802.42,63.94Zm0,11.28a1.14,1.14,0,1,1-1.14,1.14A1.15,1.15,0,0,1,802.42,75.22Zm.1-18.52a1.14,1.14,0,1,1-1.14,1.14A1.15,1.15,0,0,1,802.52,56.7Zm0,25.66a1.14,1.14,0,1,1-1.14,1.14A1.15,1.15,0,0,1,802.52,82.35Zm.72,3.62a1.14,1.14,0,1,1-1.14,1.14A1.15,1.15,0,0,1,803.25,86Zm.21-32.8a1.14,1.14,0,1,1-1.14,1.14A1.15,1.15,0,0,1,803.45,53.18Zm1.76,35.9a1.14,1.14,0,1,1-1.14,1.14A1.15,1.15,0,0,1,805.21,89.08Zm.41-38.9a1.14,1.14,0,1,1-1.14,1.14A1.15,1.15,0,0,1,805.63,50.18ZM808.32,91a1.14,1.14,0,1,1-1.14,1.14A1.15,1.15,0,0,1,808.32,91Zm.52-42.73a1.14,1.14,0,1,1-1.14,1.14A1.15,1.15,0,0,1,808.83,48.32ZM811.73,92a1.14,1.14,0,1,1-1.14,1.14A1.15,1.15,0,0,1,811.73,92Zm.62-44.49a1.14,1.14,0,1,1-1.14,1.14A1.15,1.15,0,0,1,812.35,47.49Zm3,44.69a1.14,1.14,0,1,1-1.14,1.14A1.15,1.15,0,0,1,815.35,92.18Zm.72-44.8a1.14,1.14,0,1,1-1.14,1.14A1.15,1.15,0,0,1,816.08,47.39Zm2.17,24.73a1.14,1.14,0,1,1-1.14,1.14A1.15,1.15,0,0,1,818.25,72.11Zm.83,20.07a1.14,1.14,0,1,1-1.14,1.14A1.15,1.15,0,0,1,819.08,92.18Zm.52-44.59a1.14,1.14,0,1,1-1.14,1.14A1.15,1.15,0,0,1,819.59,47.59Zm2.28,24.52a1.14,1.14,0,1,1-1.14,1.14A1.15,1.15,0,0,1,821.87,72.11Zm.72,19.24a1.14,1.14,0,1,1-1.14,1.14A1.15,1.15,0,0,1,822.59,91.35Zm.52-42.73A1.14,1.14,0,1,1,822,49.77,1.15,1.15,0,0,1,823.11,48.63Zm2.59,23.48a1.14,1.14,0,1,1-1.14,1.14A1.15,1.15,0,0,1,825.7,72.11Zm.1,17.38a1.14,1.14,0,1,1-1.14,1.14A1.15,1.15,0,0,1,825.8,89.49Zm.31-38.9A1.14,1.14,0,1,1,825,51.73,1.15,1.15,0,0,1,826.11,50.59ZM828,86.7a1.14,1.14,0,1,1-1.14,1.14A1.15,1.15,0,0,1,828,86.7Zm.21-33A1.14,1.14,0,1,1,827,54.83,1.15,1.15,0,0,1,828.18,53.7Zm.52,3.62a1.14,1.14,0,1,1-1.14,1.14A1.15,1.15,0,0,1,828.7,57.32ZM829,83.18a1.14,1.14,0,1,1-1.14,1.14A1.15,1.15,0,0,1,829,83.18Zm.31-11.07a1.14,1.14,0,1,1-1.14,1.14A1.15,1.15,0,0,1,829.32,72.11Zm0,3.62a1.14,1.14,0,1,1-1.14,1.14A1.15,1.15,0,0,1,829.32,75.73Zm.1,3.83a1.14,1.14,0,1,1-1.14,1.14A1.15,1.15,0,0,1,829.42,79.56Z" transform="translate(0 -42.94)" style="fill:#fdfefe"/><path d="M856.63,47.49a1.14,1.14,0,1,1-1.14,1.14A1.15,1.15,0,0,1,856.63,47.49Zm0,3.72a1.14,1.14,0,1,1-1.14,1.14A1.15,1.15,0,0,1,856.63,51.21Zm0,3.62A1.14,1.14,0,1,1,855.49,56,1.15,1.15,0,0,1,856.63,54.83Zm0,3.83a1.14,1.14,0,1,1-1.14,1.14A1.15,1.15,0,0,1,856.63,58.66Zm0,3.62a1.14,1.14,0,1,1-1.14,1.14A1.15,1.15,0,0,1,856.63,62.28Zm0,3.72a1.14,1.14,0,1,1-1.14,1.14A1.15,1.15,0,0,1,856.63,66Zm0,3.72a1.14,1.14,0,1,1-1.14,1.14A1.15,1.15,0,0,1,856.63,69.73Zm0,3.62a1.14,1.14,0,1,1-1.14,1.14A1.15,1.15,0,0,1,856.63,73.35Zm0,3.83a1.14,1.14,0,1,1-1.14,1.14A1.15,1.15,0,0,1,856.63,77.18Zm0,3.72A1.14,1.14,0,1,1,855.49,82,1.15,1.15,0,0,1,856.63,80.91Zm0,3.72a1.14,1.14,0,1,1-1.14,1.14A1.15,1.15,0,0,1,856.63,84.63Zm0,3.72a1.14,1.14,0,1,1-1.14,1.14A1.15,1.15,0,0,1,856.63,88.35Zm0,3.62a1.14,1.14,0,1,1-1.14,1.14A1.15,1.15,0,0,1,856.63,92Zm3.72-44.49a1.14,1.14,0,1,1-1.14,1.14A1.15,1.15,0,0,1,860.36,47.49Zm0,29.79a1.14,1.14,0,1,1-1.14,1.14A1.15,1.15,0,0,1,860.36,77.28ZM864,47.59a1.14,1.14,0,1,1-1.14,1.14A1.15,1.15,0,0,1,864,47.59Zm.1,29.69a1.14,1.14,0,1,1-1.14,1.14A1.15,1.15,0,0,1,864.08,77.28Zm3.52-29.69a1.14,1.14,0,1,1-1.14,1.14A1.15,1.15,0,0,1,867.6,47.59Zm.1,29.69a1.14,1.14,0,1,1-1.14,1.14A1.15,1.15,0,0,1,867.7,77.28Zm3.72-29.07a1.14,1.14,0,1,1-1.14,1.14A1.15,1.15,0,0,1,871.43,48.21Zm0,28.35a1.14,1.14,0,1,1-1.14,1.14A1.15,1.15,0,0,1,871.43,76.56Zm3.1-26.38a1.14,1.14,0,1,1-1.14,1.14A1.15,1.15,0,0,1,874.53,50.18Zm.1,24.52a1.14,1.14,0,1,1-1.14,1.14A1.15,1.15,0,0,1,874.63,74.7Zm1.76-3a1.14,1.14,0,1,1-1.14,1.14A1.15,1.15,0,0,1,876.39,71.7Zm.21-18.52a1.14,1.14,0,1,1-1.14,1.14A1.15,1.15,0,0,1,876.6,53.18Zm.41,11a1.14,1.14,0,1,1-1.14,1.14A1.15,1.15,0,0,1,877,64.15Zm.1-7.35A1.14,1.14,0,1,1,876,57.94,1.15,1.15,0,0,1,877.12,56.8Zm0,3.83A1.14,1.14,0,1,1,876,61.77,1.15,1.15,0,0,1,877.12,60.63Zm0,7.24A1.14,1.14,0,1,1,876,69,1.15,1.15,0,0,1,877.12,67.87Z" transform="translate(0 -42.94)" style="fill:#fdfefe"/><path d="M904.32,47.59a1.14,1.14,0,1,1-1.14,1.14A1.15,1.15,0,0,1,904.32,47.59Zm0,3.72a1.14,1.14,0,1,1-1.14,1.14A1.15,1.15,0,0,1,904.32,51.32Zm0,3.62a1.14,1.14,0,1,1-1.14,1.14A1.15,1.15,0,0,1,904.32,54.94Zm0,3.83a1.14,1.14,0,1,1-1.14,1.14A1.15,1.15,0,0,1,904.32,58.77Zm0,3.62a1.14,1.14,0,1,1-1.14,1.14A1.15,1.15,0,0,1,904.32,62.39Zm0,3.72a1.14,1.14,0,1,1-1.14,1.14A1.15,1.15,0,0,1,904.32,66.11Zm0,3.72A1.14,1.14,0,1,1,903.19,71,1.15,1.15,0,0,1,904.32,69.84Zm0,3.62a1.14,1.14,0,1,1-1.14,1.14A1.15,1.15,0,0,1,904.32,73.46Zm0,3.83a1.14,1.14,0,1,1-1.14,1.14A1.15,1.15,0,0,1,904.32,77.28Zm0,3.72a1.14,1.14,0,1,1-1.14,1.14A1.15,1.15,0,0,1,904.32,81Zm0,3.72a1.14,1.14,0,1,1-1.14,1.14A1.15,1.15,0,0,1,904.32,84.73Zm0,3.72a1.14,1.14,0,1,1-1.14,1.14A1.15,1.15,0,0,1,904.32,88.46Zm0,3.62a1.14,1.14,0,1,1-1.14,1.14A1.15,1.15,0,0,1,904.32,92.08ZM908,92a1.14,1.14,0,1,1-1.14,1.14A1.15,1.15,0,0,1,908,92Zm3.83,0a1.14,1.14,0,1,1-1.14,1.14A1.15,1.15,0,0,1,911.88,92Zm3.83,0a1.14,1.14,0,1,1-1.14,1.14A1.15,1.15,0,0,1,915.7,92Zm3.83,0a1.14,1.14,0,1,1-1.14,1.14A1.15,1.15,0,0,1,919.53,92Zm3.72,0a1.14,1.14,0,1,1-1.14,1.14A1.15,1.15,0,0,1,923.26,92Z" transform="translate(0 -42.94)" style="fill:#fdfefe"/><path d="M942,92a1.14,1.14,0,1,1-1.14,1.14A1.15,1.15,0,0,1,942,92Zm1-3.62a1.14,1.14,0,1,1-1.14,1.14A1.15,1.15,0,0,1,943,88.35Zm1-3.41a1.14,1.14,0,1,1-1.14,1.14A1.15,1.15,0,0,1,944.06,84.94Zm.93-3.41a1.14,1.14,0,1,1-1.14,1.14A1.15,1.15,0,0,1,945,81.53Zm1-3.62A1.14,1.14,0,1,1,944.88,79,1.15,1.15,0,0,1,946,77.91Zm.93-3.62a1.14,1.14,0,1,1-1.14,1.14A1.15,1.15,0,0,1,947,74.28ZM948,71a1.14,1.14,0,1,1-1.14,1.14A1.15,1.15,0,0,1,948,71Zm1-3.52a1.14,1.14,0,1,1-1.14,1.14A1.15,1.15,0,0,1,949,67.46Zm.41,11.79a1.14,1.14,0,1,1-1.14,1.14A1.15,1.15,0,0,1,949.43,79.25ZM950,63.84A1.14,1.14,0,1,1,948.81,65,1.15,1.15,0,0,1,950,63.84Zm1-3.62a1.14,1.14,0,1,1-1.14,1.14A1.15,1.15,0,0,1,951,60.21Zm.93-3.41a1.14,1.14,0,1,1-1.14,1.14A1.15,1.15,0,0,1,951.92,56.8Zm1-3.52a1.14,1.14,0,1,1-1.14,1.14A1.15,1.15,0,0,1,953,53.28Zm.52,26a1.14,1.14,0,1,1-1.14,1.14A1.15,1.15,0,0,1,953.47,79.25ZM954,49.77a1.14,1.14,0,1,1-1.14,1.14A1.15,1.15,0,0,1,954,49.77Zm2.79.21a1.14,1.14,0,1,1-1.14,1.14A1.15,1.15,0,0,1,956.78,50Zm.72,29.28a1.14,1.14,0,1,1-1.14,1.14A1.15,1.15,0,0,1,957.5,79.25Zm.41-25.86a1.14,1.14,0,1,1-1.14,1.14A1.15,1.15,0,0,1,957.92,53.39Zm.93,3.52A1.14,1.14,0,1,1,957.71,58,1.15,1.15,0,0,1,958.85,56.9Zm1,3.52a1.14,1.14,0,1,1-1.14,1.14A1.15,1.15,0,0,1,959.88,60.42ZM961,63.94a1.14,1.14,0,1,1-1.14,1.14A1.15,1.15,0,0,1,961,63.94Zm.41,15.31a1.14,1.14,0,1,1-1.14,1.14A1.15,1.15,0,0,1,961.44,79.25ZM962,67.46a1.14,1.14,0,1,1-1.14,1.14A1.15,1.15,0,0,1,962,67.46Zm1,3.41A1.14,1.14,0,1,1,961.85,72,1.15,1.15,0,0,1,963,70.87Zm1,3.62a1.14,1.14,0,1,1-1.14,1.14A1.15,1.15,0,0,1,964,74.49Zm.93,3.41A1.14,1.14,0,1,1,963.81,79,1.15,1.15,0,0,1,965,77.91Zm1.14,3.62A1.14,1.14,0,1,1,965,82.66,1.15,1.15,0,0,1,966.09,81.53Zm1,3.41A1.14,1.14,0,1,1,966,86.08,1.15,1.15,0,0,1,967.13,84.94Zm1,3.62A1.14,1.14,0,1,1,967,89.7,1.15,1.15,0,0,1,968.16,88.56Zm1,3.41a1.14,1.14,0,1,1-1.14,1.14A1.15,1.15,0,0,1,969.19,92Z" transform="translate(0 -42.94)" style="fill:#fdfefe"/><path d="M987.82,47.59a1.14,1.14,0,1,1-1.14,1.14A1.15,1.15,0,0,1,987.82,47.59Zm3.41,0a1.14,1.14,0,1,1-1.14,1.14A1.15,1.15,0,0,1,991.23,47.59Zm3.72,0a1.14,1.14,0,1,1-1.14,1.14A1.15,1.15,0,0,1,995,47.59Zm3.52,0a1.14,1.14,0,1,1-1.14,1.14A1.15,1.15,0,0,1,998.48,47.59Zm2,3.72a1.14,1.14,0,1,1-1.14,1.14A1.15,1.15,0,0,1,1000.44,51.32Zm0,3.62a1.14,1.14,0,1,1-1.14,1.14A1.15,1.15,0,0,1,1000.44,54.94Zm0,3.83a1.14,1.14,0,1,1-1.14,1.14A1.15,1.15,0,0,1,1000.44,58.77Zm0,3.62a1.14,1.14,0,1,1-1.14,1.14A1.15,1.15,0,0,1,1000.44,62.39Zm0,3.72a1.14,1.14,0,1,1-1.14,1.14A1.15,1.15,0,0,1,1000.44,66.11Zm0,3.72A1.14,1.14,0,1,1,999.3,71,1.15,1.15,0,0,1,1000.44,69.84Zm0,3.62a1.14,1.14,0,1,1-1.14,1.14A1.15,1.15,0,0,1,1000.44,73.46Zm0,3.83a1.14,1.14,0,1,1-1.14,1.14A1.15,1.15,0,0,1,1000.44,77.28Zm0,3.72a1.14,1.14,0,1,1-1.14,1.14A1.15,1.15,0,0,1,1000.44,81Zm0,3.72a1.14,1.14,0,1,1-1.14,1.14A1.15,1.15,0,0,1,1000.44,84.73Zm0,3.72a1.14,1.14,0,1,1-1.14,1.14A1.15,1.15,0,0,1,1000.44,88.46Zm0,3.62a1.14,1.14,0,1,1-1.14,1.14A1.15,1.15,0,0,1,1000.44,92.08ZM1002,47.59a1.14,1.14,0,1,1-1.14,1.14A1.15,1.15,0,0,1,1002,47.59Zm3.52,0a1.14,1.14,0,1,1-1.14,1.14A1.15,1.15,0,0,1,1005.51,47.59Zm3.52,0a1.14,1.14,0,1,1-1.14,1.14A1.15,1.15,0,0,1,1009,47.59Zm3.62,0a1.14,1.14,0,1,1-1.14,1.14A1.15,1.15,0,0,1,1012.65,47.59Z" transform="translate(0 -42.94)" style="fill:#fdfefe"/><path d="M1038.41,47.59a1.14,1.14,0,1,1-1.14,1.14A1.15,1.15,0,0,1,1038.41,47.59Zm.1,41.69a1.14,1.14,0,1,1-1.14,1.14A1.15,1.15,0,0,1,1038.51,89.29Zm.21,2.69a1.14,1.14,0,1,1-1.14,1.14A1.15,1.15,0,0,1,1038.72,92Zm1.55-5.9a1.14,1.14,0,1,1-1.14,1.14A1.15,1.15,0,0,1,1040.27,86.08Zm1.86-38.49a1.14,1.14,0,1,1-1.14,1.14A1.15,1.15,0,0,1,1042.13,47.59Zm0,35.28A1.14,1.14,0,1,1,1041,84,1.15,1.15,0,0,1,1042.13,82.87Zm.31,9.1a1.14,1.14,0,1,1-1.14,1.14A1.15,1.15,0,0,1,1042.44,92ZM1044,79.56a1.14,1.14,0,1,1-1.14,1.14A1.15,1.15,0,0,1,1044,79.56Zm1.86-32a1.14,1.14,0,1,1-1.14,1.14A1.15,1.15,0,0,1,1045.86,47.59Zm.1,28.76a1.14,1.14,0,1,1-1.14,1.14A1.15,1.15,0,0,1,1046,76.35Zm.21,15.62a1.14,1.14,0,1,1-1.14,1.14A1.15,1.15,0,0,1,1046.17,92Zm1.45-18.83a1.14,1.14,0,1,1-1.14,1.14A1.15,1.15,0,0,1,1047.62,73.15Zm1.86-3.31a1.14,1.14,0,1,1-1.14,1.14A1.15,1.15,0,0,1,1049.48,69.84Zm.1-22.24a1.14,1.14,0,1,1-1.14,1.14A1.15,1.15,0,0,1,1049.58,47.59Zm.31,44.38a1.14,1.14,0,1,1-1.14,1.14A1.15,1.15,0,0,1,1049.89,92Zm1.45-25.35a1.14,1.14,0,1,1-1.14,1.14A1.15,1.15,0,0,1,1051.34,66.63Zm1.76-19a1.14,1.14,0,1,1-1.14,1.14A1.15,1.15,0,0,1,1053.1,47.59Zm.1,15.83a1.14,1.14,0,1,1-1.14,1.14A1.15,1.15,0,0,1,1053.2,63.42Zm.52,28.55a1.14,1.14,0,1,1-1.14,1.14A1.15,1.15,0,0,1,1053.72,92Zm1.34-31.86a1.14,1.14,0,1,1-1.14,1.14A1.15,1.15,0,0,1,1055.07,60.11Zm1.86-12.52a1.14,1.14,0,1,1-1.14,1.14A1.15,1.15,0,0,1,1056.93,47.59Zm0,9.41a1.14,1.14,0,1,1-1.14,1.14A1.15,1.15,0,0,1,1056.93,57Zm.31,35a1.14,1.14,0,1,1-1.14,1.14A1.15,1.15,0,0,1,1057.24,92Zm1.45-38.28a1.14,1.14,0,1,1-1.14,1.14A1.15,1.15,0,0,1,1058.69,53.7Zm2-6.1a1.14,1.14,0,1,1-1.14,1.14A1.15,1.15,0,0,1,1060.65,47.59Zm0,2.9a1.14,1.14,0,1,1-1.14,1.14A1.15,1.15,0,0,1,1060.65,50.49ZM1061,92a1.14,1.14,0,1,1-1.14,1.14A1.15,1.15,0,0,1,1061,92Z" transform="translate(0 -42.94)" style="fill:#fdfefe"/><line x1="388.27" y1="1.46" x2="632.21" y2="1.46" style="fill:none;stroke:#3f56a4;stroke-miterlimit:10;stroke-width:2px"/><line x1="388.27" y1="56.2" x2="632.21" y2="56.2" style="fill:none;stroke:#3f56a4;stroke-miterlimit:10;stroke-width:2px"/><path d="M418.27,59.88a.64.64,0,0,1-1-.46V51.94a.66.66,0,0,1,.61-.61h25.33a.56.56,0,0,1,.61.61v7.48c0,.46-.61.76-.92.46l-1-.92h-7.32V89.71l.92,1a.53.53,0,0,1-.38.92H426a.55.55,0,0,1-.38-.92l.92-1V59h-7.32Z" transform="translate(0 -42.94)" style="fill:#3f56a4"/><path d="M454.81,52.17a.48.48,0,0,1,.38-.84h12.89c6.79,0,10.91,3.81,10.91,11V70a12.85,12.85,0,0,1-1.14,5.65,7.75,7.75,0,0,1-3.74,3.89l4.58,10.07,1.07,1.07c.38.23.08.92-.46.92h-9.61a.54.54,0,0,1-.38-.92l.76-1-4-8.77h-2.36v8.77l1,1c.53.53.23.92-.31.92h-9.23a.54.54,0,0,1-.38-.92l.92-1V53.24Zm9.92,21.21c2.44,0,3.89-.38,4.88-1.22s1.37-2,1.37-4v-4c0-2.14-.38-3.43-1.37-4.12S467.25,59,464.73,59h-1V73.38Z" transform="translate(0 -42.94)" style="fill:#3f56a4"/><path d="M492,89.71V53.24l-.92-1.07a.49.49,0,0,1,.38-.84h9.08c.46,0,.76.53.46.84l-1,1.07V89.71l1,1a.59.59,0,0,1-.46.92h-9.08a.54.54,0,0,1-.38-.92Z" transform="translate(0 -42.94)" style="fill:#3f56a4"/><path d="M522.18,90.7a.54.54,0,0,1-.46.92h-9.08a.54.54,0,0,1-.38-.92l.92-1V53.24l-.92-1.07a.48.48,0,0,1,.38-.84h21.82a.51.51,0,0,1,.53.46v7.63c0,.46-.46.92-.92.46l-.92-.92h-11.9v8.32h8.93l.92-1c.23-.31.92-.08.92.38v8.77a.55.55,0,0,1-.92.38l-.92-.84h-8.93V89.71Z" transform="translate(0 -42.94)" style="fill:#3f56a4"/><path d="M556.05,90.7a.54.54,0,0,1-.46.92h-9.08a.54.54,0,0,1-.38-.92l.92-1V53.24l-.92-1.07a.48.48,0,0,1,.38-.84h21.82a.51.51,0,0,1,.53.46v7.63c0,.46-.46.92-.92.46L567,59h-11.9v8.32h8.93l.92-1c.23-.31.92-.08.92.38v8.77a.55.55,0,0,1-.92.38l-.92-.84h-8.93V89.71Z" transform="translate(0 -42.94)" style="fill:#3f56a4"/><path d="M580.77,59.88a.64.64,0,0,1-1-.46V51.94a.66.66,0,0,1,.61-.61h25.33a.56.56,0,0,1,.61.61v7.48c0,.46-.61.76-.92.46l-1-.92H597.1V89.71l.92,1a.53.53,0,0,1-.38.92h-9.16a.55.55,0,0,1-.38-.92l.92-1V59h-7.32Z" transform="translate(0 -42.94)" style="fill:#3f56a4"/><path d="M418.8,59.33l2.14,2.21h-.08a.51.51,0,0,1-.76,0l-1.83-1.83a1.62,1.62,0,0,0,.46-.31Zm2.75,1.6-2.14-2.21h1.14l2,1.91h-.69Zm2.21-.31-2-1.91H423l1.91,1.91Zm2-.38-1.53-1.53h1.22l.3.3Zm.92,31.13,1.91,1.91h-.08l-.31-.15-1.75-1.75Zm3.05.61,1.3,1.3h-1.22l-1.91-1.91H429Zm3.66,1.3h-1.14l-1.91-1.91h1.14Zm.53-1.91,1.91,1.91h-1.22l-1.91-1.91Zm1.22,0A1.23,1.23,0,0,0,436,91l2.14,2.14a.58.58,0,0,1-.31.15H437Zm.15-32.5,1.91,2v1.22l-1.91-2Zm0,2.44,1.91,2v1.14l-1.91-1.91Zm0,2.44,1.91,1.91v1.22L435.28,65Zm0,2.37,1.91,2v1.22l-1.91-2Zm1.91,4.42v1.14l-1.91-1.91V68.57Zm-1.91.46,1.91,1.91v1.22l-1.91-1.91Zm0,2.44,1.91,1.91v1.22l-1.91-2Zm0,2.37,1.91,2v1.14L435.28,77Zm0,2.44,1.91,1.91v1.22l-1.91-1.91Zm0,2.44,1.91,1.91v1.22l-1.91-2Zm0,2.36L437,84.74l.23.31v1.14l-1.91-1.91Zm1.91,4.35v1.22l-1.91-1.91V85.5Zm-1.91.53,1.91,1.91v1.22l-.84-.84a1.18,1.18,0,0,0-.38-1.07l-.69-.76Zm2.21-29.22,1.91,1.91h-1.14l-2-1.91Zm2.44,0,1.91,1.91h-1.22l-1.91-1.91Zm3.43,1.07.92.84h-1.22l-1.91-1.91h.38l.76.69a1.26,1.26,0,0,0,.92.38Zm3.05.61v.76c0,.15,0,.23-.08.3l-2.14-2.14a1.6,1.6,0,0,0,.31-.84Zm0-6-1.91-2v-1c.15.15,1.6,1.68,1.75,1.75a.58.58,0,0,1,.15.38Zm-1.91-.76,1.91,2v1.14l-1.91-1.91Zm0,2.44L446.42,58v1.22l-1.91-1.91Z" transform="translate(0 -42.94)" style="fill:#3f56a4"/><path d="M456.34,91.3l2,2h-.46a.54.54,0,0,1-.46-.23c-.23-.15-1.6-1.6-1.75-1.75Zm3.13,2-1.91-2h1.22l1.91,2Zm3.66,0h-1.22l-1.91-2h1.22Zm.46-2,2,2h-1.22l-2-2Zm2.82-29.75-1.91-2v-.84h.31l2,1.91h-.38Zm0,2.36L464.5,62V60.78l1.91,1.91Zm0,2.44-1.91-1.91V63.23l1.91,1.91Zm0,2.44-1.91-2V65.59l1.91,2Zm0,2.37-1.91-1.91V68l1.91,1.91Zm-.84.38H464.5V70.47Zm.84,11.75-1.91-2V80.7H465l1,1,.46,1h-.08Zm-1.91-.76,1.91,1.91v1.22l-1.91-1.91Zm0,2.44,1.91,1.91V88.1l-1.91-1.91Zm0,2.36,1.91,2v1.22l-.92-1a.76.76,0,0,0-.3-.38l-.69-.76Zm2.21,6-2-2.06a1.22,1.22,0,0,0,.69-.53l2.06,2.14a.51.51,0,0,1-.53.46ZM468,60.63l-1.91-1.91,1.37.23,1.75,1.75C468.85,60.71,468.47,60.63,468,60.63Zm2.9,30.75,1.91,1.91h-.46a.58.58,0,0,1-.38-.15c-.23-.23-1.68-1.6-1.75-1.75ZM474,93.29l-1.91-1.91h1.14l2,1.91Zm1.68-1.91,1.91,1.91h-1.14l-2-1.91Zm-.53-12.59,2.21,2.14a4.24,4.24,0,0,0-.61.38l.15.38-1.14-1.07L475,78.87A.27.27,0,0,0,475.18,78.79Zm1.37-1.07,2.14,2.14-.61.53-2.14-2.14Zm1.37,7.4-1.07-2.29L478,84l1.07,2.29Zm.23,6.26,1.91,1.91h-1.22l-1.91-1.91Zm-.53-15,2.21,2.14-.53.69v.08L477.09,77A4.18,4.18,0,0,0,477.62,76.35Zm.92-1.53L480.67,77a4.1,4.1,0,0,0-.38.84l-2.14-2.14a1.53,1.53,0,0,1,.31-.61C478.46,75,478.54,74.9,478.54,74.82Zm.76-17.32a11.81,11.81,0,0,0-.53-1.75l.69.61.76,1.14.69,1.6ZM478.92,74l.23-.92,2.14,2.06c-.08.31-.23.61-.31,1Zm.46,14.27-.38-.84,1.14,1.07,1.07,2.29-.61-.53a1.37,1.37,0,0,0-.31-1.07Zm0-16.17.23-1,2,2a5.16,5.16,0,0,1-.15,1.07ZM480.22,91l2.14,2.21c-.08,0-.15.08-.31.08h-.76l-1.91-1.91A1.23,1.23,0,0,0,480.22,91Zm-.69-32,1.68,1.68.15.08.23,1.45-1.91-1.91A7.49,7.49,0,0,0,479.53,59Zm.15,3.74V61.55l.31.23,1.68,1.68v1.22Zm2,4.35-2-1.91V63.91l2,2Zm0,2.44-2-1.91V66.35l2,1.91Zm-2,.46V68.79l2,1.91v1.22Z" transform="translate(0 -42.94)" style="fill:#3f56a4"/><path d="M494,91.38l1.91,1.91h-1.22l-1.91-1.91Zm2.37,0,2,1.91h-1.22l-1.91-1.91Zm2.44,0,1.91,1.91h-1.14l-2-1.91Zm1.75,0a.64.64,0,0,0,.53-.15l2.06,2.06H502l-1.91-1.91Zm.38-39,2.14,2.14-.38.38v.53l-1.91-2v-.92Zm-.15,2.29,1.91,1.91v1.22l-1.91-1.91Zm0,2.44L502.72,59v1.22l-1.91-2Zm0,2.37,1.91,2v1.22l-1.91-2Zm0,2.44,1.91,1.91v1.22l-1.91-1.91Zm0,2.44,1.91,1.91V67.5l-1.91-1.91Zm0,2.37,1.91,2v1.22l-1.91-2Zm0,2.44,1.91,1.91V72.3l-1.91-1.91Zm0,2.44,1.91,1.91v1.22l-1.91-1.91Zm0,2.37,1.91,2v1.22l-1.91-2Zm0,2.44,1.91,1.91v1.22l-1.91-1.91Zm0,2.44,1.91,1.91V82l-1.91-1.91Zm0,2.36,1.91,2v1.22l-1.91-2Zm0,2.44,1.91,1.91V86.8l-1.91-1.91Zm0,2.44L502.72,88v1.22l-1.91-1.91Zm2.9-32.2-2.21-2.14a1.6,1.6,0,0,0,.31-.46c.76.76,1.75,1.83,1.83,1.83A.59.59,0,0,1,503.71,53.92Zm-1.91,36.7a1.37,1.37,0,0,0-.15-1.22l1.07,1.07v1l.92,1c.15.08.15.15.15.31l-2.06-2.06A.07.07,0,0,1,501.81,90.62Z" transform="translate(0 -42.94)" style="fill:#3f56a4"/><path d="M513.71,91.38l2,1.91h-.38c-.23,0-.31,0-.46-.15l-1.75-1.75Zm3.2,1.91-2-1.91h1.22l1.91,1.91Zm1.68-1.91,1.91,1.91h-1.22l-1.91-1.91Zm2.37,0,2,1.91h-1.22l-1.91-1.91Zm2.9-29.75-1.91-1.91v-1h.23l1.91,2h-.23Zm0,2.44-1.91-1.91V60.94l1.91,1.91Zm-1.91-.76,1.91,2v.23h-.92l-1-1Zm0,12.13,1.91,1.91v1.22l-1.91-1.91Zm0,2.37,1.91,2V81l-1.91-2Zm0,2.44,1.91,1.91v1.22l-1.91-1.91Zm0,2.44,1.91,1.91v1.22l-1.91-1.91Zm0,2.37,1.91,2v1.22l-1.91-2Zm0,2.44,1.91,1.91v1.22l-.92-.84a.94.94,0,0,0-.3-.61l-.69-.69Zm.15,3.81a1,1,0,0,0,.69-.53l2.14,2.14a.51.51,0,0,1-.53.38h-.23Zm1.53-16.63,1.91,1.91h-1.22l-1.91-1.91Zm1.68-14-1.91-2h1.22l1.91,2Zm.69,14,2,1.91h-1.22l-1.91-1.91Zm1.75-14-2-2H527l2,2Zm.69,14,2,1.91H529.2l-2-1.91Zm1.75-14-2-2h1.22l1.91,2Zm1.68,15,.92.92h-1.22l-1.91-1.91h.08l.76.76a1.33,1.33,0,0,0,.92.31A1,1,0,0,0,531.87,75.66Zm.69-15-1.91-2h1.22l1.91,2Zm0,14.42a2.23,2.23,0,0,0,.15-.69v-.31L534.61,76v1.22Zm.15-8.24,1.91,1.91V70l-1.91-2Zm1.91,5.49-1.91-1.91V69.25l1.91,2Zm-1.91-.69,1.91,1.91v1.22l-1.91-1.91Zm.08,4.88,1,1h-.08Zm2.14-16.86c.08,0,.15-.08.23-.15l2.06,2.14a.47.47,0,0,1-.53-.08l-.92-.92H535l-.92-.92h.31A1.49,1.49,0,0,0,534.92,59.72Zm2.67,1.14-2-2a.57.57,0,0,0,.08-.38v-.76l1.91,2Zm-1.91-9.16v-.23c.15.08,1.68,1.6,1.75,1.68a1.09,1.09,0,0,1,.15.46Zm1.91,4.35-1.91-1.91V52.93l1.91,1.91Zm0,2.44-1.91-2V55.29l1.91,2Z" transform="translate(0 -42.94)" style="fill:#3f56a4"/><path d="M547.58,91.38l2,1.91h-.38c-.23,0-.31,0-.46-.15L547,91.38Zm3.2,1.91-2-1.91H550l1.91,1.91Zm1.68-1.91,1.91,1.91h-1.22l-1.91-1.91Zm2.37,0,2,1.91h-1.22l-1.91-1.91Zm2.9-29.75-1.91-1.91v-1h.23l1.91,2h-.23Zm0,2.44-1.91-1.91V60.94l1.91,1.91Zm-1.91-.76,1.91,2v.23h-.92l-1-1Zm0,12.13,1.91,1.91v1.22l-1.91-1.91Zm0,2.37,1.91,2V81l-1.91-2Zm0,2.44,1.91,1.91v1.22l-1.91-1.91Zm0,2.44,1.91,1.91v1.22l-1.91-1.91Zm0,2.37,1.91,2v1.22l-1.91-2Zm0,2.44,1.91,1.91v1.22l-.92-.84a.94.94,0,0,0-.3-.61l-.69-.69ZM556,91.3a1,1,0,0,0,.69-.53l2.14,2.14a.51.51,0,0,1-.53.38H558Zm1.53-16.63,1.91,1.91h-1.22l-1.91-1.91Zm1.68-14-1.91-2h1.22l1.91,2Zm.69,14,2,1.91h-1.22l-1.91-1.91Zm1.75-14-2-2h1.22l2,2Zm.69,14,2,1.91h-1.22l-2-1.91Zm1.75-14-2-2h1.22l1.91,2Zm1.68,15,.92.92h-1.22l-1.91-1.91h.08l.76.76a1.33,1.33,0,0,0,.92.31A1,1,0,0,0,565.74,75.66Zm.69-15-1.91-2h1.22l1.91,2Zm0,14.42a2.23,2.23,0,0,0,.15-.69v-.31L568.49,76v1.22Zm.15-8.24,1.91,1.91V70l-1.91-2Zm1.91,5.49-1.91-1.91V69.25l1.91,2Zm-1.91-.69,1.91,1.91v1.22l-1.91-1.91Zm.08,4.88,1,1h-.08Zm2.14-16.86c.08,0,.15-.08.23-.15l2.06,2.14a.47.47,0,0,1-.53-.08l-.92-.92h-.76l-.92-.92h.3A1.49,1.49,0,0,0,568.79,59.72Zm2.67,1.14-2-2a.57.57,0,0,0,.08-.38v-.76l1.91,2Zm-1.91-9.16v-.23c.15.08,1.68,1.6,1.75,1.68a1.09,1.09,0,0,1,.15.46Zm1.91,4.35-1.91-1.91V52.93l1.91,1.91Zm0,2.44-1.91-2V55.29l1.91,2Z" transform="translate(0 -42.94)" style="fill:#3f56a4"/><path d="M581.31,59.33l2.14,2.21h-.08a.51.51,0,0,1-.76,0l-1.83-1.83a1.61,1.61,0,0,0,.46-.31Zm2.75,1.6-2.14-2.21h1.14l2,1.91h-.69Zm2.21-.31-2-1.91h1.22l1.91,1.91Zm2-.38-1.53-1.53h1.22l.3.3Zm.92,31.13,1.91,1.91H591l-.31-.15-1.75-1.75Zm3.05.61,1.3,1.3h-1.22l-1.91-1.91h1.14Zm3.66,1.3h-1.14l-1.91-1.91H594Zm.53-1.91,1.91,1.91H597.1l-1.91-1.91Zm1.22,0a1.22,1.22,0,0,0,.84-.38l2.14,2.14a.58.58,0,0,1-.31.15h-.76Zm.15-32.5,1.91,2v1.22l-1.91-2Zm0,2.44,1.91,2v1.14l-1.91-1.91Zm0,2.44,1.91,1.91v1.22L597.78,65Zm0,2.37,1.91,2v1.22l-1.91-2Zm1.91,4.42v1.14l-1.91-1.91V68.57Zm-1.91.46,1.91,1.91v1.22l-1.91-1.91Zm0,2.44,1.91,1.91v1.22l-1.91-2Zm0,2.37,1.91,2v1.14L597.78,77Zm0,2.44,1.91,1.91v1.22l-1.91-1.91Zm0,2.44,1.91,1.91v1.22l-1.91-2Zm0,2.36,1.68,1.68.23.31v1.14l-1.91-1.91Zm1.91,4.35v1.22l-1.91-1.91V85.5Zm-1.91.53,1.91,1.91v1.22l-.84-.84a1.19,1.19,0,0,0-.38-1.07l-.69-.76ZM600,58.72l1.91,1.91h-1.14l-2-1.91Zm2.44,0,1.91,1.91h-1.22l-1.91-1.91Zm3.43,1.07.92.84h-1.22l-1.91-1.91H604l.76.69a1.27,1.27,0,0,0,.92.38Zm3.05.61v.76c0,.15,0,.23-.08.3l-2.14-2.14a1.6,1.6,0,0,0,.3-.84Zm0-6-1.91-2v-1c.15.15,1.6,1.68,1.75,1.75a.58.58,0,0,1,.15.38ZM607,53.61l1.91,2v1.14L607,54.83Zm0,2.44L608.92,58v1.22L607,57.27Z" transform="translate(0 -42.94)" style="fill:#3f56a4"/></g></g></svg>