<?xml version="1.0" encoding="UTF-8" standalone="no"?>
<svg
   xmlns:dc="http://purl.org/dc/elements/1.1/"
   xmlns:cc="http://creativecommons.org/ns#"
   xmlns:rdf="http://www.w3.org/1999/02/22-rdf-syntax-ns#"
   xmlns:svg="http://www.w3.org/2000/svg"
   xmlns="http://www.w3.org/2000/svg"
   xmlns:sodipodi="http://sodipodi.sourceforge.net/DTD/sodipodi-0.dtd"
   xmlns:inkscape="http://www.inkscape.org/namespaces/inkscape"
   version="1.1"
   x="0px"
   y="0px"
   viewBox="0 0 100 125"
   style="enable-background:new 0 0 100 100;"
   xml:space="preserve"
   id="svg3841"
   sodipodi:docname="noun_692484_cc.svg"
   inkscape:version="0.92.2 5c3e80d, 2017-08-06"><metadata
     id="metadata3847"><rdf:RDF><cc:Work
         rdf:about=""><dc:format>image/svg+xml</dc:format><dc:type
           rdf:resource="http://purl.org/dc/dcmitype/StillImage" /><dc:title></dc:title></cc:Work></rdf:RDF></metadata><defs
     id="defs3845" /><sodipodi:namedview
     pagecolor="#ffffff"
     bordercolor="#666666"
     borderopacity="1"
     objecttolerance="10"
     gridtolerance="10"
     guidetolerance="10"
     inkscape:pageopacity="0"
     inkscape:pageshadow="2"
     inkscape:window-width="1216"
     inkscape:window-height="781"
     id="namedview3843"
     showgrid="false"
     inkscape:zoom="19.323814"
     inkscape:cx="51.113017"
     inkscape:cy="37.957077"
     inkscape:window-x="255"
     inkscape:window-y="77"
     inkscape:window-maximized="0"
     inkscape:current-layer="svg3841" /><path
     d="M49.89001,66.76996L48.56,68.39001l-1.19-0.97003c0.02002-0.02002,0.03003-0.02997,0.04999-0.04999  L48.69,65.79999L49.89001,66.76996z"
     id="path3793"
     style="fill:#0a58a5;fill-opacity:1" /><path
     d="M51.67999,64.57996l-1.32001,1.62006L49.13,65.19c0.02002-0.08002,0.02002-0.16003,0.02002-0.23999  c-0.01001-0.05005-0.02002-0.11005-0.04004-0.16003L49.13,64.76996L49.23999,64.62l0.03003-0.03003  c0.06,0.01001,0.12,0.02002,0.16998,0.01001C49.60999,64.57996,49.75,64.5,49.85999,64.38l0.63-0.78003L51.67999,64.57996z"
     id="path3795"
     style="fill:#0a58a5;fill-opacity:1" /><path
     d="M53.96002,69.60999c-0.87,1.06-2.5,1.15002-3.65002,0.21002l-0.95001-0.78003l1.32001-1.62l1.21002,0.98999  c0.16998,0.14001,0.41998,0.13,0.56-0.02997c0.13-0.16003,0.08002-0.41003-0.09003-0.55005l-1.20996-0.97998l1.32996-1.63  L53.42999,66C54.58002,66.94,54.82001,68.56,53.96002,69.60999z"
     id="path3797"
     style="fill:#0a58a5;fill-opacity:1" /><path
     d="M48.71997,65.16998L48.40002,65.56L47.13,67.13c-0.02002,0.01996-0.03998,0.03998-0.06,0.03998  c-0.09003,0.07001-0.21002,0.06-0.28998-0.01001L46.71997,67.12L46.63,67.22998l-0.28998-0.23999l0.04999-0.06L40.81,62.38V62.37  c-0.01001-0.02002-0.02002-0.04004-0.02997-0.06L40.69,62.08997c-0.01001-0.01996-0.03003-0.07996-0.06-0.17999  c-0.01001-0.04999-0.03003-0.10999-0.03998-0.20001v-0.00995c-0.02002-0.10004-0.04004-0.23004-0.05005-0.38  c-0.00995-0.17999-0.01996-0.39001-0.01996-0.63c0-0.70001,0.09998-1.35004,0.23999-1.92004  c0.02997-0.12,0.04999-0.21997,0.08997-0.32996c0-0.02002,0.01001-0.04999,0.02002-0.07001l1.25,1.02002L48.37,64.5l0.04999-0.06  l0.29999,0.23999L48.63,64.77997l0.08997,0.08002C48.78998,64.94,48.79999,65.07996,48.71997,65.16998z"
     id="path3799"
     style="fill:#0a58a5;fill-opacity:1" /><path
     d="M45.62,54.75c-0.15997,0.16998-0.32001,0.34998-0.48999,0.54999c-0.19,0.22998-0.35999,0.46002-0.5,0.67999  l-1.59998-1.31c0.09998-0.14001,0.20996-0.28998,0.32996-0.44c0.52002,0.02002,0.91003,0.09003,1.08002,0.13  C44.84003,54.45001,45.22998,54.57996,45.62,54.75z"
     id="path3801"
     style="fill:#0a58a5;fill-opacity:1" /><path
     d="M62.87,71.95001h-0.04999C62.5,71.90997,62.25,71.79999,62.09003,71.71997l-0.23004-0.16998v-0.01001  c0.06-0.37,0.07001-0.72998,0.03003-1.09998c-0.06-0.67004-0.27002-1.29004-0.60999-1.84003L62.13,69.29999l0.62,0.5  c0.06,0.03998,0.17999,0.12,0.37,0.14001C63.20001,70.44,63.19,71.14001,62.87,71.95001z"
     id="path3803"
     style="fill:#0a58a5;fill-opacity:1" /><path
     d="M74.42999,76.01001c-0.02002,1.5-0.51001,2.57996-0.60999,2.79999  c-0.42999,0.89996-0.95001,1.45996-1.56,2.12c-0.41003,0.42999-1.06,1.10999-2.12,1.77002  C70,82.78998,69.85999,82.87,69.72998,82.94c-0.07996,0.04999-0.16998,0.09998-0.26001,0.13995  c-0.92999,0.48004-1.66998,0.66003-1.85999,0.71002c-0.56,0.13-1.07001,0.20001-1.5,0.22003  c-0.08997,0-0.16998,0.00995-0.25,0.00995c-0.15997,0.01001-0.29999,0.01001-0.42999,0.01001  c-0.35999,0-0.97998-0.01001-1.77002-0.14996l-0.67999-0.52002h-0.01001l-0.00995-0.01001l-6.70001-5.20996  c0.37,0.02997,0.70996,0.03998,1.01001,0.02997c0.26996,0.02002,0.53998,0.03998,0.81,0.03998c0.07996,0,0.16998,0,0.25-0.00995  c0.19,0,0.37-0.01001,0.54999-0.04004l0.90997,0.73999C60,79.06,60.31,79.26996,60.69,79.5  c0.42999,0.26996,1.02997,0.64001,1.81,0.95001c1.15002,0.42999,2.09003,0.5,2.29999,0.50995  c0.58002,0.03003,1.38,0.08002,2.34003-0.23999c0.95996-0.32001,1.57001-0.85999,2.02997-1.26996  c0.27002-0.23004,0.54999-0.48004,0.81-0.77002c0.12-0.14001,0.23999-0.28998,0.34003-0.45001  c0.12-0.17999,0.21997-0.37,0.32001-0.58002c0.13-0.28998,0.51001-1.19995,0.34998-2.37  C70.84998,74.34998,70.44,73.72998,70.07001,73.13c-0.08002-0.12-0.15002-0.23004-0.23999-0.34003  C69.76001,72.69,69.69,72.59998,69.62,72.51001c-0.16998-0.21002-0.33002-0.39001-0.47998-0.54004l-0.19-0.19  c-0.06-0.06-0.12-0.10999-0.16998-0.15997l-0.30005-0.22998l-2.51996-1.96002L65.5,69.07001L63.81,67.75l-8.19-6.37l0.29999-0.37  L55.92999,61l0.09003-0.10999l-0.80005-0.65002l-0.09998,0.12L55.10999,60.37L54.81,60.75l-0.88-0.67999l-0.14001-0.12  c-1.13995-0.91003-2.29999-1.83002-3.44995-2.73004c-0.88-0.67999-1.76001-1.34998-2.61005-2  c-0.23999-0.20001-0.47998-0.39001-0.73999-0.56L46.94,54.63l-3.13-2.44c0.04999-0.08002,0.09998-0.17004,0.14001-0.25  c0.03998-0.07001,0.07001-0.13,0.10999-0.19c0.03003-0.04999,0.04999-0.09003,0.08002-0.14001  c0.06-0.10999,0.13-0.22998,0.20001-0.34003c0.17999-0.31995,0.37-0.64996,0.58997-1.00995  c0.06-0.10004,0.13-0.21002,0.17999-0.30005c0.07001-0.10999,0.14001-0.21997,0.20001-0.31995  c0.07001-0.11005,0.13-0.22003,0.20001-0.32001c0.08002-0.14001,0.16998-0.27002,0.25-0.40002  c0.08997-0.15002,0.17999-0.28998,0.27002-0.42999L54.87,55.70996L58.35999,58.56l3.67999,3.01001L62.10999,61.62l8.60999,7.02997  l0.29004,0.24005c0.13,0.10999,0.25,0.21997,0.35999,0.33997L71.58002,69.44c0.07001,0.06,0.13995,0.13,0.20001,0.20996  c0.12994,0.14001,0.25,0.27002,0.35999,0.41003c0.02997,0.02997,0.06,0.06,0.07996,0.08997  c0.06006,0.07001,0.12006,0.14001,0.17004,0.22003c0.12,0.14996,0.21997,0.28998,0.31,0.41998  c0.96997,1.39001,1.33997,2.66003,1.41998,2.92999C74.25,74.20996,74.45001,74.96997,74.42999,76.01001z"
     id="path3805"
     style="fill:#0a58a5;fill-opacity:1" /><path
     d="M41.27002,51.51996c-0.09003,0.15002-0.17999,0.31-0.27002,0.47003  c-0.13,0.22998-0.26001,0.46997-0.39001,0.71002l-0.45996-0.38l-0.04004-0.03003l0.12-0.15997l-0.13-0.11005l0.10004-0.12994  C40.62,51.69,40.98999,51.58997,41.27002,51.51996z"
     id="path3807"
     style="fill:#0a58a5;fill-opacity:1" /><path
     d="M45.90997,54.45996v0.01001c-0.00995,0-0.00995,0-0.00995,0c-0.41003-0.20001-0.87-0.37-1.38-0.47998  c-0.10004-0.02002-0.41003-0.08002-0.87-0.12c-0.22003-0.02002-0.47003-0.03003-0.74005-0.03003  c0.07001-0.13,0.14001-0.25,0.20001-0.37c0.16003-0.28998,0.31-0.57001,0.45001-0.82996l0.70001,0.53998L44.94,53.70001  l0.01001,0.00995L45.90997,54.45996z"
     id="path3809"
     style="fill:#0a58a5;fill-opacity:1" /><path
     d="M65.56,72.13c-0.28998,1.17999-0.87,1.94995-1.34003,2.54999  c-0.45996,0.58997-1.63995,2.06-3.76996,2.77002c-0.51001,0.16998-1,0.26996-1.46002,0.31995  C58.81,77.79999,58.64001,77.81,58.46997,77.82001h-0.00995c-0.20001,0.00995-0.40002,0.00995-0.58002,0H57.87  c-0.20001,0-0.39001-0.01001-0.56-0.03003c-0.60999,0.01001-1.15997-0.02997-1.63-0.09998l-0.10999-0.08002H55.62  c0.42999,0,0.84998-0.06,1.26001-0.19c0.01001,0,0.01001,0,0.01001,0c0.12-0.02997,0.22998-0.07001,0.33997-0.12  c0.13-0.04999,0.26001-0.09998,0.38-0.17999c0.12-0.04999,0.23999-0.12,0.35004-0.19c0.34998-0.22003,0.67999-0.5,0.95996-0.83002  c0.03003-0.02997,0.06-0.07001,0.09003-0.09998l0.33002-0.41003h0.00995c0.37-0.12,0.64001-0.25,0.80005-0.32001  C60.71002,75,61.87,74.45001,62.69,73.15997c0.10999-0.15997,0.38-0.59998,0.59003-1.20001  c0.18994-0.54999,0.32996-1.25995,0.20996-2.03998c0-0.03998,0-0.09003-0.01001-0.13c-0.02997-0.17999-0.14996-0.83002-0.57996-1.56  c-0.35004-0.58002-0.75-0.97998-1.03003-1.21997c-1.22998-1-2.46997-2-3.70001-3l4.91003,3.81l2.12,1.64996l0.45996,0.35999  C65.75,70.45001,65.78003,71.23999,65.56,72.13z"
     id="path3811"
     style="fill:#0a58a5;fill-opacity:1" /><path
     d="M88.14001,77.39996c0.17999,3.39001-1.19,7.38-4.01001,10.83002  c-3,3.67999-6.92999,5.85999-10.47003,6.16998l-0.00995,0.01001c-1.47003,0.13-2.68005,0.14001-3.58002,0.10999  c-1.33002-0.03998-2.08002-0.15997-2.27002-0.19C66.76001,94.15997,66,93.91998,65.53998,93.77997  C64.42999,93.42999,63.59003,93.06,63.10999,92.81C62.69,92.60999,62.17999,92.35999,61.56,91.95996  c0.10999,0.01001,0.23999,0.02002,0.39001,0.02002c0.12,0,0.23999-0.01001,0.37-0.02002C62.65997,91.94,63.12,91.88,63.60999,91.62  C64,91.44,64.23999,91.22998,64.56,90.91998c0.37-0.32001,0.59998-0.62,0.73999-0.79999  c0.16003-0.22003,0.35999-0.51001,0.54999-0.96002c0.10004-0.22998,0.23004-0.54999,0.27002-0.96997  c0.01001-0.02002,0.09003-0.54004-0.09998-1.26001c-0.09003-0.35004-0.23004-0.66998-0.42004-0.98999l-0.14996-0.21002  c3.83997,2.25,8.75,1.54999,11.51996-1.84998c3.08002-3.77002,2.40002-9.42004-1.5-12.67999  C75.47998,71.19,75.47998,71.19,75.47998,71.19L75.38,71.10999c-0.03998-0.03003-0.09003-0.07001-0.14001-0.09998L71.58002,68.19  L71.5,68.13l-0.29999-0.23004c-1.35999-1.07001-3.37-2.58997-5.83002-4.38995c-0.47998-0.35004-0.95001-0.69-1.39001-1.01001  L59.87,59.14001L59.84003,59.12L46.29999,48.07001c0.19-0.30005,0.39001-0.61005,0.60999-0.95001l0.98004-1.53003  c0.90997-1.40997,1.39001-2.17999,1.82001-2.85999c0.44-0.70001,0.81-1.28998,1.52997-2.40002  c0.53003-0.82996,1.13-1.75,1.79004-2.75c0.06995-0.09998,0.13995-0.20996,0.21997-0.31995l0.01001,0.00995  c2.02002,1.85004,2.57001,2.39001,7.32001,6.90002c4.75,4.5,4.03998,3.79999,6.70996,6.33002  c2.74005,2.62,3.79004,3.64001,5.85004,5.53998c1.87,1.72003,3.42999,3.12,4.45996,4.02002  c0.09003,0.08002,0.19,0.16998,0.28003,0.25c0.02997,0.02997,0.06,0.04999,0.08002,0.07001  c1.07996,0.96997,2.07996,1.85999,2.96997,2.64996c0.77002,0.71002,1.38,1.27002,2.15002,2.10004  c0.42999,0.46997,0.85999,0.92999,1.34998,1.58997c1.07001,1.41003,1.66003,2.66003,2,3.39001  c0.25,0.53003,0.67999,1.47998,1.04999,2.78003c0.29004,1.01996,0.61005,2.46997,0.65002,4.22998  C88.14001,77.21997,88.14001,77.31,88.14001,77.39996z"
     id="path3813"
     style="fill:#0a58a5;fill-opacity:1" /><path
     d="M51.39001,35.57001c-0.07001,0.10999-0.14001,0.21997-0.21002,0.32001  c-0.67999,1.01996-1.33997,2.01996-1.97998,3C48.09003,40.56,47.94,40.79999,47.37,41.70996  c-0.46002,0.75-1.21002,1.95001-3.02002,4.77002l-12.39996-10.13c0,0,0,0-0.01001-0.01001  c-2.09003-1.69995-4.73999-2.5-7.45001-2.23999c-0.39996,0.04004-0.78998,0.10004-1.16998,0.19  C23.12,34.32996,22.90997,34.38,22.71002,34.45001c-1.36005-0.55005-2.07001-0.82001-2.56-0.97003  c-0.91003-0.26001-1.67004-0.35999-2.05005-0.40002c-0.44-0.03998-1.26996-0.10999-2.27997,0.03003  c-0.38647,0.05357-0.84184,0.16923-1.11338,0.23266C14.26094,33.44675,13.89192,33.5461,13.63,33.62  C10.55737,36.02127,9.48962,36.25226,9.12,35.94c-1.29333-1.09259,4.28879-10.2485,10-17.23999  c6.87-8.41003,13.54999-14.35004,14.89001-13.25c0.58002,0.46997,0.08997,2.12994-1.17999,4.53998  c0.08997,0.08002-0.15002,0.40997-0.23999,1.35999c-0.05005,0.59003-0.01001,1.06,0.01996,1.34003  c0.09003,0.95996,0.33002,1.64996,0.54004,2.28998c0.28998,0.84003,0.58997,1.44,0.79999,1.84998  c0.19,0.39001,0.64001,1.26001,1.39996,2.31006c0.43005,0.62994,0.80005,1.08997,1.61005,2.01996  c1.10999,1.31,1.78998,2.09003,2.91998,3.32001c0.77997,0.83002,1.79999,1.91003,3.08997,3.21002  C43.88,28.60999,45.37,30.08997,49,33.40997C50.25,34.54999,50.83002,35.07001,51.39001,35.57001z"
     id="path3815"
     style="fill:#0a58a5;fill-opacity:1" /><path
     d="M63.41998,87.95001c0,0.00995,0,0.00995,0,0.00995c-0.21997,0.39001-0.44,0.63-0.56,0.75  c-0.13,0.13-0.22998,0.24005-0.32001,0.33002c-0.13995,0.12-0.25995,0.19-0.41998,0.22998  c-0.15002,0.04004-0.28998,0.03003-0.40997-0.00995C61.63,89.25,61.57001,89.22998,61.51001,89.20996l-0.25-0.19995L51.19,80.89996  l1.56-1.90997l9.66998,7.71997l0.44,0.35004L63.25,87.37c0.03998,0.04999,0.09998,0.13,0.14001,0.26001  C63.44,87.77997,63.41998,87.90997,63.41998,87.95001z"
     id="path3817"
     style="fill:#0a58a5;fill-opacity:1" /><path
     d="M44.08002,46.89996C44,47.03998,43.90997,47.17999,43.81,47.32996  c-0.12,0.18005-0.23999,0.37006-0.35999,0.57001C43.38,48,43.31,48.10999,43.23999,48.21997  c-0.04999,0.08002-0.10999,0.17004-0.15997,0.25c0,0-0.01001,0.02002-0.04004,0.07001c-0.12,0.17999-0.47998,0.76001-1,1.64001  c-0.07996,0.14001-0.16998,0.27997-0.25,0.44l-6.69995-5.21002l-6.05005-4.70996l-0.00995,0.00995  c-2.33002-1.91998-5.81006-1.56-7.72003,0.78003l-1.5,1.83002c-1.90997,2.33997-1.56,5.82001,0.78003,7.73999l1.31,1.07001l5,3.88  l1,0.76996l1.25,0.97003c0.00995,0.14001,0.06995,0.27997,0.17999,0.37l0.12,0.08997c0.13,0.11005,0.28998,0.14001,0.44,0.11005  L31.38,59.47998c-0.10999,0.16998-0.14001,0.35999-0.10999,0.53998c0.01996,0.13,0.07996,0.26001,0.15997,0.37006l-0.13,0.14996  l1.10004,0.91003L32.51001,61.31l0.14001,0.10999l0.12-0.15002l2.87,2.34003L35.47998,63.81c0,0-0.06,0.07001-0.13995,0.08002  c0,0-0.01001,0-0.02002,0c-0.06,0-0.10999-0.03003-0.12-0.03003l-2.53003-2.08002c-1.26001-0.98999-3.13995-0.73999-4.19,0.57001  c-0.29999,0.39001-0.51996,0.84003-0.62,1.31c-0.03998,0.19-0.06,0.38-0.07001,0.58002l-9.42999-7.77002  c-0.85999-0.73999-1.51996-1.44-1.98999-2.01001C15.95001,53.96997,15.47998,53.38,15,52.53998  c-0.35999-0.62-0.63-1.21002-0.81-1.73999c-0.04999-0.14001-0.10999-0.28998-0.15997-0.42999  c-0.04004-0.10004-0.07001-0.20001-0.10004-0.29999c-0.95001-3.01001-0.41998-6.44,1.71002-9.06l2.38-2.90002  c1.31-1.59998,3.01001-2.66998,4.85999-3.19c0.20001-0.06,0.40002-0.10999,0.60999-0.15002  c0.16998-0.03998,0.35004-0.06995,0.53003-0.09998c0.16998-0.02997,0.33997-0.04999,0.51996-0.07001  c2.47003-0.23999,5.03003,0.45001,7.09003,2.13c0.12,0.10999,0.26001,0.22003,0.38,0.33002l0.01001-0.01001L44.08002,46.89996z"
     id="path3819"
     style="fill:#0a58a5;fill-opacity:1" /><path
     d="M38.98999,68.01996c0.02002,0.02002-0.03998,0-0.10999-0.01996  c-0.06-0.02002-0.10999-0.03003-0.15002-0.04004c-0.07001-0.00995-0.13-0.01996-0.19-0.03998  c-0.20996-0.04999-0.42999-0.20001-0.60999-0.45001c-0.20001-0.28998-0.33002-0.72998-0.14001-1.14996  c0.11005-0.21002,0.24005-0.29004,0.34003-0.36005c0.07001-0.03998,0.10999-0.06995,0.16998-0.14996  c0-0.01001,0.01001-0.01001,0.01001-0.02002l-0.70001-0.56L37.09003,65.87c-0.41003,0.33997-0.82001,0.54999-1.26001,0.63  c-0.66003,0.14996-1.20001-0.01001-1.59003-0.12c-0.46997-0.15002-0.84998-0.34003-1.20001-0.58002l-2.14996-1.72998  c-0.04999-0.04004-0.10004-0.04004-0.13-0.04004c-0.03003,0-0.08002,0.01001-0.12,0.06  C30.60999,64.13,30.59003,64.19,30.59998,64.23999c0,0.02997,0.01001,0.08002,0.06,0.12l1.91003,1.54999l17.82001,14.35004  L51.94,78.34998L38.98999,68.01996z"
     id="path3821"
     style="fill:#0a58a5;fill-opacity:1" /><path
     d="M65.76001,88.13c-0.04999,0.40997-0.16998,0.69-0.26001,0.91998  c-0.17999,0.40002-0.37,0.66998-0.51001,0.84998c-0.06,0.08002-0.27997,0.39001-0.67999,0.74005  c-0.29999,0.28998-0.51001,0.47998-0.84998,0.63995c-0.48004,0.23999-0.91003,0.29004-1.17004,0.31  C61.88,91.63,61.56,91.57996,61.38,91.54999c-0.15002-0.02002-0.33002-0.03998-0.53998-0.09998  C60.77002,91.42999,60.70001,91.40997,60.62,91.38c-0.06-0.02002-0.12-0.05005-0.19-0.08002  c-0.16998-0.08002-0.29999-0.15997-0.56-0.33002c-0.32001-0.19-0.58002-0.39001-0.78998-0.54999L46.67999,80.44L46.28998,80.12  L29.19,66.35999l-0.09998-0.09003c-0.31-0.25-0.54004-0.54999-0.69-0.87994c-0.13-0.27002-0.20001-0.55005-0.23004-0.84003  c-0.01001-0.21002-0.01001-0.40997,0.02002-0.62c0.07001-0.47003,0.27002-0.94,0.59003-1.34003  c0.92999-1.15997,2.56-1.38,3.65997-0.51001l2.45001,2c0.01996,0.03003,0.20996,0.21002,0.48999,0.18005  c0.22998-0.03003,0.35999-0.18005,0.38-0.20001l0.16998-0.21002l0.28998,0.23999L37.03003,64.75l0.28998,0.23999L36.79999,65.63  c-0.20001,0.15997-0.54999,0.40997-1.03998,0.51001C35.15002,66.26996,34.65002,66.10999,34.28003,66  c-0.25-0.08002-0.62006-0.23004-1.03003-0.51001l-0.21002-0.16998L31.13,63.77997c-0.23999-0.20001-0.59003-0.15997-0.78003,0.08002  c-0.19995,0.22998-0.16998,0.59003,0.07001,0.78998l0.09003,0.07001l1.83002,1.48004l17.81995,14.33997l-0.23999,0.28998  L49.88,80.88l0.78998,0.64996l0.04999-0.06l0.23004-0.28998l9.45001,7.60999l0.63,0.51001l0.28998,0.23999  c0.03998,0.02002,0.07001,0.03003,0.12,0.04999c0.15002,0.05005,0.34998,0.10004,0.59003,0.07001  c0.06,0,0.12-0.01001,0.17999-0.01996c0.37-0.09003,0.59998-0.33002,0.92999-0.67004  c0.16998-0.16998,0.39001-0.45001,0.59998-0.82001c0.04004-0.09998,0.10004-0.32996,0.02002-0.60999  c0-0.01001-0.01001-0.02002-0.01001-0.02997c-0.06-0.19-0.15997-0.33002-0.22998-0.40002l-0.03003-0.03003l-0.39996-0.31  l-0.44-0.34998l-9.67004-7.71002l0.23999-0.28998L53.26001,78.37l-0.79999-0.65002l-0.05005,0.06l-0.22998,0.29004  l-12.52002-9.98004l-0.44-0.35999c-0.04999-0.02002-0.12994-0.06-0.21997-0.08997c-0.09003-0.03003-0.15002-0.04004-0.21002-0.05005  c-0.04999,0-0.08997-0.01001-0.13-0.02997c-0.25995-0.04999-0.40997-0.28003-0.42999-0.32001  c-0.13995-0.20001-0.21997-0.51001-0.09998-0.76001c0.10999-0.21997,0.27997-0.16998,0.46997-0.44l0.29004,0.22998l4.52997,3.70001  l-0.04999,0.06l0.87,0.72003L44.38,70.57996c0.14001,0.03003,0.28998,0,0.40997-0.06995  c0.07001-0.03003,0.13-0.09003,0.17999-0.15002L45.06,70.25l2.48999,2.03998L48.13,72.76001L52.85999,76.62  c0.27002,0.21997,0.56,0.40997,0.85999,0.54999v0.01001c0.05005,0.02002,0.10004,0.03998,0.15002,0.06  C53.88,77.25,53.89001,77.25,53.90002,77.26001c0.19,0.07996,0.38,0.13995,0.56995,0.19  c0.05005,0.01996,0.09003,0.02997,0.13,0.02997c0.01001,0.01001,0.01001,0.01001,0.01001,0.01001  c0.07001,0.02002,0.14001,0.02997,0.20001,0.03998l0.65002,0.52002h0.00995l4.88,3.90002l0.10004,0.06995l1.95001,1.57001  l0.00995,0.01001h0.01001l0.70001,0.56L63.94,84.81l0.77002,0.62C64.72998,85.45001,64.75,85.46997,64.78003,85.5  c0.09998,0.09998,0.20996,0.22998,0.32996,0.39001c0.06,0.07996,0.12,0.15997,0.17999,0.25995  c0.25,0.42004,0.34003,0.78003,0.37,0.88C65.81,87.59998,65.77002,88.03998,65.76001,88.13z"
     id="path3823"
     style="fill:#0a58a5;fill-opacity:1" /><path
     d="M61.52002,71.27997c-0.08002,0.76001-0.37,1.5-0.88,2.13l-1.5,1.85004H59.13l-0.41003,0.50995  c-0.13995,0.17004-0.28998,0.32001-0.44995,0.46002c-0.19,0.17999-0.40002,0.33002-0.62,0.45001  c-0.11005,0.07001-0.23004,0.13-0.35004,0.19c-0.13,0.04999-0.26001,0.10999-0.39996,0.14996c0,0,0,0-0.01001,0  c-0.57001,0.20001-1.19,0.25-1.79004,0.18005c-0.00995,0-0.01996-0.01001-0.02997-0.01001  c-0.02002,0-0.03998-0.01001-0.04999-0.01001L55.03003,77.19c-0.02002-0.01001-0.04004-0.01001-0.06006-0.01001  c-0.10999-0.02002-0.20996-0.03998-0.31995-0.07001c-0.22003-0.04999-0.43005-0.12-0.63-0.21002c-0.01001,0-0.01001,0-0.01001,0  c-0.13-0.06-0.25-0.12-0.37-0.19c-0.07001-0.03998-0.14001-0.07996-0.21002-0.13c-0.04999-0.02997-0.08997-0.06-0.13-0.08997  C53.25,76.45996,53.20001,76.41998,53.15997,76.38c-0.01996-0.01001-0.03998-0.02002-0.06-0.04004l-0.37-0.29999l-3.87-3.15997  L48.37,72.46997h-0.01001l-0.27997-0.22998L47.78998,72l-1.07001-0.87l-1.42999-1.17004l0.01001-0.00995l-0.28998-0.23004H45  l-0.28998-0.23999l-0.37-0.29999l-3.16003-2.58002c-0.17999-0.13-0.39996-0.32001-0.65997-0.56  C40.44,65.95996,40.34998,65.87,40.25,65.76996c-0.03998-0.03998-0.08002-0.08997-0.12-0.13995c0,0-0.01001-0.01001-0.02002-0.01001  c-0.01001-0.01001-0.01001-0.01001-0.01996-0.02002c-0.13-0.14001-0.27002-0.31-0.39001-0.48999  c-0.09003-0.09998-0.16003-0.21002-0.23004-0.32001c-0.07996-0.09998-0.14996-0.21002-0.20996-0.32001  c-0.26001-0.41998-0.5-0.89996-0.67999-1.44c-0.04004-0.12-0.08002-0.23999-0.10004-0.34998  C38.44,62.56,38.40997,62.44,38.39001,62.32001c-0.03003-0.13-0.06-0.25-0.07001-0.38  c-0.02002-0.07001-0.03003-0.13-0.03003-0.20001c-0.01996-0.07001-0.01996-0.13-0.01996-0.20001  c-0.02002-0.10999-0.03003-0.21997-0.03003-0.33002c-0.01001-0.12-0.02002-0.23999-0.02002-0.35999c0-0.01001,0-0.01001,0-0.01001  c0-0.01001,0-0.01001,0-0.01001c0-0.00995,0-0.00995,0-0.00995v-0.10004c0-0.14996,0-0.29999,0.01001-0.45001  c0-0.01996,0-0.03998,0.01001-0.06c0-0.13995,0.01001-0.26996,0.03003-0.39996c0.01001-0.25,0.03998-0.48004,0.07001-0.69  c0.08997-0.66003,0.22998-1.25,0.48999-1.92999c0.02997-0.12,0.07996-0.23999,0.13-0.37  c0.04999-0.11005,0.08997-0.23004,0.14996-0.35004v-0.01001c0.04999-0.10999,0.10004-0.21997,0.15002-0.33997  c0.04999-0.10999,0.10999-0.22998,0.15997-0.35004c0.10004-0.19995,0.20001-0.39996,0.31-0.62  c0.10004-0.19995,0.21002-0.40997,0.32001-0.63c0.10004-0.17999,0.19-0.35999,0.29999-0.56  c0.02002-0.02997,0.04004-0.06995,0.06-0.10999c0.04004-0.08002,0.09003-0.15997,0.13-0.23999  c0.06-0.12,0.12-0.22998,0.17999-0.34003c0.06006-0.10999,0.13-0.21997,0.19-0.32996c0.20001-0.38,0.41003-0.73999,0.60004-1.08002  c0.08002-0.15002,0.15997-0.28998,0.23999-0.42999c0.03003-0.04999,0.04999-0.09003,0.08002-0.14001  c0.04999-0.08997,0.09998-0.17999,0.14996-0.26001c0.04004-0.06,0.07001-0.12,0.11005-0.17999  c0.07996-0.14996,0.16998-0.28998,0.25-0.42999c0.50995-0.88,0.87994-1.46997,1.00995-1.66998  c0.03003-0.04999,0.05005-0.08002,0.05005-0.08002c0.04999-0.08002,0.09998-0.15997,0.14996-0.23999  c0.07001-0.10999,0.14001-0.22003,0.21002-0.32001c0.12-0.19,0.22998-0.37,0.33997-0.53998  c0.10004-0.15002,0.19-0.29004,0.28003-0.42999c0.08997-0.15002,0.19-0.29004,0.27002-0.43005  c4.01996-6.28998,2.84998-4.56995,4.85999-7.62c0.57001-0.87,1.21997-1.85999,1.95001-2.94995  c0.06-0.10004,0.13-0.20001,0.20996-0.31006c0.06-0.09998,0.14001-0.20996,0.21002-0.31995c0.87-1.31,1.84998-2.76001,2.90002-4.31  c-0.02002-0.18005,0-0.44,0.16998-0.61005c0.02997-0.03998,0.07001-0.07001,0.10999-0.07996  c0.03003-0.02002,0.06-0.04004,0.09003-0.04004c0.06-0.02997,0.10999-0.04999,0.14996-0.10999  c0.04004-0.04999,0.07001-0.09998,0.08002-0.19l0.01001-0.01001L55.38,30.14996c-0.08002-0.21997-0.14001-0.44995-0.14001-0.69995  c0-0.01001-0.01001-0.01001-0.01001-0.01001c0.01001-0.01001,0-0.02002,0-0.02002c-0.01001-0.64001,0.19-1.34998,0.65002-1.98999  c0.04999-0.06,0.08997-0.13,0.15002-0.20001c-0.17004-0.44-0.17004-0.88,0.04999-1.19c0.5-0.67999,1.83997-0.53998,3.01001,0.29999  l0.06,0.05005c1.12,0.82996,1.63995,2.01996,1.16998,2.69995c-0.19,0.27002-0.52002,0.41003-0.94,0.44  c-0.04999,0.10004-0.12,0.17999-0.17999,0.28003C58.72998,30.45001,58.12,30.88,57.5,31.06l-0.02002,0.01001  c-0.17999,0.04999-0.37,0.07996-0.53998,0.07996c0,0.01001-0.02002,0.01001-0.02002,0.01001  c-0.09998,0.04999-0.15997,0.10004-0.19,0.16003C56.67999,31.40997,56.70001,31.5,56.69,31.59998  c0.01001,0.07001,0.01001,0.13-0.02002,0.20001C56.59003,32.01996,56.37,32.14996,56.19,32.22998  c-1.12,1.63-2.14001,3.13-3.02002,4.46002c-0.07001,0.09998-0.13995,0.20996-0.20001,0.31  c-0.07996,0.10999-0.14996,0.20996-0.20996,0.32001c-0.71002,1.07001-1.33002,2.01996-1.83002,2.81  c-1.40997,2.16998-1.5,2.37-3.35999,5.26001c-0.66003,1.02997-1.14001,1.76996-1.56,2.43994  c-0.10004,0.14001-0.19,0.28003-0.27002,0.42004c-0.09998,0.14001-0.19,0.28998-0.27997,0.42999  c-0.09003,0.14001-0.17004,0.27997-0.26001,0.42999C45.13,49.20996,45.07001,49.32001,45,49.42999  c-0.06,0.09998-0.13,0.20001-0.19,0.31c-0.07001,0.09998-0.13,0.21002-0.20001,0.32001  c-0.23999,0.39996-0.45001,0.76001-0.64996,1.10999c-0.07001,0.12-0.14001,0.22998-0.20001,0.34998  C43.69,51.63,43.63,51.75,43.57001,51.85999c-0.02002,0.03003-0.03998,0.07001-0.06,0.09998  c-0.08002,0.14001-0.16003,0.29004-0.25,0.44c-0.17999,0.33002-0.37,0.67999-0.58002,1.07001c-0.06,0.12-0.13,0.25-0.20001,0.38  c-0.04999,0.08002-0.08997,0.16998-0.13995,0.26001c-0.02002,0.03998-0.04004,0.08002-0.07001,0.13  C42.25,54.28998,42.21997,54.33997,42.19,54.39001c-0.01001,0.01996-0.02002,0.03998-0.03003,0.06  c-0.06995,0.12-0.12,0.22998-0.17999,0.32996c-0.51001,0.95001-0.79999,1.56-1.04999,2.22003  c-0.04999,0.12-0.08997,0.23999-0.14001,0.37c0,0.02002-0.00995,0.04999-0.01996,0.07001  c-0.03003,0.08997-0.07001,0.19-0.10004,0.28998V57.75c-0.02997,0.07996-0.06,0.15997-0.08997,0.23999  c-0.01001,0.03998-0.02002,0.08002-0.04004,0.12c0,0.03003-0.00995,0.04999-0.01996,0.07001  C40.5,58.28998,40.46997,58.39001,40.44,58.5v0.01001c-0.16998,0.64996-0.29999,1.38-0.29999,2.17999  c0,0.26001,0.01001,0.47998,0.02997,0.66998c0.02002,0.22998,0.04999,0.40997,0.08002,0.56  c0.03998,0.14001,0.07001,0.25,0.09998,0.31c-0.00995,0.01001,0,0.03998,0.01001,0.06c0,0,0.04004,0.10999,0.12,0.27002  c0,0.01001,0.01001,0.01996,0.02002,0.02997l0.01001,0.01001v0.01001c0.10999,0.23999,0.29999,0.59003,0.59998,0.94L41.13,63.57001  c0.13,0.16998,0.26001,0.31,0.44,0.44995l4.72998,3.87006L46.31,67.89996L46.66998,68.19l1.23004,1.01001l-0.23004,0.27997  l-0.08997,0.10999l0.23999,0.19l0.56,0.46002l0.08002-0.09998l0.23999-0.29004l0.5,0.41003L49.5,70.5l0.28998,0.23999  l0.49005,0.40002l3.85999,3.14996c0.01001,0.01001,0.01001,0.01001,0.01996,0.01001  c0.34003,0.27002,0.74005,0.42999,1.16003,0.46997c0.71997,0.08002,1.46002-0.19,1.95001-0.78998l1.32996-1.64001  c0.77002-0.94,0.62-2.34998-0.31995-3.12l-5.44-4.44l0.23999-0.28998l0.07996-0.09998L52.37,63.73999l-0.08997,0.09998  L52.04999,64.13l-1.19-0.97003L51.09003,62.87l0.37-0.45001C51.59998,62.25,51.63,62.01996,51.53998,61.81L51.69,61.63  l-0.59003-0.47003l-0.33997-0.17999l-4.56-3.71997H46.19l-0.02002-0.02002l-0.70001-0.58002  c0.09003,0.01001,0.17004,0.03003,0.23004,0.04004c0.41998,0.07996,0.72998,0.23999,1.02997,0.39996  c0.29004,0.15002,0.52002,0.32001,0.95001,0.60999c0.20001,0.14001,0.37,0.26001,0.47998,0.34003l5.31,4.33002l-0.07996,0.09998  L54.19,63.13l0.08002-0.09003l5.81,4.73999c0.25,0.21002,0.46997,0.44,0.65997,0.69  C61.34998,69.27997,61.62,70.29999,61.52002,71.27997z"
     id="path3825"
     style="fill:#0a58a5;fill-opacity:1" /><path
     d="M51.16998,62.17999l-0.37,0.45001L50.56,62.91998l-0.22998,0.28998l-0.13,0.16003l-0.63,0.77002  c-0.09003,0.10999-0.25,0.12-0.35004,0.02997l-0.06-0.03998l-0.08997,0.10999L48.78003,64l0.04999-0.06l-6.25-5.11005  l-1.42004-1.15997l-0.06-0.04999c0.01001-0.02002,0.01001-0.04004,0.02002-0.06c0.03998-0.10999,0.07001-0.21002,0.12-0.31  c0.25-0.70001,0.54999-1.31,1.04004-2.23004c0.04999-0.09998,0.10999-0.20996,0.17999-0.32996L42.81,54.97998l1.60999,1.31  c-0.01001,0.01001-0.01996,0.03003-0.02997,0.03998l0.06-0.00995l0.40997,0.32996l0.46002,0.38L50.81,61.51001l0.06-0.06  L51.15997,61.69l-0.07996,0.09998L51.13,61.82996C51.22998,61.90997,51.25,62.07996,51.16998,62.17999z"
     id="path3827"
     style="fill:#0a58a5;fill-opacity:1" /><path
     d="M44.77002,70.01001L44.67999,70.12c-0.07001,0.08997-0.17999,0.10999-0.27002,0.08002  c-0.02997-0.02002-0.04999-0.03003-0.06995-0.05005l-0.06-0.03998L44.19,70.21997l-0.28998-0.23999l0.04999-0.06l-1.38-1.13  l-0.08002-0.06L39.06,65.92999v-0.01001l-0.31-0.23999l-0.29999-0.25L37.84998,64.94L37.56,64.70001L36.15997,63.56L35.87,63.32996  L32.71997,60.75l-0.12,0.14001l-0.13995-0.11005L32.38,60.88l-0.03003,0.03998l-0.51996-0.42999l0.01996-0.02002L31.94,60.35999  l-0.15002-0.12c-0.15997-0.14001-0.19995-0.34998-0.10999-0.53003c0.01001-0.02997,0.03003-0.06,0.04999-0.08997l0.25-0.31  L32.25,58.97998l-1.77002-1.45001L30.19,57.89001c-0.01001,0.00995-0.01001,0.00995-0.02002,0.01996  c-0.07996,0.07001-0.19,0.07001-0.27997,0.01001c-0.04999,0.04999-0.14001,0.06-0.20001,0l-0.12-0.09003  c-0.04999-0.04999-0.06-0.12994-0.03003-0.18994C29.46002,57.57001,29.44,57.46997,29.48999,57.38  c0-0.01001,0.01001-0.03003,0.02002-0.04004l1.20001-1.47998c0.07996-0.09003,0.21997-0.10999,0.31-0.03998  c0.06-0.04004,0.13995-0.03003,0.19,0l0.10999,0.09998c0.06,0.03998,0.08002,0.13,0.04999,0.19  c0.08002,0.08002,0.09998,0.21002,0.02002,0.31l-0.29004,0.34998L32.87,58.21997l0.53003-0.64996  c0.10999-0.13,0.28998-0.19,0.44995-0.15002c0.06,0.02002,0.12,0.04999,0.17004,0.09003l0.14996,0.12l0.10004-0.13L34.38,57.35999  L34.23999,57.25c-0.04999-0.04004-0.08997-0.09003-0.12-0.15002c-0.08002-0.14996-0.06-0.33002,0.04999-0.46997l0.53003-0.64001  l-1.78003-1.45001L32.63,54.89996c-0.07001,0.09003-0.20001,0.09003-0.29999,0.03003c-0.04999,0.04999-0.13,0.04999-0.20001,0  l-0.12-0.10004c-0.04999-0.03998-0.06-0.12-0.03003-0.18994C31.89001,54.57001,31.88,54.44,31.95001,54.34998L33.15997,52.87  c0.07001-0.09003,0.21002-0.10999,0.30005-0.04004c0.06-0.03998,0.13995-0.03998,0.19,0l0.12,0.10004  c0.04999,0.03998,0.07996,0.13,0.03998,0.19c0.08002,0.08002,0.09998,0.20996,0.02002,0.31l-0.29004,0.34998l1.78003,1.45001  l0.52997-0.65002c0.11005-0.12994,0.28003-0.18994,0.44-0.14996c0.06,0.02002,0.12,0.04999,0.17004,0.08997l0.14996,0.12006  l0.10004-0.13L36.82001,54.37l-0.14001-0.12c-0.06-0.04004-0.09998-0.09003-0.12-0.15002  c-0.07001-0.14996-0.04999-0.32001,0.06-0.45996L37.14001,53l-1.78003-1.45001l-0.28998,0.35999C35,52,34.87,52,34.77002,51.94  c-0.05005,0.03998-0.13,0.04999-0.20001,0l-0.12-0.10004c-0.04999-0.03998-0.06-0.12-0.02002-0.19  c-0.09998-0.07001-0.10999-0.19995-0.02997-0.29999L35.59998,49.88c0.07001-0.09003,0.21002-0.11005,0.30005-0.04004  c0.06-0.03998,0.13995-0.03998,0.19,0l0.12,0.10004c0.04999,0.03998,0.07996,0.12,0.03998,0.19  c0.09003,0.07996,0.09998,0.20996,0.03003,0.29999l-0.30005,0.35999l1.78003,1.45001l0.52997-0.65002  c0.15002-0.17999,0.42004-0.21997,0.61005-0.06l0.14996,0.12l0.10004-0.13L39.51001,51.81l0.16998,0.14001l-0.10999,0.12  l0.08997,0.07996L39.71002,52.19l-0.13,0.14996l0.20996,0.17004l0.63,0.51996c-0.06,0.11005-0.12,0.22003-0.17999,0.33002  C40.19,53.46997,40.13,53.57001,40.07001,53.67999c-0.10004,0.19-0.20001,0.38-0.29999,0.56  c-0.12,0.22998-0.23004,0.45001-0.34003,0.65997v0.01001c-0.10999,0.22003-0.21002,0.41998-0.31,0.60999  c-0.02997,0.07001-0.06,0.13-0.08002,0.19v0.01001c-0.02997,0.04999-0.06,0.10999-0.07001,0.16003l-0.04999-0.05005L38.62,55.59998  l-0.27997-0.23999L37.75,54.89001l-0.15002-0.13l-0.12,0.14996l-0.01001-0.01001l-0.12-0.09998l-0.12,0.14001L37.13,55.06  l0.13,0.10999l0.01001,0.01001l-0.13,0.14996l0.14996,0.13l0.56,0.45001l0.29004,0.23999l0.28998,0.24005l0.22998,0.17999  c-0.06,0.13-0.09998,0.25-0.13995,0.37c-0.30005,0.76001-0.45001,1.40997-0.55005,2.13  c-0.00995,0.04999-0.01996,0.10999-0.01996,0.16998v0.02002c-0.01001,0.08997-0.03003,0.15997-0.04004,0.25995  C37.90002,59.65997,37.88,59.81,37.87,59.96997l-0.15997-0.13l-0.49005-0.38995V59.44L35.63,58.14001L35.31,57.88L35.32001,57.87  l-0.03003-0.03003c0,0.01001-0.00995,0.02002-0.00995,0.02002l-0.12006-0.09998l-0.12,0.13995l-0.12-0.08997v-0.01001  l-0.01996-0.01001l-0.11005,0.14001L34.69,58.06l0.13,0.10999l-0.12,0.15002l0.15997,0.13l0.38,0.31L35.69,59.13l2.08002,1.69  l0.01001,0.01996l0.06995,0.05005c-0.00995,0.00995-0.00995,0.02997,0,0.04999c0,0.13995,0.01001,0.29999,0.02002,0.45996  c0.02002,0.21002,0.03998,0.42999,0.09003,0.66003c0.00995,0.12,0.03998,0.25,0.07001,0.37  c0.02997,0.12,0.06,0.23999,0.09998,0.35999v0.01001c0.02002,0.12,0.06,0.22998,0.09998,0.34998  c0.19,0.57001,0.44,1.09003,0.73004,1.54004c-0.01001-0.01001-0.01001,0-0.02002,0.01996L39,64.75  c0.03998,0.08997,0.09998,0.17999,0.15997,0.26001c0.07001,0.09998,0.14001,0.20996,0.22003,0.29999  c0.20001,0.27997,0.41998,0.52997,0.64001,0.75c0.23999,0.26001,0.47998,0.46997,0.69995,0.65997  c0.08002,0.06,0.15002,0.12,0.22003,0.17004l0.09003,0.06995l0.07996,0.07001l2,1.63l1.12,0.91998l0.23999,0.20001  L44.77002,70.01001z"
     id="path3829"
     style="fill:#0a58a5;fill-opacity:1" /><polygon
     points="52.90997,78.39996 52.78003,78.54999 52.54999,78.83997 51,80.73999 50.76001,81.02997   50.64001,81.17999 50.22998,80.84998 50.34998,80.70001 50.59003,80.40997 52.14001,78.51001 52.37,78.22998 52.5,78.07001 "
     id="polygon3831"
     style="fill:#0a58a5;fill-opacity:1" /><polygon
     points="52.81,64.41998 52.65002,64.62 52.40997,64.90997 52.28003,65.06 50.96002,66.69 50.48999,67.26001   49.15997,68.88 48.75,69.39001 48.51001,69.69 48.5,69.69 48.34003,69.89001 47.97998,69.58997 47.94,69.56 48.09998,69.35999   48.34003,69.07001 48.76001,68.54999 50.08002,66.92999 50.54999,66.35999 51.88,64.72998 52,64.57996 52.23999,64.28998   52.40002,64.08997 "
     id="polygon3833"
     style="fill:#0a58a5;fill-opacity:1" /><polygon
     points="55.66998,60.91998 55.41998,61.22998 55.38,61.26996 55.15002,61.56 55.09998,61.60999   54.90997,61.84998 54.31,62.57996 54.15002,62.77997 53.73999,62.45001 53.90002,62.25 54.5,61.51996 54.69,61.28998   54.73999,61.21997 54.97998,60.94 55,60.89996 55.26001,60.58997 "
     id="polygon3835"
     style="fill:#0a58a5;fill-opacity:1" /></svg>