<svg xmlns="http://www.w3.org/2000/svg" viewBox="0 0 17.26 23"><title>Ort</title><g id="Layer_2" data-name="Layer 2"><g id="Layer_1-2" data-name="Layer 1"><path d="M9.55,21a35.65,35.65,0,0,0,2.76-3.06,17.54,17.54,0,0,0,3.82-7.36,7.94,7.94,0,0,0,.14-1.43A7.9,7.9,0,0,0,8.63,1,7.9,7.9,0,0,0,1,9.1a7.94,7.94,0,0,0,.14,1.43A17.54,17.54,0,0,0,5,17.89,35.65,35.65,0,0,0,7.71,21c.33.33.63.62.91.87C8.92,21.57,9.22,21.28,9.55,21ZM17.26,9.1a8.94,8.94,0,0,1-.15,1.61,18.45,18.45,0,0,1-4,7.8,36.63,36.63,0,0,1-2.83,3.15c-.34.34-.65.63-.94.89L9,22.88a.5.5,0,0,1-.65,0l-.36-.32c-.28-.26-.6-.56-.94-.89a36.63,36.63,0,0,1-2.83-3.15,18.45,18.45,0,0,1-4-7.8A8.94,8.94,0,0,1,0,9.1,8.9,8.9,0,0,1,8.63,0,8.9,8.9,0,0,1,17.26,9.1ZM8.63,12A3.33,3.33,0,1,0,5.3,8.63,3.33,3.33,0,0,0,8.63,12Z" style="fill:#125aa3"/><circle cx="8.63" cy="8.39" r="3.58" style="fill:#125aa3"/></g></g></svg>