<svg xmlns="http://www.w3.org/2000/svg" viewBox="0 0 102.24 103.03"><defs><style>.cls-1,.cls-2{fill:none;stroke:#0a58a5;stroke-miterlimit:10;}.cls-1{stroke-width:5px;}.cls-2{stroke-width:2px;}</style></defs><title>Asset 5</title><g id="Layer_2" data-name="Layer 2"><g id="Layer_1-2" data-name="Layer 1"><path class="cls-1" d="M97.75,2.52H4.45c-1.11,0-1.95-.21-1.95.9v75c0,1.11.91,3.89,1.95,3.89H54.74l14.6,17.07c1.95,2.35,3.15.84,3.15-2.24V82.31H97.67c1.11,0,2.06-2.78,2.06-3.89v-75C99.81,2.3,98.88,2.52,97.75,2.52Z"/><path class="cls-2" d="M71.81,45.62A6.67,6.67,0,1,0,78.47,39,6.67,6.67,0,0,0,71.81,45.62Z"/><path class="cls-2" d="M16.52,45.62A6.67,6.67,0,1,0,23.19,39,6.67,6.67,0,0,0,16.52,45.62Z"/><path class="cls-2" d="M44.16,45.62A6.67,6.67,0,1,0,50.83,39,6.67,6.67,0,0,0,44.16,45.62Z"/></g></g></svg>