<svg id="Layer_1" data-name="Layer 1" xmlns="http://www.w3.org/2000/svg" viewBox="0 0 100 100"><title>wegweiser_otf</title><line x1="50.8" y1="98.82" x2="50.8" y2="35.81" style="fill:#1a57a5;stroke:#1a57a5;stroke-miterlimit:10;stroke-width:10px"/><path d="M55.88,63.3H94.52V37.63H55.88V33.68H78L95.36,20.8,78,8.11H55.88V2H45.73V8.11H7.09V33.78H45.73v3.95H23.63v-.09L6.15,50.51,23.54,63.39H45.63M9.72,10.65H77.13L91,20.9,77.13,31.14H9.72Zm43.62-6V8.11h-5V4.63Zm0,29.14v3.95h-5V33.78Zm38.55,27H24.48L10.56,50.51,24.48,40.26H91.89Zm-43.62,26V63.3h5V86.8Z" style="fill:#1a57a5"/><line x1="50.8" y1="9.72" x2="50.8" y2="4.06" style="fill:#1a57a5;stroke:#1a57a5;stroke-miterlimit:10;stroke-width:6px"/><line x1="51.2" y1="38.64" x2="51.2" y2="32.99" style="fill:#1a57a5;stroke:#1a57a5;stroke-miterlimit:10;stroke-width:6px"/></svg>